;PTH Drill file created by EasyEDA 
M48
METRIC,LZ,000.000
;Holesize 1 = 0.635 METRIC
T01C0.635
;Holesize 2 = 0.650 METRIC
T02C0.650
;Holesize 3 = 0.702 METRIC
T03C0.702
;Holesize 4 = 0.712 METRIC
T04C0.712
;Holesize 5 = 0.889 METRIC
T05C0.889
;Holesize 6 = 0.901 METRIC
T06C0.901
;Holesize 7 = 1.016 METRIC
T07C1.016
;Holesize 8 = 1.301 METRIC
T08C1.301
%
G05
G90
T01
X035562Y012697
X035562Y010157
T02
X035562Y015237
T03
X017729Y017780
X012750Y017780
X029210Y029260
X029210Y034239
X016459Y033020
X011480Y033020
T04
X031750Y024130
X021590Y024130
X008890Y035560
X019050Y035560
X033022Y026668
X022862Y026668
X012702Y015238
X002542Y015238
X020322Y021588
X030482Y021588
X013972Y005078
X024132Y005078
T05
X035562Y019048
X016510Y029210
X013970Y029210
X011430Y029210
X008890Y029210
X008890Y021590
X011430Y021590
X013970Y021590
X016510Y021590
X002540Y026670
X002542Y024127
X035560Y026670
X035557Y024132
X002540Y021590
X035560Y021590
X021590Y002540
X019050Y002540
X016510Y002540
X013970Y002540
X011430Y002540
X008890Y002540
T06
X025400Y031846
X025400Y034386
T07
X013411Y007899
X006908Y007899
X013411Y012420
X006908Y012420
T08
X022898Y007699G85X022898Y007699
X025398Y017699G85X025398Y017699
X027899Y007699G85X027899Y007699
M30
