;PTH Drill file created by EasyEDA 
M48
METRIC,LZ,000.000
;Holesize 1 = 0.702 METRIC
T01C0.702
;Holesize 2 = 0.712 METRIC
T02C0.712
;Holesize 3 = 0.820 METRIC
T03C0.820
;Holesize 4 = 0.889 METRIC
T04C0.889
;Holesize 5 = 0.915 METRIC
T05C0.915
;Holesize 6 = 1.021 METRIC
T06C1.021
;Holesize 7 = 1.301 METRIC
T07C1.301
%
G05
G90
T01
X019138Y008687
X024041Y007822
X026672Y017829
X026672Y022807
X027355Y026034
X032334Y026034
T02
X012702Y015873
X012702Y026033
X015240Y026034
X025400Y026034
X032387Y013333
X032387Y023493
X007620Y015874
X007620Y026034
X029847Y023493
X029847Y013333
X010162Y015873
X010162Y026033
T03
X032385Y004919
X032385Y010319
T04
X001907Y021588
X001905Y019049
X036195Y021589
X036192Y019052
X024130Y015239
X024130Y017779
X024130Y020319
X024130Y022859
X016510Y022859
X016510Y020319
X016510Y017779
X016510Y015239
X036192Y016511
X001905Y003809
X001905Y006349
X001905Y008889
X001905Y011429
X001905Y013969
X001905Y016509
X031750Y001904
T05
X025402Y001903
X022862Y001903
X027942Y001903
T06
X035634Y005370
X029135Y005370
X035634Y009869
X029135Y009869
T07
X007659Y001985G85X007659Y001985
X010159Y011984G85X010159Y011984
X012661Y001985G85X012661Y001985
M30
