G04 ---------------------------- Layer name :TOP SOLDER LAYER*
G04 EasyEDA v5.7.26, Mon, 08 Oct 2018 11:37:22 GMT*
G04 9a8b5958ff4b4eb3b6fdbb1becb2a6af*
G04 Gerber Generator version 0.2*
G04 Scale: 100 percent, Rotated: No, Reflected: No *
G04 Dimensions in millimeters *
G04 leading zeros omitted , absolute positions ,3 integer and 3 decimal *
%FSLAX33Y33*%
%MOMM*%
G90*
G71D02*

%ADD12C,1.854200*%
%ADD13C,2.108200*%
%ADD14C,2.543200*%
%ADD15R,1.778000X1.778000*%
%ADD16R,1.803400X1.803400*%
%ADD17C,1.803400*%
%ADD18C,2.003196*%
%ADD19C,1.703197*%
%ADD20C,1.727200*%
%ADD21C,1.778000*%

%LPD*%
G54D12*
G01X19138Y8687D03*
G01X24041Y7822D03*
G01X26672Y17829D03*
G01X26672Y22807D03*
G54D13*
G01X12702Y15873D03*
G01X12702Y26033D03*
G01X15240Y26034D03*
G01X25400Y26034D03*
G54D14*
G01X7659Y1984D03*
G01X10160Y11984D03*
G01X12659Y1984D03*
G54D13*
G01X32387Y13333D03*
G01X32387Y23493D03*
G01X7620Y15874D03*
G01X7620Y26034D03*
G54D12*
G01X27355Y26034D03*
G01X32334Y26034D03*
G54D15*
G01X1907Y21588D03*
G01X1905Y19049D03*
G01X36195Y21589D03*
G01X36192Y19052D03*
G54D13*
G01X29847Y23493D03*
G01X29847Y13333D03*
G54D16*
G01X24130Y15239D03*
G54D17*
G01X24130Y17779D03*
G01X24130Y20319D03*
G01X24130Y22859D03*
G01X16510Y22859D03*
G01X16510Y20319D03*
G01X16510Y17779D03*
G01X16510Y15239D03*
G54D13*
G01X10162Y15873D03*
G01X10162Y26033D03*
G54D18*
G01X35634Y5370D03*
G01X29135Y5370D03*
G01X35634Y9869D03*
G01X29135Y9869D03*
G54D19*
G01X32385Y4919D03*
G01X32385Y10319D03*
G54D15*
G01X36192Y16511D03*
G54D20*
G01X25402Y1903D03*
G01X22862Y1903D03*
G01X27942Y1903D03*
G54D21*
G01X1905Y3809D03*
G01X1905Y6349D03*
G01X1905Y8889D03*
G01X1905Y11429D03*
G01X1905Y13969D03*
G54D15*
G01X1905Y16509D03*
G54D21*
G01X31750Y1904D03*
M00*
M02*
