G04 ---------------------------- Layer name :BOTTOM LAYER*
G04 EasyEDA v5.7.26, Fri, 05 Oct 2018 08:41:05 GMT*
G04 54122b58c75541d9af0cf1b90c5639c7*
G04 Gerber Generator version 0.2*
G04 Scale: 100 percent, Rotated: No, Reflected: No *
G04 Dimensions in millimeters *
G04 leading zeros omitted , absolute positions ,3 integer and 3 decimal *
%FSLAX33Y33*%
%MOMM*%
G90*
G71D02*

%ADD11C,0.508000*%
%ADD12C,0.635000*%
%ADD13C,1.778000*%
%ADD14R,1.574800X1.574800*%
%ADD15R,1.600200X1.600200*%
%ADD16C,1.600200*%
%ADD17C,1.905000*%
%ADD18C,1.651000*%
%ADD19R,2.743200X1.524000*%
%ADD20C,1.574800*%
%ADD21C,2.340000*%

%LPD*%
G36*
G01X10278Y29210D02*
G01X0Y29210D01*
G01X0Y38100D01*
G01X38100Y38100D01*
G01X38100Y29210D01*
G01X30385Y29210D01*
G01X30388Y29260D01*
G01X30382Y29378D01*
G01X30364Y29494D01*
G01X30335Y29608D01*
G01X30295Y29718D01*
G01X30244Y29824D01*
G01X30183Y29924D01*
G01X30112Y30018D01*
G01X30032Y30104D01*
G01X29944Y30181D01*
G01X29849Y30250D01*
G01X29747Y30309D01*
G01X29640Y30357D01*
G01X29529Y30394D01*
G01X29414Y30420D01*
G01X29298Y30435D01*
G01X29180Y30438D01*
G01X29063Y30429D01*
G01X28947Y30409D01*
G01X28834Y30377D01*
G01X28725Y30334D01*
G01X28620Y30281D01*
G01X28522Y30217D01*
G01X28430Y30144D01*
G01X28346Y30062D01*
G01X28270Y29972D01*
G01X28204Y29875D01*
G01X28148Y29771D01*
G01X28102Y29663D01*
G01X28068Y29551D01*
G01X28045Y29436D01*
G01X28033Y29319D01*
G01X28033Y29210D01*
G01X26004Y29210D01*
G01X26004Y30621D01*
G01X26293Y31080D01*
G01X26302Y31089D01*
G01X26373Y31182D01*
G01X26434Y31283D01*
G01X26485Y31388D01*
G01X26525Y31499D01*
G01X26554Y31613D01*
G01X26572Y31729D01*
G01X26578Y31846D01*
G01X26572Y31963D01*
G01X26554Y32079D01*
G01X26525Y32193D01*
G01X26485Y32304D01*
G01X26434Y32409D01*
G01X26373Y32510D01*
G01X26302Y32603D01*
G01X26222Y32689D01*
G01X26134Y32767D01*
G01X26039Y32836D01*
G01X25937Y32894D01*
G01X25830Y32943D01*
G01X25719Y32980D01*
G01X25604Y33006D01*
G01X25488Y33021D01*
G01X25370Y33024D01*
G01X25253Y33015D01*
G01X25137Y32995D01*
G01X25024Y32963D01*
G01X24915Y32920D01*
G01X24810Y32866D01*
G01X24712Y32803D01*
G01X24620Y32729D01*
G01X24536Y32647D01*
G01X24460Y32557D01*
G01X24394Y32460D01*
G01X24338Y32357D01*
G01X24292Y32249D01*
G01X24258Y32137D01*
G01X24235Y32022D01*
G01X24223Y31905D01*
G01X24223Y31787D01*
G01X24235Y31670D01*
G01X24258Y31555D01*
G01X24292Y31443D01*
G01X24338Y31335D01*
G01X24394Y31232D01*
G01X24460Y31135D01*
G01X24502Y31085D01*
G01X24795Y30621D01*
G01X24795Y29210D01*
G01X17660Y29210D01*
G01X17660Y30010D01*
G01X17659Y30022D01*
G01X17659Y30034D01*
G01X17658Y30046D01*
G01X17656Y30058D01*
G01X17654Y30070D01*
G01X17652Y30082D01*
G01X17649Y30094D01*
G01X17646Y30106D01*
G01X17642Y30118D01*
G01X17639Y30129D01*
G01X17634Y30141D01*
G01X17629Y30152D01*
G01X17624Y30163D01*
G01X17619Y30174D01*
G01X17613Y30185D01*
G01X17606Y30195D01*
G01X17600Y30205D01*
G01X17593Y30215D01*
G01X17585Y30225D01*
G01X17578Y30235D01*
G01X17570Y30244D01*
G01X17561Y30253D01*
G01X17553Y30261D01*
G01X17544Y30270D01*
G01X17535Y30278D01*
G01X17525Y30285D01*
G01X17515Y30293D01*
G01X17505Y30300D01*
G01X17495Y30306D01*
G01X17485Y30313D01*
G01X17474Y30319D01*
G01X17463Y30324D01*
G01X17452Y30329D01*
G01X17441Y30334D01*
G01X17429Y30339D01*
G01X17418Y30342D01*
G01X17406Y30346D01*
G01X17394Y30349D01*
G01X17382Y30352D01*
G01X17370Y30354D01*
G01X17358Y30356D01*
G01X17346Y30358D01*
G01X17334Y30359D01*
G01X17322Y30359D01*
G01X17310Y30360D01*
G01X15709Y30360D01*
G01X15697Y30359D01*
G01X15685Y30359D01*
G01X15673Y30358D01*
G01X15661Y30356D01*
G01X15649Y30354D01*
G01X15637Y30352D01*
G01X15625Y30349D01*
G01X15613Y30346D01*
G01X15601Y30342D01*
G01X15590Y30339D01*
G01X15578Y30334D01*
G01X15567Y30329D01*
G01X15556Y30324D01*
G01X15545Y30319D01*
G01X15534Y30313D01*
G01X15524Y30306D01*
G01X15514Y30300D01*
G01X15504Y30293D01*
G01X15494Y30285D01*
G01X15484Y30278D01*
G01X15475Y30270D01*
G01X15466Y30261D01*
G01X15458Y30253D01*
G01X15449Y30244D01*
G01X15441Y30235D01*
G01X15434Y30225D01*
G01X15426Y30215D01*
G01X15419Y30205D01*
G01X15413Y30195D01*
G01X15406Y30185D01*
G01X15400Y30174D01*
G01X15395Y30163D01*
G01X15390Y30152D01*
G01X15385Y30141D01*
G01X15380Y30129D01*
G01X15377Y30118D01*
G01X15373Y30106D01*
G01X15370Y30094D01*
G01X15367Y30082D01*
G01X15365Y30070D01*
G01X15363Y30058D01*
G01X15361Y30046D01*
G01X15360Y30034D01*
G01X15360Y30022D01*
G01X15359Y30010D01*
G01X15359Y29210D01*
G01X15122Y29210D01*
G01X15116Y29324D01*
G01X15099Y29438D01*
G01X15071Y29549D01*
G01X15032Y29657D01*
G01X14982Y29761D01*
G01X14922Y29859D01*
G01X14852Y29950D01*
G01X14774Y30035D01*
G01X14688Y30111D01*
G01X14595Y30178D01*
G01X14495Y30235D01*
G01X14391Y30282D01*
G01X14282Y30319D01*
G01X14170Y30345D01*
G01X14056Y30359D01*
G01X13941Y30362D01*
G01X13826Y30353D01*
G01X13713Y30333D01*
G01X13602Y30302D01*
G01X13495Y30260D01*
G01X13393Y30208D01*
G01X13297Y30145D01*
G01X13207Y30074D01*
G01X13125Y29993D01*
G01X13051Y29905D01*
G01X12986Y29811D01*
G01X12931Y29710D01*
G01X12886Y29604D01*
G01X12852Y29494D01*
G01X12830Y29381D01*
G01X12818Y29267D01*
G01X12818Y29210D01*
G01X12582Y29210D01*
G01X12576Y29324D01*
G01X12559Y29438D01*
G01X12531Y29549D01*
G01X12492Y29657D01*
G01X12442Y29761D01*
G01X12382Y29859D01*
G01X12312Y29950D01*
G01X12234Y30035D01*
G01X12148Y30111D01*
G01X12055Y30178D01*
G01X11955Y30235D01*
G01X11851Y30282D01*
G01X11742Y30319D01*
G01X11630Y30345D01*
G01X11516Y30359D01*
G01X11401Y30362D01*
G01X11286Y30353D01*
G01X11173Y30333D01*
G01X11062Y30302D01*
G01X10955Y30260D01*
G01X10853Y30208D01*
G01X10757Y30145D01*
G01X10667Y30074D01*
G01X10585Y29993D01*
G01X10511Y29905D01*
G01X10446Y29811D01*
G01X10391Y29710D01*
G01X10346Y29604D01*
G01X10312Y29494D01*
G01X10290Y29381D01*
G01X10278Y29267D01*
G01X10278Y29210D01*
G37*

%LPC*%
G36*
G01X9290Y30290D02*
G01X9290Y29610D01*
G01X9969Y29610D01*
G01X9952Y29657D01*
G01X9902Y29761D01*
G01X9842Y29859D01*
G01X9772Y29950D01*
G01X9694Y30035D01*
G01X9608Y30111D01*
G01X9515Y30178D01*
G01X9415Y30235D01*
G01X9311Y30282D01*
G01X9290Y30290D01*
G37*
G36*
G01X7851Y29710D02*
G01X7809Y29610D01*
G01X8489Y29610D01*
G01X8489Y30289D01*
G01X8415Y30260D01*
G01X8313Y30208D01*
G01X8217Y30145D01*
G01X8127Y30074D01*
G01X8045Y29993D01*
G01X7971Y29905D01*
G01X7906Y29811D01*
G01X7851Y29710D01*
G37*
G36*
G01X16312Y31851D02*
G01X16429Y31842D01*
G01X16547Y31845D01*
G01X16663Y31859D01*
G01X16778Y31885D01*
G01X16889Y31923D01*
G01X16996Y31971D01*
G01X17098Y32030D01*
G01X17193Y32098D01*
G01X17281Y32176D01*
G01X17361Y32262D01*
G01X17432Y32356D01*
G01X17493Y32456D01*
G01X17544Y32562D01*
G01X17584Y32672D01*
G01X17613Y32786D01*
G01X17631Y32902D01*
G01X17632Y32927D01*
G01X17752Y33459D01*
G01X18449Y34155D01*
G01X19107Y34257D01*
G01X19147Y34258D01*
G01X19276Y34274D01*
G01X19403Y34303D01*
G01X19526Y34345D01*
G01X19645Y34398D01*
G01X19758Y34463D01*
G01X19863Y34539D01*
G01X19961Y34625D01*
G01X20049Y34721D01*
G01X20128Y34824D01*
G01X20196Y34935D01*
G01X20252Y35053D01*
G01X20297Y35175D01*
G01X20329Y35301D01*
G01X20348Y35430D01*
G01X20355Y35560D01*
G01X20348Y35689D01*
G01X20329Y35818D01*
G01X20297Y35944D01*
G01X20252Y36066D01*
G01X20196Y36184D01*
G01X20128Y36295D01*
G01X20049Y36398D01*
G01X19961Y36494D01*
G01X19863Y36580D01*
G01X19758Y36656D01*
G01X19645Y36721D01*
G01X19526Y36774D01*
G01X19403Y36816D01*
G01X19276Y36845D01*
G01X19147Y36861D01*
G01X19017Y36864D01*
G01X18887Y36854D01*
G01X18759Y36832D01*
G01X18634Y36797D01*
G01X18513Y36749D01*
G01X18397Y36690D01*
G01X18288Y36619D01*
G01X18186Y36538D01*
G01X18093Y36447D01*
G01X18009Y36347D01*
G01X17936Y36240D01*
G01X17874Y36126D01*
G01X17823Y36006D01*
G01X17785Y35882D01*
G01X17759Y35754D01*
G01X17753Y35691D01*
G01X17612Y35027D01*
G01X16898Y34313D01*
G01X16363Y34192D01*
G01X16312Y34188D01*
G01X16197Y34168D01*
G01X16084Y34136D01*
G01X15974Y34093D01*
G01X15870Y34040D01*
G01X15771Y33976D01*
G01X15679Y33903D01*
G01X15595Y33821D01*
G01X15520Y33731D01*
G01X15453Y33634D01*
G01X15397Y33531D01*
G01X15352Y33422D01*
G01X15317Y33310D01*
G01X15294Y33195D01*
G01X15282Y33078D01*
G01X15282Y32961D01*
G01X15294Y32844D01*
G01X15317Y32729D01*
G01X15352Y32617D01*
G01X15397Y32508D01*
G01X15453Y32405D01*
G01X15520Y32308D01*
G01X15595Y32218D01*
G01X15679Y32136D01*
G01X15771Y32063D01*
G01X15870Y31999D01*
G01X15974Y31946D01*
G01X16084Y31903D01*
G01X16197Y31871D01*
G01X16312Y31851D01*
G37*
G36*
G01X11893Y32607D02*
G01X11893Y31917D01*
G01X11911Y31923D01*
G01X12018Y31971D01*
G01X12119Y32030D01*
G01X12215Y32098D01*
G01X12303Y32176D01*
G01X12383Y32262D01*
G01X12454Y32356D01*
G01X12515Y32456D01*
G01X12566Y32562D01*
G01X12582Y32607D01*
G01X11893Y32607D01*
G37*
G36*
G01X10996Y31946D02*
G01X11068Y31918D01*
G01X11068Y32607D01*
G01X10377Y32607D01*
G01X10419Y32508D01*
G01X10475Y32405D01*
G01X10541Y32308D01*
G01X10617Y32218D01*
G01X10701Y32136D01*
G01X10793Y32063D01*
G01X10891Y31999D01*
G01X10996Y31946D01*
G37*
G36*
G01X29622Y33826D02*
G01X29622Y33136D01*
G01X29640Y33142D01*
G01X29747Y33190D01*
G01X29849Y33249D01*
G01X29944Y33318D01*
G01X30032Y33395D01*
G01X30112Y33481D01*
G01X30183Y33575D01*
G01X30244Y33675D01*
G01X30295Y33781D01*
G01X30311Y33826D01*
G01X29622Y33826D01*
G37*
G36*
G01X28725Y33165D02*
G01X28797Y33137D01*
G01X28797Y33826D01*
G01X28107Y33826D01*
G01X28148Y33728D01*
G01X28204Y33624D01*
G01X28270Y33527D01*
G01X28346Y33437D01*
G01X28430Y33355D01*
G01X28522Y33282D01*
G01X28620Y33218D01*
G01X28725Y33165D01*
G37*
G36*
G01X25812Y33973D02*
G01X25812Y33283D01*
G01X25830Y33289D01*
G01X25937Y33338D01*
G01X26039Y33396D01*
G01X26134Y33465D01*
G01X26222Y33543D01*
G01X26302Y33629D01*
G01X26373Y33722D01*
G01X26434Y33823D01*
G01X26485Y33928D01*
G01X26501Y33973D01*
G01X25812Y33973D01*
G37*
G36*
G01X24915Y33312D02*
G01X24987Y33284D01*
G01X24987Y33973D01*
G01X24297Y33973D01*
G01X24338Y33875D01*
G01X24394Y33772D01*
G01X24460Y33675D01*
G01X24536Y33585D01*
G01X24620Y33503D01*
G01X24712Y33430D01*
G01X24810Y33366D01*
G01X24915Y33312D01*
G37*
G36*
G01X11893Y34122D02*
G01X11893Y33432D01*
G01X12582Y33432D01*
G01X12566Y33477D01*
G01X12515Y33583D01*
G01X12454Y33683D01*
G01X12383Y33777D01*
G01X12303Y33863D01*
G01X12215Y33941D01*
G01X12119Y34009D01*
G01X12018Y34068D01*
G01X11911Y34116D01*
G01X11893Y34122D01*
G37*
G36*
G01X10419Y33531D02*
G01X10377Y33432D01*
G01X11068Y33432D01*
G01X11068Y34121D01*
G01X10996Y34093D01*
G01X10891Y34040D01*
G01X10793Y33976D01*
G01X10701Y33903D01*
G01X10617Y33821D01*
G01X10541Y33731D01*
G01X10475Y33634D01*
G01X10419Y33531D01*
G37*
G36*
G01X35391Y34200D02*
G01X35527Y34190D01*
G01X35664Y34193D01*
G01X35799Y34210D01*
G01X35932Y34241D01*
G01X36062Y34284D01*
G01X36186Y34340D01*
G01X36304Y34408D01*
G01X36415Y34488D01*
G01X36517Y34578D01*
G01X36610Y34678D01*
G01X36692Y34787D01*
G01X36763Y34903D01*
G01X36823Y35026D01*
G01X36869Y35155D01*
G01X36903Y35287D01*
G01X36923Y35422D01*
G01X36930Y35558D01*
G01X36923Y35694D01*
G01X36903Y35829D01*
G01X36869Y35961D01*
G01X36823Y36090D01*
G01X36763Y36212D01*
G01X36692Y36329D01*
G01X36610Y36438D01*
G01X36517Y36538D01*
G01X36415Y36628D01*
G01X36304Y36708D01*
G01X36186Y36776D01*
G01X36062Y36832D01*
G01X35932Y36875D01*
G01X35799Y36906D01*
G01X35664Y36923D01*
G01X35527Y36926D01*
G01X35391Y36916D01*
G01X35257Y36892D01*
G01X35126Y36855D01*
G01X34999Y36805D01*
G01X34877Y36743D01*
G01X34763Y36669D01*
G01X34656Y36584D01*
G01X34558Y36489D01*
G01X34471Y36384D01*
G01X34394Y36272D01*
G01X34329Y36152D01*
G01X34276Y36026D01*
G01X34235Y35896D01*
G01X34208Y35762D01*
G01X34195Y35626D01*
G01X34195Y35490D01*
G01X34208Y35354D01*
G01X34235Y35220D01*
G01X34276Y35090D01*
G01X34329Y34964D01*
G01X34394Y34844D01*
G01X34471Y34732D01*
G01X34558Y34627D01*
G01X34656Y34532D01*
G01X34763Y34447D01*
G01X34877Y34373D01*
G01X34999Y34311D01*
G01X35126Y34261D01*
G01X35257Y34224D01*
G01X35391Y34200D01*
G37*
G36*
G01X2369Y34202D02*
G01X2505Y34191D01*
G01X2642Y34195D01*
G01X2777Y34212D01*
G01X2910Y34242D01*
G01X3039Y34286D01*
G01X3164Y34342D01*
G01X3282Y34410D01*
G01X3393Y34490D01*
G01X3495Y34580D01*
G01X3588Y34680D01*
G01X3670Y34789D01*
G01X3741Y34905D01*
G01X3801Y35028D01*
G01X3847Y35156D01*
G01X3881Y35288D01*
G01X3901Y35423D01*
G01X3908Y35560D01*
G01X3901Y35696D01*
G01X3881Y35831D01*
G01X3847Y35963D01*
G01X3801Y36091D01*
G01X3741Y36214D01*
G01X3670Y36330D01*
G01X3588Y36439D01*
G01X3495Y36539D01*
G01X3393Y36629D01*
G01X3282Y36709D01*
G01X3164Y36777D01*
G01X3039Y36833D01*
G01X2910Y36877D01*
G01X2777Y36907D01*
G01X2642Y36924D01*
G01X2505Y36928D01*
G01X2369Y36917D01*
G01X2235Y36894D01*
G01X2104Y36857D01*
G01X1977Y36807D01*
G01X1855Y36745D01*
G01X1741Y36671D01*
G01X1634Y36586D01*
G01X1536Y36490D01*
G01X1449Y36386D01*
G01X1372Y36273D01*
G01X1306Y36153D01*
G01X1253Y36028D01*
G01X1213Y35897D01*
G01X1186Y35763D01*
G01X1173Y35628D01*
G01X1173Y35491D01*
G01X1186Y35356D01*
G01X1213Y35222D01*
G01X1253Y35091D01*
G01X1306Y34966D01*
G01X1372Y34846D01*
G01X1449Y34733D01*
G01X1536Y34629D01*
G01X1634Y34533D01*
G01X1741Y34448D01*
G01X1855Y34374D01*
G01X1977Y34312D01*
G01X2104Y34262D01*
G01X2235Y34225D01*
G01X2369Y34202D01*
G37*
G36*
G01X8727Y34265D02*
G01X8857Y34255D01*
G01X8987Y34258D01*
G01X9116Y34274D01*
G01X9243Y34303D01*
G01X9366Y34345D01*
G01X9485Y34398D01*
G01X9598Y34463D01*
G01X9703Y34539D01*
G01X9801Y34625D01*
G01X9889Y34721D01*
G01X9968Y34824D01*
G01X10036Y34935D01*
G01X10092Y35053D01*
G01X10137Y35175D01*
G01X10169Y35301D01*
G01X10188Y35430D01*
G01X10195Y35560D01*
G01X10188Y35689D01*
G01X10169Y35818D01*
G01X10137Y35944D01*
G01X10092Y36066D01*
G01X10036Y36184D01*
G01X9968Y36295D01*
G01X9889Y36398D01*
G01X9801Y36494D01*
G01X9703Y36580D01*
G01X9598Y36656D01*
G01X9485Y36721D01*
G01X9366Y36774D01*
G01X9243Y36816D01*
G01X9116Y36845D01*
G01X8987Y36861D01*
G01X8857Y36864D01*
G01X8727Y36854D01*
G01X8599Y36832D01*
G01X8474Y36797D01*
G01X8353Y36749D01*
G01X8237Y36690D01*
G01X8128Y36619D01*
G01X8026Y36538D01*
G01X7933Y36447D01*
G01X7849Y36347D01*
G01X7776Y36240D01*
G01X7714Y36126D01*
G01X7663Y36006D01*
G01X7625Y35882D01*
G01X7599Y35754D01*
G01X7586Y35625D01*
G01X7586Y35494D01*
G01X7599Y35365D01*
G01X7625Y35237D01*
G01X7663Y35113D01*
G01X7714Y34993D01*
G01X7776Y34879D01*
G01X7849Y34772D01*
G01X7933Y34672D01*
G01X8026Y34581D01*
G01X8128Y34500D01*
G01X8237Y34429D01*
G01X8353Y34370D01*
G01X8474Y34322D01*
G01X8599Y34287D01*
G01X8727Y34265D01*
G37*
G36*
G01X29622Y35341D02*
G01X29622Y34651D01*
G01X30311Y34651D01*
G01X30295Y34696D01*
G01X30244Y34802D01*
G01X30183Y34902D01*
G01X30112Y34996D01*
G01X30032Y35082D01*
G01X29944Y35160D01*
G01X29849Y35228D01*
G01X29747Y35287D01*
G01X29640Y35335D01*
G01X29622Y35341D01*
G37*
G36*
G01X28148Y34750D02*
G01X28107Y34651D01*
G01X28797Y34651D01*
G01X28797Y35341D01*
G01X28725Y35313D01*
G01X28620Y35259D01*
G01X28522Y35195D01*
G01X28430Y35122D01*
G01X28346Y35040D01*
G01X28270Y34950D01*
G01X28204Y34853D01*
G01X28148Y34750D01*
G37*
G36*
G01X25812Y35489D02*
G01X25812Y34799D01*
G01X26501Y34799D01*
G01X26485Y34844D01*
G01X26434Y34949D01*
G01X26373Y35050D01*
G01X26302Y35143D01*
G01X26222Y35229D01*
G01X26134Y35307D01*
G01X26039Y35376D01*
G01X25937Y35434D01*
G01X25830Y35483D01*
G01X25812Y35489D01*
G37*
G36*
G01X24338Y34897D02*
G01X24297Y34799D01*
G01X24987Y34799D01*
G01X24987Y35488D01*
G01X24915Y35460D01*
G01X24810Y35406D01*
G01X24712Y35343D01*
G01X24620Y35269D01*
G01X24536Y35187D01*
G01X24460Y35097D01*
G01X24394Y35000D01*
G01X24338Y34897D01*
G37*

%LPD*%
G36*
G01X38100Y0D02*
G01X0Y0D01*
G01X0Y21590D01*
G01X7738Y21590D01*
G01X7738Y21532D01*
G01X7750Y21418D01*
G01X7773Y21305D01*
G01X7806Y21195D01*
G01X7851Y21089D01*
G01X7906Y20988D01*
G01X7971Y20894D01*
G01X8045Y20806D01*
G01X8127Y20725D01*
G01X8217Y20654D01*
G01X8313Y20591D01*
G01X8415Y20539D01*
G01X8522Y20497D01*
G01X8633Y20466D01*
G01X8746Y20446D01*
G01X8861Y20437D01*
G01X8976Y20440D01*
G01X9090Y20454D01*
G01X9202Y20480D01*
G01X9311Y20517D01*
G01X9415Y20564D01*
G01X9515Y20621D01*
G01X9608Y20688D01*
G01X9694Y20764D01*
G01X9772Y20849D01*
G01X9842Y20940D01*
G01X9902Y21038D01*
G01X9952Y21142D01*
G01X9991Y21250D01*
G01X10019Y21361D01*
G01X10036Y21475D01*
G01X10042Y21590D01*
G01X10042Y21590D01*
G01X10278Y21590D01*
G01X10278Y21532D01*
G01X10290Y21418D01*
G01X10313Y21305D01*
G01X10346Y21195D01*
G01X10391Y21089D01*
G01X10446Y20988D01*
G01X10511Y20894D01*
G01X10550Y20847D01*
G01X10761Y20505D01*
G01X8462Y18207D01*
G01X8451Y18195D01*
G01X8440Y18183D01*
G01X8429Y18171D01*
G01X8419Y18158D01*
G01X8409Y18145D01*
G01X8399Y18132D01*
G01X8390Y18118D01*
G01X8381Y18105D01*
G01X8372Y18091D01*
G01X8364Y18077D01*
G01X8356Y18062D01*
G01X8348Y18048D01*
G01X8341Y18033D01*
G01X8335Y18018D01*
G01X8328Y18003D01*
G01X8323Y17988D01*
G01X8317Y17972D01*
G01X8312Y17957D01*
G01X8308Y17941D01*
G01X8303Y17925D01*
G01X8300Y17909D01*
G01X8296Y17893D01*
G01X8293Y17877D01*
G01X8291Y17861D01*
G01X8289Y17845D01*
G01X8287Y17829D01*
G01X8286Y17812D01*
G01X8286Y17796D01*
G01X8286Y17780D01*
G01X8286Y14651D01*
G01X7845Y14210D01*
G01X6921Y13532D01*
G01X5537Y13532D01*
G01X5524Y13532D01*
G01X5512Y13531D01*
G01X5500Y13530D01*
G01X5488Y13529D01*
G01X5476Y13527D01*
G01X5464Y13524D01*
G01X5452Y13522D01*
G01X5440Y13519D01*
G01X5429Y13515D01*
G01X5417Y13511D01*
G01X5406Y13507D01*
G01X5394Y13502D01*
G01X5383Y13497D01*
G01X5372Y13491D01*
G01X5362Y13485D01*
G01X5351Y13479D01*
G01X5341Y13472D01*
G01X5331Y13465D01*
G01X5321Y13458D01*
G01X5312Y13450D01*
G01X5303Y13442D01*
G01X5294Y13434D01*
G01X5285Y13425D01*
G01X5277Y13416D01*
G01X5269Y13407D01*
G01X5261Y13398D01*
G01X5254Y13388D01*
G01X5247Y13378D01*
G01X5240Y13368D01*
G01X5234Y13357D01*
G01X5228Y13346D01*
G01X5222Y13336D01*
G01X5217Y13324D01*
G01X5212Y13313D01*
G01X5208Y13302D01*
G01X5204Y13290D01*
G01X5200Y13279D01*
G01X5197Y13267D01*
G01X5194Y13255D01*
G01X5192Y13243D01*
G01X5190Y13231D01*
G01X5189Y13219D01*
G01X5188Y13207D01*
G01X5187Y13194D01*
G01X5187Y13182D01*
G01X5187Y11658D01*
G01X5187Y11646D01*
G01X5188Y11634D01*
G01X5189Y11622D01*
G01X5190Y11609D01*
G01X5192Y11597D01*
G01X5194Y11585D01*
G01X5197Y11573D01*
G01X5200Y11562D01*
G01X5204Y11550D01*
G01X5208Y11538D01*
G01X5212Y11527D01*
G01X5217Y11516D01*
G01X5222Y11505D01*
G01X5228Y11494D01*
G01X5234Y11483D01*
G01X5240Y11473D01*
G01X5247Y11462D01*
G01X5254Y11452D01*
G01X5261Y11443D01*
G01X5269Y11433D01*
G01X5277Y11424D01*
G01X5285Y11415D01*
G01X5294Y11406D01*
G01X5303Y11398D01*
G01X5312Y11390D01*
G01X5321Y11382D01*
G01X5331Y11375D01*
G01X5341Y11368D01*
G01X5351Y11361D01*
G01X5362Y11355D01*
G01X5372Y11349D01*
G01X5383Y11344D01*
G01X5394Y11338D01*
G01X5406Y11334D01*
G01X5417Y11329D01*
G01X5429Y11325D01*
G01X5440Y11322D01*
G01X5452Y11319D01*
G01X5464Y11316D01*
G01X5476Y11313D01*
G01X5488Y11312D01*
G01X5500Y11310D01*
G01X5512Y11309D01*
G01X5524Y11308D01*
G01X5537Y11308D01*
G01X8280Y11308D01*
G01X8292Y11308D01*
G01X8304Y11309D01*
G01X8316Y11310D01*
G01X8329Y11312D01*
G01X8341Y11313D01*
G01X8353Y11316D01*
G01X8365Y11319D01*
G01X8376Y11322D01*
G01X8388Y11325D01*
G01X8400Y11329D01*
G01X8411Y11334D01*
G01X8422Y11338D01*
G01X8433Y11344D01*
G01X8444Y11349D01*
G01X8455Y11355D01*
G01X8465Y11361D01*
G01X8476Y11368D01*
G01X8486Y11375D01*
G01X8495Y11382D01*
G01X8505Y11390D01*
G01X8514Y11398D01*
G01X8523Y11406D01*
G01X8532Y11415D01*
G01X8540Y11424D01*
G01X8548Y11433D01*
G01X8556Y11443D01*
G01X8563Y11452D01*
G01X8570Y11462D01*
G01X8577Y11473D01*
G01X8583Y11483D01*
G01X8589Y11494D01*
G01X8594Y11505D01*
G01X8600Y11516D01*
G01X8604Y11527D01*
G01X8609Y11538D01*
G01X8613Y11550D01*
G01X8616Y11562D01*
G01X8616Y11562D01*
G01X9125Y11816D01*
G01X11194Y11816D01*
G01X11703Y11562D01*
G01X11703Y11562D01*
G01X11706Y11550D01*
G01X11710Y11538D01*
G01X11715Y11527D01*
G01X11719Y11516D01*
G01X11725Y11505D01*
G01X11730Y11494D01*
G01X11736Y11483D01*
G01X11742Y11473D01*
G01X11749Y11462D01*
G01X11756Y11452D01*
G01X11763Y11443D01*
G01X11771Y11433D01*
G01X11779Y11424D01*
G01X11787Y11415D01*
G01X11796Y11406D01*
G01X11805Y11398D01*
G01X11814Y11390D01*
G01X11824Y11382D01*
G01X11833Y11375D01*
G01X11843Y11368D01*
G01X11854Y11361D01*
G01X11864Y11355D01*
G01X11875Y11349D01*
G01X11886Y11344D01*
G01X11897Y11338D01*
G01X11908Y11334D01*
G01X11919Y11329D01*
G01X11931Y11325D01*
G01X11943Y11322D01*
G01X11954Y11319D01*
G01X11966Y11316D01*
G01X11978Y11313D01*
G01X11990Y11312D01*
G01X12003Y11310D01*
G01X12015Y11309D01*
G01X12027Y11308D01*
G01X12039Y11308D01*
G01X14782Y11308D01*
G01X14795Y11308D01*
G01X14807Y11309D01*
G01X14819Y11310D01*
G01X14831Y11312D01*
G01X14843Y11313D01*
G01X14855Y11316D01*
G01X14867Y11319D01*
G01X14879Y11322D01*
G01X14890Y11325D01*
G01X14902Y11329D01*
G01X14913Y11334D01*
G01X14925Y11338D01*
G01X14936Y11344D01*
G01X14947Y11349D01*
G01X14957Y11355D01*
G01X14968Y11361D01*
G01X14978Y11368D01*
G01X14988Y11375D01*
G01X14998Y11382D01*
G01X15007Y11390D01*
G01X15016Y11398D01*
G01X15025Y11406D01*
G01X15034Y11415D01*
G01X15042Y11424D01*
G01X15050Y11433D01*
G01X15058Y11443D01*
G01X15065Y11452D01*
G01X15072Y11462D01*
G01X15079Y11473D01*
G01X15085Y11483D01*
G01X15091Y11494D01*
G01X15097Y11505D01*
G01X15102Y11516D01*
G01X15107Y11527D01*
G01X15111Y11538D01*
G01X15115Y11550D01*
G01X15119Y11562D01*
G01X15122Y11573D01*
G01X15125Y11585D01*
G01X15127Y11597D01*
G01X15129Y11609D01*
G01X15130Y11622D01*
G01X15131Y11634D01*
G01X15132Y11646D01*
G01X15132Y11658D01*
G01X15132Y13182D01*
G01X15132Y13194D01*
G01X15131Y13207D01*
G01X15130Y13219D01*
G01X15129Y13231D01*
G01X15127Y13243D01*
G01X15125Y13255D01*
G01X15122Y13267D01*
G01X15119Y13279D01*
G01X15115Y13290D01*
G01X15111Y13302D01*
G01X15107Y13313D01*
G01X15102Y13324D01*
G01X15097Y13336D01*
G01X15091Y13346D01*
G01X15085Y13357D01*
G01X15079Y13368D01*
G01X15072Y13378D01*
G01X15065Y13388D01*
G01X15058Y13398D01*
G01X15050Y13407D01*
G01X15042Y13416D01*
G01X15034Y13425D01*
G01X15025Y13434D01*
G01X15016Y13442D01*
G01X15007Y13450D01*
G01X14998Y13458D01*
G01X14988Y13465D01*
G01X14978Y13472D01*
G01X14968Y13479D01*
G01X14957Y13485D01*
G01X14947Y13491D01*
G01X14936Y13497D01*
G01X14925Y13502D01*
G01X14913Y13507D01*
G01X14902Y13511D01*
G01X14890Y13515D01*
G01X14879Y13519D01*
G01X14867Y13522D01*
G01X14855Y13524D01*
G01X14843Y13527D01*
G01X14831Y13529D01*
G01X14819Y13530D01*
G01X14807Y13531D01*
G01X14795Y13532D01*
G01X14782Y13532D01*
G01X12039Y13532D01*
G01X12027Y13532D01*
G01X12015Y13531D01*
G01X12003Y13530D01*
G01X11990Y13529D01*
G01X11978Y13527D01*
G01X11966Y13524D01*
G01X11954Y13522D01*
G01X11943Y13519D01*
G01X11931Y13515D01*
G01X11919Y13511D01*
G01X11908Y13507D01*
G01X11897Y13502D01*
G01X11886Y13497D01*
G01X11875Y13491D01*
G01X11864Y13485D01*
G01X11854Y13479D01*
G01X11843Y13472D01*
G01X11833Y13465D01*
G01X11824Y13458D01*
G01X11814Y13450D01*
G01X11805Y13442D01*
G01X11796Y13434D01*
G01X11787Y13425D01*
G01X11779Y13416D01*
G01X11771Y13407D01*
G01X11763Y13398D01*
G01X11756Y13388D01*
G01X11749Y13378D01*
G01X11742Y13368D01*
G01X11736Y13357D01*
G01X11730Y13346D01*
G01X11725Y13336D01*
G01X11719Y13324D01*
G01X11715Y13313D01*
G01X11710Y13302D01*
G01X11706Y13290D01*
G01X11703Y13279D01*
G01X11703Y13278D01*
G01X11195Y13024D01*
G01X9124Y13024D01*
G01X8728Y13222D01*
G01X9063Y13721D01*
G01X9317Y13974D01*
G01X9328Y13986D01*
G01X9339Y13998D01*
G01X9350Y14010D01*
G01X9360Y14023D01*
G01X9370Y14036D01*
G01X9380Y14049D01*
G01X9389Y14062D01*
G01X9398Y14076D01*
G01X9407Y14090D01*
G01X9415Y14104D01*
G01X9423Y14118D01*
G01X9431Y14133D01*
G01X9438Y14148D01*
G01X9444Y14163D01*
G01X9451Y14178D01*
G01X9456Y14193D01*
G01X9462Y14208D01*
G01X9467Y14224D01*
G01X9471Y14240D01*
G01X9476Y14256D01*
G01X9479Y14271D01*
G01X9483Y14287D01*
G01X9486Y14304D01*
G01X9488Y14320D01*
G01X9490Y14336D01*
G01X9492Y14352D01*
G01X9493Y14369D01*
G01X9493Y14385D01*
G01X9493Y14401D01*
G01X9493Y17529D01*
G01X11857Y19892D01*
G01X11868Y19904D01*
G01X11879Y19916D01*
G01X11890Y19928D01*
G01X11900Y19941D01*
G01X11910Y19954D01*
G01X11920Y19967D01*
G01X11929Y19981D01*
G01X11938Y19994D01*
G01X11947Y20008D01*
G01X11955Y20022D01*
G01X11963Y20037D01*
G01X11971Y20051D01*
G01X11978Y20066D01*
G01X11984Y20081D01*
G01X11991Y20096D01*
G01X11996Y20111D01*
G01X12002Y20127D01*
G01X12007Y20142D01*
G01X12011Y20158D01*
G01X12016Y20174D01*
G01X12019Y20190D01*
G01X12023Y20206D01*
G01X12026Y20222D01*
G01X12028Y20238D01*
G01X12030Y20254D01*
G01X12032Y20270D01*
G01X12033Y20287D01*
G01X12033Y20303D01*
G01X12033Y20320D01*
G01X12033Y20401D01*
G01X12306Y20841D01*
G01X12312Y20849D01*
G01X12382Y20940D01*
G01X12442Y21038D01*
G01X12492Y21142D01*
G01X12531Y21250D01*
G01X12559Y21361D01*
G01X12576Y21475D01*
G01X12582Y21590D01*
G01X12582Y21590D01*
G01X12818Y21590D01*
G01X12818Y21532D01*
G01X12830Y21418D01*
G01X12853Y21305D01*
G01X12886Y21195D01*
G01X12931Y21089D01*
G01X12986Y20988D01*
G01X13051Y20894D01*
G01X13125Y20806D01*
G01X13207Y20725D01*
G01X13297Y20654D01*
G01X13393Y20591D01*
G01X13495Y20539D01*
G01X13602Y20497D01*
G01X13713Y20466D01*
G01X13826Y20446D01*
G01X13941Y20437D01*
G01X14056Y20440D01*
G01X14170Y20454D01*
G01X14282Y20480D01*
G01X14391Y20517D01*
G01X14495Y20564D01*
G01X14595Y20621D01*
G01X14688Y20688D01*
G01X14774Y20764D01*
G01X14852Y20849D01*
G01X14922Y20940D01*
G01X14982Y21038D01*
G01X15032Y21142D01*
G01X15071Y21250D01*
G01X15099Y21361D01*
G01X15116Y21475D01*
G01X15122Y21590D01*
G01X15122Y21590D01*
G01X15358Y21590D01*
G01X15358Y21532D01*
G01X15370Y21418D01*
G01X15393Y21305D01*
G01X15426Y21195D01*
G01X15471Y21089D01*
G01X15526Y20988D01*
G01X15591Y20894D01*
G01X15665Y20806D01*
G01X15747Y20725D01*
G01X15837Y20654D01*
G01X15933Y20591D01*
G01X16035Y20539D01*
G01X16142Y20497D01*
G01X16253Y20466D01*
G01X16366Y20446D01*
G01X16481Y20437D01*
G01X16596Y20440D01*
G01X16710Y20454D01*
G01X16822Y20480D01*
G01X16931Y20517D01*
G01X17035Y20564D01*
G01X17135Y20621D01*
G01X17228Y20688D01*
G01X17314Y20764D01*
G01X17392Y20849D01*
G01X17462Y20940D01*
G01X17522Y21038D01*
G01X17572Y21142D01*
G01X17611Y21250D01*
G01X17639Y21361D01*
G01X17656Y21475D01*
G01X17662Y21590D01*
G01X17662Y21590D01*
G01X19004Y21590D01*
G01X19021Y21498D01*
G01X19031Y21393D01*
G01X19057Y21266D01*
G01X19095Y21142D01*
G01X19146Y21022D01*
G01X19208Y20907D01*
G01X19281Y20800D01*
G01X19365Y20700D01*
G01X19458Y20609D01*
G01X19560Y20528D01*
G01X19669Y20458D01*
G01X19785Y20398D01*
G01X19906Y20351D01*
G01X20031Y20316D01*
G01X20159Y20293D01*
G01X20289Y20283D01*
G01X20419Y20287D01*
G01X20548Y20303D01*
G01X20675Y20332D01*
G01X20798Y20373D01*
G01X20917Y20427D01*
G01X21030Y20492D01*
G01X21135Y20568D01*
G01X21233Y20654D01*
G01X21321Y20749D01*
G01X21400Y20853D01*
G01X21468Y20964D01*
G01X21524Y21081D01*
G01X21569Y21203D01*
G01X21601Y21329D01*
G01X21620Y21458D01*
G01X21627Y21588D01*
G01X21627Y21590D01*
G01X29164Y21590D01*
G01X29181Y21497D01*
G01X29191Y21393D01*
G01X29217Y21266D01*
G01X29255Y21142D01*
G01X29306Y21022D01*
G01X29368Y20907D01*
G01X29441Y20800D01*
G01X29525Y20700D01*
G01X29618Y20609D01*
G01X29720Y20528D01*
G01X29829Y20458D01*
G01X29945Y20398D01*
G01X30066Y20351D01*
G01X30191Y20316D01*
G01X30319Y20293D01*
G01X30449Y20283D01*
G01X30579Y20287D01*
G01X30708Y20303D01*
G01X30835Y20332D01*
G01X30958Y20373D01*
G01X31077Y20427D01*
G01X31190Y20492D01*
G01X31295Y20568D01*
G01X31393Y20654D01*
G01X31481Y20749D01*
G01X31560Y20853D01*
G01X31628Y20964D01*
G01X31684Y21081D01*
G01X31729Y21203D01*
G01X31761Y21329D01*
G01X31780Y21458D01*
G01X31787Y21588D01*
G01X31787Y21590D01*
G01X38100Y21590D01*
G01X38100Y0D01*
G37*

%LPC*%
G36*
G01X35391Y1180D02*
G01X35527Y1170D01*
G01X35664Y1173D01*
G01X35799Y1190D01*
G01X35932Y1221D01*
G01X36062Y1264D01*
G01X36186Y1320D01*
G01X36304Y1388D01*
G01X36415Y1468D01*
G01X36517Y1558D01*
G01X36610Y1658D01*
G01X36692Y1767D01*
G01X36763Y1883D01*
G01X36823Y2006D01*
G01X36869Y2135D01*
G01X36903Y2267D01*
G01X36923Y2402D01*
G01X36930Y2538D01*
G01X36923Y2674D01*
G01X36903Y2809D01*
G01X36869Y2941D01*
G01X36823Y3070D01*
G01X36763Y3192D01*
G01X36692Y3309D01*
G01X36610Y3418D01*
G01X36517Y3518D01*
G01X36415Y3608D01*
G01X36304Y3688D01*
G01X36186Y3756D01*
G01X36062Y3812D01*
G01X35932Y3855D01*
G01X35799Y3886D01*
G01X35664Y3903D01*
G01X35527Y3906D01*
G01X35391Y3896D01*
G01X35257Y3872D01*
G01X35126Y3835D01*
G01X34999Y3785D01*
G01X34877Y3723D01*
G01X34763Y3649D01*
G01X34656Y3564D01*
G01X34558Y3469D01*
G01X34471Y3364D01*
G01X34394Y3252D01*
G01X34329Y3132D01*
G01X34276Y3006D01*
G01X34235Y2876D01*
G01X34208Y2742D01*
G01X34195Y2606D01*
G01X34195Y2470D01*
G01X34208Y2334D01*
G01X34235Y2200D01*
G01X34276Y2070D01*
G01X34329Y1944D01*
G01X34394Y1824D01*
G01X34471Y1712D01*
G01X34558Y1607D01*
G01X34656Y1512D01*
G01X34763Y1427D01*
G01X34877Y1353D01*
G01X34999Y1291D01*
G01X35126Y1241D01*
G01X35257Y1204D01*
G01X35391Y1180D01*
G37*
G36*
G01X2369Y1182D02*
G01X2505Y1171D01*
G01X2642Y1175D01*
G01X2777Y1192D01*
G01X2910Y1222D01*
G01X3039Y1266D01*
G01X3164Y1322D01*
G01X3282Y1390D01*
G01X3393Y1470D01*
G01X3495Y1560D01*
G01X3588Y1660D01*
G01X3670Y1769D01*
G01X3741Y1885D01*
G01X3801Y2008D01*
G01X3847Y2136D01*
G01X3881Y2268D01*
G01X3901Y2403D01*
G01X3908Y2540D01*
G01X3901Y2676D01*
G01X3881Y2811D01*
G01X3847Y2943D01*
G01X3801Y3071D01*
G01X3741Y3194D01*
G01X3670Y3310D01*
G01X3588Y3419D01*
G01X3495Y3519D01*
G01X3393Y3609D01*
G01X3282Y3689D01*
G01X3164Y3757D01*
G01X3039Y3813D01*
G01X2910Y3857D01*
G01X2777Y3887D01*
G01X2642Y3904D01*
G01X2505Y3908D01*
G01X2369Y3897D01*
G01X2235Y3874D01*
G01X2104Y3837D01*
G01X1977Y3787D01*
G01X1855Y3725D01*
G01X1741Y3651D01*
G01X1634Y3566D01*
G01X1536Y3470D01*
G01X1449Y3366D01*
G01X1372Y3253D01*
G01X1306Y3133D01*
G01X1253Y3008D01*
G01X1213Y2877D01*
G01X1186Y2743D01*
G01X1173Y2608D01*
G01X1173Y2471D01*
G01X1186Y2336D01*
G01X1213Y2202D01*
G01X1253Y2071D01*
G01X1306Y1946D01*
G01X1372Y1826D01*
G01X1449Y1713D01*
G01X1536Y1609D01*
G01X1634Y1513D01*
G01X1741Y1428D01*
G01X1855Y1354D01*
G01X1977Y1292D01*
G01X2104Y1242D01*
G01X2235Y1205D01*
G01X2369Y1182D01*
G37*
G36*
G01X11288Y1408D02*
G01X11401Y1400D01*
G01X11515Y1403D01*
G01X11627Y1417D01*
G01X11738Y1442D01*
G01X11846Y1478D01*
G01X11950Y1525D01*
G01X12048Y1582D01*
G01X12140Y1648D01*
G01X12225Y1723D01*
G01X12303Y1807D01*
G01X12371Y1897D01*
G01X12431Y1994D01*
G01X12480Y2097D01*
G01X12519Y2203D01*
G01X12547Y2314D01*
G01X12564Y2426D01*
G01X12569Y2540D01*
G01X12564Y2653D01*
G01X12547Y2765D01*
G01X12519Y2876D01*
G01X12480Y2982D01*
G01X12431Y3085D01*
G01X12371Y3182D01*
G01X12303Y3272D01*
G01X12297Y3279D01*
G01X12033Y3710D01*
G01X12033Y3810D01*
G01X12033Y3826D01*
G01X12033Y3842D01*
G01X12032Y3859D01*
G01X12030Y3875D01*
G01X12028Y3891D01*
G01X12026Y3907D01*
G01X12023Y3923D01*
G01X12019Y3939D01*
G01X12016Y3955D01*
G01X12011Y3971D01*
G01X12007Y3987D01*
G01X12002Y4002D01*
G01X11996Y4018D01*
G01X11991Y4033D01*
G01X11984Y4048D01*
G01X11978Y4063D01*
G01X11971Y4078D01*
G01X11963Y4092D01*
G01X11955Y4107D01*
G01X11947Y4121D01*
G01X11938Y4135D01*
G01X11929Y4148D01*
G01X11920Y4162D01*
G01X11910Y4175D01*
G01X11900Y4188D01*
G01X11890Y4201D01*
G01X11879Y4213D01*
G01X11868Y4225D01*
G01X11857Y4237D01*
G01X10587Y5507D01*
G01X10575Y5518D01*
G01X10563Y5529D01*
G01X10551Y5540D01*
G01X10538Y5550D01*
G01X10525Y5560D01*
G01X10512Y5570D01*
G01X10498Y5579D01*
G01X10485Y5588D01*
G01X10471Y5597D01*
G01X10457Y5605D01*
G01X10442Y5613D01*
G01X10428Y5621D01*
G01X10413Y5628D01*
G01X10398Y5634D01*
G01X10383Y5641D01*
G01X10368Y5646D01*
G01X10352Y5652D01*
G01X10337Y5657D01*
G01X10321Y5661D01*
G01X10305Y5666D01*
G01X10289Y5669D01*
G01X10273Y5673D01*
G01X10257Y5676D01*
G01X10241Y5678D01*
G01X10225Y5680D01*
G01X10209Y5682D01*
G01X10192Y5683D01*
G01X10176Y5683D01*
G01X10160Y5683D01*
G01X5330Y5684D01*
G01X4413Y6600D01*
G01X4413Y13970D01*
G01X4413Y13986D01*
G01X4413Y14002D01*
G01X4412Y14019D01*
G01X4410Y14035D01*
G01X4408Y14051D01*
G01X4406Y14067D01*
G01X4403Y14083D01*
G01X4399Y14099D01*
G01X4396Y14115D01*
G01X4391Y14131D01*
G01X4387Y14147D01*
G01X4382Y14162D01*
G01X4376Y14178D01*
G01X4371Y14193D01*
G01X4364Y14208D01*
G01X4358Y14223D01*
G01X4351Y14238D01*
G01X4343Y14252D01*
G01X4335Y14267D01*
G01X4327Y14281D01*
G01X4318Y14295D01*
G01X4309Y14308D01*
G01X4300Y14322D01*
G01X4290Y14335D01*
G01X4280Y14348D01*
G01X4270Y14361D01*
G01X4259Y14373D01*
G01X4248Y14385D01*
G01X4237Y14397D01*
G01X3963Y14671D01*
G01X3842Y15330D01*
G01X3840Y15368D01*
G01X3821Y15497D01*
G01X3789Y15623D01*
G01X3744Y15745D01*
G01X3688Y15862D01*
G01X3620Y15973D01*
G01X3541Y16077D01*
G01X3453Y16172D01*
G01X3355Y16258D01*
G01X3250Y16334D01*
G01X3137Y16399D01*
G01X3018Y16453D01*
G01X2895Y16494D01*
G01X2768Y16523D01*
G01X2639Y16539D01*
G01X2509Y16543D01*
G01X2379Y16533D01*
G01X2251Y16510D01*
G01X2126Y16475D01*
G01X2005Y16428D01*
G01X1889Y16368D01*
G01X1780Y16298D01*
G01X1678Y16216D01*
G01X1585Y16126D01*
G01X1501Y16026D01*
G01X1428Y15918D01*
G01X1366Y15804D01*
G01X1315Y15684D01*
G01X1277Y15560D01*
G01X1251Y15432D01*
G01X1238Y15303D01*
G01X1238Y15173D01*
G01X1251Y15043D01*
G01X1277Y14916D01*
G01X1315Y14792D01*
G01X1366Y14672D01*
G01X1428Y14557D01*
G01X1501Y14450D01*
G01X1585Y14350D01*
G01X1678Y14259D01*
G01X1780Y14178D01*
G01X1889Y14108D01*
G01X2005Y14048D01*
G01X2126Y14001D01*
G01X2251Y13966D01*
G01X2379Y13943D01*
G01X2446Y13938D01*
G01X3108Y13817D01*
G01X3206Y13719D01*
G01X3206Y6350D01*
G01X3206Y6333D01*
G01X3206Y6317D01*
G01X3207Y6301D01*
G01X3209Y6284D01*
G01X3211Y6268D01*
G01X3213Y6252D01*
G01X3216Y6236D01*
G01X3220Y6220D01*
G01X3223Y6204D01*
G01X3228Y6188D01*
G01X3232Y6172D01*
G01X3237Y6157D01*
G01X3243Y6141D01*
G01X3248Y6126D01*
G01X3255Y6111D01*
G01X3261Y6096D01*
G01X3268Y6081D01*
G01X3276Y6067D01*
G01X3284Y6052D01*
G01X3292Y6038D01*
G01X3301Y6024D01*
G01X3310Y6011D01*
G01X3319Y5997D01*
G01X3329Y5984D01*
G01X3339Y5971D01*
G01X3349Y5959D01*
G01X3360Y5946D01*
G01X3371Y5934D01*
G01X3382Y5922D01*
G01X4652Y4653D01*
G01X4664Y4641D01*
G01X4676Y4630D01*
G01X4688Y4619D01*
G01X4701Y4609D01*
G01X4714Y4599D01*
G01X4727Y4589D01*
G01X4741Y4580D01*
G01X4754Y4571D01*
G01X4768Y4562D01*
G01X4782Y4554D01*
G01X4797Y4546D01*
G01X4811Y4538D01*
G01X4826Y4531D01*
G01X4841Y4525D01*
G01X4856Y4518D01*
G01X4871Y4513D01*
G01X4887Y4507D01*
G01X4902Y4502D01*
G01X4918Y4498D01*
G01X4934Y4493D01*
G01X4950Y4490D01*
G01X4966Y4486D01*
G01X4982Y4484D01*
G01X4998Y4481D01*
G01X5014Y4479D01*
G01X5030Y4478D01*
G01X5047Y4476D01*
G01X5063Y4476D01*
G01X5080Y4476D01*
G01X9909Y4476D01*
G01X10768Y3616D01*
G01X10559Y3273D01*
G01X10521Y3228D01*
G01X10457Y3134D01*
G01X10402Y3034D01*
G01X10358Y2929D01*
G01X10325Y2821D01*
G01X10302Y2709D01*
G01X10291Y2596D01*
G01X10291Y2483D01*
G01X10302Y2370D01*
G01X10325Y2258D01*
G01X10358Y2150D01*
G01X10402Y2045D01*
G01X10457Y1945D01*
G01X10521Y1851D01*
G01X10594Y1764D01*
G01X10675Y1685D01*
G01X10764Y1614D01*
G01X10860Y1552D01*
G01X10961Y1500D01*
G01X11066Y1459D01*
G01X11176Y1428D01*
G01X11288Y1408D01*
G37*
G36*
G01X13828Y1408D02*
G01X13941Y1400D01*
G01X14055Y1403D01*
G01X14167Y1417D01*
G01X14278Y1442D01*
G01X14386Y1478D01*
G01X14490Y1525D01*
G01X14588Y1582D01*
G01X14680Y1648D01*
G01X14765Y1723D01*
G01X14843Y1807D01*
G01X14911Y1897D01*
G01X14971Y1994D01*
G01X15020Y2097D01*
G01X15059Y2203D01*
G01X15087Y2314D01*
G01X15104Y2426D01*
G01X15109Y2540D01*
G01X15104Y2653D01*
G01X15087Y2765D01*
G01X15059Y2876D01*
G01X15020Y2982D01*
G01X14971Y3085D01*
G01X14911Y3182D01*
G01X14843Y3272D01*
G01X14765Y3356D01*
G01X14680Y3431D01*
G01X14588Y3497D01*
G01X14490Y3554D01*
G01X14386Y3601D01*
G01X14278Y3637D01*
G01X14167Y3662D01*
G01X14055Y3676D01*
G01X13941Y3679D01*
G01X13828Y3671D01*
G01X13716Y3651D01*
G01X13606Y3620D01*
G01X13501Y3579D01*
G01X13400Y3527D01*
G01X13304Y3465D01*
G01X13215Y3394D01*
G01X13134Y3315D01*
G01X13061Y3228D01*
G01X12997Y3134D01*
G01X12942Y3034D01*
G01X12898Y2929D01*
G01X12865Y2821D01*
G01X12842Y2709D01*
G01X12831Y2596D01*
G01X12831Y2483D01*
G01X12842Y2370D01*
G01X12865Y2258D01*
G01X12898Y2150D01*
G01X12942Y2045D01*
G01X12997Y1945D01*
G01X13061Y1851D01*
G01X13134Y1764D01*
G01X13215Y1685D01*
G01X13304Y1614D01*
G01X13400Y1552D01*
G01X13501Y1500D01*
G01X13606Y1459D01*
G01X13716Y1428D01*
G01X13828Y1408D01*
G37*
G36*
G01X16368Y1408D02*
G01X16481Y1400D01*
G01X16595Y1403D01*
G01X16707Y1417D01*
G01X16818Y1442D01*
G01X16926Y1478D01*
G01X17030Y1525D01*
G01X17128Y1582D01*
G01X17220Y1648D01*
G01X17305Y1723D01*
G01X17383Y1807D01*
G01X17451Y1897D01*
G01X17511Y1994D01*
G01X17560Y2097D01*
G01X17599Y2203D01*
G01X17627Y2314D01*
G01X17644Y2426D01*
G01X17649Y2540D01*
G01X17644Y2653D01*
G01X17627Y2765D01*
G01X17599Y2876D01*
G01X17560Y2982D01*
G01X17511Y3085D01*
G01X17451Y3182D01*
G01X17383Y3272D01*
G01X17305Y3356D01*
G01X17220Y3431D01*
G01X17128Y3497D01*
G01X17030Y3554D01*
G01X16926Y3601D01*
G01X16818Y3637D01*
G01X16707Y3662D01*
G01X16595Y3676D01*
G01X16481Y3679D01*
G01X16368Y3671D01*
G01X16256Y3651D01*
G01X16146Y3620D01*
G01X16041Y3579D01*
G01X15940Y3527D01*
G01X15844Y3465D01*
G01X15755Y3394D01*
G01X15674Y3315D01*
G01X15601Y3228D01*
G01X15537Y3134D01*
G01X15482Y3034D01*
G01X15438Y2929D01*
G01X15405Y2821D01*
G01X15382Y2709D01*
G01X15371Y2596D01*
G01X15371Y2483D01*
G01X15382Y2370D01*
G01X15405Y2258D01*
G01X15438Y2150D01*
G01X15482Y2045D01*
G01X15537Y1945D01*
G01X15601Y1851D01*
G01X15674Y1764D01*
G01X15755Y1685D01*
G01X15844Y1614D01*
G01X15940Y1552D01*
G01X16041Y1500D01*
G01X16146Y1459D01*
G01X16256Y1428D01*
G01X16368Y1408D01*
G37*
G36*
G01X18908Y1408D02*
G01X19021Y1400D01*
G01X19135Y1403D01*
G01X19247Y1417D01*
G01X19358Y1442D01*
G01X19466Y1478D01*
G01X19570Y1525D01*
G01X19668Y1582D01*
G01X19760Y1648D01*
G01X19845Y1723D01*
G01X19923Y1807D01*
G01X19991Y1897D01*
G01X20051Y1994D01*
G01X20100Y2097D01*
G01X20139Y2203D01*
G01X20167Y2314D01*
G01X20184Y2426D01*
G01X20189Y2540D01*
G01X20184Y2653D01*
G01X20167Y2765D01*
G01X20139Y2876D01*
G01X20100Y2982D01*
G01X20051Y3085D01*
G01X19991Y3182D01*
G01X19923Y3272D01*
G01X19845Y3356D01*
G01X19760Y3431D01*
G01X19668Y3497D01*
G01X19570Y3554D01*
G01X19466Y3601D01*
G01X19358Y3637D01*
G01X19247Y3662D01*
G01X19135Y3676D01*
G01X19021Y3679D01*
G01X18908Y3671D01*
G01X18796Y3651D01*
G01X18686Y3620D01*
G01X18581Y3579D01*
G01X18480Y3527D01*
G01X18384Y3465D01*
G01X18295Y3394D01*
G01X18214Y3315D01*
G01X18141Y3228D01*
G01X18077Y3134D01*
G01X18022Y3034D01*
G01X17978Y2929D01*
G01X17945Y2821D01*
G01X17922Y2709D01*
G01X17911Y2596D01*
G01X17911Y2483D01*
G01X17922Y2370D01*
G01X17945Y2258D01*
G01X17978Y2150D01*
G01X18022Y2045D01*
G01X18077Y1945D01*
G01X18141Y1851D01*
G01X18214Y1764D01*
G01X18295Y1685D01*
G01X18384Y1614D01*
G01X18480Y1552D01*
G01X18581Y1500D01*
G01X18686Y1459D01*
G01X18796Y1428D01*
G01X18908Y1408D01*
G37*
G36*
G01X21448Y1408D02*
G01X21561Y1400D01*
G01X21675Y1403D01*
G01X21787Y1417D01*
G01X21898Y1442D01*
G01X22006Y1478D01*
G01X22110Y1525D01*
G01X22208Y1582D01*
G01X22300Y1648D01*
G01X22385Y1723D01*
G01X22463Y1807D01*
G01X22531Y1897D01*
G01X22591Y1994D01*
G01X22640Y2097D01*
G01X22679Y2203D01*
G01X22707Y2314D01*
G01X22724Y2426D01*
G01X22729Y2540D01*
G01X22724Y2653D01*
G01X22707Y2765D01*
G01X22679Y2876D01*
G01X22640Y2982D01*
G01X22591Y3085D01*
G01X22531Y3182D01*
G01X22463Y3272D01*
G01X22385Y3356D01*
G01X22300Y3431D01*
G01X22208Y3497D01*
G01X22110Y3554D01*
G01X22006Y3601D01*
G01X21898Y3637D01*
G01X21787Y3662D01*
G01X21675Y3676D01*
G01X21561Y3679D01*
G01X21448Y3671D01*
G01X21336Y3651D01*
G01X21226Y3620D01*
G01X21121Y3579D01*
G01X21020Y3527D01*
G01X20924Y3465D01*
G01X20835Y3394D01*
G01X20754Y3315D01*
G01X20681Y3228D01*
G01X20617Y3134D01*
G01X20562Y3034D01*
G01X20518Y2929D01*
G01X20485Y2821D01*
G01X20462Y2709D01*
G01X20451Y2596D01*
G01X20451Y2483D01*
G01X20462Y2370D01*
G01X20485Y2258D01*
G01X20518Y2150D01*
G01X20562Y2045D01*
G01X20617Y1945D01*
G01X20681Y1851D01*
G01X20754Y1764D01*
G01X20835Y1685D01*
G01X20924Y1614D01*
G01X21020Y1552D01*
G01X21121Y1500D01*
G01X21226Y1459D01*
G01X21336Y1428D01*
G01X21448Y1408D01*
G37*
G36*
G01X9283Y2146D02*
G01X9283Y1402D01*
G01X9677Y1402D01*
G01X9689Y1402D01*
G01X9701Y1403D01*
G01X9713Y1404D01*
G01X9726Y1406D01*
G01X9738Y1407D01*
G01X9750Y1410D01*
G01X9762Y1413D01*
G01X9773Y1416D01*
G01X9785Y1419D01*
G01X9797Y1423D01*
G01X9808Y1428D01*
G01X9819Y1432D01*
G01X9830Y1438D01*
G01X9841Y1443D01*
G01X9852Y1449D01*
G01X9862Y1455D01*
G01X9873Y1462D01*
G01X9883Y1469D01*
G01X9892Y1476D01*
G01X9902Y1484D01*
G01X9911Y1492D01*
G01X9920Y1500D01*
G01X9929Y1509D01*
G01X9937Y1518D01*
G01X9945Y1527D01*
G01X9953Y1537D01*
G01X9960Y1546D01*
G01X9967Y1556D01*
G01X9974Y1567D01*
G01X9980Y1577D01*
G01X9986Y1588D01*
G01X9991Y1599D01*
G01X9997Y1610D01*
G01X10001Y1621D01*
G01X10006Y1632D01*
G01X10010Y1644D01*
G01X10013Y1656D01*
G01X10016Y1667D01*
G01X10019Y1679D01*
G01X10022Y1691D01*
G01X10023Y1703D01*
G01X10025Y1716D01*
G01X10026Y1728D01*
G01X10027Y1740D01*
G01X10027Y1752D01*
G01X10027Y2146D01*
G01X9283Y2146D01*
G37*
G36*
G01X8090Y1402D02*
G01X8102Y1402D01*
G01X8496Y1402D01*
G01X8496Y2146D01*
G01X7752Y2146D01*
G01X7752Y1752D01*
G01X7752Y1740D01*
G01X7753Y1728D01*
G01X7754Y1716D01*
G01X7756Y1703D01*
G01X7757Y1691D01*
G01X7760Y1679D01*
G01X7763Y1667D01*
G01X7766Y1656D01*
G01X7769Y1644D01*
G01X7773Y1632D01*
G01X7778Y1621D01*
G01X7782Y1610D01*
G01X7788Y1599D01*
G01X7793Y1588D01*
G01X7799Y1577D01*
G01X7805Y1567D01*
G01X7812Y1556D01*
G01X7819Y1546D01*
G01X7826Y1537D01*
G01X7834Y1527D01*
G01X7842Y1518D01*
G01X7850Y1509D01*
G01X7859Y1500D01*
G01X7868Y1492D01*
G01X7877Y1484D01*
G01X7887Y1476D01*
G01X7896Y1469D01*
G01X7906Y1462D01*
G01X7917Y1455D01*
G01X7927Y1449D01*
G01X7938Y1443D01*
G01X7949Y1438D01*
G01X7960Y1432D01*
G01X7971Y1428D01*
G01X7982Y1423D01*
G01X7994Y1419D01*
G01X8006Y1416D01*
G01X8017Y1413D01*
G01X8029Y1410D01*
G01X8041Y1407D01*
G01X8053Y1406D01*
G01X8066Y1404D01*
G01X8078Y1403D01*
G01X8090Y1402D01*
G37*
G36*
G01X9283Y3677D02*
G01X9283Y2933D01*
G01X10027Y2933D01*
G01X10027Y3327D01*
G01X10027Y3339D01*
G01X10026Y3351D01*
G01X10025Y3363D01*
G01X10023Y3376D01*
G01X10022Y3388D01*
G01X10019Y3400D01*
G01X10016Y3412D01*
G01X10013Y3423D01*
G01X10010Y3435D01*
G01X10006Y3447D01*
G01X10001Y3458D01*
G01X9997Y3469D01*
G01X9991Y3480D01*
G01X9986Y3491D01*
G01X9980Y3502D01*
G01X9974Y3512D01*
G01X9967Y3523D01*
G01X9960Y3533D01*
G01X9953Y3542D01*
G01X9945Y3552D01*
G01X9937Y3561D01*
G01X9929Y3570D01*
G01X9920Y3579D01*
G01X9911Y3587D01*
G01X9902Y3595D01*
G01X9892Y3603D01*
G01X9883Y3610D01*
G01X9873Y3617D01*
G01X9862Y3624D01*
G01X9852Y3630D01*
G01X9841Y3636D01*
G01X9830Y3641D01*
G01X9819Y3647D01*
G01X9808Y3651D01*
G01X9797Y3656D01*
G01X9785Y3660D01*
G01X9773Y3663D01*
G01X9762Y3666D01*
G01X9750Y3669D01*
G01X9738Y3672D01*
G01X9726Y3673D01*
G01X9713Y3675D01*
G01X9701Y3676D01*
G01X9689Y3677D01*
G01X9677Y3677D01*
G01X9283Y3677D01*
G37*
G36*
G01X7752Y3327D02*
G01X7752Y2933D01*
G01X8496Y2933D01*
G01X8496Y3677D01*
G01X8102Y3677D01*
G01X8090Y3677D01*
G01X8078Y3676D01*
G01X8066Y3675D01*
G01X8053Y3673D01*
G01X8041Y3672D01*
G01X8029Y3669D01*
G01X8017Y3666D01*
G01X8006Y3663D01*
G01X7994Y3660D01*
G01X7982Y3656D01*
G01X7971Y3651D01*
G01X7960Y3647D01*
G01X7949Y3641D01*
G01X7938Y3636D01*
G01X7927Y3630D01*
G01X7917Y3624D01*
G01X7906Y3617D01*
G01X7896Y3610D01*
G01X7887Y3603D01*
G01X7877Y3595D01*
G01X7868Y3587D01*
G01X7859Y3579D01*
G01X7850Y3570D01*
G01X7842Y3561D01*
G01X7834Y3552D01*
G01X7826Y3542D01*
G01X7819Y3533D01*
G01X7812Y3523D01*
G01X7805Y3512D01*
G01X7799Y3502D01*
G01X7793Y3491D01*
G01X7788Y3480D01*
G01X7782Y3469D01*
G01X7778Y3458D01*
G01X7773Y3447D01*
G01X7769Y3435D01*
G01X7766Y3423D01*
G01X7763Y3412D01*
G01X7760Y3400D01*
G01X7757Y3388D01*
G01X7756Y3376D01*
G01X7754Y3363D01*
G01X7753Y3351D01*
G01X7752Y3339D01*
G01X7752Y3327D01*
G37*
G36*
G01X13809Y3783D02*
G01X13939Y3773D01*
G01X14069Y3777D01*
G01X14198Y3793D01*
G01X14325Y3822D01*
G01X14448Y3863D01*
G01X14567Y3917D01*
G01X14680Y3982D01*
G01X14785Y4058D01*
G01X14883Y4144D01*
G01X14971Y4239D01*
G01X15050Y4343D01*
G01X15118Y4454D01*
G01X15174Y4571D01*
G01X15219Y4693D01*
G01X15251Y4819D01*
G01X15270Y4948D01*
G01X15277Y5078D01*
G01X15270Y5208D01*
G01X15251Y5337D01*
G01X15219Y5463D01*
G01X15174Y5585D01*
G01X15118Y5702D01*
G01X15050Y5813D01*
G01X14971Y5917D01*
G01X14883Y6012D01*
G01X14785Y6098D01*
G01X14680Y6174D01*
G01X14567Y6239D01*
G01X14448Y6293D01*
G01X14325Y6334D01*
G01X14198Y6363D01*
G01X14069Y6379D01*
G01X13939Y6383D01*
G01X13809Y6373D01*
G01X13681Y6350D01*
G01X13556Y6315D01*
G01X13435Y6268D01*
G01X13319Y6208D01*
G01X13210Y6138D01*
G01X13108Y6056D01*
G01X13015Y5966D01*
G01X12931Y5866D01*
G01X12858Y5758D01*
G01X12796Y5644D01*
G01X12745Y5524D01*
G01X12707Y5400D01*
G01X12681Y5272D01*
G01X12668Y5143D01*
G01X12668Y5013D01*
G01X12681Y4883D01*
G01X12707Y4756D01*
G01X12745Y4632D01*
G01X12796Y4512D01*
G01X12858Y4397D01*
G01X12931Y4290D01*
G01X13015Y4190D01*
G01X13108Y4099D01*
G01X13210Y4018D01*
G01X13319Y3948D01*
G01X13435Y3888D01*
G01X13556Y3841D01*
G01X13681Y3806D01*
G01X13809Y3783D01*
G37*
G36*
G01X24608Y4602D02*
G01X24608Y3863D01*
G01X24608Y3863D01*
G01X24727Y3917D01*
G01X24840Y3982D01*
G01X24945Y4058D01*
G01X25043Y4144D01*
G01X25131Y4239D01*
G01X25210Y4343D01*
G01X25278Y4454D01*
G01X25334Y4571D01*
G01X25345Y4602D01*
G01X24608Y4602D01*
G37*
G36*
G01X23595Y3888D02*
G01X23655Y3865D01*
G01X23655Y4602D01*
G01X22918Y4602D01*
G01X22956Y4512D01*
G01X23018Y4397D01*
G01X23091Y4290D01*
G01X23175Y4190D01*
G01X23268Y4099D01*
G01X23370Y4018D01*
G01X23479Y3948D01*
G01X23595Y3888D01*
G37*
G36*
G01X24608Y6293D02*
G01X24608Y5554D01*
G01X25345Y5554D01*
G01X25334Y5585D01*
G01X25278Y5702D01*
G01X25210Y5813D01*
G01X25131Y5917D01*
G01X25043Y6012D01*
G01X24945Y6098D01*
G01X24840Y6174D01*
G01X24727Y6239D01*
G01X24608Y6293D01*
G01X24608Y6293D01*
G37*
G36*
G01X22956Y5644D02*
G01X22918Y5554D01*
G01X23655Y5554D01*
G01X23655Y6291D01*
G01X23595Y6268D01*
G01X23479Y6208D01*
G01X23370Y6138D01*
G01X23268Y6056D01*
G01X23175Y5966D01*
G01X23091Y5866D01*
G01X23018Y5758D01*
G01X22956Y5644D01*
G37*
G36*
G01X22709Y6188D02*
G01X22860Y6177D01*
G01X23012Y6180D01*
G01X23163Y6199D01*
G01X23311Y6233D01*
G01X23455Y6281D01*
G01X23593Y6344D01*
G01X23724Y6420D01*
G01X23848Y6508D01*
G01X23961Y6609D01*
G01X24065Y6720D01*
G01X24156Y6841D01*
G01X24235Y6971D01*
G01X24301Y7107D01*
G01X24353Y7250D01*
G01X24391Y7397D01*
G01X24413Y7547D01*
G01X24415Y7582D01*
G01X24578Y8420D01*
G01X27139Y10955D01*
G01X27142Y10958D01*
G01X28215Y12032D01*
G01X29465Y12029D01*
G01X34260Y12029D01*
G01X34767Y11745D01*
G01X34837Y11689D01*
G01X34941Y11622D01*
G01X35051Y11565D01*
G01X35167Y11520D01*
G01X35286Y11487D01*
G01X35408Y11465D01*
G01X35531Y11456D01*
G01X35655Y11459D01*
G01X35778Y11474D01*
G01X35898Y11502D01*
G01X36016Y11541D01*
G01X36128Y11592D01*
G01X36236Y11654D01*
G01X36336Y11726D01*
G01X36429Y11808D01*
G01X36513Y11899D01*
G01X36588Y11998D01*
G01X36652Y12103D01*
G01X36706Y12215D01*
G01X36748Y12331D01*
G01X36779Y12451D01*
G01X36797Y12573D01*
G01X36804Y12697D01*
G01X36797Y12821D01*
G01X36779Y12943D01*
G01X36748Y13063D01*
G01X36706Y13179D01*
G01X36652Y13291D01*
G01X36588Y13396D01*
G01X36513Y13495D01*
G01X36429Y13586D01*
G01X36336Y13668D01*
G01X36236Y13740D01*
G01X36128Y13802D01*
G01X36016Y13853D01*
G01X35898Y13892D01*
G01X35778Y13920D01*
G01X35655Y13935D01*
G01X35531Y13938D01*
G01X35408Y13929D01*
G01X35286Y13907D01*
G01X35167Y13874D01*
G01X35051Y13829D01*
G01X34941Y13772D01*
G01X34837Y13705D01*
G01X34767Y13649D01*
G01X34260Y13364D01*
G01X29467Y13364D01*
G01X27941Y13367D01*
G01X27923Y13367D01*
G01X27906Y13366D01*
G01X27888Y13365D01*
G01X27871Y13363D01*
G01X27853Y13361D01*
G01X27836Y13359D01*
G01X27819Y13356D01*
G01X27801Y13353D01*
G01X27784Y13349D01*
G01X27767Y13344D01*
G01X27751Y13340D01*
G01X27734Y13335D01*
G01X27717Y13329D01*
G01X27701Y13323D01*
G01X27685Y13316D01*
G01X27668Y13310D01*
G01X27653Y13302D01*
G01X27637Y13294D01*
G01X27621Y13286D01*
G01X27606Y13278D01*
G01X27591Y13269D01*
G01X27576Y13259D01*
G01X27562Y13250D01*
G01X27547Y13240D01*
G01X27533Y13229D01*
G01X27519Y13218D01*
G01X27506Y13207D01*
G01X27493Y13196D01*
G01X27480Y13184D01*
G01X27467Y13172D01*
G01X26197Y11901D01*
G01X23639Y9369D01*
G01X22904Y9236D01*
G01X22168Y9374D01*
G01X15833Y15709D01*
G01X15821Y15721D01*
G01X15808Y15733D01*
G01X15795Y15745D01*
G01X15781Y15756D01*
G01X15768Y15767D01*
G01X15754Y15777D01*
G01X15739Y15787D01*
G01X15725Y15797D01*
G01X15710Y15806D01*
G01X15695Y15815D01*
G01X15680Y15824D01*
G01X15664Y15832D01*
G01X15649Y15839D01*
G01X15633Y15847D01*
G01X15617Y15854D01*
G01X15601Y15860D01*
G01X15584Y15866D01*
G01X15568Y15872D01*
G01X15551Y15877D01*
G01X15534Y15882D01*
G01X15517Y15886D01*
G01X15500Y15890D01*
G01X15483Y15893D01*
G01X15466Y15896D01*
G01X15449Y15899D01*
G01X15431Y15901D01*
G01X15414Y15902D01*
G01X15396Y15904D01*
G01X15379Y15904D01*
G01X15361Y15904D01*
G01X14095Y15904D01*
G01X13544Y16233D01*
G01X13515Y16258D01*
G01X13410Y16334D01*
G01X13297Y16399D01*
G01X13178Y16453D01*
G01X13055Y16494D01*
G01X12928Y16523D01*
G01X12799Y16539D01*
G01X12669Y16543D01*
G01X12539Y16533D01*
G01X12411Y16510D01*
G01X12286Y16475D01*
G01X12165Y16428D01*
G01X12049Y16368D01*
G01X11940Y16298D01*
G01X11838Y16216D01*
G01X11745Y16126D01*
G01X11661Y16026D01*
G01X11588Y15918D01*
G01X11526Y15804D01*
G01X11475Y15684D01*
G01X11437Y15560D01*
G01X11411Y15432D01*
G01X11398Y15303D01*
G01X11398Y15173D01*
G01X11411Y15043D01*
G01X11437Y14916D01*
G01X11475Y14792D01*
G01X11526Y14672D01*
G01X11588Y14557D01*
G01X11661Y14450D01*
G01X11745Y14350D01*
G01X11838Y14259D01*
G01X11940Y14178D01*
G01X12049Y14108D01*
G01X12165Y14048D01*
G01X12286Y14001D01*
G01X12411Y13966D01*
G01X12539Y13943D01*
G01X12669Y13933D01*
G01X12799Y13937D01*
G01X12928Y13953D01*
G01X13055Y13982D01*
G01X13178Y14023D01*
G01X13297Y14077D01*
G01X13410Y14142D01*
G01X13515Y14218D01*
G01X13542Y14241D01*
G01X14094Y14569D01*
G01X15085Y14569D01*
G01X21152Y8503D01*
G01X15627Y8503D01*
G01X15119Y8757D01*
G01X15119Y8757D01*
G01X15115Y8769D01*
G01X15111Y8781D01*
G01X15107Y8792D01*
G01X15102Y8803D01*
G01X15097Y8814D01*
G01X15091Y8825D01*
G01X15085Y8836D01*
G01X15079Y8846D01*
G01X15072Y8857D01*
G01X15065Y8867D01*
G01X15058Y8876D01*
G01X15050Y8886D01*
G01X15042Y8895D01*
G01X15034Y8904D01*
G01X15025Y8913D01*
G01X15016Y8921D01*
G01X15007Y8929D01*
G01X14998Y8937D01*
G01X14988Y8944D01*
G01X14978Y8951D01*
G01X14968Y8958D01*
G01X14957Y8964D01*
G01X14947Y8970D01*
G01X14936Y8975D01*
G01X14925Y8981D01*
G01X14913Y8985D01*
G01X14902Y8990D01*
G01X14890Y8994D01*
G01X14879Y8997D01*
G01X14867Y9000D01*
G01X14855Y9003D01*
G01X14843Y9006D01*
G01X14831Y9007D01*
G01X14819Y9009D01*
G01X14807Y9010D01*
G01X14795Y9011D01*
G01X14782Y9011D01*
G01X12039Y9011D01*
G01X12027Y9011D01*
G01X12015Y9010D01*
G01X12003Y9009D01*
G01X11990Y9007D01*
G01X11978Y9006D01*
G01X11966Y9003D01*
G01X11954Y9000D01*
G01X11943Y8997D01*
G01X11931Y8994D01*
G01X11919Y8990D01*
G01X11908Y8985D01*
G01X11897Y8981D01*
G01X11886Y8975D01*
G01X11875Y8970D01*
G01X11864Y8964D01*
G01X11854Y8958D01*
G01X11843Y8951D01*
G01X11833Y8944D01*
G01X11824Y8937D01*
G01X11814Y8929D01*
G01X11805Y8921D01*
G01X11796Y8913D01*
G01X11787Y8904D01*
G01X11779Y8895D01*
G01X11771Y8886D01*
G01X11763Y8876D01*
G01X11756Y8867D01*
G01X11749Y8857D01*
G01X11742Y8846D01*
G01X11736Y8836D01*
G01X11730Y8825D01*
G01X11725Y8814D01*
G01X11719Y8803D01*
G01X11715Y8792D01*
G01X11710Y8781D01*
G01X11706Y8769D01*
G01X11703Y8757D01*
G01X11703Y8757D01*
G01X11194Y8503D01*
G01X9125Y8503D01*
G01X8616Y8757D01*
G01X8616Y8757D01*
G01X8613Y8769D01*
G01X8609Y8781D01*
G01X8604Y8792D01*
G01X8600Y8803D01*
G01X8594Y8814D01*
G01X8589Y8825D01*
G01X8583Y8836D01*
G01X8577Y8846D01*
G01X8570Y8857D01*
G01X8563Y8867D01*
G01X8556Y8876D01*
G01X8548Y8886D01*
G01X8540Y8895D01*
G01X8532Y8904D01*
G01X8523Y8913D01*
G01X8514Y8921D01*
G01X8505Y8929D01*
G01X8495Y8937D01*
G01X8486Y8944D01*
G01X8476Y8951D01*
G01X8465Y8958D01*
G01X8455Y8964D01*
G01X8444Y8970D01*
G01X8433Y8975D01*
G01X8422Y8981D01*
G01X8411Y8985D01*
G01X8400Y8990D01*
G01X8388Y8994D01*
G01X8376Y8997D01*
G01X8365Y9000D01*
G01X8353Y9003D01*
G01X8341Y9006D01*
G01X8329Y9007D01*
G01X8316Y9009D01*
G01X8304Y9010D01*
G01X8292Y9011D01*
G01X8280Y9011D01*
G01X5537Y9011D01*
G01X5524Y9011D01*
G01X5512Y9010D01*
G01X5500Y9009D01*
G01X5488Y9007D01*
G01X5476Y9006D01*
G01X5464Y9003D01*
G01X5452Y9000D01*
G01X5440Y8997D01*
G01X5429Y8994D01*
G01X5417Y8990D01*
G01X5406Y8985D01*
G01X5394Y8981D01*
G01X5383Y8975D01*
G01X5372Y8970D01*
G01X5362Y8964D01*
G01X5351Y8958D01*
G01X5341Y8951D01*
G01X5331Y8944D01*
G01X5321Y8937D01*
G01X5312Y8929D01*
G01X5303Y8921D01*
G01X5294Y8913D01*
G01X5285Y8904D01*
G01X5277Y8895D01*
G01X5269Y8886D01*
G01X5261Y8876D01*
G01X5254Y8867D01*
G01X5247Y8857D01*
G01X5240Y8846D01*
G01X5234Y8836D01*
G01X5228Y8825D01*
G01X5222Y8814D01*
G01X5217Y8803D01*
G01X5212Y8792D01*
G01X5208Y8781D01*
G01X5204Y8769D01*
G01X5200Y8757D01*
G01X5197Y8746D01*
G01X5194Y8734D01*
G01X5192Y8722D01*
G01X5190Y8710D01*
G01X5189Y8697D01*
G01X5188Y8685D01*
G01X5187Y8673D01*
G01X5187Y8661D01*
G01X5187Y7137D01*
G01X5187Y7125D01*
G01X5188Y7112D01*
G01X5189Y7100D01*
G01X5190Y7088D01*
G01X5192Y7076D01*
G01X5194Y7064D01*
G01X5197Y7052D01*
G01X5200Y7040D01*
G01X5204Y7029D01*
G01X5208Y7017D01*
G01X5212Y7006D01*
G01X5217Y6995D01*
G01X5222Y6983D01*
G01X5228Y6973D01*
G01X5234Y6962D01*
G01X5240Y6951D01*
G01X5247Y6941D01*
G01X5254Y6931D01*
G01X5261Y6921D01*
G01X5269Y6912D01*
G01X5277Y6903D01*
G01X5285Y6894D01*
G01X5294Y6885D01*
G01X5303Y6877D01*
G01X5312Y6869D01*
G01X5321Y6861D01*
G01X5331Y6854D01*
G01X5341Y6847D01*
G01X5351Y6840D01*
G01X5362Y6834D01*
G01X5372Y6828D01*
G01X5383Y6822D01*
G01X5394Y6817D01*
G01X5406Y6812D01*
G01X5417Y6808D01*
G01X5429Y6804D01*
G01X5440Y6800D01*
G01X5452Y6797D01*
G01X5464Y6795D01*
G01X5476Y6792D01*
G01X5488Y6790D01*
G01X5500Y6789D01*
G01X5512Y6788D01*
G01X5524Y6787D01*
G01X5537Y6787D01*
G01X8280Y6787D01*
G01X8292Y6787D01*
G01X8304Y6788D01*
G01X8316Y6789D01*
G01X8329Y6790D01*
G01X8341Y6792D01*
G01X8353Y6795D01*
G01X8365Y6797D01*
G01X8376Y6800D01*
G01X8388Y6804D01*
G01X8400Y6808D01*
G01X8411Y6812D01*
G01X8422Y6817D01*
G01X8433Y6822D01*
G01X8444Y6828D01*
G01X8455Y6834D01*
G01X8465Y6840D01*
G01X8476Y6847D01*
G01X8486Y6854D01*
G01X8495Y6861D01*
G01X8505Y6869D01*
G01X8514Y6877D01*
G01X8523Y6885D01*
G01X8532Y6894D01*
G01X8540Y6903D01*
G01X8548Y6912D01*
G01X8556Y6921D01*
G01X8563Y6931D01*
G01X8570Y6941D01*
G01X8577Y6951D01*
G01X8583Y6962D01*
G01X8589Y6973D01*
G01X8594Y6983D01*
G01X8600Y6995D01*
G01X8604Y7006D01*
G01X8609Y7017D01*
G01X8613Y7029D01*
G01X8616Y7040D01*
G01X8616Y7041D01*
G01X9124Y7295D01*
G01X11195Y7295D01*
G01X11703Y7041D01*
G01X11703Y7040D01*
G01X11706Y7029D01*
G01X11710Y7017D01*
G01X11715Y7006D01*
G01X11719Y6995D01*
G01X11725Y6983D01*
G01X11730Y6973D01*
G01X11736Y6962D01*
G01X11742Y6951D01*
G01X11749Y6941D01*
G01X11756Y6931D01*
G01X11763Y6921D01*
G01X11771Y6912D01*
G01X11779Y6903D01*
G01X11787Y6894D01*
G01X11796Y6885D01*
G01X11805Y6877D01*
G01X11814Y6869D01*
G01X11824Y6861D01*
G01X11833Y6854D01*
G01X11843Y6847D01*
G01X11854Y6840D01*
G01X11864Y6834D01*
G01X11875Y6828D01*
G01X11886Y6822D01*
G01X11897Y6817D01*
G01X11908Y6812D01*
G01X11919Y6808D01*
G01X11931Y6804D01*
G01X11943Y6800D01*
G01X11954Y6797D01*
G01X11966Y6795D01*
G01X11978Y6792D01*
G01X11990Y6790D01*
G01X12003Y6789D01*
G01X12015Y6788D01*
G01X12027Y6787D01*
G01X12039Y6787D01*
G01X14782Y6787D01*
G01X14795Y6787D01*
G01X14807Y6788D01*
G01X14819Y6789D01*
G01X14831Y6790D01*
G01X14843Y6792D01*
G01X14855Y6795D01*
G01X14867Y6797D01*
G01X14879Y6800D01*
G01X14890Y6804D01*
G01X14902Y6808D01*
G01X14913Y6812D01*
G01X14925Y6817D01*
G01X14936Y6822D01*
G01X14947Y6828D01*
G01X14957Y6834D01*
G01X14968Y6840D01*
G01X14978Y6847D01*
G01X14988Y6854D01*
G01X14998Y6861D01*
G01X15007Y6869D01*
G01X15016Y6877D01*
G01X15025Y6885D01*
G01X15034Y6894D01*
G01X15042Y6903D01*
G01X15050Y6912D01*
G01X15058Y6921D01*
G01X15065Y6931D01*
G01X15072Y6941D01*
G01X15079Y6951D01*
G01X15085Y6962D01*
G01X15091Y6973D01*
G01X15097Y6983D01*
G01X15102Y6995D01*
G01X15107Y7006D01*
G01X15111Y7017D01*
G01X15115Y7029D01*
G01X15119Y7040D01*
G01X15119Y7041D01*
G01X15627Y7295D01*
G01X21143Y7295D01*
G01X21756Y6695D01*
G01X21782Y6663D01*
G01X21891Y6557D01*
G01X22010Y6463D01*
G01X22137Y6380D01*
G01X22272Y6311D01*
G01X22413Y6255D01*
G01X22560Y6214D01*
G01X22709Y6188D01*
G37*
G36*
G01X28483Y7114D02*
G01X28483Y6294D01*
G01X28593Y6344D01*
G01X28724Y6420D01*
G01X28847Y6508D01*
G01X28961Y6609D01*
G01X29064Y6720D01*
G01X29156Y6841D01*
G01X29235Y6971D01*
G01X29301Y7107D01*
G01X29303Y7114D01*
G01X28483Y7114D01*
G37*
G36*
G01X27272Y6311D02*
G01X27313Y6295D01*
G01X27313Y7114D01*
G01X26494Y7114D01*
G01X26526Y7038D01*
G01X26599Y6905D01*
G01X26684Y6779D01*
G01X26782Y6663D01*
G01X26891Y6557D01*
G01X27009Y6463D01*
G01X27137Y6380D01*
G01X27272Y6311D01*
G37*
G36*
G01X28483Y9103D02*
G01X28483Y8284D01*
G01X29303Y8284D01*
G01X29301Y8290D01*
G01X29235Y8427D01*
G01X29156Y8556D01*
G01X29064Y8677D01*
G01X28961Y8789D01*
G01X28847Y8889D01*
G01X28724Y8978D01*
G01X28593Y9054D01*
G01X28483Y9103D01*
G37*
G36*
G01X26526Y8359D02*
G01X26494Y8284D01*
G01X27313Y8284D01*
G01X27313Y9103D01*
G01X27272Y9087D01*
G01X27137Y9017D01*
G01X27009Y8935D01*
G01X26891Y8840D01*
G01X26782Y8734D01*
G01X26684Y8618D01*
G01X26599Y8493D01*
G01X26526Y8359D01*
G37*
G36*
G01X35408Y8925D02*
G01X35531Y8916D01*
G01X35655Y8919D01*
G01X35778Y8934D01*
G01X35898Y8962D01*
G01X36016Y9001D01*
G01X36128Y9052D01*
G01X36236Y9114D01*
G01X36336Y9186D01*
G01X36429Y9268D01*
G01X36513Y9359D01*
G01X36588Y9458D01*
G01X36652Y9563D01*
G01X36706Y9675D01*
G01X36748Y9791D01*
G01X36779Y9911D01*
G01X36797Y10033D01*
G01X36804Y10157D01*
G01X36797Y10281D01*
G01X36779Y10403D01*
G01X36748Y10523D01*
G01X36706Y10639D01*
G01X36652Y10751D01*
G01X36588Y10856D01*
G01X36513Y10955D01*
G01X36429Y11046D01*
G01X36336Y11128D01*
G01X36236Y11200D01*
G01X36128Y11262D01*
G01X36016Y11313D01*
G01X35898Y11352D01*
G01X35778Y11380D01*
G01X35655Y11395D01*
G01X35531Y11398D01*
G01X35408Y11389D01*
G01X35286Y11367D01*
G01X35167Y11334D01*
G01X35051Y11289D01*
G01X34941Y11232D01*
G01X34837Y11165D01*
G01X34741Y11088D01*
G01X34652Y11001D01*
G01X34572Y10907D01*
G01X34503Y10804D01*
G01X34443Y10696D01*
G01X34395Y10582D01*
G01X34359Y10463D01*
G01X34334Y10342D01*
G01X34322Y10219D01*
G01X34322Y10095D01*
G01X34334Y9972D01*
G01X34359Y9851D01*
G01X34395Y9732D01*
G01X34443Y9618D01*
G01X34503Y9510D01*
G01X34572Y9407D01*
G01X34652Y9312D01*
G01X34741Y9226D01*
G01X34837Y9149D01*
G01X34941Y9082D01*
G01X35051Y9025D01*
G01X35167Y8980D01*
G01X35286Y8947D01*
G01X35408Y8925D01*
G37*
G36*
G01X35408Y14005D02*
G01X35531Y13996D01*
G01X35655Y13999D01*
G01X35778Y14014D01*
G01X35898Y14042D01*
G01X36016Y14081D01*
G01X36128Y14132D01*
G01X36236Y14194D01*
G01X36336Y14266D01*
G01X36429Y14348D01*
G01X36513Y14439D01*
G01X36588Y14538D01*
G01X36652Y14643D01*
G01X36706Y14755D01*
G01X36748Y14871D01*
G01X36779Y14991D01*
G01X36797Y15113D01*
G01X36804Y15237D01*
G01X36797Y15361D01*
G01X36779Y15483D01*
G01X36748Y15603D01*
G01X36706Y15719D01*
G01X36652Y15831D01*
G01X36588Y15936D01*
G01X36513Y16035D01*
G01X36429Y16126D01*
G01X36336Y16208D01*
G01X36236Y16280D01*
G01X36128Y16342D01*
G01X36016Y16393D01*
G01X35898Y16432D01*
G01X35778Y16460D01*
G01X35655Y16475D01*
G01X35531Y16478D01*
G01X35408Y16469D01*
G01X35286Y16447D01*
G01X35167Y16414D01*
G01X35051Y16369D01*
G01X34941Y16312D01*
G01X34837Y16245D01*
G01X34741Y16168D01*
G01X34652Y16081D01*
G01X34572Y15987D01*
G01X34503Y15884D01*
G01X34443Y15776D01*
G01X34395Y15662D01*
G01X34359Y15543D01*
G01X34334Y15422D01*
G01X34322Y15299D01*
G01X34322Y15175D01*
G01X34334Y15052D01*
G01X34359Y14931D01*
G01X34395Y14812D01*
G01X34443Y14698D01*
G01X34503Y14590D01*
G01X34572Y14487D01*
G01X34652Y14392D01*
G01X34741Y14306D01*
G01X34837Y14229D01*
G01X34941Y14162D01*
G01X35051Y14105D01*
G01X35167Y14060D01*
G01X35286Y14027D01*
G01X35408Y14005D01*
G37*
G36*
G01X25209Y16188D02*
G01X25361Y16177D01*
G01X25512Y16180D01*
G01X25663Y16199D01*
G01X25811Y16233D01*
G01X25955Y16281D01*
G01X26093Y16344D01*
G01X26225Y16420D01*
G01X26348Y16508D01*
G01X26462Y16609D01*
G01X26565Y16720D01*
G01X26656Y16841D01*
G01X26736Y16971D01*
G01X26801Y17107D01*
G01X26853Y17250D01*
G01X26891Y17397D01*
G01X26913Y17547D01*
G01X26921Y17699D01*
G01X26913Y17850D01*
G01X26891Y18000D01*
G01X26853Y18147D01*
G01X26801Y18290D01*
G01X26736Y18427D01*
G01X26656Y18556D01*
G01X26565Y18677D01*
G01X26462Y18789D01*
G01X26348Y18889D01*
G01X26225Y18978D01*
G01X26093Y19054D01*
G01X25955Y19116D01*
G01X25811Y19164D01*
G01X25663Y19198D01*
G01X25512Y19217D01*
G01X25361Y19221D01*
G01X25209Y19209D01*
G01X25060Y19183D01*
G01X24914Y19142D01*
G01X24772Y19087D01*
G01X24637Y19017D01*
G01X24510Y18935D01*
G01X24391Y18840D01*
G01X24282Y18734D01*
G01X24185Y18618D01*
G01X24099Y18493D01*
G01X24027Y18359D01*
G01X23968Y18219D01*
G01X23923Y18074D01*
G01X23893Y17926D01*
G01X23878Y17775D01*
G01X23878Y17623D01*
G01X23893Y17472D01*
G01X23923Y17323D01*
G01X23968Y17178D01*
G01X24027Y17038D01*
G01X24099Y16905D01*
G01X24185Y16779D01*
G01X24282Y16663D01*
G01X24391Y16557D01*
G01X24510Y16463D01*
G01X24637Y16380D01*
G01X24772Y16311D01*
G01X24914Y16255D01*
G01X25060Y16214D01*
G01X25209Y16188D01*
G37*
G36*
G01X12604Y16611D02*
G01X12721Y16602D01*
G01X12838Y16605D01*
G01X12955Y16619D01*
G01X13069Y16645D01*
G01X13181Y16683D01*
G01X13288Y16731D01*
G01X13389Y16790D01*
G01X13485Y16858D01*
G01X13573Y16936D01*
G01X13653Y17022D01*
G01X13724Y17116D01*
G01X13785Y17216D01*
G01X13836Y17322D01*
G01X13876Y17432D01*
G01X13905Y17546D01*
G01X13923Y17662D01*
G01X13928Y17780D01*
G01X13923Y17897D01*
G01X13905Y18013D01*
G01X13876Y18127D01*
G01X13836Y18237D01*
G01X13785Y18343D01*
G01X13724Y18443D01*
G01X13653Y18537D01*
G01X13573Y18623D01*
G01X13485Y18701D01*
G01X13389Y18769D01*
G01X13288Y18828D01*
G01X13181Y18876D01*
G01X13069Y18914D01*
G01X12955Y18940D01*
G01X12838Y18954D01*
G01X12721Y18957D01*
G01X12604Y18948D01*
G01X12488Y18928D01*
G01X12375Y18896D01*
G01X12266Y18853D01*
G01X12161Y18800D01*
G01X12063Y18736D01*
G01X11971Y18663D01*
G01X11887Y18581D01*
G01X11811Y18491D01*
G01X11745Y18394D01*
G01X11689Y18291D01*
G01X11643Y18182D01*
G01X11609Y18070D01*
G01X11585Y17955D01*
G01X11574Y17838D01*
G01X11574Y17721D01*
G01X11585Y17604D01*
G01X11609Y17489D01*
G01X11643Y17377D01*
G01X11689Y17268D01*
G01X11745Y17165D01*
G01X11811Y17068D01*
G01X11887Y16978D01*
G01X11971Y16896D01*
G01X12063Y16823D01*
G01X12161Y16759D01*
G01X12266Y16706D01*
G01X12375Y16663D01*
G01X12488Y16631D01*
G01X12604Y16611D01*
G37*
G36*
G01X18141Y17367D02*
G01X18141Y16677D01*
G01X18159Y16683D01*
G01X18266Y16731D01*
G01X18368Y16790D01*
G01X18463Y16858D01*
G01X18551Y16936D01*
G01X18631Y17022D01*
G01X18702Y17116D01*
G01X18763Y17216D01*
G01X18814Y17322D01*
G01X18831Y17367D01*
G01X18141Y17367D01*
G37*
G36*
G01X17244Y16706D02*
G01X17316Y16678D01*
G01X17316Y17367D01*
G01X16626Y17367D01*
G01X16667Y17268D01*
G01X16723Y17165D01*
G01X16790Y17068D01*
G01X16865Y16978D01*
G01X16949Y16896D01*
G01X17041Y16823D01*
G01X17140Y16759D01*
G01X17244Y16706D01*
G37*
G36*
G01X34762Y17911D02*
G01X34774Y17911D01*
G01X36349Y17911D01*
G01X36361Y17911D01*
G01X36373Y17911D01*
G01X36385Y17913D01*
G01X36398Y17914D01*
G01X36410Y17916D01*
G01X36422Y17918D01*
G01X36434Y17921D01*
G01X36445Y17924D01*
G01X36457Y17928D01*
G01X36469Y17932D01*
G01X36480Y17936D01*
G01X36491Y17941D01*
G01X36502Y17946D01*
G01X36513Y17952D01*
G01X36524Y17958D01*
G01X36534Y17964D01*
G01X36545Y17970D01*
G01X36555Y17977D01*
G01X36564Y17985D01*
G01X36574Y17993D01*
G01X36583Y18001D01*
G01X36592Y18009D01*
G01X36601Y18017D01*
G01X36609Y18026D01*
G01X36617Y18036D01*
G01X36625Y18045D01*
G01X36632Y18055D01*
G01X36639Y18065D01*
G01X36646Y18075D01*
G01X36652Y18086D01*
G01X36658Y18096D01*
G01X36663Y18107D01*
G01X36669Y18118D01*
G01X36673Y18129D01*
G01X36678Y18141D01*
G01X36682Y18152D01*
G01X36685Y18164D01*
G01X36688Y18176D01*
G01X36691Y18188D01*
G01X36694Y18200D01*
G01X36695Y18212D01*
G01X36697Y18224D01*
G01X36698Y18236D01*
G01X36699Y18248D01*
G01X36699Y18261D01*
G01X36699Y19835D01*
G01X36699Y19848D01*
G01X36698Y19860D01*
G01X36697Y19872D01*
G01X36695Y19884D01*
G01X36694Y19896D01*
G01X36691Y19908D01*
G01X36688Y19920D01*
G01X36685Y19932D01*
G01X36682Y19944D01*
G01X36678Y19955D01*
G01X36673Y19967D01*
G01X36669Y19978D01*
G01X36663Y19989D01*
G01X36658Y20000D01*
G01X36652Y20010D01*
G01X36646Y20021D01*
G01X36639Y20031D01*
G01X36632Y20041D01*
G01X36625Y20051D01*
G01X36617Y20060D01*
G01X36609Y20070D01*
G01X36601Y20079D01*
G01X36592Y20087D01*
G01X36583Y20095D01*
G01X36574Y20103D01*
G01X36564Y20111D01*
G01X36555Y20119D01*
G01X36545Y20126D01*
G01X36534Y20132D01*
G01X36524Y20138D01*
G01X36513Y20144D01*
G01X36502Y20150D01*
G01X36491Y20155D01*
G01X36480Y20160D01*
G01X36469Y20164D01*
G01X36457Y20168D01*
G01X36445Y20172D01*
G01X36434Y20175D01*
G01X36422Y20178D01*
G01X36410Y20180D01*
G01X36398Y20182D01*
G01X36385Y20183D01*
G01X36373Y20185D01*
G01X36361Y20185D01*
G01X36349Y20185D01*
G01X34774Y20185D01*
G01X34762Y20185D01*
G01X34750Y20185D01*
G01X34738Y20183D01*
G01X34725Y20182D01*
G01X34713Y20180D01*
G01X34701Y20178D01*
G01X34689Y20175D01*
G01X34678Y20172D01*
G01X34666Y20168D01*
G01X34654Y20164D01*
G01X34643Y20160D01*
G01X34632Y20155D01*
G01X34621Y20150D01*
G01X34610Y20144D01*
G01X34599Y20138D01*
G01X34589Y20132D01*
G01X34578Y20126D01*
G01X34568Y20119D01*
G01X34559Y20111D01*
G01X34549Y20103D01*
G01X34540Y20095D01*
G01X34531Y20087D01*
G01X34522Y20079D01*
G01X34514Y20070D01*
G01X34506Y20060D01*
G01X34498Y20051D01*
G01X34491Y20041D01*
G01X34484Y20031D01*
G01X34477Y20021D01*
G01X34471Y20010D01*
G01X34465Y20000D01*
G01X34460Y19989D01*
G01X34454Y19978D01*
G01X34450Y19967D01*
G01X34445Y19955D01*
G01X34441Y19944D01*
G01X34438Y19932D01*
G01X34434Y19920D01*
G01X34432Y19908D01*
G01X34429Y19896D01*
G01X34427Y19884D01*
G01X34426Y19872D01*
G01X34425Y19860D01*
G01X34424Y19848D01*
G01X34424Y19835D01*
G01X34424Y18261D01*
G01X34424Y18248D01*
G01X34425Y18236D01*
G01X34426Y18224D01*
G01X34427Y18212D01*
G01X34429Y18200D01*
G01X34432Y18188D01*
G01X34434Y18176D01*
G01X34438Y18164D01*
G01X34441Y18152D01*
G01X34445Y18141D01*
G01X34450Y18129D01*
G01X34454Y18118D01*
G01X34460Y18107D01*
G01X34465Y18096D01*
G01X34471Y18086D01*
G01X34477Y18075D01*
G01X34484Y18065D01*
G01X34491Y18055D01*
G01X34498Y18045D01*
G01X34506Y18036D01*
G01X34514Y18026D01*
G01X34522Y18017D01*
G01X34531Y18009D01*
G01X34540Y18001D01*
G01X34549Y17993D01*
G01X34559Y17985D01*
G01X34568Y17977D01*
G01X34578Y17970D01*
G01X34589Y17964D01*
G01X34599Y17958D01*
G01X34610Y17952D01*
G01X34621Y17946D01*
G01X34632Y17941D01*
G01X34643Y17936D01*
G01X34654Y17932D01*
G01X34666Y17928D01*
G01X34678Y17924D01*
G01X34689Y17921D01*
G01X34701Y17918D01*
G01X34713Y17916D01*
G01X34725Y17914D01*
G01X34738Y17913D01*
G01X34750Y17911D01*
G01X34762Y17911D01*
G37*
G36*
G01X18141Y18882D02*
G01X18141Y18192D01*
G01X18831Y18192D01*
G01X18814Y18237D01*
G01X18763Y18343D01*
G01X18702Y18443D01*
G01X18631Y18537D01*
G01X18551Y18623D01*
G01X18463Y18701D01*
G01X18368Y18769D01*
G01X18266Y18828D01*
G01X18159Y18876D01*
G01X18141Y18882D01*
G37*
G36*
G01X16667Y18291D02*
G01X16626Y18192D01*
G01X17316Y18192D01*
G01X17316Y18881D01*
G01X17244Y18853D01*
G01X17140Y18800D01*
G01X17041Y18736D01*
G01X16949Y18663D01*
G01X16865Y18581D01*
G01X16790Y18491D01*
G01X16723Y18394D01*
G01X16667Y18291D01*
G37*
G36*
G01X35953Y21196D02*
G01X35953Y20452D01*
G01X36347Y20452D01*
G01X36359Y20452D01*
G01X36371Y20453D01*
G01X36383Y20454D01*
G01X36396Y20456D01*
G01X36408Y20457D01*
G01X36420Y20460D01*
G01X36432Y20463D01*
G01X36443Y20466D01*
G01X36455Y20469D01*
G01X36467Y20473D01*
G01X36478Y20478D01*
G01X36489Y20482D01*
G01X36500Y20488D01*
G01X36511Y20493D01*
G01X36522Y20499D01*
G01X36532Y20505D01*
G01X36543Y20512D01*
G01X36553Y20519D01*
G01X36562Y20526D01*
G01X36572Y20534D01*
G01X36581Y20542D01*
G01X36590Y20550D01*
G01X36599Y20559D01*
G01X36607Y20568D01*
G01X36615Y20577D01*
G01X36623Y20587D01*
G01X36630Y20596D01*
G01X36637Y20606D01*
G01X36644Y20617D01*
G01X36650Y20627D01*
G01X36656Y20638D01*
G01X36661Y20649D01*
G01X36667Y20660D01*
G01X36671Y20671D01*
G01X36676Y20682D01*
G01X36680Y20694D01*
G01X36683Y20706D01*
G01X36686Y20717D01*
G01X36689Y20729D01*
G01X36692Y20741D01*
G01X36693Y20753D01*
G01X36695Y20766D01*
G01X36696Y20778D01*
G01X36697Y20790D01*
G01X36697Y20802D01*
G01X36697Y21196D01*
G01X35953Y21196D01*
G37*
G36*
G01X34760Y20452D02*
G01X34772Y20452D01*
G01X35166Y20452D01*
G01X35166Y21196D01*
G01X34422Y21196D01*
G01X34422Y20802D01*
G01X34422Y20790D01*
G01X34423Y20778D01*
G01X34424Y20766D01*
G01X34426Y20753D01*
G01X34427Y20741D01*
G01X34430Y20729D01*
G01X34433Y20717D01*
G01X34436Y20706D01*
G01X34439Y20694D01*
G01X34443Y20682D01*
G01X34448Y20671D01*
G01X34452Y20660D01*
G01X34458Y20649D01*
G01X34463Y20638D01*
G01X34469Y20627D01*
G01X34475Y20617D01*
G01X34482Y20606D01*
G01X34489Y20596D01*
G01X34496Y20587D01*
G01X34504Y20577D01*
G01X34512Y20568D01*
G01X34520Y20559D01*
G01X34529Y20550D01*
G01X34538Y20542D01*
G01X34547Y20534D01*
G01X34557Y20526D01*
G01X34566Y20519D01*
G01X34576Y20512D01*
G01X34587Y20505D01*
G01X34597Y20499D01*
G01X34608Y20493D01*
G01X34619Y20488D01*
G01X34630Y20482D01*
G01X34641Y20478D01*
G01X34652Y20473D01*
G01X34664Y20469D01*
G01X34676Y20466D01*
G01X34687Y20463D01*
G01X34699Y20460D01*
G01X34711Y20457D01*
G01X34723Y20456D01*
G01X34736Y20454D01*
G01X34748Y20453D01*
G01X34760Y20452D01*
G37*
G36*
G01X2933Y21196D02*
G01X2933Y20452D01*
G01X3327Y20452D01*
G01X3339Y20452D01*
G01X3351Y20453D01*
G01X3363Y20454D01*
G01X3376Y20456D01*
G01X3388Y20457D01*
G01X3400Y20460D01*
G01X3412Y20463D01*
G01X3423Y20466D01*
G01X3435Y20469D01*
G01X3447Y20473D01*
G01X3458Y20478D01*
G01X3469Y20482D01*
G01X3480Y20488D01*
G01X3491Y20493D01*
G01X3502Y20499D01*
G01X3512Y20505D01*
G01X3523Y20512D01*
G01X3533Y20519D01*
G01X3542Y20526D01*
G01X3552Y20534D01*
G01X3561Y20542D01*
G01X3570Y20550D01*
G01X3579Y20559D01*
G01X3587Y20568D01*
G01X3595Y20577D01*
G01X3603Y20587D01*
G01X3610Y20596D01*
G01X3617Y20606D01*
G01X3624Y20617D01*
G01X3630Y20627D01*
G01X3636Y20638D01*
G01X3641Y20649D01*
G01X3647Y20660D01*
G01X3651Y20671D01*
G01X3656Y20682D01*
G01X3660Y20694D01*
G01X3663Y20706D01*
G01X3666Y20717D01*
G01X3669Y20729D01*
G01X3672Y20741D01*
G01X3673Y20753D01*
G01X3675Y20766D01*
G01X3676Y20778D01*
G01X3677Y20790D01*
G01X3677Y20802D01*
G01X3677Y21196D01*
G01X2933Y21196D01*
G37*
G36*
G01X1740Y20452D02*
G01X1752Y20452D01*
G01X2146Y20452D01*
G01X2146Y21196D01*
G01X1402Y21196D01*
G01X1402Y20802D01*
G01X1402Y20790D01*
G01X1403Y20778D01*
G01X1404Y20766D01*
G01X1406Y20753D01*
G01X1407Y20741D01*
G01X1410Y20729D01*
G01X1413Y20717D01*
G01X1416Y20706D01*
G01X1419Y20694D01*
G01X1423Y20682D01*
G01X1428Y20671D01*
G01X1432Y20660D01*
G01X1438Y20649D01*
G01X1443Y20638D01*
G01X1449Y20627D01*
G01X1455Y20617D01*
G01X1462Y20606D01*
G01X1469Y20596D01*
G01X1476Y20587D01*
G01X1484Y20577D01*
G01X1492Y20568D01*
G01X1500Y20559D01*
G01X1509Y20550D01*
G01X1518Y20542D01*
G01X1527Y20534D01*
G01X1537Y20526D01*
G01X1546Y20519D01*
G01X1556Y20512D01*
G01X1567Y20505D01*
G01X1577Y20499D01*
G01X1588Y20493D01*
G01X1599Y20488D01*
G01X1610Y20482D01*
G01X1621Y20478D01*
G01X1632Y20473D01*
G01X1644Y20469D01*
G01X1656Y20466D01*
G01X1667Y20463D01*
G01X1679Y20460D01*
G01X1691Y20457D01*
G01X1703Y20456D01*
G01X1716Y20454D01*
G01X1728Y20453D01*
G01X1740Y20452D01*
G37*

%LPD*%
G36*
G01X10160Y20320D02*
G01X0Y20320D01*
G01X0Y30480D01*
G01X10160Y30480D01*
G01X9704Y30024D01*
G01X9694Y30035D01*
G01X9608Y30111D01*
G01X9515Y30178D01*
G01X9415Y30235D01*
G01X9311Y30282D01*
G01X9290Y30290D01*
G01X9290Y29610D01*
G01X8489Y28809D01*
G01X7809Y28809D01*
G01X7851Y28709D01*
G01X7906Y28608D01*
G01X7971Y28514D01*
G01X8045Y28426D01*
G01X8075Y28395D01*
G01X7619Y27940D01*
G01X7619Y22860D01*
G01X8062Y22417D01*
G01X8010Y22332D01*
G01X7971Y22285D01*
G01X7906Y22191D01*
G01X7851Y22090D01*
G01X7806Y21984D01*
G01X7773Y21874D01*
G01X7750Y21761D01*
G01X7738Y21647D01*
G01X7738Y21532D01*
G01X7750Y21418D01*
G01X7773Y21305D01*
G01X7806Y21195D01*
G01X7851Y21089D01*
G01X7906Y20988D01*
G01X7971Y20894D01*
G01X8045Y20806D01*
G01X8127Y20725D01*
G01X8217Y20654D01*
G01X8313Y20591D01*
G01X8415Y20539D01*
G01X8522Y20497D01*
G01X8633Y20466D01*
G01X8746Y20446D01*
G01X8861Y20437D01*
G01X8976Y20440D01*
G01X9090Y20454D01*
G01X9202Y20480D01*
G01X9311Y20517D01*
G01X9415Y20564D01*
G01X9515Y20621D01*
G01X9608Y20688D01*
G01X9694Y20764D01*
G01X9704Y20775D01*
G01X10160Y20320D01*
G37*

%LPC*%
G36*
G01X2933Y21196D02*
G01X2933Y20452D01*
G01X3327Y20452D01*
G01X3339Y20452D01*
G01X3351Y20453D01*
G01X3363Y20454D01*
G01X3376Y20456D01*
G01X3388Y20457D01*
G01X3400Y20460D01*
G01X3412Y20463D01*
G01X3423Y20466D01*
G01X3435Y20469D01*
G01X3447Y20473D01*
G01X3458Y20478D01*
G01X3469Y20482D01*
G01X3480Y20488D01*
G01X3491Y20493D01*
G01X3502Y20499D01*
G01X3512Y20505D01*
G01X3523Y20512D01*
G01X3533Y20519D01*
G01X3542Y20526D01*
G01X3552Y20534D01*
G01X3561Y20542D01*
G01X3570Y20550D01*
G01X3579Y20559D01*
G01X3587Y20568D01*
G01X3595Y20577D01*
G01X3603Y20587D01*
G01X3610Y20596D01*
G01X3617Y20606D01*
G01X3624Y20617D01*
G01X3630Y20627D01*
G01X3636Y20638D01*
G01X3641Y20649D01*
G01X3647Y20660D01*
G01X3651Y20671D01*
G01X3656Y20682D01*
G01X3660Y20694D01*
G01X3663Y20706D01*
G01X3666Y20717D01*
G01X3669Y20729D01*
G01X3672Y20741D01*
G01X3673Y20753D01*
G01X3675Y20766D01*
G01X3676Y20778D01*
G01X3677Y20790D01*
G01X3677Y20802D01*
G01X3677Y21196D01*
G01X2933Y21196D01*
G37*
G36*
G01X1740Y20452D02*
G01X1752Y20452D01*
G01X2146Y20452D01*
G01X2146Y21196D01*
G01X1402Y21196D01*
G01X1402Y20802D01*
G01X1402Y20790D01*
G01X1403Y20778D01*
G01X1404Y20766D01*
G01X1406Y20753D01*
G01X1407Y20741D01*
G01X1410Y20729D01*
G01X1413Y20717D01*
G01X1416Y20706D01*
G01X1419Y20694D01*
G01X1423Y20682D01*
G01X1428Y20671D01*
G01X1432Y20660D01*
G01X1438Y20649D01*
G01X1443Y20638D01*
G01X1449Y20627D01*
G01X1455Y20617D01*
G01X1462Y20606D01*
G01X1469Y20596D01*
G01X1476Y20587D01*
G01X1484Y20577D01*
G01X1492Y20568D01*
G01X1500Y20559D01*
G01X1509Y20550D01*
G01X1518Y20542D01*
G01X1527Y20534D01*
G01X1537Y20526D01*
G01X1546Y20519D01*
G01X1556Y20512D01*
G01X1567Y20505D01*
G01X1577Y20499D01*
G01X1588Y20493D01*
G01X1599Y20488D01*
G01X1610Y20482D01*
G01X1621Y20478D01*
G01X1632Y20473D01*
G01X1644Y20469D01*
G01X1656Y20466D01*
G01X1667Y20463D01*
G01X1679Y20460D01*
G01X1691Y20457D01*
G01X1703Y20456D01*
G01X1716Y20454D01*
G01X1728Y20453D01*
G01X1740Y20452D01*
G37*
G36*
G01X2933Y22727D02*
G01X2933Y21983D01*
G01X3677Y21983D01*
G01X3677Y22377D01*
G01X3677Y22389D01*
G01X3676Y22401D01*
G01X3675Y22413D01*
G01X3673Y22426D01*
G01X3672Y22438D01*
G01X3669Y22450D01*
G01X3666Y22462D01*
G01X3663Y22473D01*
G01X3660Y22485D01*
G01X3656Y22497D01*
G01X3651Y22508D01*
G01X3647Y22519D01*
G01X3641Y22530D01*
G01X3636Y22541D01*
G01X3630Y22552D01*
G01X3624Y22562D01*
G01X3617Y22573D01*
G01X3610Y22583D01*
G01X3603Y22592D01*
G01X3595Y22602D01*
G01X3587Y22611D01*
G01X3579Y22620D01*
G01X3570Y22629D01*
G01X3561Y22637D01*
G01X3552Y22645D01*
G01X3542Y22653D01*
G01X3533Y22660D01*
G01X3523Y22667D01*
G01X3512Y22674D01*
G01X3502Y22680D01*
G01X3491Y22686D01*
G01X3480Y22691D01*
G01X3469Y22697D01*
G01X3458Y22701D01*
G01X3447Y22706D01*
G01X3435Y22710D01*
G01X3423Y22713D01*
G01X3412Y22716D01*
G01X3400Y22719D01*
G01X3388Y22722D01*
G01X3376Y22723D01*
G01X3363Y22725D01*
G01X3351Y22726D01*
G01X3339Y22727D01*
G01X3327Y22727D01*
G01X2933Y22727D01*
G37*
G36*
G01X1402Y22377D02*
G01X1402Y21983D01*
G01X2146Y21983D01*
G01X2146Y22727D01*
G01X1752Y22727D01*
G01X1740Y22727D01*
G01X1728Y22726D01*
G01X1716Y22725D01*
G01X1703Y22723D01*
G01X1691Y22722D01*
G01X1679Y22719D01*
G01X1667Y22716D01*
G01X1656Y22713D01*
G01X1644Y22710D01*
G01X1632Y22706D01*
G01X1621Y22701D01*
G01X1610Y22697D01*
G01X1599Y22691D01*
G01X1588Y22686D01*
G01X1577Y22680D01*
G01X1567Y22674D01*
G01X1556Y22667D01*
G01X1546Y22660D01*
G01X1537Y22653D01*
G01X1527Y22645D01*
G01X1518Y22637D01*
G01X1509Y22629D01*
G01X1500Y22620D01*
G01X1492Y22611D01*
G01X1484Y22602D01*
G01X1476Y22592D01*
G01X1469Y22583D01*
G01X1462Y22573D01*
G01X1455Y22562D01*
G01X1449Y22552D01*
G01X1443Y22541D01*
G01X1438Y22530D01*
G01X1432Y22519D01*
G01X1428Y22508D01*
G01X1423Y22497D01*
G01X1419Y22485D01*
G01X1416Y22473D01*
G01X1413Y22462D01*
G01X1410Y22450D01*
G01X1407Y22438D01*
G01X1406Y22426D01*
G01X1404Y22413D01*
G01X1403Y22401D01*
G01X1402Y22389D01*
G01X1402Y22377D01*
G37*
G36*
G01X1742Y22990D02*
G01X1755Y22990D01*
G01X3329Y22990D01*
G01X3342Y22990D01*
G01X3354Y22990D01*
G01X3366Y22991D01*
G01X3378Y22993D01*
G01X3390Y22995D01*
G01X3402Y22997D01*
G01X3414Y23000D01*
G01X3426Y23003D01*
G01X3438Y23007D01*
G01X3449Y23011D01*
G01X3461Y23015D01*
G01X3472Y23020D01*
G01X3483Y23025D01*
G01X3494Y23031D01*
G01X3504Y23036D01*
G01X3515Y23043D01*
G01X3525Y23049D01*
G01X3535Y23056D01*
G01X3545Y23064D01*
G01X3554Y23071D01*
G01X3564Y23079D01*
G01X3573Y23088D01*
G01X3581Y23096D01*
G01X3590Y23105D01*
G01X3598Y23115D01*
G01X3605Y23124D01*
G01X3613Y23134D01*
G01X3620Y23144D01*
G01X3626Y23154D01*
G01X3633Y23165D01*
G01X3638Y23175D01*
G01X3644Y23186D01*
G01X3649Y23197D01*
G01X3654Y23208D01*
G01X3658Y23220D01*
G01X3662Y23231D01*
G01X3666Y23243D01*
G01X3669Y23255D01*
G01X3672Y23267D01*
G01X3674Y23279D01*
G01X3676Y23291D01*
G01X3678Y23303D01*
G01X3679Y23315D01*
G01X3679Y23327D01*
G01X3679Y23340D01*
G01X3679Y24914D01*
G01X3679Y24927D01*
G01X3679Y24939D01*
G01X3678Y24951D01*
G01X3676Y24963D01*
G01X3674Y24975D01*
G01X3672Y24987D01*
G01X3669Y24999D01*
G01X3666Y25011D01*
G01X3662Y25023D01*
G01X3658Y25034D01*
G01X3654Y25045D01*
G01X3649Y25057D01*
G01X3644Y25068D01*
G01X3638Y25079D01*
G01X3633Y25089D01*
G01X3626Y25100D01*
G01X3620Y25110D01*
G01X3613Y25120D01*
G01X3605Y25130D01*
G01X3598Y25139D01*
G01X3590Y25149D01*
G01X3581Y25157D01*
G01X3573Y25166D01*
G01X3564Y25174D01*
G01X3554Y25182D01*
G01X3545Y25190D01*
G01X3535Y25197D01*
G01X3525Y25205D01*
G01X3515Y25211D01*
G01X3504Y25217D01*
G01X3494Y25223D01*
G01X3483Y25229D01*
G01X3472Y25234D01*
G01X3461Y25239D01*
G01X3449Y25243D01*
G01X3438Y25247D01*
G01X3426Y25251D01*
G01X3414Y25254D01*
G01X3402Y25257D01*
G01X3390Y25259D01*
G01X3378Y25261D01*
G01X3366Y25262D01*
G01X3354Y25263D01*
G01X3342Y25264D01*
G01X3329Y25264D01*
G01X1755Y25264D01*
G01X1742Y25264D01*
G01X1730Y25263D01*
G01X1718Y25262D01*
G01X1706Y25261D01*
G01X1694Y25259D01*
G01X1682Y25257D01*
G01X1670Y25254D01*
G01X1658Y25251D01*
G01X1646Y25247D01*
G01X1635Y25243D01*
G01X1624Y25239D01*
G01X1612Y25234D01*
G01X1601Y25229D01*
G01X1590Y25223D01*
G01X1580Y25217D01*
G01X1569Y25211D01*
G01X1559Y25205D01*
G01X1549Y25197D01*
G01X1539Y25190D01*
G01X1530Y25182D01*
G01X1520Y25174D01*
G01X1512Y25166D01*
G01X1503Y25157D01*
G01X1495Y25149D01*
G01X1487Y25139D01*
G01X1479Y25130D01*
G01X1472Y25120D01*
G01X1464Y25110D01*
G01X1458Y25100D01*
G01X1452Y25089D01*
G01X1446Y25079D01*
G01X1440Y25068D01*
G01X1435Y25057D01*
G01X1430Y25045D01*
G01X1426Y25034D01*
G01X1422Y25023D01*
G01X1418Y25011D01*
G01X1415Y24999D01*
G01X1412Y24987D01*
G01X1410Y24975D01*
G01X1408Y24963D01*
G01X1407Y24951D01*
G01X1406Y24939D01*
G01X1405Y24927D01*
G01X1405Y24914D01*
G01X1405Y23340D01*
G01X1405Y23327D01*
G01X1406Y23315D01*
G01X1407Y23303D01*
G01X1408Y23291D01*
G01X1410Y23279D01*
G01X1412Y23267D01*
G01X1415Y23255D01*
G01X1418Y23243D01*
G01X1422Y23231D01*
G01X1426Y23220D01*
G01X1430Y23208D01*
G01X1435Y23197D01*
G01X1440Y23186D01*
G01X1446Y23175D01*
G01X1452Y23165D01*
G01X1458Y23154D01*
G01X1464Y23144D01*
G01X1472Y23134D01*
G01X1479Y23124D01*
G01X1487Y23115D01*
G01X1495Y23105D01*
G01X1503Y23096D01*
G01X1512Y23088D01*
G01X1520Y23079D01*
G01X1530Y23071D01*
G01X1539Y23064D01*
G01X1549Y23056D01*
G01X1559Y23049D01*
G01X1569Y23043D01*
G01X1580Y23036D01*
G01X1590Y23031D01*
G01X1601Y23025D01*
G01X1612Y23020D01*
G01X1624Y23015D01*
G01X1635Y23011D01*
G01X1646Y23007D01*
G01X1658Y23003D01*
G01X1670Y23000D01*
G01X1682Y22997D01*
G01X1694Y22995D01*
G01X1706Y22993D01*
G01X1718Y22991D01*
G01X1730Y22990D01*
G01X1742Y22990D01*
G37*
G36*
G01X1740Y25532D02*
G01X1752Y25532D01*
G01X3327Y25532D01*
G01X3339Y25532D01*
G01X3351Y25533D01*
G01X3363Y25534D01*
G01X3376Y25536D01*
G01X3388Y25537D01*
G01X3400Y25540D01*
G01X3412Y25543D01*
G01X3423Y25546D01*
G01X3435Y25549D01*
G01X3447Y25553D01*
G01X3458Y25558D01*
G01X3469Y25562D01*
G01X3480Y25568D01*
G01X3491Y25573D01*
G01X3502Y25579D01*
G01X3512Y25585D01*
G01X3523Y25592D01*
G01X3533Y25599D01*
G01X3542Y25606D01*
G01X3552Y25614D01*
G01X3561Y25622D01*
G01X3570Y25630D01*
G01X3579Y25639D01*
G01X3587Y25648D01*
G01X3595Y25657D01*
G01X3603Y25667D01*
G01X3610Y25676D01*
G01X3617Y25686D01*
G01X3624Y25697D01*
G01X3630Y25707D01*
G01X3636Y25718D01*
G01X3641Y25729D01*
G01X3647Y25740D01*
G01X3651Y25751D01*
G01X3656Y25762D01*
G01X3660Y25774D01*
G01X3663Y25786D01*
G01X3666Y25797D01*
G01X3669Y25809D01*
G01X3672Y25821D01*
G01X3673Y25833D01*
G01X3675Y25846D01*
G01X3676Y25858D01*
G01X3677Y25870D01*
G01X3677Y25882D01*
G01X3677Y27457D01*
G01X3677Y27469D01*
G01X3676Y27481D01*
G01X3675Y27493D01*
G01X3673Y27506D01*
G01X3672Y27518D01*
G01X3669Y27530D01*
G01X3666Y27542D01*
G01X3663Y27553D01*
G01X3660Y27565D01*
G01X3656Y27577D01*
G01X3651Y27588D01*
G01X3647Y27599D01*
G01X3641Y27610D01*
G01X3636Y27621D01*
G01X3630Y27632D01*
G01X3624Y27642D01*
G01X3617Y27653D01*
G01X3610Y27663D01*
G01X3603Y27672D01*
G01X3595Y27682D01*
G01X3587Y27691D01*
G01X3579Y27700D01*
G01X3570Y27709D01*
G01X3561Y27717D01*
G01X3552Y27725D01*
G01X3542Y27733D01*
G01X3533Y27740D01*
G01X3523Y27747D01*
G01X3512Y27754D01*
G01X3502Y27760D01*
G01X3491Y27766D01*
G01X3480Y27771D01*
G01X3469Y27777D01*
G01X3458Y27781D01*
G01X3447Y27786D01*
G01X3435Y27790D01*
G01X3423Y27793D01*
G01X3412Y27796D01*
G01X3400Y27799D01*
G01X3388Y27802D01*
G01X3376Y27803D01*
G01X3363Y27805D01*
G01X3351Y27806D01*
G01X3339Y27807D01*
G01X3327Y27807D01*
G01X1752Y27807D01*
G01X1740Y27807D01*
G01X1728Y27806D01*
G01X1716Y27805D01*
G01X1703Y27803D01*
G01X1691Y27802D01*
G01X1679Y27799D01*
G01X1667Y27796D01*
G01X1656Y27793D01*
G01X1644Y27790D01*
G01X1632Y27786D01*
G01X1621Y27781D01*
G01X1610Y27777D01*
G01X1599Y27771D01*
G01X1588Y27766D01*
G01X1577Y27760D01*
G01X1567Y27754D01*
G01X1556Y27747D01*
G01X1546Y27740D01*
G01X1537Y27733D01*
G01X1527Y27725D01*
G01X1518Y27717D01*
G01X1509Y27709D01*
G01X1500Y27700D01*
G01X1492Y27691D01*
G01X1484Y27682D01*
G01X1476Y27672D01*
G01X1469Y27663D01*
G01X1462Y27653D01*
G01X1455Y27642D01*
G01X1449Y27632D01*
G01X1443Y27621D01*
G01X1438Y27610D01*
G01X1432Y27599D01*
G01X1428Y27588D01*
G01X1423Y27577D01*
G01X1419Y27565D01*
G01X1416Y27553D01*
G01X1413Y27542D01*
G01X1410Y27530D01*
G01X1407Y27518D01*
G01X1406Y27506D01*
G01X1404Y27493D01*
G01X1403Y27481D01*
G01X1402Y27469D01*
G01X1402Y27457D01*
G01X1402Y25882D01*
G01X1402Y25870D01*
G01X1403Y25858D01*
G01X1404Y25846D01*
G01X1406Y25833D01*
G01X1407Y25821D01*
G01X1410Y25809D01*
G01X1413Y25797D01*
G01X1416Y25786D01*
G01X1419Y25774D01*
G01X1423Y25762D01*
G01X1428Y25751D01*
G01X1432Y25740D01*
G01X1438Y25729D01*
G01X1443Y25718D01*
G01X1449Y25707D01*
G01X1455Y25697D01*
G01X1462Y25686D01*
G01X1469Y25676D01*
G01X1476Y25667D01*
G01X1484Y25657D01*
G01X1492Y25648D01*
G01X1500Y25639D01*
G01X1509Y25630D01*
G01X1518Y25622D01*
G01X1527Y25614D01*
G01X1537Y25606D01*
G01X1546Y25599D01*
G01X1556Y25592D01*
G01X1567Y25585D01*
G01X1577Y25579D01*
G01X1588Y25573D01*
G01X1599Y25568D01*
G01X1610Y25562D01*
G01X1621Y25558D01*
G01X1632Y25553D01*
G01X1644Y25549D01*
G01X1656Y25546D01*
G01X1667Y25543D01*
G01X1679Y25540D01*
G01X1691Y25537D01*
G01X1703Y25536D01*
G01X1716Y25534D01*
G01X1728Y25533D01*
G01X1740Y25532D01*
G37*
G36*
G01X7851Y29710D02*
G01X7809Y29610D01*
G01X8489Y29610D01*
G01X8489Y30289D01*
G01X8415Y30260D01*
G01X8313Y30208D01*
G01X8217Y30145D01*
G01X8127Y30074D01*
G01X8045Y29993D01*
G01X7971Y29905D01*
G01X7906Y29811D01*
G01X7851Y29710D01*
G37*

%LPD*%
G36*
G01X38100Y20320D02*
G01X30782Y20320D01*
G01X30835Y20332D01*
G01X30958Y20373D01*
G01X31077Y20427D01*
G01X31190Y20492D01*
G01X31295Y20568D01*
G01X31393Y20654D01*
G01X31481Y20749D01*
G01X31560Y20853D01*
G01X31628Y20964D01*
G01X31684Y21081D01*
G01X31729Y21203D01*
G01X31761Y21329D01*
G01X31780Y21458D01*
G01X31787Y21588D01*
G01X31780Y21718D01*
G01X31761Y21847D01*
G01X31729Y21973D01*
G01X31684Y22095D01*
G01X31628Y22212D01*
G01X31560Y22323D01*
G01X31481Y22427D01*
G01X31393Y22522D01*
G01X31295Y22608D01*
G01X31190Y22684D01*
G01X31077Y22749D01*
G01X30958Y22803D01*
G01X30835Y22844D01*
G01X30708Y22873D01*
G01X30579Y22889D01*
G01X30567Y22890D01*
G01X29914Y23009D01*
G01X26003Y26920D01*
G01X26003Y30480D01*
G01X38100Y30480D01*
G01X38100Y20320D01*
G37*

%LPC*%
G36*
G01X35953Y21196D02*
G01X35953Y20452D01*
G01X36347Y20452D01*
G01X36359Y20452D01*
G01X36371Y20453D01*
G01X36383Y20454D01*
G01X36396Y20456D01*
G01X36408Y20457D01*
G01X36420Y20460D01*
G01X36432Y20463D01*
G01X36443Y20466D01*
G01X36455Y20469D01*
G01X36467Y20473D01*
G01X36478Y20478D01*
G01X36489Y20482D01*
G01X36500Y20488D01*
G01X36511Y20493D01*
G01X36522Y20499D01*
G01X36532Y20505D01*
G01X36543Y20512D01*
G01X36553Y20519D01*
G01X36562Y20526D01*
G01X36572Y20534D01*
G01X36581Y20542D01*
G01X36590Y20550D01*
G01X36599Y20559D01*
G01X36607Y20568D01*
G01X36615Y20577D01*
G01X36623Y20587D01*
G01X36630Y20596D01*
G01X36637Y20606D01*
G01X36644Y20617D01*
G01X36650Y20627D01*
G01X36656Y20638D01*
G01X36661Y20649D01*
G01X36667Y20660D01*
G01X36671Y20671D01*
G01X36676Y20682D01*
G01X36680Y20694D01*
G01X36683Y20706D01*
G01X36686Y20717D01*
G01X36689Y20729D01*
G01X36692Y20741D01*
G01X36693Y20753D01*
G01X36695Y20766D01*
G01X36696Y20778D01*
G01X36697Y20790D01*
G01X36697Y20802D01*
G01X36697Y21196D01*
G01X35953Y21196D01*
G37*
G36*
G01X34760Y20452D02*
G01X34772Y20452D01*
G01X35166Y20452D01*
G01X35166Y21196D01*
G01X34422Y21196D01*
G01X34422Y20802D01*
G01X34422Y20790D01*
G01X34423Y20778D01*
G01X34424Y20766D01*
G01X34426Y20753D01*
G01X34427Y20741D01*
G01X34430Y20729D01*
G01X34433Y20717D01*
G01X34436Y20706D01*
G01X34439Y20694D01*
G01X34443Y20682D01*
G01X34448Y20671D01*
G01X34452Y20660D01*
G01X34458Y20649D01*
G01X34463Y20638D01*
G01X34469Y20627D01*
G01X34475Y20617D01*
G01X34482Y20606D01*
G01X34489Y20596D01*
G01X34496Y20587D01*
G01X34504Y20577D01*
G01X34512Y20568D01*
G01X34520Y20559D01*
G01X34529Y20550D01*
G01X34538Y20542D01*
G01X34547Y20534D01*
G01X34557Y20526D01*
G01X34566Y20519D01*
G01X34576Y20512D01*
G01X34587Y20505D01*
G01X34597Y20499D01*
G01X34608Y20493D01*
G01X34619Y20488D01*
G01X34630Y20482D01*
G01X34641Y20478D01*
G01X34652Y20473D01*
G01X34664Y20469D01*
G01X34676Y20466D01*
G01X34687Y20463D01*
G01X34699Y20460D01*
G01X34711Y20457D01*
G01X34723Y20456D01*
G01X34736Y20454D01*
G01X34748Y20453D01*
G01X34760Y20452D01*
G37*
G36*
G01X35953Y22727D02*
G01X35953Y21983D01*
G01X36697Y21983D01*
G01X36697Y22377D01*
G01X36697Y22389D01*
G01X36696Y22401D01*
G01X36695Y22413D01*
G01X36693Y22426D01*
G01X36692Y22438D01*
G01X36689Y22450D01*
G01X36686Y22462D01*
G01X36683Y22473D01*
G01X36680Y22485D01*
G01X36676Y22497D01*
G01X36671Y22508D01*
G01X36667Y22519D01*
G01X36661Y22530D01*
G01X36656Y22541D01*
G01X36650Y22552D01*
G01X36644Y22562D01*
G01X36637Y22573D01*
G01X36630Y22583D01*
G01X36623Y22592D01*
G01X36615Y22602D01*
G01X36607Y22611D01*
G01X36599Y22620D01*
G01X36590Y22629D01*
G01X36581Y22637D01*
G01X36572Y22645D01*
G01X36562Y22653D01*
G01X36553Y22660D01*
G01X36543Y22667D01*
G01X36532Y22674D01*
G01X36522Y22680D01*
G01X36511Y22686D01*
G01X36500Y22691D01*
G01X36489Y22697D01*
G01X36478Y22701D01*
G01X36467Y22706D01*
G01X36455Y22710D01*
G01X36443Y22713D01*
G01X36432Y22716D01*
G01X36420Y22719D01*
G01X36408Y22722D01*
G01X36396Y22723D01*
G01X36383Y22725D01*
G01X36371Y22726D01*
G01X36359Y22727D01*
G01X36347Y22727D01*
G01X35953Y22727D01*
G37*
G36*
G01X34422Y22377D02*
G01X34422Y21983D01*
G01X35166Y21983D01*
G01X35166Y22727D01*
G01X34772Y22727D01*
G01X34760Y22727D01*
G01X34748Y22726D01*
G01X34736Y22725D01*
G01X34723Y22723D01*
G01X34711Y22722D01*
G01X34699Y22719D01*
G01X34687Y22716D01*
G01X34676Y22713D01*
G01X34664Y22710D01*
G01X34652Y22706D01*
G01X34641Y22701D01*
G01X34630Y22697D01*
G01X34619Y22691D01*
G01X34608Y22686D01*
G01X34597Y22680D01*
G01X34587Y22674D01*
G01X34576Y22667D01*
G01X34566Y22660D01*
G01X34557Y22653D01*
G01X34547Y22645D01*
G01X34538Y22637D01*
G01X34529Y22629D01*
G01X34520Y22620D01*
G01X34512Y22611D01*
G01X34504Y22602D01*
G01X34496Y22592D01*
G01X34489Y22583D01*
G01X34482Y22573D01*
G01X34475Y22562D01*
G01X34469Y22552D01*
G01X34463Y22541D01*
G01X34458Y22530D01*
G01X34452Y22519D01*
G01X34448Y22508D01*
G01X34443Y22497D01*
G01X34439Y22485D01*
G01X34436Y22473D01*
G01X34433Y22462D01*
G01X34430Y22450D01*
G01X34427Y22438D01*
G01X34426Y22426D01*
G01X34424Y22413D01*
G01X34423Y22401D01*
G01X34422Y22389D01*
G01X34422Y22377D01*
G37*
G36*
G01X31587Y22835D02*
G01X31717Y22825D01*
G01X31847Y22828D01*
G01X31976Y22844D01*
G01X32103Y22873D01*
G01X32226Y22915D01*
G01X32345Y22968D01*
G01X32458Y23033D01*
G01X32563Y23109D01*
G01X32661Y23195D01*
G01X32749Y23291D01*
G01X32828Y23394D01*
G01X32896Y23505D01*
G01X32952Y23623D01*
G01X32997Y23745D01*
G01X33029Y23871D01*
G01X33048Y24000D01*
G01X33055Y24130D01*
G01X33048Y24259D01*
G01X33029Y24388D01*
G01X32997Y24514D01*
G01X32952Y24636D01*
G01X32896Y24754D01*
G01X32828Y24865D01*
G01X32749Y24968D01*
G01X32661Y25064D01*
G01X32563Y25150D01*
G01X32458Y25226D01*
G01X32345Y25291D01*
G01X32226Y25344D01*
G01X32103Y25386D01*
G01X31976Y25415D01*
G01X31847Y25431D01*
G01X31717Y25434D01*
G01X31587Y25424D01*
G01X31459Y25402D01*
G01X31334Y25367D01*
G01X31213Y25319D01*
G01X31097Y25260D01*
G01X30988Y25189D01*
G01X30886Y25108D01*
G01X30793Y25017D01*
G01X30709Y24917D01*
G01X30636Y24810D01*
G01X30574Y24696D01*
G01X30523Y24576D01*
G01X30485Y24452D01*
G01X30459Y24324D01*
G01X30446Y24195D01*
G01X30446Y24064D01*
G01X30459Y23935D01*
G01X30485Y23807D01*
G01X30523Y23683D01*
G01X30574Y23563D01*
G01X30636Y23449D01*
G01X30709Y23342D01*
G01X30793Y23242D01*
G01X30886Y23151D01*
G01X30988Y23070D01*
G01X31097Y22999D01*
G01X31213Y22940D01*
G01X31334Y22892D01*
G01X31459Y22857D01*
G01X31587Y22835D01*
G37*
G36*
G01X34757Y22995D02*
G01X34770Y22995D01*
G01X36344Y22995D01*
G01X36357Y22995D01*
G01X36369Y22996D01*
G01X36381Y22997D01*
G01X36393Y22998D01*
G01X36405Y23000D01*
G01X36417Y23002D01*
G01X36429Y23005D01*
G01X36441Y23008D01*
G01X36453Y23012D01*
G01X36464Y23016D01*
G01X36475Y23020D01*
G01X36487Y23025D01*
G01X36498Y23030D01*
G01X36509Y23036D01*
G01X36519Y23042D01*
G01X36530Y23048D01*
G01X36540Y23054D01*
G01X36550Y23062D01*
G01X36560Y23069D01*
G01X36569Y23077D01*
G01X36579Y23085D01*
G01X36587Y23093D01*
G01X36596Y23102D01*
G01X36604Y23110D01*
G01X36612Y23120D01*
G01X36620Y23129D01*
G01X36627Y23139D01*
G01X36635Y23149D01*
G01X36641Y23159D01*
G01X36647Y23170D01*
G01X36653Y23180D01*
G01X36659Y23191D01*
G01X36664Y23202D01*
G01X36669Y23214D01*
G01X36673Y23225D01*
G01X36677Y23236D01*
G01X36681Y23248D01*
G01X36684Y23260D01*
G01X36687Y23272D01*
G01X36689Y23284D01*
G01X36691Y23296D01*
G01X36692Y23308D01*
G01X36693Y23320D01*
G01X36694Y23332D01*
G01X36694Y23345D01*
G01X36694Y24919D01*
G01X36694Y24932D01*
G01X36693Y24944D01*
G01X36692Y24956D01*
G01X36691Y24968D01*
G01X36689Y24980D01*
G01X36687Y24992D01*
G01X36684Y25004D01*
G01X36681Y25016D01*
G01X36677Y25028D01*
G01X36673Y25039D01*
G01X36669Y25051D01*
G01X36664Y25062D01*
G01X36659Y25073D01*
G01X36653Y25084D01*
G01X36647Y25094D01*
G01X36641Y25105D01*
G01X36635Y25115D01*
G01X36627Y25125D01*
G01X36620Y25135D01*
G01X36612Y25144D01*
G01X36604Y25154D01*
G01X36596Y25163D01*
G01X36587Y25171D01*
G01X36579Y25180D01*
G01X36569Y25188D01*
G01X36560Y25195D01*
G01X36550Y25203D01*
G01X36540Y25210D01*
G01X36530Y25216D01*
G01X36519Y25223D01*
G01X36509Y25228D01*
G01X36498Y25234D01*
G01X36487Y25239D01*
G01X36475Y25244D01*
G01X36464Y25248D01*
G01X36453Y25252D01*
G01X36441Y25256D01*
G01X36429Y25259D01*
G01X36417Y25262D01*
G01X36405Y25264D01*
G01X36393Y25266D01*
G01X36381Y25268D01*
G01X36369Y25269D01*
G01X36357Y25269D01*
G01X36344Y25269D01*
G01X34770Y25269D01*
G01X34757Y25269D01*
G01X34745Y25269D01*
G01X34733Y25268D01*
G01X34721Y25266D01*
G01X34709Y25264D01*
G01X34697Y25262D01*
G01X34685Y25259D01*
G01X34673Y25256D01*
G01X34661Y25252D01*
G01X34650Y25248D01*
G01X34638Y25244D01*
G01X34627Y25239D01*
G01X34616Y25234D01*
G01X34605Y25228D01*
G01X34595Y25223D01*
G01X34584Y25216D01*
G01X34574Y25210D01*
G01X34564Y25203D01*
G01X34554Y25195D01*
G01X34545Y25188D01*
G01X34535Y25180D01*
G01X34526Y25171D01*
G01X34518Y25163D01*
G01X34509Y25154D01*
G01X34501Y25144D01*
G01X34494Y25135D01*
G01X34486Y25125D01*
G01X34479Y25115D01*
G01X34473Y25105D01*
G01X34466Y25094D01*
G01X34461Y25084D01*
G01X34455Y25073D01*
G01X34450Y25062D01*
G01X34445Y25051D01*
G01X34441Y25039D01*
G01X34437Y25028D01*
G01X34433Y25016D01*
G01X34430Y25004D01*
G01X34427Y24992D01*
G01X34425Y24980D01*
G01X34423Y24968D01*
G01X34421Y24956D01*
G01X34420Y24944D01*
G01X34420Y24932D01*
G01X34420Y24919D01*
G01X34420Y23345D01*
G01X34420Y23332D01*
G01X34420Y23320D01*
G01X34421Y23308D01*
G01X34423Y23296D01*
G01X34425Y23284D01*
G01X34427Y23272D01*
G01X34430Y23260D01*
G01X34433Y23248D01*
G01X34437Y23236D01*
G01X34441Y23225D01*
G01X34445Y23214D01*
G01X34450Y23202D01*
G01X34455Y23191D01*
G01X34461Y23180D01*
G01X34466Y23170D01*
G01X34473Y23159D01*
G01X34479Y23149D01*
G01X34486Y23139D01*
G01X34494Y23129D01*
G01X34501Y23120D01*
G01X34509Y23110D01*
G01X34518Y23102D01*
G01X34526Y23093D01*
G01X34535Y23085D01*
G01X34545Y23077D01*
G01X34554Y23069D01*
G01X34564Y23062D01*
G01X34574Y23054D01*
G01X34584Y23048D01*
G01X34595Y23042D01*
G01X34605Y23036D01*
G01X34616Y23030D01*
G01X34627Y23025D01*
G01X34638Y23020D01*
G01X34650Y23016D01*
G01X34661Y23012D01*
G01X34673Y23008D01*
G01X34685Y23005D01*
G01X34697Y23002D01*
G01X34709Y23000D01*
G01X34721Y22998D01*
G01X34733Y22997D01*
G01X34745Y22996D01*
G01X34757Y22995D01*
G37*
G36*
G01X32859Y25373D02*
G01X32989Y25363D01*
G01X33119Y25367D01*
G01X33248Y25383D01*
G01X33375Y25412D01*
G01X33498Y25453D01*
G01X33617Y25507D01*
G01X33730Y25572D01*
G01X33835Y25648D01*
G01X33933Y25734D01*
G01X34021Y25829D01*
G01X34100Y25933D01*
G01X34168Y26044D01*
G01X34224Y26161D01*
G01X34269Y26283D01*
G01X34301Y26409D01*
G01X34320Y26538D01*
G01X34327Y26668D01*
G01X34320Y26798D01*
G01X34301Y26927D01*
G01X34269Y27053D01*
G01X34224Y27175D01*
G01X34168Y27292D01*
G01X34100Y27403D01*
G01X34021Y27507D01*
G01X33933Y27602D01*
G01X33835Y27688D01*
G01X33730Y27764D01*
G01X33617Y27829D01*
G01X33498Y27883D01*
G01X33375Y27924D01*
G01X33248Y27953D01*
G01X33119Y27969D01*
G01X32989Y27973D01*
G01X32859Y27963D01*
G01X32731Y27940D01*
G01X32606Y27905D01*
G01X32485Y27858D01*
G01X32369Y27798D01*
G01X32260Y27728D01*
G01X32158Y27646D01*
G01X32065Y27556D01*
G01X31981Y27456D01*
G01X31908Y27348D01*
G01X31846Y27234D01*
G01X31795Y27114D01*
G01X31757Y26990D01*
G01X31731Y26862D01*
G01X31718Y26733D01*
G01X31718Y26603D01*
G01X31731Y26473D01*
G01X31757Y26346D01*
G01X31795Y26222D01*
G01X31846Y26102D01*
G01X31908Y25987D01*
G01X31981Y25880D01*
G01X32065Y25780D01*
G01X32158Y25689D01*
G01X32260Y25608D01*
G01X32369Y25538D01*
G01X32485Y25478D01*
G01X32606Y25431D01*
G01X32731Y25396D01*
G01X32859Y25373D01*
G37*
G36*
G01X34760Y25532D02*
G01X34772Y25532D01*
G01X36347Y25532D01*
G01X36359Y25532D01*
G01X36371Y25533D01*
G01X36383Y25534D01*
G01X36396Y25536D01*
G01X36408Y25537D01*
G01X36420Y25540D01*
G01X36432Y25543D01*
G01X36443Y25546D01*
G01X36455Y25549D01*
G01X36467Y25553D01*
G01X36478Y25558D01*
G01X36489Y25562D01*
G01X36500Y25568D01*
G01X36511Y25573D01*
G01X36522Y25579D01*
G01X36532Y25585D01*
G01X36543Y25592D01*
G01X36553Y25599D01*
G01X36562Y25606D01*
G01X36572Y25614D01*
G01X36581Y25622D01*
G01X36590Y25630D01*
G01X36599Y25639D01*
G01X36607Y25648D01*
G01X36615Y25657D01*
G01X36623Y25667D01*
G01X36630Y25676D01*
G01X36637Y25686D01*
G01X36644Y25697D01*
G01X36650Y25707D01*
G01X36656Y25718D01*
G01X36661Y25729D01*
G01X36667Y25740D01*
G01X36671Y25751D01*
G01X36676Y25762D01*
G01X36680Y25774D01*
G01X36683Y25786D01*
G01X36686Y25797D01*
G01X36689Y25809D01*
G01X36692Y25821D01*
G01X36693Y25833D01*
G01X36695Y25846D01*
G01X36696Y25858D01*
G01X36697Y25870D01*
G01X36697Y25882D01*
G01X36697Y27457D01*
G01X36697Y27469D01*
G01X36696Y27481D01*
G01X36695Y27493D01*
G01X36693Y27506D01*
G01X36692Y27518D01*
G01X36689Y27530D01*
G01X36686Y27542D01*
G01X36683Y27553D01*
G01X36680Y27565D01*
G01X36676Y27577D01*
G01X36671Y27588D01*
G01X36667Y27599D01*
G01X36661Y27610D01*
G01X36656Y27621D01*
G01X36650Y27632D01*
G01X36644Y27642D01*
G01X36637Y27653D01*
G01X36630Y27663D01*
G01X36623Y27672D01*
G01X36615Y27682D01*
G01X36607Y27691D01*
G01X36599Y27700D01*
G01X36590Y27709D01*
G01X36581Y27717D01*
G01X36572Y27725D01*
G01X36562Y27733D01*
G01X36553Y27740D01*
G01X36543Y27747D01*
G01X36532Y27754D01*
G01X36522Y27760D01*
G01X36511Y27766D01*
G01X36500Y27771D01*
G01X36489Y27777D01*
G01X36478Y27781D01*
G01X36467Y27786D01*
G01X36455Y27790D01*
G01X36443Y27793D01*
G01X36432Y27796D01*
G01X36420Y27799D01*
G01X36408Y27802D01*
G01X36396Y27803D01*
G01X36383Y27805D01*
G01X36371Y27806D01*
G01X36359Y27807D01*
G01X36347Y27807D01*
G01X34772Y27807D01*
G01X34760Y27807D01*
G01X34748Y27806D01*
G01X34736Y27805D01*
G01X34723Y27803D01*
G01X34711Y27802D01*
G01X34699Y27799D01*
G01X34687Y27796D01*
G01X34676Y27793D01*
G01X34664Y27790D01*
G01X34652Y27786D01*
G01X34641Y27781D01*
G01X34630Y27777D01*
G01X34619Y27771D01*
G01X34608Y27766D01*
G01X34597Y27760D01*
G01X34587Y27754D01*
G01X34576Y27747D01*
G01X34566Y27740D01*
G01X34557Y27733D01*
G01X34547Y27725D01*
G01X34538Y27717D01*
G01X34529Y27709D01*
G01X34520Y27700D01*
G01X34512Y27691D01*
G01X34504Y27682D01*
G01X34496Y27672D01*
G01X34489Y27663D01*
G01X34482Y27653D01*
G01X34475Y27642D01*
G01X34469Y27632D01*
G01X34463Y27621D01*
G01X34458Y27610D01*
G01X34452Y27599D01*
G01X34448Y27588D01*
G01X34443Y27577D01*
G01X34439Y27565D01*
G01X34436Y27553D01*
G01X34433Y27542D01*
G01X34430Y27530D01*
G01X34427Y27518D01*
G01X34426Y27506D01*
G01X34424Y27493D01*
G01X34423Y27481D01*
G01X34422Y27469D01*
G01X34422Y27457D01*
G01X34422Y25882D01*
G01X34422Y25870D01*
G01X34423Y25858D01*
G01X34424Y25846D01*
G01X34426Y25833D01*
G01X34427Y25821D01*
G01X34430Y25809D01*
G01X34433Y25797D01*
G01X34436Y25786D01*
G01X34439Y25774D01*
G01X34443Y25762D01*
G01X34448Y25751D01*
G01X34452Y25740D01*
G01X34458Y25729D01*
G01X34463Y25718D01*
G01X34469Y25707D01*
G01X34475Y25697D01*
G01X34482Y25686D01*
G01X34489Y25676D01*
G01X34496Y25667D01*
G01X34504Y25657D01*
G01X34512Y25648D01*
G01X34520Y25639D01*
G01X34529Y25630D01*
G01X34538Y25622D01*
G01X34547Y25614D01*
G01X34557Y25606D01*
G01X34566Y25599D01*
G01X34576Y25592D01*
G01X34587Y25585D01*
G01X34597Y25579D01*
G01X34608Y25573D01*
G01X34619Y25568D01*
G01X34630Y25562D01*
G01X34641Y25558D01*
G01X34652Y25553D01*
G01X34664Y25549D01*
G01X34676Y25546D01*
G01X34687Y25543D01*
G01X34699Y25540D01*
G01X34711Y25537D01*
G01X34723Y25536D01*
G01X34736Y25534D01*
G01X34748Y25533D01*
G01X34760Y25532D01*
G37*
G36*
G01X29063Y28091D02*
G01X29180Y28083D01*
G01X29298Y28086D01*
G01X29414Y28100D01*
G01X29529Y28126D01*
G01X29640Y28164D01*
G01X29747Y28212D01*
G01X29849Y28271D01*
G01X29944Y28339D01*
G01X30032Y28417D01*
G01X30112Y28503D01*
G01X30183Y28597D01*
G01X30244Y28697D01*
G01X30295Y28803D01*
G01X30335Y28913D01*
G01X30364Y29027D01*
G01X30382Y29143D01*
G01X30388Y29260D01*
G01X30382Y29378D01*
G01X30364Y29494D01*
G01X30335Y29608D01*
G01X30295Y29718D01*
G01X30244Y29824D01*
G01X30183Y29924D01*
G01X30112Y30018D01*
G01X30032Y30104D01*
G01X29944Y30181D01*
G01X29849Y30250D01*
G01X29747Y30309D01*
G01X29640Y30357D01*
G01X29529Y30394D01*
G01X29414Y30420D01*
G01X29298Y30435D01*
G01X29180Y30438D01*
G01X29063Y30429D01*
G01X28947Y30409D01*
G01X28834Y30377D01*
G01X28725Y30334D01*
G01X28620Y30281D01*
G01X28522Y30217D01*
G01X28430Y30144D01*
G01X28346Y30062D01*
G01X28270Y29972D01*
G01X28204Y29875D01*
G01X28148Y29771D01*
G01X28102Y29663D01*
G01X28068Y29551D01*
G01X28045Y29436D01*
G01X28033Y29319D01*
G01X28033Y29202D01*
G01X28045Y29085D01*
G01X28068Y28970D01*
G01X28102Y28857D01*
G01X28148Y28749D01*
G01X28204Y28646D01*
G01X28270Y28549D01*
G01X28346Y28459D01*
G01X28430Y28377D01*
G01X28522Y28304D01*
G01X28620Y28240D01*
G01X28725Y28186D01*
G01X28834Y28144D01*
G01X28947Y28112D01*
G01X29063Y28091D01*
G37*

%LPD*%
G54D11*
G01X11430Y2540D02*
G01X11430Y3810D01*
G01X10160Y5080D01*
G01X5080Y5080D01*
G01X3810Y6350D01*
G01X3810Y13970D01*
G01X2542Y15237D01*
G01X6908Y7899D02*
G01X14683Y7899D01*
G01X14683Y7896D01*
G01X19050Y35560D02*
G01X18999Y35560D01*
G01X16459Y33020D01*
G01X11430Y21590D02*
G01X11430Y20320D01*
G01X11430Y20320D01*
G01X8890Y17780D01*
G01X8890Y14401D01*
G01X6908Y12420D01*
G54D12*
G01X35562Y12697D02*
G01X29466Y12697D01*
G01X27939Y12700D01*
G01X26670Y11430D01*
G01X22900Y7698D01*
G54D11*
G01X8890Y21590D02*
G01X8890Y22860D01*
G01X10160Y24130D01*
G01X17780Y24130D01*
G01X20322Y21587D01*
G01X20322Y21587D01*
G54D12*
G01X12702Y15237D02*
G01X15361Y15237D01*
G01X22900Y7698D01*
G54D11*
G01X13411Y7899D02*
G01X22700Y7899D01*
G01X22899Y7700D01*
G01X25400Y31846D02*
G01X25400Y26670D01*
G01X30482Y21587D01*
G01X21590Y24130D02*
G01X21590Y24130D01*
G01X19050Y26670D01*
G01X15240Y26670D01*
G01X13970Y27940D01*
G01X13970Y29210D01*
G01X13411Y12420D02*
G01X6908Y12420D01*

%LPD*%
G36*
G01X34352Y12379D02*
G01X34974Y12030D01*
G01X34974Y13364D01*
G01X34352Y13014D01*
G01X34352Y12379D01*
G37*

%LPD*%
G36*
G01X14224Y28120D02*
G01X14570Y28680D01*
G01X13369Y28680D01*
G01X13716Y28120D01*
G01X14224Y28120D01*
G37*

%LPD*%
G36*
G01X9144Y22679D02*
G01X9490Y22119D01*
G01X8289Y22119D01*
G01X8636Y22679D01*
G01X9144Y22679D01*
G37*

%LPD*%
G36*
G01X11684Y20500D02*
G01X12030Y21060D01*
G01X10829Y21060D01*
G01X11176Y20500D01*
G01X11684Y20500D01*
G37*

%LPD*%
G36*
G01X20852Y25226D02*
G01X21649Y25080D01*
G01X20639Y24070D01*
G01X20493Y24867D01*
G01X20852Y25226D01*
G37*

%LPD*%
G36*
G01X18282Y34484D02*
G01X19083Y34608D01*
G01X18101Y35645D01*
G01X17933Y34853D01*
G01X18282Y34484D01*
G37*

%LPD*%
G36*
G01X13999Y15554D02*
G01X13332Y15952D01*
G01X13331Y14523D01*
G01X13998Y14919D01*
G01X13999Y15554D01*
G37*

%LPD*%
G36*
G01X3638Y14500D02*
G01X3492Y15297D01*
G01X2482Y14287D01*
G01X3279Y14141D01*
G01X3638Y14500D01*
G37*

%LPD*%
G36*
G01X25654Y30722D02*
G01X26019Y31300D01*
G01X24780Y31300D01*
G01X25146Y30722D01*
G01X25654Y30722D01*
G37*

%LPD*%
G36*
G01X19584Y22684D02*
G01X20381Y22539D01*
G01X19371Y21528D01*
G01X19225Y22325D01*
G01X19584Y22684D01*
G37*

%LPD*%
G36*
G01X29744Y22684D02*
G01X30541Y22539D01*
G01X29531Y21528D01*
G01X29385Y22325D01*
G01X29744Y22684D01*
G37*

%LPD*%
G36*
G01X11684Y3611D02*
G01X12020Y3060D01*
G01X10839Y3060D01*
G01X11176Y3611D01*
G01X11684Y3611D01*
G37*

%LPD*%
G36*
G01X17433Y33635D02*
G01X17283Y32968D01*
G01X16407Y33843D01*
G01X17074Y33994D01*
G01X17433Y33635D01*
G37*

%LPD*%
G36*
G01X24255Y8592D02*
G01X24066Y7618D01*
G01X22832Y8867D01*
G01X23808Y9044D01*
G01X24255Y8592D01*
G37*

%LPD*%
G36*
G01X21997Y9050D02*
G01X22972Y8866D01*
G01X21731Y7626D01*
G01X21548Y8601D01*
G01X21997Y9050D01*
G37*

%LPD*%
G36*
G01X21350Y8153D02*
G01X22241Y8667D01*
G01X22020Y6925D01*
G01X21286Y7645D01*
G01X21350Y8153D01*
G37*

%LPD*%
G36*
G01X11277Y7645D02*
G01X12039Y7264D01*
G01X12039Y8534D01*
G01X11277Y8153D01*
G01X11277Y7645D01*
G37*

%LPD*%
G36*
G01X15544Y8153D02*
G01X14782Y8534D01*
G01X14782Y7264D01*
G01X15544Y7645D01*
G01X15544Y8153D01*
G37*

%LPD*%
G36*
G01X9042Y8153D02*
G01X8280Y8534D01*
G01X8280Y7264D01*
G01X9042Y7645D01*
G01X9042Y8153D01*
G37*

%LPD*%
G36*
G01X11277Y12166D02*
G01X12039Y11785D01*
G01X12039Y13055D01*
G01X11277Y12674D01*
G01X11277Y12166D01*
G37*

%LPD*%
G36*
G01X8073Y13944D02*
G01X7035Y13182D01*
G01X8280Y13182D01*
G01X8791Y13944D01*
G01X8073Y13944D01*
G37*

%LPD*%
G36*
G01X9042Y12674D02*
G01X8280Y13055D01*
G01X8280Y11785D01*
G01X9042Y12166D01*
G01X9042Y12674D01*
G37*
G54D13*
G01X35562Y15237D03*
G01X35562Y12697D03*
G01X35562Y10157D03*
G54D14*
G01X35562Y19048D03*
G54D15*
G01X16510Y29210D03*
G54D16*
G01X13970Y29210D03*
G01X11430Y29210D03*
G01X8890Y29210D03*
G01X8890Y21590D03*
G01X11430Y21590D03*
G01X13970Y21590D03*
G01X16510Y21590D03*
G54D17*
G01X31750Y24130D03*
G01X21590Y24130D03*
G01X8890Y35560D03*
G01X19050Y35560D03*
G01X33022Y26668D03*
G01X22862Y26668D03*
G01X12702Y15238D03*
G01X2542Y15238D03*
G54D14*
G01X2540Y26670D03*
G01X2542Y24127D03*
G01X35560Y26670D03*
G01X35557Y24132D03*
G01X2540Y21590D03*
G01X35560Y21590D03*
G54D18*
G01X25400Y31846D03*
G01X25400Y34386D03*
G54D17*
G01X20322Y21588D03*
G01X30482Y21588D03*
G01X13972Y5078D03*
G01X24132Y5078D03*
G54D19*
G01X13411Y7899D03*
G01X6908Y7899D03*
G01X13411Y12420D03*
G01X6908Y12420D03*
G54D20*
G01X21590Y2540D03*
G01X19050Y2540D03*
G01X16510Y2540D03*
G01X13970Y2540D03*
G01X11430Y2540D03*
G54D14*
G01X8890Y2540D03*
G54D18*
G01X17729Y17780D03*
G01X12750Y17780D03*
G01X29210Y29260D03*
G01X29210Y34239D03*
G01X16459Y33020D03*
G01X11480Y33020D03*
G54D21*
G01X22898Y7699D03*
G01X25398Y17699D03*
G01X27898Y7699D03*
M00*
M02*
