G04 ---------------------------- Layer name :TOP SILK LAYER*
G04 EasyEDA v5.7.26, Mon, 08 Oct 2018 11:37:22 GMT*
G04 9a8b5958ff4b4eb3b6fdbb1becb2a6af*
G04 Gerber Generator version 0.2*
G04 Scale: 100 percent, Rotated: No, Reflected: No *
G04 Dimensions in millimeters *
G04 leading zeros omitted , absolute positions ,3 integer and 3 decimal *
%FSLAX33Y33*%
%MOMM*%
G90*
G71D02*

%ADD10C,0.254000*%
%ADD22C,0.178003*%
%ADD23C,0.228600*%
%ADD24C,0.203200*%
%ADD25C,0.202999*%
%ADD26C,0.177800*%

%LPD*%
G54D22*
G01X33655Y19049D02*
G01X34290Y18414D01*
G01X34924Y19049D02*
G01X33654Y19049D01*
G01X34289Y19684D01*
G01X33655Y21589D02*
G01X34290Y20954D01*
G01X34924Y21589D02*
G01X33654Y21589D01*
G01X34289Y22224D01*
G01X635Y17779D02*
G01X3175Y17779D01*
G01X3175Y15239D01*
G01X635Y15239D01*
G01X635Y17779D01*
G01X4134Y16491D02*
G01X3180Y16491D01*
G01X4770Y15857D02*
G01X4770Y14584D01*
G01X3815Y14584D02*
G01X5725Y14584D01*
G01X4135Y14267D02*
G01X5405Y14267D01*
G01X4452Y13947D02*
G01X5087Y13947D01*
G01X35933Y13311D02*
G01X36569Y13311D01*
G01X35615Y13629D02*
G01X36887Y13629D01*
G01X35297Y13947D02*
G01X37205Y13947D01*
G01X36251Y15219D02*
G01X36251Y13947D01*
G54D10*
G01X21700Y8880D02*
G01X21479Y7629D01*
G01X26037Y20317D02*
G01X27307Y20317D01*
G54D23*
G01X11863Y18921D02*
G01X11863Y22985D01*
G01X13540Y22985D01*
G01X13540Y18921D01*
G01X11863Y18921D01*
G01X18287Y26873D02*
G01X22351Y26873D01*
G01X22351Y25196D01*
G01X18287Y25196D01*
G01X18287Y26873D01*
G01X31548Y16381D02*
G01X31548Y20445D01*
G01X33225Y20445D01*
G01X33225Y16381D01*
G01X31548Y16381D01*
G01X6781Y18922D02*
G01X6781Y22986D01*
G01X8458Y22986D01*
G01X8458Y18922D01*
G01X6781Y18922D01*
G54D10*
G01X29845Y26669D02*
G01X29845Y25399D01*
G54D24*
G01X3177Y20318D02*
G01X637Y20318D01*
G01X637Y22858D01*
G01X3177Y22858D01*
G01X3177Y20953D01*
G54D25*
G01X3177Y20318D02*
G01X3177Y20953D01*
G54D24*
G01X3175Y17779D02*
G01X635Y17779D01*
G01X635Y20319D01*
G01X3175Y20319D01*
G01X3175Y18414D01*
G54D25*
G01X3175Y17779D02*
G01X3175Y18414D01*
G54D24*
G01X37465Y20319D02*
G01X34925Y20319D01*
G01X34925Y22859D01*
G01X37465Y22859D01*
G01X37465Y20954D01*
G54D25*
G01X37465Y20319D02*
G01X37465Y20954D01*
G54D24*
G01X37462Y17782D02*
G01X34922Y17782D01*
G01X34922Y20322D01*
G01X37462Y20322D01*
G01X37462Y18417D01*
G54D25*
G01X37462Y17782D02*
G01X37462Y18417D01*
G54D23*
G01X30685Y20445D02*
G01X30685Y16381D01*
G01X29008Y16381D01*
G01X29008Y20445D01*
G01X30685Y20445D01*
G54D10*
G01X22859Y24129D02*
G01X17779Y24129D01*
G01X17779Y24129D02*
G01X17779Y13969D01*
G01X22859Y24129D02*
G01X22859Y13969D01*
G01X22859Y13969D02*
G01X21589Y13969D01*
G01X19049Y13969D02*
G01X17779Y13969D01*
G54D23*
G01X9323Y18921D02*
G01X9323Y22985D01*
G01X11000Y22985D01*
G01X11000Y18921D01*
G01X9323Y18921D01*
G54D10*
G01X32384Y9370D02*
G01X32384Y5870D01*
G01X31384Y6619D02*
G01X33385Y6619D01*
G01X34384Y5620D02*
G01X34384Y6618D01*
G01X34384Y8618D02*
G01X34384Y9618D01*
G01X35384Y6618D02*
G01X35384Y8618D01*
G01X35383Y7118D02*
G01X35883Y7118D01*
G01X35883Y8119D01*
G01X35383Y8119D01*
G01X29884Y4620D02*
G01X31384Y4620D01*
G01X33384Y4620D02*
G01X34884Y4620D01*
G01X34884Y10619D02*
G01X33384Y10619D01*
G01X29884Y10619D02*
G01X31384Y10619D01*
G01X29384Y6620D02*
G01X29384Y8619D01*
G54D24*
G01X37462Y15241D02*
G01X34922Y15241D01*
G01X34922Y17781D01*
G01X37462Y17781D01*
G01X37462Y15876D01*
G54D25*
G01X37462Y15241D02*
G01X37462Y15876D01*

%LPD*%
G36*
G01X20874Y9868D02*
G01X20718Y9839D01*
G01X20562Y9868D01*
G01X20433Y9954D01*
G01X20348Y10080D01*
G01X20319Y10236D01*
G01X20319Y12324D01*
G01X20347Y12481D01*
G01X20431Y12608D01*
G01X20559Y12692D01*
G01X20715Y12720D01*
G01X20879Y12693D01*
G01X21005Y12613D01*
G01X21087Y12488D01*
G01X21114Y12324D01*
G01X21114Y11648D01*
G01X21117Y11627D01*
G01X21126Y11612D01*
G01X21141Y11603D01*
G01X21162Y11600D01*
G01X21183Y11603D01*
G01X21197Y11612D01*
G01X21205Y11627D01*
G01X21208Y11648D01*
G01X21208Y12324D01*
G01X21236Y12481D01*
G01X21320Y12608D01*
G01X21449Y12692D01*
G01X21607Y12720D01*
G01X21763Y12692D01*
G01X21889Y12608D01*
G01X21975Y12481D01*
G01X22003Y12324D01*
G01X22003Y11648D01*
G01X22006Y11627D01*
G01X22015Y11612D01*
G01X22029Y11603D01*
G01X22049Y11600D01*
G01X22181Y11600D01*
G01X22339Y11571D01*
G01X22468Y11485D01*
G01X22514Y11415D01*
G01X22502Y11373D01*
G01X22494Y11324D01*
G01X22491Y11275D01*
G01X22493Y11235D01*
G01X22498Y11197D01*
G01X22506Y11159D01*
G01X22519Y11122D01*
G01X22506Y11087D01*
G01X22498Y11051D01*
G01X22493Y11013D01*
G01X22491Y10975D01*
G01X22523Y10804D01*
G01X22554Y10758D01*
G01X22551Y10743D01*
G01X22465Y10617D01*
G01X22337Y10533D01*
G01X22181Y10505D01*
G01X22049Y10505D01*
G01X21930Y10513D01*
G01X21817Y10536D01*
G01X21709Y10575D01*
G01X21607Y10629D01*
G01X21505Y10575D01*
G01X21397Y10536D01*
G01X21283Y10513D01*
G01X21162Y10505D01*
G01X21114Y10505D01*
G01X21114Y10236D01*
G01X21086Y10080D01*
G01X21002Y9954D01*
G01X20874Y9868D01*
G37*

%LPC*%
G36*
G01X20676Y10338D02*
G01X20718Y10335D01*
G01X20760Y10338D01*
G01X20799Y10349D01*
G01X20833Y10366D01*
G01X20863Y10391D01*
G01X20887Y10421D01*
G01X20905Y10456D01*
G01X20915Y10495D01*
G01X20918Y10538D01*
G01X20918Y11043D01*
G01X20977Y11024D01*
G01X21037Y11009D01*
G01X21099Y11001D01*
G01X21162Y10998D01*
G01X21287Y11009D01*
G01X21402Y11042D01*
G01X21509Y11098D01*
G01X21607Y11175D01*
G01X21704Y11098D01*
G01X21810Y11042D01*
G01X21925Y11009D01*
G01X22049Y10998D01*
G01X22181Y10998D01*
G01X22225Y11001D01*
G01X22264Y11012D01*
G01X22298Y11029D01*
G01X22328Y11054D01*
G01X22354Y11084D01*
G01X22372Y11119D01*
G01X22383Y11158D01*
G01X22387Y11201D01*
G01X22383Y11244D01*
G01X22372Y11282D01*
G01X22354Y11316D01*
G01X22328Y11346D01*
G01X22298Y11372D01*
G01X22264Y11389D01*
G01X22225Y11400D01*
G01X22181Y11404D01*
G01X22049Y11404D01*
G01X22000Y11409D01*
G01X21956Y11422D01*
G01X21915Y11444D01*
G01X21879Y11475D01*
G01X21848Y11512D01*
G01X21825Y11553D01*
G01X21812Y11598D01*
G01X21807Y11648D01*
G01X21807Y12324D01*
G01X21804Y12367D01*
G01X21794Y12406D01*
G01X21776Y12441D01*
G01X21752Y12471D01*
G01X21722Y12495D01*
G01X21688Y12513D01*
G01X21649Y12523D01*
G01X21607Y12527D01*
G01X21564Y12523D01*
G01X21524Y12513D01*
G01X21490Y12495D01*
G01X21459Y12471D01*
G01X21434Y12441D01*
G01X21416Y12406D01*
G01X21405Y12367D01*
G01X21401Y12324D01*
G01X21401Y11648D01*
G01X21397Y11598D01*
G01X21384Y11553D01*
G01X21363Y11512D01*
G01X21332Y11475D01*
G01X21296Y11444D01*
G01X21256Y11422D01*
G01X21211Y11409D01*
G01X21162Y11404D01*
G01X21114Y11409D01*
G01X21068Y11422D01*
G01X21027Y11444D01*
G01X20990Y11475D01*
G01X20959Y11512D01*
G01X20936Y11553D01*
G01X20923Y11598D01*
G01X20918Y11648D01*
G01X20918Y12324D01*
G01X20906Y12412D01*
G01X20868Y12476D01*
G01X20804Y12514D01*
G01X20715Y12527D01*
G01X20672Y12523D01*
G01X20633Y12513D01*
G01X20600Y12495D01*
G01X20570Y12471D01*
G01X20546Y12441D01*
G01X20529Y12406D01*
G01X20518Y12367D01*
G01X20515Y12324D01*
G01X20515Y10538D01*
G01X20518Y10495D01*
G01X20529Y10456D01*
G01X20546Y10421D01*
G01X20570Y10391D01*
G01X20602Y10366D01*
G01X20636Y10349D01*
G01X20676Y10338D01*
G37*

%LPD*%
G36*
G01X26010Y9872D02*
G01X25854Y9844D01*
G01X25737Y9851D01*
G01X25626Y9871D01*
G01X25522Y9905D01*
G01X25424Y9952D01*
G01X25332Y10012D01*
G01X25247Y10086D01*
G01X25171Y10170D01*
G01X25108Y10260D01*
G01X25060Y10357D01*
G01X25026Y10461D01*
G01X25005Y10571D01*
G01X24998Y10688D01*
G01X24998Y12191D01*
G01X24995Y12212D01*
G01X24988Y12227D01*
G01X24975Y12236D01*
G01X24957Y12240D01*
G01X24957Y10899D01*
G01X24929Y10743D01*
G01X24843Y10617D01*
G01X24715Y10533D01*
G01X24558Y10505D01*
G01X24402Y10533D01*
G01X24274Y10617D01*
G01X24190Y10743D01*
G01X24162Y10899D01*
G01X24162Y12191D01*
G01X24159Y12213D01*
G01X24150Y12228D01*
G01X24135Y12237D01*
G01X24114Y12240D01*
G01X24093Y12237D01*
G01X24078Y12228D01*
G01X24069Y12213D01*
G01X24065Y12191D01*
G01X24065Y10899D01*
G01X24038Y10743D01*
G01X23954Y10617D01*
G01X23827Y10533D01*
G01X23669Y10505D01*
G01X23513Y10533D01*
G01X23385Y10617D01*
G01X23303Y10738D01*
G01X23250Y10660D01*
G01X23107Y10563D01*
G01X22935Y10530D01*
G01X22764Y10563D01*
G01X22620Y10660D01*
G01X22554Y10758D01*
G01X22580Y10899D01*
G01X22578Y10938D01*
G01X22573Y10975D01*
G01X22565Y11012D01*
G01X22554Y11048D01*
G01X22565Y11085D01*
G01X22573Y11122D01*
G01X22578Y11161D01*
G01X22580Y11201D01*
G01X22552Y11357D01*
G01X22514Y11415D01*
G01X22515Y11418D01*
G01X22534Y11462D01*
G01X22515Y11510D01*
G01X22502Y11558D01*
G01X22494Y11606D01*
G01X22491Y11656D01*
G01X22493Y11695D01*
G01X22498Y11732D01*
G01X22506Y11769D01*
G01X22519Y11805D01*
G01X22506Y11841D01*
G01X22498Y11879D01*
G01X22493Y11917D01*
G01X22491Y11955D01*
G01X22523Y12125D01*
G01X22620Y12270D01*
G01X22765Y12367D01*
G01X22935Y12400D01*
G01X23105Y12367D01*
G01X23248Y12270D01*
G01X23270Y12237D01*
G01X23270Y12494D01*
G01X23278Y12609D01*
G01X23298Y12717D01*
G01X23331Y12819D01*
G01X23379Y12916D01*
G01X23440Y13006D01*
G01X23514Y13091D01*
G01X23600Y13165D01*
G01X23691Y13226D01*
G01X23788Y13273D01*
G01X23890Y13308D01*
G01X23999Y13328D01*
G01X24114Y13334D01*
G01X24226Y13328D01*
G01X24333Y13307D01*
G01X24435Y13273D01*
G01X24533Y13225D01*
G01X24631Y13273D01*
G01X24734Y13307D01*
G01X24842Y13328D01*
G01X24954Y13334D01*
G01X25069Y13328D01*
G01X25178Y13308D01*
G01X25281Y13273D01*
G01X25377Y13226D01*
G01X25467Y13165D01*
G01X25551Y13091D01*
G01X25626Y13006D01*
G01X25686Y12916D01*
G01X25733Y12819D01*
G01X25766Y12717D01*
G01X25786Y12609D01*
G01X25788Y12579D01*
G01X25830Y12669D01*
G01X25893Y12774D01*
G01X25968Y12874D01*
G01X26054Y12969D01*
G01X26149Y13055D01*
G01X26248Y13129D01*
G01X26353Y13192D01*
G01X26463Y13243D01*
G01X26578Y13283D01*
G01X26699Y13312D01*
G01X26825Y13329D01*
G01X26956Y13334D01*
G01X27087Y13329D01*
G01X27213Y13312D01*
G01X27333Y13283D01*
G01X27448Y13243D01*
G01X27557Y13192D01*
G01X27662Y13129D01*
G01X27761Y13055D01*
G01X27855Y12969D01*
G01X27942Y12874D01*
G01X28017Y12774D01*
G01X28080Y12669D01*
G01X28132Y12559D01*
G01X28172Y12444D01*
G01X28201Y12324D01*
G01X28218Y12198D01*
G01X28223Y12067D01*
G01X28223Y12028D01*
G01X28222Y11990D01*
G01X28219Y11952D01*
G01X28216Y11915D01*
G01X28219Y11878D01*
G01X28222Y11841D01*
G01X28223Y11804D01*
G01X28223Y11767D01*
G01X28218Y11637D01*
G01X28201Y11512D01*
G01X28172Y11392D01*
G01X28132Y11277D01*
G01X28080Y11166D01*
G01X28017Y11061D01*
G01X27942Y10961D01*
G01X27855Y10866D01*
G01X27761Y10779D01*
G01X27661Y10705D01*
G01X27556Y10641D01*
G01X27446Y10589D01*
G01X27331Y10549D01*
G01X27212Y10521D01*
G01X27087Y10503D01*
G01X26956Y10497D01*
G01X26825Y10503D01*
G01X26699Y10521D01*
G01X26578Y10549D01*
G01X26463Y10589D01*
G01X26353Y10641D01*
G01X26248Y10705D01*
G01X26187Y10750D01*
G01X26223Y10698D01*
G01X26252Y10540D01*
G01X26251Y10502D01*
G01X26246Y10464D01*
G01X26238Y10427D01*
G01X26227Y10391D01*
G01X26238Y10355D01*
G01X26246Y10317D01*
G01X26251Y10280D01*
G01X26252Y10241D01*
G01X26224Y10083D01*
G01X26138Y9956D01*
G01X26010Y9872D01*
G37*

%LPC*%
G36*
G01X25709Y10351D02*
G01X25841Y10340D01*
G01X25854Y10340D01*
G01X25897Y10343D01*
G01X25936Y10353D01*
G01X25971Y10370D01*
G01X26001Y10393D01*
G01X26026Y10424D01*
G01X26043Y10458D01*
G01X26054Y10497D01*
G01X26057Y10540D01*
G01X26054Y10583D01*
G01X26043Y10622D01*
G01X26026Y10657D01*
G01X26001Y10688D01*
G01X25971Y10712D01*
G01X25936Y10730D01*
G01X25897Y10740D01*
G01X25854Y10744D01*
G01X25841Y10744D01*
G01X25792Y10748D01*
G01X25747Y10761D01*
G01X25706Y10784D01*
G01X25668Y10815D01*
G01X25638Y10852D01*
G01X25617Y10894D01*
G01X25604Y10939D01*
G01X25600Y10987D01*
G01X25600Y12494D01*
G01X25588Y12625D01*
G01X25553Y12746D01*
G01X25496Y12855D01*
G01X25414Y12953D01*
G01X25316Y13036D01*
G01X25207Y13095D01*
G01X25087Y13130D01*
G01X24954Y13141D01*
G01X24838Y13132D01*
G01X24728Y13102D01*
G01X24627Y13053D01*
G01X24533Y12984D01*
G01X24438Y13053D01*
G01X24337Y13102D01*
G01X24229Y13132D01*
G01X24114Y13141D01*
G01X23981Y13130D01*
G01X23860Y13095D01*
G01X23750Y13036D01*
G01X23651Y12953D01*
G01X23571Y12855D01*
G01X23513Y12746D01*
G01X23478Y12625D01*
G01X23466Y12494D01*
G01X23466Y11201D01*
G01X23470Y11158D01*
G01X23480Y11119D01*
G01X23498Y11084D01*
G01X23522Y11054D01*
G01X23553Y11029D01*
G01X23588Y11012D01*
G01X23627Y11001D01*
G01X23669Y10998D01*
G01X23713Y11001D01*
G01X23752Y11012D01*
G01X23787Y11029D01*
G01X23817Y11054D01*
G01X23840Y11084D01*
G01X23857Y11119D01*
G01X23867Y11158D01*
G01X23870Y11201D01*
G01X23870Y12494D01*
G01X23874Y12542D01*
G01X23888Y12587D01*
G01X23910Y12628D01*
G01X23941Y12664D01*
G01X23979Y12695D01*
G01X24020Y12717D01*
G01X24065Y12730D01*
G01X24114Y12735D01*
G01X24162Y12730D01*
G01X24206Y12717D01*
G01X24247Y12695D01*
G01X24284Y12664D01*
G01X24316Y12627D01*
G01X24339Y12586D01*
G01X24353Y12541D01*
G01X24358Y12494D01*
G01X24358Y11201D01*
G01X24361Y11158D01*
G01X24372Y11119D01*
G01X24389Y11084D01*
G01X24413Y11054D01*
G01X24443Y11029D01*
G01X24476Y11012D01*
G01X24515Y11001D01*
G01X24558Y10998D01*
G01X24601Y11001D01*
G01X24640Y11012D01*
G01X24675Y11029D01*
G01X24706Y11054D01*
G01X24730Y11084D01*
G01X24748Y11119D01*
G01X24758Y11158D01*
G01X24761Y11201D01*
G01X24761Y12638D01*
G01X24802Y12681D01*
G01X24847Y12711D01*
G01X24898Y12729D01*
G01X24954Y12735D01*
G01X25002Y12730D01*
G01X25046Y12717D01*
G01X25086Y12695D01*
G01X25122Y12664D01*
G01X25154Y12627D01*
G01X25175Y12586D01*
G01X25189Y12541D01*
G01X25193Y12494D01*
G01X25193Y10987D01*
G01X25205Y10855D01*
G01X25240Y10733D01*
G01X25298Y10624D01*
G01X25379Y10525D01*
G01X25478Y10444D01*
G01X25588Y10386D01*
G01X25709Y10351D01*
G37*
G36*
G01X26004Y10911D02*
G01X26027Y10895D01*
G01X25968Y10961D01*
G01X25893Y11060D01*
G01X25830Y11165D01*
G01X25793Y11245D01*
G01X25793Y10987D01*
G01X25796Y10967D01*
G01X25805Y10951D01*
G01X25820Y10942D01*
G01X25841Y10939D01*
G01X26004Y10911D01*
G37*
G36*
G01X26845Y10998D02*
G01X26956Y10993D01*
G01X27067Y10998D01*
G01X27173Y11012D01*
G01X27276Y11036D01*
G01X27373Y11070D01*
G01X27466Y11113D01*
G01X27554Y11167D01*
G01X27639Y11230D01*
G01X27718Y11302D01*
G01X27791Y11383D01*
G01X27854Y11468D01*
G01X27907Y11556D01*
G01X27951Y11650D01*
G01X27985Y11747D01*
G01X28009Y11850D01*
G01X28023Y11956D01*
G01X28028Y12067D01*
G01X28023Y12178D01*
G01X28009Y12284D01*
G01X27985Y12386D01*
G01X27951Y12484D01*
G01X27907Y12577D01*
G01X27854Y12665D01*
G01X27791Y12749D01*
G01X27718Y12829D01*
G01X27639Y12902D01*
G01X27554Y12966D01*
G01X27466Y13019D01*
G01X27373Y13063D01*
G01X27276Y13098D01*
G01X27173Y13122D01*
G01X27067Y13137D01*
G01X26956Y13141D01*
G01X26845Y13137D01*
G01X26738Y13122D01*
G01X26635Y13098D01*
G01X26538Y13063D01*
G01X26444Y13019D01*
G01X26356Y12966D01*
G01X26271Y12902D01*
G01X26191Y12829D01*
G01X26119Y12749D01*
G01X26056Y12665D01*
G01X26003Y12577D01*
G01X25959Y12484D01*
G01X25925Y12386D01*
G01X25901Y12284D01*
G01X25887Y12178D01*
G01X25882Y12067D01*
G01X25887Y11956D01*
G01X25901Y11850D01*
G01X25925Y11747D01*
G01X25959Y11650D01*
G01X26003Y11556D01*
G01X26056Y11468D01*
G01X26119Y11383D01*
G01X26191Y11302D01*
G01X26271Y11230D01*
G01X26356Y11167D01*
G01X26444Y11113D01*
G01X26538Y11070D01*
G01X26635Y11036D01*
G01X26738Y11012D01*
G01X26845Y10998D01*
G37*
G36*
G01X22885Y11030D02*
G01X22935Y11026D01*
G01X22985Y11030D01*
G01X23032Y11043D01*
G01X23074Y11066D01*
G01X23113Y11097D01*
G01X23144Y11135D01*
G01X23166Y11178D01*
G01X23180Y11224D01*
G01X23184Y11275D01*
G01X23180Y11324D01*
G01X23166Y11369D01*
G01X23143Y11411D01*
G01X23110Y11450D01*
G01X23072Y11481D01*
G01X23030Y11503D01*
G01X22984Y11516D01*
G01X22935Y11521D01*
G01X22886Y11516D01*
G01X22841Y11503D01*
G01X22799Y11481D01*
G01X22760Y11450D01*
G01X22728Y11411D01*
G01X22705Y11369D01*
G01X22691Y11324D01*
G01X22686Y11275D01*
G01X22691Y11224D01*
G01X22704Y11178D01*
G01X22726Y11135D01*
G01X22757Y11097D01*
G01X22797Y11066D01*
G01X22839Y11043D01*
G01X22885Y11030D01*
G37*
G36*
G01X22886Y11711D02*
G01X22935Y11706D01*
G01X22984Y11711D01*
G01X23030Y11725D01*
G01X23072Y11748D01*
G01X23110Y11780D01*
G01X23143Y11819D01*
G01X23166Y11861D01*
G01X23180Y11906D01*
G01X23184Y11955D01*
G01X23180Y12005D01*
G01X23166Y12050D01*
G01X23143Y12092D01*
G01X23110Y12130D01*
G01X23072Y12163D01*
G01X23030Y12186D01*
G01X22984Y12200D01*
G01X22935Y12204D01*
G01X22886Y12200D01*
G01X22841Y12186D01*
G01X22799Y12163D01*
G01X22760Y12130D01*
G01X22728Y12092D01*
G01X22705Y12050D01*
G01X22691Y12005D01*
G01X22686Y11955D01*
G01X22691Y11906D01*
G01X22705Y11861D01*
G01X22728Y11819D01*
G01X22760Y11780D01*
G01X22799Y11748D01*
G01X22841Y11725D01*
G01X22886Y11711D01*
G37*

%LPD*%
G36*
G01X27093Y11409D02*
G01X26956Y11396D01*
G01X26821Y11409D01*
G01X26696Y11445D01*
G01X26582Y11505D01*
G01X26478Y11589D01*
G01X26394Y11692D01*
G01X26334Y11805D01*
G01X26298Y11930D01*
G01X26285Y12067D01*
G01X26298Y12205D01*
G01X26334Y12330D01*
G01X26394Y12443D01*
G01X26478Y12545D01*
G01X26580Y12628D01*
G01X26693Y12687D01*
G01X26819Y12723D01*
G01X26956Y12735D01*
G01X27093Y12723D01*
G01X27217Y12687D01*
G01X27330Y12628D01*
G01X27431Y12545D01*
G01X27516Y12442D01*
G01X27576Y12329D01*
G01X27612Y12204D01*
G01X27624Y12067D01*
G01X27612Y11930D01*
G01X27576Y11805D01*
G01X27516Y11692D01*
G01X27431Y11589D01*
G01X27330Y11505D01*
G01X27217Y11445D01*
G01X27093Y11409D01*
G37*

%LPC*%
G36*
G01X26804Y11615D02*
G01X26956Y11592D01*
G01X27107Y11615D01*
G01X27240Y11683D01*
G01X27344Y11787D01*
G01X27408Y11920D01*
G01X27389Y11969D01*
G01X27363Y12017D01*
G01X27332Y12062D01*
G01X27294Y12105D01*
G01X27222Y12164D01*
G01X27141Y12206D01*
G01X27053Y12232D01*
G01X26956Y12240D01*
G01X26803Y12218D01*
G01X26669Y12153D01*
G01X26567Y12050D01*
G01X26504Y11917D01*
G01X26569Y11787D01*
G01X26672Y11683D01*
G01X26804Y11615D01*
G37*

%LPD*%
G54D24*
G01X19601Y23494D02*
G01X18455Y23494D01*
G01X19054Y23494D02*
G01X19164Y23385D01*
G01X19217Y23276D01*
G01X19217Y23113D01*
G01X19164Y23004D01*
G01X19054Y22895D01*
G01X18892Y22839D01*
G01X18783Y22839D01*
G01X18618Y22895D01*
G01X18508Y23004D01*
G01X18455Y23113D01*
G01X18455Y23276D01*
G01X18508Y23385D01*
G01X18618Y23494D01*
G01X19217Y22481D02*
G01X18455Y22481D01*
G01X18892Y22481D02*
G01X19054Y22425D01*
G01X19164Y22316D01*
G01X19217Y22207D01*
G01X19217Y22044D01*
G01X19217Y21028D02*
G01X18455Y21028D01*
G01X19054Y21028D02*
G01X19164Y21137D01*
G01X19217Y21246D01*
G01X19217Y21412D01*
G01X19164Y21521D01*
G01X19054Y21630D01*
G01X18892Y21683D01*
G01X18783Y21683D01*
G01X18618Y21630D01*
G01X18508Y21521D01*
G01X18455Y21412D01*
G01X18455Y21246D01*
G01X18508Y21137D01*
G01X18618Y21028D01*
G01X19217Y20015D02*
G01X18455Y20015D01*
G01X19054Y20015D02*
G01X19164Y20124D01*
G01X19217Y20233D01*
G01X19217Y20396D01*
G01X19164Y20505D01*
G01X19054Y20614D01*
G01X18892Y20670D01*
G01X18783Y20670D01*
G01X18618Y20614D01*
G01X18508Y20505D01*
G01X18455Y20396D01*
G01X18455Y20233D01*
G01X18508Y20124D01*
G01X18618Y20015D01*
G01X19217Y19001D02*
G01X18455Y19001D01*
G01X19054Y19001D02*
G01X19164Y19108D01*
G01X19217Y19217D01*
G01X19217Y19382D01*
G01X19164Y19491D01*
G01X19054Y19601D01*
G01X18892Y19654D01*
G01X18783Y19654D01*
G01X18618Y19601D01*
G01X18508Y19491D01*
G01X18455Y19382D01*
G01X18455Y19217D01*
G01X18508Y19108D01*
G01X18618Y19001D01*
G01X19217Y17985D02*
G01X18455Y17985D01*
G01X19054Y17985D02*
G01X19164Y18094D01*
G01X19217Y18204D01*
G01X19217Y18366D01*
G01X19164Y18475D01*
G01X19054Y18585D01*
G01X18892Y18640D01*
G01X18783Y18640D01*
G01X18618Y18585D01*
G01X18508Y18475D01*
G01X18455Y18366D01*
G01X18455Y18204D01*
G01X18508Y18094D01*
G01X18618Y17985D01*
G01X19601Y17624D02*
G01X19545Y17571D01*
G01X19601Y17515D01*
G01X19654Y17571D01*
G01X19601Y17624D01*
G01X19217Y17571D02*
G01X18455Y17571D01*
G01X19217Y17157D02*
G01X18455Y17157D01*
G01X18999Y17157D02*
G01X19164Y16992D01*
G01X19217Y16883D01*
G01X19217Y16720D01*
G01X19164Y16611D01*
G01X18999Y16555D01*
G01X18455Y16555D01*
G01X19054Y15597D02*
G01X19164Y15651D01*
G01X19217Y15813D01*
G01X19217Y15978D01*
G01X19164Y16141D01*
G01X19054Y16197D01*
G01X18945Y16141D01*
G01X18892Y16032D01*
G01X18836Y15760D01*
G01X18783Y15651D01*
G01X18673Y15597D01*
G01X18618Y15597D01*
G01X18508Y15651D01*
G01X18455Y15813D01*
G01X18455Y15978D01*
G01X18508Y16141D01*
G01X18618Y16197D01*
G01X25763Y4445D02*
G01X25618Y4374D01*
G01X25473Y4226D01*
G01X25399Y4008D01*
G01X25399Y3863D01*
G01X25473Y3645D01*
G01X25618Y3500D01*
G01X25763Y3426D01*
G01X25981Y3426D01*
G01X26126Y3500D01*
G01X26273Y3645D01*
G01X26344Y3863D01*
G01X26344Y4008D01*
G01X26273Y4226D01*
G01X26126Y4374D01*
G01X25981Y4445D01*
G01X25763Y4445D01*
G01X26824Y4445D02*
G01X26824Y3426D01*
G01X26824Y4155D02*
G01X27043Y4374D01*
G01X27188Y4445D01*
G01X27406Y4445D01*
G01X27551Y4374D01*
G01X27624Y4155D01*
G01X27624Y3426D01*

%LPD*%
G36*
G01X-24416Y19102D02*
G01X-24536Y19096D01*
G01X-24656Y19102D01*
G01X-24770Y19123D01*
G01X-24876Y19157D01*
G01X-24975Y19204D01*
G01X-25068Y19265D01*
G01X-25153Y19340D01*
G01X-25229Y19424D01*
G01X-25290Y19516D01*
G01X-25338Y19615D01*
G01X-25372Y19721D01*
G01X-25393Y19834D01*
G01X-25400Y19954D01*
G01X-25400Y24478D01*
G01X-25393Y24598D01*
G01X-25373Y24711D01*
G01X-25339Y24817D01*
G01X-25291Y24916D01*
G01X-25230Y25008D01*
G01X-25156Y25093D01*
G01X-25071Y25167D01*
G01X-24979Y25228D01*
G01X-24880Y25275D01*
G01X-24774Y25309D01*
G01X-24661Y25329D01*
G01X-24541Y25336D01*
G01X-24413Y25330D01*
G01X-24295Y25311D01*
G01X-24185Y25279D01*
G01X-24085Y25233D01*
G01X-23994Y25176D01*
G01X-23911Y25105D01*
G01X-23840Y25024D01*
G01X-23782Y24933D01*
G01X-23736Y24833D01*
G01X-23703Y24723D01*
G01X-23684Y24605D01*
G01X-23677Y24478D01*
G01X-23677Y23010D01*
G01X-23671Y22964D01*
G01X-23651Y22932D01*
G01X-23619Y22912D01*
G01X-23573Y22906D01*
G01X-23531Y22912D01*
G01X-23501Y22932D01*
G01X-23483Y22964D01*
G01X-23477Y23010D01*
G01X-23477Y24478D01*
G01X-23470Y24598D01*
G01X-23449Y24711D01*
G01X-23415Y24817D01*
G01X-23368Y24916D01*
G01X-23306Y25008D01*
G01X-23230Y25093D01*
G01X-23144Y25167D01*
G01X-23051Y25228D01*
G01X-22951Y25275D01*
G01X-22844Y25309D01*
G01X-22731Y25329D01*
G01X-22611Y25336D01*
G01X-22491Y25329D01*
G01X-22379Y25309D01*
G01X-22274Y25275D01*
G01X-22175Y25228D01*
G01X-22083Y25167D01*
G01X-21998Y25093D01*
G01X-21924Y25008D01*
G01X-21863Y24916D01*
G01X-21816Y24817D01*
G01X-21782Y24711D01*
G01X-21762Y24598D01*
G01X-21755Y24478D01*
G01X-21755Y23010D01*
G01X-21749Y22964D01*
G01X-21729Y22932D01*
G01X-21696Y22912D01*
G01X-21650Y22906D01*
G01X-21363Y22906D01*
G01X-21244Y22899D01*
G01X-21130Y22878D01*
G01X-21024Y22844D01*
G01X-20925Y22796D01*
G01X-20832Y22734D01*
G01X-20746Y22659D01*
G01X-20671Y22573D01*
G01X-20640Y22526D01*
G01X-20644Y22516D01*
G01X-20673Y22415D01*
G01X-20690Y22310D01*
G01X-20695Y22202D01*
G01X-20680Y22035D01*
G01X-20634Y21872D01*
G01X-20680Y21717D01*
G01X-20695Y21554D01*
G01X-20688Y21423D01*
G01X-20664Y21299D01*
G01X-20625Y21182D01*
G01X-20570Y21071D01*
G01X-20561Y21057D01*
G01X-20562Y21052D01*
G01X-20611Y20953D01*
G01X-20673Y20862D01*
G01X-20749Y20777D01*
G01X-20836Y20702D01*
G01X-20929Y20642D01*
G01X-21028Y20594D01*
G01X-21134Y20560D01*
G01X-21246Y20540D01*
G01X-21363Y20533D01*
G01X-21650Y20533D01*
G01X-21783Y20537D01*
G01X-21911Y20550D01*
G01X-22036Y20571D01*
G01X-22157Y20601D01*
G01X-22276Y20639D01*
G01X-22391Y20686D01*
G01X-22502Y20741D01*
G01X-22611Y20805D01*
G01X-22720Y20741D01*
G01X-22832Y20686D01*
G01X-22947Y20639D01*
G01X-23066Y20601D01*
G01X-23188Y20571D01*
G01X-23313Y20550D01*
G01X-23442Y20537D01*
G01X-23573Y20533D01*
G01X-23677Y20533D01*
G01X-23677Y19954D01*
G01X-23684Y19834D01*
G01X-23705Y19721D01*
G01X-23738Y19615D01*
G01X-23786Y19516D01*
G01X-23847Y19424D01*
G01X-23921Y19340D01*
G01X-24006Y19265D01*
G01X-24098Y19204D01*
G01X-24197Y19157D01*
G01X-24303Y19123D01*
G01X-24416Y19102D01*
G37*

%LPC*%
G36*
G01X-24713Y20198D02*
G01X-24536Y20168D01*
G01X-24360Y20198D01*
G01X-24221Y20289D01*
G01X-24130Y20428D01*
G01X-24099Y20604D01*
G01X-24099Y21702D01*
G01X-23974Y21659D01*
G01X-23845Y21629D01*
G01X-23711Y21611D01*
G01X-23573Y21605D01*
G01X-23436Y21611D01*
G01X-23303Y21629D01*
G01X-23176Y21659D01*
G01X-23054Y21701D01*
G01X-22935Y21755D01*
G01X-22822Y21821D01*
G01X-22714Y21899D01*
G01X-22611Y21989D01*
G01X-22508Y21899D01*
G01X-22400Y21821D01*
G01X-22287Y21755D01*
G01X-22170Y21701D01*
G01X-22048Y21659D01*
G01X-21920Y21629D01*
G01X-21788Y21611D01*
G01X-21650Y21605D01*
G01X-21363Y21605D01*
G01X-21187Y21635D01*
G01X-21046Y21725D01*
G01X-20953Y21864D01*
G01X-20921Y22040D01*
G01X-20953Y22217D01*
G01X-21046Y22360D01*
G01X-21187Y22453D01*
G01X-21363Y22484D01*
G01X-21650Y22484D01*
G01X-21757Y22493D01*
G01X-21855Y22522D01*
G01X-21944Y22569D01*
G01X-22024Y22636D01*
G01X-22091Y22717D01*
G01X-22138Y22806D01*
G01X-22167Y22904D01*
G01X-22176Y23010D01*
G01X-22176Y24478D01*
G01X-22206Y24654D01*
G01X-22296Y24793D01*
G01X-22435Y24884D01*
G01X-22611Y24915D01*
G01X-22788Y24884D01*
G01X-22931Y24793D01*
G01X-23022Y24654D01*
G01X-23053Y24478D01*
G01X-23053Y23010D01*
G01X-23062Y22904D01*
G01X-23090Y22806D01*
G01X-23137Y22717D01*
G01X-23202Y22636D01*
G01X-23282Y22569D01*
G01X-23370Y22522D01*
G01X-23468Y22493D01*
G01X-23573Y22484D01*
G01X-23679Y22493D01*
G01X-23777Y22522D01*
G01X-23866Y22569D01*
G01X-23947Y22636D01*
G01X-24014Y22717D01*
G01X-24061Y22806D01*
G01X-24090Y22904D01*
G01X-24099Y23010D01*
G01X-24099Y24478D01*
G01X-24112Y24611D01*
G01X-24148Y24720D01*
G01X-24210Y24806D01*
G01X-24296Y24866D01*
G01X-24406Y24903D01*
G01X-24541Y24915D01*
G01X-24718Y24884D01*
G01X-24858Y24793D01*
G01X-24948Y24654D01*
G01X-24978Y24478D01*
G01X-24978Y20604D01*
G01X-24947Y20428D01*
G01X-24853Y20289D01*
G01X-24713Y20198D01*
G37*

%LPD*%
G36*
G01X-13288Y19110D02*
G01X-13408Y19103D01*
G01X-13537Y19107D01*
G01X-13662Y19118D01*
G01X-13783Y19136D01*
G01X-13901Y19161D01*
G01X-14016Y19194D01*
G01X-14127Y19234D01*
G01X-14235Y19281D01*
G01X-14340Y19335D01*
G01X-14441Y19397D01*
G01X-14538Y19467D01*
G01X-14633Y19543D01*
G01X-14724Y19627D01*
G01X-14810Y19715D01*
G01X-14888Y19808D01*
G01X-14959Y19904D01*
G01X-15022Y20003D01*
G01X-15077Y20107D01*
G01X-15126Y20214D01*
G01X-15167Y20324D01*
G01X-15200Y20438D01*
G01X-15226Y20556D01*
G01X-15245Y20677D01*
G01X-15256Y20801D01*
G01X-15260Y20930D01*
G01X-15260Y24193D01*
G01X-15266Y24236D01*
G01X-15283Y24267D01*
G01X-15312Y24286D01*
G01X-15351Y24295D01*
G01X-15351Y21392D01*
G01X-15358Y21271D01*
G01X-15379Y21159D01*
G01X-15413Y21052D01*
G01X-15461Y20953D01*
G01X-15522Y20862D01*
G01X-15598Y20777D01*
G01X-15683Y20702D01*
G01X-15776Y20642D01*
G01X-15876Y20594D01*
G01X-15982Y20560D01*
G01X-16095Y20540D01*
G01X-16215Y20533D01*
G01X-16335Y20540D01*
G01X-16448Y20560D01*
G01X-16554Y20594D01*
G01X-16653Y20642D01*
G01X-16745Y20702D01*
G01X-16830Y20777D01*
G01X-16904Y20862D01*
G01X-16965Y20953D01*
G01X-17012Y21052D01*
G01X-17046Y21159D01*
G01X-17067Y21271D01*
G01X-17073Y21392D01*
G01X-17073Y24193D01*
G01X-17080Y24238D01*
G01X-17100Y24270D01*
G01X-17132Y24288D01*
G01X-17178Y24295D01*
G01X-17223Y24288D01*
G01X-17256Y24270D01*
G01X-17276Y24238D01*
G01X-17282Y24193D01*
G01X-17282Y21392D01*
G01X-17289Y21271D01*
G01X-17309Y21159D01*
G01X-17343Y21052D01*
G01X-17390Y20953D01*
G01X-17451Y20862D01*
G01X-17526Y20777D01*
G01X-17610Y20702D01*
G01X-17702Y20642D01*
G01X-17801Y20594D01*
G01X-17907Y20560D01*
G01X-18020Y20540D01*
G01X-18140Y20533D01*
G01X-18261Y20540D01*
G01X-18374Y20560D01*
G01X-18480Y20594D01*
G01X-18580Y20642D01*
G01X-18672Y20702D01*
G01X-18757Y20777D01*
G01X-18833Y20862D01*
G01X-18895Y20953D01*
G01X-18928Y21022D01*
G01X-18964Y20968D01*
G01X-19050Y20871D01*
G01X-19146Y20786D01*
G01X-19250Y20716D01*
G01X-19360Y20661D01*
G01X-19478Y20623D01*
G01X-19602Y20599D01*
G01X-19733Y20592D01*
G01X-19863Y20599D01*
G01X-19987Y20623D01*
G01X-20104Y20661D01*
G01X-20214Y20716D01*
G01X-20317Y20786D01*
G01X-20413Y20871D01*
G01X-20500Y20968D01*
G01X-20561Y21057D01*
G01X-20528Y21159D01*
G01X-20507Y21271D01*
G01X-20500Y21392D01*
G01X-20515Y21557D01*
G01X-20558Y21717D01*
G01X-20515Y21871D01*
G01X-20500Y22040D01*
G01X-20507Y22159D01*
G01X-20527Y22273D01*
G01X-20562Y22380D01*
G01X-20610Y22479D01*
G01X-20640Y22526D01*
G01X-20604Y22614D01*
G01X-20644Y22715D01*
G01X-20673Y22817D01*
G01X-20690Y22921D01*
G01X-20695Y23028D01*
G01X-20680Y23194D01*
G01X-20634Y23353D01*
G01X-20680Y23513D01*
G01X-20695Y23678D01*
G01X-20688Y23806D01*
G01X-20664Y23929D01*
G01X-20624Y24046D01*
G01X-20569Y24156D01*
G01X-20498Y24261D01*
G01X-20411Y24359D01*
G01X-20314Y24444D01*
G01X-20210Y24515D01*
G01X-20101Y24570D01*
G01X-19984Y24609D01*
G01X-19862Y24632D01*
G01X-19733Y24640D01*
G01X-19604Y24632D01*
G01X-19481Y24609D01*
G01X-19364Y24570D01*
G01X-19254Y24515D01*
G01X-19150Y24444D01*
G01X-19052Y24359D01*
G01X-19004Y24304D01*
G01X-19004Y24841D01*
G01X-19000Y24967D01*
G01X-18989Y25090D01*
G01X-18971Y25210D01*
G01X-18945Y25326D01*
G01X-18912Y25439D01*
G01X-18872Y25549D01*
G01X-18824Y25655D01*
G01X-18769Y25759D01*
G01X-18707Y25859D01*
G01X-18637Y25955D01*
G01X-18560Y26049D01*
G01X-18475Y26139D01*
G01X-18386Y26224D01*
G01X-18292Y26301D01*
G01X-18196Y26371D01*
G01X-18095Y26434D01*
G01X-17992Y26489D01*
G01X-17886Y26537D01*
G01X-17776Y26578D01*
G01X-17663Y26611D01*
G01X-17546Y26636D01*
G01X-17427Y26655D01*
G01X-17304Y26666D01*
G01X-17178Y26670D01*
G01X-17056Y26666D01*
G01X-16936Y26655D01*
G01X-16819Y26636D01*
G01X-16704Y26610D01*
G01X-16591Y26575D01*
G01X-16482Y26534D01*
G01X-16374Y26485D01*
G01X-16268Y26429D01*
G01X-16165Y26485D01*
G01X-16058Y26534D01*
G01X-15949Y26575D01*
G01X-15836Y26610D01*
G01X-15722Y26636D01*
G01X-15604Y26655D01*
G01X-15483Y26666D01*
G01X-15359Y26670D01*
G01X-15233Y26666D01*
G01X-15110Y26655D01*
G01X-14991Y26636D01*
G01X-14874Y26611D01*
G01X-14761Y26578D01*
G01X-14652Y26537D01*
G01X-14546Y26489D01*
G01X-14442Y26434D01*
G01X-14343Y26371D01*
G01X-14246Y26301D01*
G01X-14153Y26224D01*
G01X-14063Y26139D01*
G01X-13980Y26049D01*
G01X-13903Y25955D01*
G01X-13834Y25859D01*
G01X-13771Y25759D01*
G01X-13717Y25655D01*
G01X-13669Y25549D01*
G01X-13629Y25439D01*
G01X-13596Y25326D01*
G01X-13571Y25210D01*
G01X-13552Y25090D01*
G01X-13548Y25042D01*
G01X-13526Y25094D01*
G01X-13475Y25199D01*
G01X-13418Y25302D01*
G01X-13357Y25402D01*
G01X-13291Y25501D01*
G01X-13220Y25597D01*
G01X-13143Y25691D01*
G01X-13062Y25783D01*
G01X-12976Y25872D01*
G01X-12887Y25958D01*
G01X-12795Y26040D01*
G01X-12701Y26116D01*
G01X-12605Y26187D01*
G01X-12506Y26254D01*
G01X-12405Y26315D01*
G01X-12302Y26372D01*
G01X-12197Y26424D01*
G01X-12089Y26470D01*
G01X-11980Y26512D01*
G01X-11868Y26549D01*
G01X-11754Y26581D01*
G01X-11638Y26608D01*
G01X-11519Y26630D01*
G01X-11399Y26648D01*
G01X-11276Y26660D01*
G01X-11151Y26667D01*
G01X-11023Y26670D01*
G01X-10896Y26667D01*
G01X-10771Y26660D01*
G01X-10647Y26648D01*
G01X-10526Y26630D01*
G01X-10408Y26608D01*
G01X-10292Y26581D01*
G01X-10177Y26549D01*
G01X-10066Y26512D01*
G01X-9956Y26470D01*
G01X-9849Y26424D01*
G01X-9743Y26372D01*
G01X-9640Y26315D01*
G01X-9540Y26254D01*
G01X-9441Y26187D01*
G01X-9345Y26116D01*
G01X-9251Y26040D01*
G01X-9159Y25958D01*
G01X-9070Y25872D01*
G01X-8984Y25783D01*
G01X-8903Y25691D01*
G01X-8827Y25597D01*
G01X-8755Y25501D01*
G01X-8688Y25402D01*
G01X-8627Y25302D01*
G01X-8570Y25199D01*
G01X-8519Y25094D01*
G01X-8472Y24986D01*
G01X-8430Y24877D01*
G01X-8393Y24765D01*
G01X-8361Y24651D01*
G01X-8334Y24534D01*
G01X-8312Y24416D01*
G01X-8295Y24295D01*
G01X-8282Y24172D01*
G01X-8275Y24047D01*
G01X-8272Y23919D01*
G01X-8277Y23753D01*
G01X-8293Y23589D01*
G01X-8277Y23430D01*
G01X-8272Y23269D01*
G01X-8275Y23142D01*
G01X-8282Y23017D01*
G01X-8295Y22895D01*
G01X-8312Y22775D01*
G01X-8334Y22657D01*
G01X-8361Y22540D01*
G01X-8394Y22427D01*
G01X-8430Y22315D01*
G01X-8472Y22206D01*
G01X-8519Y22098D01*
G01X-8571Y21993D01*
G01X-8628Y21890D01*
G01X-8690Y21790D01*
G01X-8756Y21691D01*
G01X-8828Y21595D01*
G01X-8905Y21500D01*
G01X-8986Y21408D01*
G01X-9072Y21318D01*
G01X-9162Y21232D01*
G01X-9255Y21151D01*
G01X-9349Y21074D01*
G01X-9445Y21003D01*
G01X-9544Y20937D01*
G01X-9645Y20875D01*
G01X-9748Y20818D01*
G01X-9853Y20766D01*
G01X-9960Y20720D01*
G01X-10070Y20678D01*
G01X-10181Y20641D01*
G01X-10295Y20609D01*
G01X-10411Y20582D01*
G01X-10529Y20560D01*
G01X-10650Y20542D01*
G01X-10772Y20530D01*
G01X-10897Y20523D01*
G01X-11023Y20521D01*
G01X-11151Y20523D01*
G01X-11276Y20530D01*
G01X-11399Y20542D01*
G01X-11519Y20560D01*
G01X-11638Y20582D01*
G01X-11754Y20609D01*
G01X-11868Y20641D01*
G01X-11980Y20678D01*
G01X-12089Y20719D01*
G01X-12197Y20766D01*
G01X-12302Y20817D01*
G01X-12405Y20874D01*
G01X-12506Y20935D01*
G01X-12605Y21001D01*
G01X-12643Y21030D01*
G01X-12606Y20954D01*
G01X-12570Y20847D01*
G01X-12549Y20732D01*
G01X-12542Y20610D01*
G01X-12557Y20445D01*
G01X-12603Y20287D01*
G01X-12557Y20130D01*
G01X-12542Y19962D01*
G01X-12549Y19841D01*
G01X-12570Y19729D01*
G01X-12605Y19622D01*
G01X-12653Y19523D01*
G01X-12715Y19432D01*
G01X-12791Y19347D01*
G01X-12877Y19272D01*
G01X-12969Y19212D01*
G01X-13069Y19164D01*
G01X-13175Y19130D01*
G01X-13288Y19110D01*
G37*

%LPC*%
G36*
G01X-13551Y20179D02*
G01X-13434Y20175D01*
G01X-13408Y20175D01*
G01X-13230Y20205D01*
G01X-13088Y20295D01*
G01X-12997Y20434D01*
G01X-12966Y20610D01*
G01X-12997Y20787D01*
G01X-13088Y20930D01*
G01X-13230Y21023D01*
G01X-13408Y21054D01*
G01X-13434Y21054D01*
G01X-13540Y21063D01*
G01X-13638Y21092D01*
G01X-13727Y21139D01*
G01X-13807Y21206D01*
G01X-13874Y21287D01*
G01X-13921Y21376D01*
G01X-13950Y21474D01*
G01X-13959Y21580D01*
G01X-13959Y24841D01*
G01X-13963Y24959D01*
G01X-13976Y25073D01*
G01X-13995Y25183D01*
G01X-14024Y25289D01*
G01X-14060Y25391D01*
G01X-14104Y25490D01*
G01X-14156Y25584D01*
G01X-14216Y25675D01*
G01X-14284Y25762D01*
G01X-14361Y25844D01*
G01X-14442Y25921D01*
G01X-14528Y25989D01*
G01X-14618Y26049D01*
G01X-14712Y26101D01*
G01X-14810Y26145D01*
G01X-14912Y26181D01*
G01X-15018Y26209D01*
G01X-15127Y26230D01*
G01X-15241Y26242D01*
G01X-15359Y26246D01*
G01X-15486Y26240D01*
G01X-15610Y26224D01*
G01X-15730Y26198D01*
G01X-15846Y26161D01*
G01X-15957Y26114D01*
G01X-16065Y26056D01*
G01X-16169Y25987D01*
G01X-16268Y25908D01*
G01X-16369Y25987D01*
G01X-16474Y26056D01*
G01X-16582Y26114D01*
G01X-16694Y26161D01*
G01X-16809Y26198D01*
G01X-16929Y26224D01*
G01X-17051Y26240D01*
G01X-17178Y26246D01*
G01X-17295Y26242D01*
G01X-17410Y26230D01*
G01X-17519Y26210D01*
G01X-17626Y26181D01*
G01X-17728Y26145D01*
G01X-17826Y26101D01*
G01X-17920Y26049D01*
G01X-18010Y25989D01*
G01X-18096Y25921D01*
G01X-18178Y25844D01*
G01X-18255Y25762D01*
G01X-18324Y25675D01*
G01X-18385Y25584D01*
G01X-18437Y25490D01*
G01X-18482Y25391D01*
G01X-18518Y25289D01*
G01X-18546Y25183D01*
G01X-18566Y25073D01*
G01X-18578Y24959D01*
G01X-18582Y24841D01*
G01X-18582Y22040D01*
G01X-18551Y21864D01*
G01X-18458Y21725D01*
G01X-18317Y21635D01*
G01X-18140Y21605D01*
G01X-17964Y21635D01*
G01X-17825Y21725D01*
G01X-17734Y21864D01*
G01X-17703Y22040D01*
G01X-17703Y24841D01*
G01X-17694Y24947D01*
G01X-17665Y25045D01*
G01X-17618Y25135D01*
G01X-17551Y25217D01*
G01X-17471Y25284D01*
G01X-17382Y25331D01*
G01X-17284Y25360D01*
G01X-17178Y25369D01*
G01X-17074Y25359D01*
G01X-16978Y25330D01*
G01X-16889Y25281D01*
G01X-16807Y25212D01*
G01X-16739Y25131D01*
G01X-16691Y25042D01*
G01X-16661Y24945D01*
G01X-16652Y24841D01*
G01X-16652Y22040D01*
G01X-16621Y21864D01*
G01X-16530Y21725D01*
G01X-16392Y21635D01*
G01X-16215Y21605D01*
G01X-16039Y21635D01*
G01X-15897Y21725D01*
G01X-15804Y21864D01*
G01X-15773Y22040D01*
G01X-15773Y25161D01*
G01X-15689Y25252D01*
G01X-15592Y25317D01*
G01X-15482Y25356D01*
G01X-15359Y25369D01*
G01X-15255Y25359D01*
G01X-15159Y25330D01*
G01X-15071Y25281D01*
G01X-14991Y25212D01*
G01X-14924Y25131D01*
G01X-14876Y25042D01*
G01X-14848Y24945D01*
G01X-14838Y24841D01*
G01X-14838Y21580D01*
G01X-14834Y21461D01*
G01X-14822Y21348D01*
G01X-14802Y21238D01*
G01X-14774Y21132D01*
G01X-14738Y21030D01*
G01X-14693Y20932D01*
G01X-14641Y20838D01*
G01X-14580Y20747D01*
G01X-14511Y20661D01*
G01X-14434Y20579D01*
G01X-14352Y20502D01*
G01X-14265Y20433D01*
G01X-14175Y20373D01*
G01X-14081Y20320D01*
G01X-13982Y20276D01*
G01X-13881Y20240D01*
G01X-13774Y20211D01*
G01X-13665Y20191D01*
G01X-13551Y20179D01*
G37*
G36*
G01X-13083Y21415D02*
G01X-13063Y21406D01*
G01X-13143Y21497D01*
G01X-13220Y21591D01*
G01X-13291Y21687D01*
G01X-13357Y21786D01*
G01X-13418Y21887D01*
G01X-13475Y21990D01*
G01X-13526Y22095D01*
G01X-13538Y22122D01*
G01X-13538Y21580D01*
G01X-13532Y21534D01*
G01X-13512Y21502D01*
G01X-13479Y21482D01*
G01X-13434Y21476D01*
G01X-13310Y21469D01*
G01X-13192Y21448D01*
G01X-13083Y21415D01*
G37*
G36*
G01X-11145Y21595D02*
G01X-11023Y21592D01*
G01X-10902Y21595D01*
G01X-10782Y21603D01*
G01X-10665Y21616D01*
G01X-10551Y21634D01*
G01X-10439Y21658D01*
G01X-10330Y21687D01*
G01X-10222Y21721D01*
G01X-10118Y21761D01*
G01X-10015Y21805D01*
G01X-9916Y21855D01*
G01X-9818Y21911D01*
G01X-9723Y21971D01*
G01X-9631Y22036D01*
G01X-9540Y22108D01*
G01X-9452Y22184D01*
G01X-9367Y22266D01*
G01X-9286Y22351D01*
G01X-9210Y22438D01*
G01X-9139Y22529D01*
G01X-9074Y22621D01*
G01X-9013Y22716D01*
G01X-8959Y22813D01*
G01X-8909Y22913D01*
G01X-8864Y23015D01*
G01X-8825Y23120D01*
G01X-8791Y23227D01*
G01X-8762Y23336D01*
G01X-8739Y23448D01*
G01X-8720Y23562D01*
G01X-8707Y23679D01*
G01X-8700Y23798D01*
G01X-8696Y23919D01*
G01X-8700Y24040D01*
G01X-8707Y24159D01*
G01X-8720Y24276D01*
G01X-8739Y24390D01*
G01X-8762Y24502D01*
G01X-8791Y24611D01*
G01X-8825Y24718D01*
G01X-8864Y24822D01*
G01X-8909Y24924D01*
G01X-8959Y25025D01*
G01X-9013Y25122D01*
G01X-9074Y25217D01*
G01X-9139Y25309D01*
G01X-9210Y25399D01*
G01X-9286Y25487D01*
G01X-9367Y25573D01*
G01X-9452Y25654D01*
G01X-9540Y25730D01*
G01X-9631Y25801D01*
G01X-9723Y25867D01*
G01X-9818Y25927D01*
G01X-9916Y25983D01*
G01X-10015Y26032D01*
G01X-10118Y26077D01*
G01X-10222Y26117D01*
G01X-10330Y26151D01*
G01X-10439Y26180D01*
G01X-10551Y26204D01*
G01X-10665Y26222D01*
G01X-10782Y26235D01*
G01X-10902Y26243D01*
G01X-11023Y26246D01*
G01X-11145Y26243D01*
G01X-11263Y26235D01*
G01X-11380Y26222D01*
G01X-11495Y26204D01*
G01X-11606Y26180D01*
G01X-11716Y26151D01*
G01X-11822Y26117D01*
G01X-11927Y26077D01*
G01X-12029Y26032D01*
G01X-12129Y25983D01*
G01X-12226Y25927D01*
G01X-12321Y25867D01*
G01X-12413Y25801D01*
G01X-12504Y25730D01*
G01X-12591Y25654D01*
G01X-12677Y25573D01*
G01X-12758Y25487D01*
G01X-12835Y25399D01*
G01X-12906Y25309D01*
G01X-12971Y25217D01*
G01X-13032Y25122D01*
G01X-13087Y25025D01*
G01X-13137Y24924D01*
G01X-13182Y24822D01*
G01X-13221Y24718D01*
G01X-13255Y24611D01*
G01X-13284Y24502D01*
G01X-13308Y24390D01*
G01X-13326Y24276D01*
G01X-13340Y24159D01*
G01X-13347Y24040D01*
G01X-13350Y23919D01*
G01X-13347Y23798D01*
G01X-13340Y23679D01*
G01X-13326Y23562D01*
G01X-13308Y23448D01*
G01X-13284Y23336D01*
G01X-13255Y23227D01*
G01X-13221Y23120D01*
G01X-13182Y23015D01*
G01X-13137Y22913D01*
G01X-13087Y22813D01*
G01X-13032Y22716D01*
G01X-12971Y22621D01*
G01X-12906Y22529D01*
G01X-12835Y22438D01*
G01X-12758Y22351D01*
G01X-12677Y22266D01*
G01X-12591Y22184D01*
G01X-12504Y22108D01*
G01X-12413Y22036D01*
G01X-12321Y21971D01*
G01X-12226Y21911D01*
G01X-12129Y21855D01*
G01X-12029Y21805D01*
G01X-11927Y21761D01*
G01X-11822Y21721D01*
G01X-11716Y21687D01*
G01X-11606Y21658D01*
G01X-11495Y21634D01*
G01X-11380Y21616D01*
G01X-11263Y21603D01*
G01X-11145Y21595D01*
G37*
G36*
G01X-19841Y21673D02*
G01X-19733Y21664D01*
G01X-19623Y21673D01*
G01X-19523Y21702D01*
G01X-19432Y21750D01*
G01X-19349Y21819D01*
G01X-19281Y21901D01*
G01X-19231Y21993D01*
G01X-19202Y22093D01*
G01X-19192Y22202D01*
G01X-19202Y22308D01*
G01X-19232Y22407D01*
G01X-19282Y22498D01*
G01X-19352Y22581D01*
G01X-19436Y22648D01*
G01X-19527Y22696D01*
G01X-19626Y22726D01*
G01X-19733Y22735D01*
G01X-19839Y22726D01*
G01X-19938Y22696D01*
G01X-20029Y22648D01*
G01X-20111Y22581D01*
G01X-20181Y22498D01*
G01X-20232Y22407D01*
G01X-20262Y22308D01*
G01X-20271Y22202D01*
G01X-20262Y22093D01*
G01X-20233Y21993D01*
G01X-20184Y21901D01*
G01X-20116Y21819D01*
G01X-20033Y21750D01*
G01X-19942Y21702D01*
G01X-19841Y21673D01*
G37*
G36*
G01X-19839Y23149D02*
G01X-19733Y23139D01*
G01X-19626Y23149D01*
G01X-19527Y23179D01*
G01X-19436Y23229D01*
G01X-19352Y23299D01*
G01X-19282Y23382D01*
G01X-19232Y23473D01*
G01X-19202Y23571D01*
G01X-19192Y23678D01*
G01X-19202Y23785D01*
G01X-19232Y23884D01*
G01X-19282Y23975D01*
G01X-19352Y24059D01*
G01X-19436Y24128D01*
G01X-19527Y24179D01*
G01X-19626Y24209D01*
G01X-19733Y24219D01*
G01X-19839Y24209D01*
G01X-19938Y24179D01*
G01X-20029Y24128D01*
G01X-20111Y24059D01*
G01X-20181Y23975D01*
G01X-20232Y23884D01*
G01X-20262Y23785D01*
G01X-20271Y23678D01*
G01X-20262Y23571D01*
G01X-20232Y23473D01*
G01X-20181Y23382D01*
G01X-20111Y23299D01*
G01X-20029Y23229D01*
G01X-19938Y23179D01*
G01X-19839Y23149D01*
G37*

%LPD*%
G36*
G01X-10902Y22473D02*
G01X-11023Y22469D01*
G01X-11143Y22473D01*
G01X-11259Y22485D01*
G01X-11372Y22506D01*
G01X-11480Y22535D01*
G01X-11585Y22573D01*
G01X-11686Y22619D01*
G01X-11784Y22673D01*
G01X-11877Y22735D01*
G01X-11966Y22806D01*
G01X-12052Y22885D01*
G01X-12132Y22971D01*
G01X-12203Y23060D01*
G01X-12266Y23153D01*
G01X-12320Y23251D01*
G01X-12366Y23352D01*
G01X-12404Y23457D01*
G01X-12433Y23567D01*
G01X-12454Y23680D01*
G01X-12467Y23798D01*
G01X-12471Y23919D01*
G01X-12467Y24042D01*
G01X-12455Y24160D01*
G01X-12434Y24275D01*
G01X-12405Y24384D01*
G01X-12368Y24491D01*
G01X-12322Y24592D01*
G01X-12268Y24689D01*
G01X-12206Y24782D01*
G01X-12136Y24871D01*
G01X-12057Y24955D01*
G01X-11972Y25034D01*
G01X-11883Y25104D01*
G01X-11789Y25166D01*
G01X-11692Y25220D01*
G01X-11591Y25266D01*
G01X-11485Y25303D01*
G01X-11376Y25332D01*
G01X-11262Y25353D01*
G01X-11145Y25365D01*
G01X-11023Y25369D01*
G01X-10902Y25365D01*
G01X-10784Y25353D01*
G01X-10671Y25332D01*
G01X-10562Y25302D01*
G01X-10456Y25265D01*
G01X-10355Y25219D01*
G01X-10258Y25165D01*
G01X-10164Y25103D01*
G01X-10075Y25032D01*
G01X-9989Y24953D01*
G01X-9911Y24868D01*
G01X-9839Y24778D01*
G01X-9777Y24685D01*
G01X-9723Y24587D01*
G01X-9677Y24486D01*
G01X-9640Y24380D01*
G01X-9610Y24271D01*
G01X-9590Y24158D01*
G01X-9577Y24041D01*
G01X-9573Y23919D01*
G01X-9577Y23798D01*
G01X-9590Y23680D01*
G01X-9610Y23567D01*
G01X-9640Y23457D01*
G01X-9677Y23352D01*
G01X-9723Y23251D01*
G01X-9777Y23153D01*
G01X-9839Y23060D01*
G01X-9911Y22971D01*
G01X-9989Y22885D01*
G01X-10075Y22806D01*
G01X-10164Y22735D01*
G01X-10258Y22673D01*
G01X-10355Y22619D01*
G01X-10456Y22573D01*
G01X-10562Y22535D01*
G01X-10671Y22506D01*
G01X-10784Y22485D01*
G01X-10902Y22473D01*
G37*

%LPC*%
G36*
G01X-11137Y22898D02*
G01X-11023Y22893D01*
G01X-10908Y22898D01*
G01X-10798Y22914D01*
G01X-10692Y22941D01*
G01X-10592Y22978D01*
G01X-10497Y23027D01*
G01X-10406Y23086D01*
G01X-10322Y23155D01*
G01X-10247Y23230D01*
G01X-10181Y23313D01*
G01X-10125Y23402D01*
G01X-10078Y23498D01*
G01X-10040Y23602D01*
G01X-10082Y23709D01*
G01X-10138Y23812D01*
G01X-10206Y23910D01*
G01X-10287Y24003D01*
G01X-10391Y24092D01*
G01X-10502Y24165D01*
G01X-10621Y24222D01*
G01X-10747Y24263D01*
G01X-10881Y24287D01*
G01X-11023Y24295D01*
G01X-11138Y24289D01*
G01X-11248Y24274D01*
G01X-11353Y24247D01*
G01X-11453Y24210D01*
G01X-11549Y24162D01*
G01X-11640Y24105D01*
G01X-11725Y24036D01*
G01X-11799Y23962D01*
G01X-11863Y23880D01*
G01X-11918Y23792D01*
G01X-11963Y23696D01*
G01X-11998Y23594D01*
G01X-11961Y23493D01*
G01X-11914Y23398D01*
G01X-11858Y23311D01*
G01X-11793Y23229D01*
G01X-11719Y23154D01*
G01X-11635Y23086D01*
G01X-11546Y23027D01*
G01X-11451Y22978D01*
G01X-11352Y22941D01*
G01X-11247Y22914D01*
G01X-11137Y22898D01*
G37*

%LPD*%
G54D10*
G01X0Y-3175D02*
G01X14015Y-3175D01*
G01X24084Y-3175D02*
G01X38099Y-3175D01*
G01X1270Y-3937D02*
G01X0Y-3175D01*
G01X1270Y-2413D01*
G01X36829Y-3937D02*
G01X38099Y-3175D01*
G01X36829Y-2413D01*
G01X14640Y-2466D02*
G01X15290Y-2466D01*
G01X14937Y-2938D01*
G01X15115Y-2938D01*
G01X15232Y-2997D01*
G01X15290Y-3055D01*
G01X15351Y-3233D01*
G01X15351Y-3352D01*
G01X15290Y-3530D01*
G01X15173Y-3647D01*
G01X14996Y-3705D01*
G01X14818Y-3705D01*
G01X14640Y-3647D01*
G01X14582Y-3589D01*
G01X14523Y-3469D01*
G01X16037Y-2466D02*
G01X15859Y-2524D01*
G01X15798Y-2644D01*
G01X15798Y-2761D01*
G01X15859Y-2880D01*
G01X15976Y-2938D01*
G01X16212Y-2997D01*
G01X16390Y-3055D01*
G01X16510Y-3175D01*
G01X16568Y-3294D01*
G01X16568Y-3469D01*
G01X16510Y-3589D01*
G01X16449Y-3647D01*
G01X16273Y-3705D01*
G01X16037Y-3705D01*
G01X15859Y-3647D01*
G01X15798Y-3589D01*
G01X15740Y-3469D01*
G01X15740Y-3294D01*
G01X15798Y-3175D01*
G01X15918Y-3055D01*
G01X16095Y-2997D01*
G01X16332Y-2938D01*
G01X16449Y-2880D01*
G01X16510Y-2761D01*
G01X16510Y-2644D01*
G01X16449Y-2524D01*
G01X16273Y-2466D01*
G01X16037Y-2466D01*
G01X17018Y-3411D02*
G01X16957Y-3469D01*
G01X17018Y-3530D01*
G01X17076Y-3469D01*
G01X17018Y-3411D01*
G01X17467Y-2702D02*
G01X17584Y-2644D01*
G01X17762Y-2466D01*
G01X17762Y-3705D01*
G01X18506Y-2466D02*
G01X18328Y-2524D01*
G01X18211Y-2702D01*
G01X18150Y-2997D01*
G01X18150Y-3175D01*
G01X18211Y-3469D01*
G01X18328Y-3647D01*
G01X18506Y-3705D01*
G01X18623Y-3705D01*
G01X18801Y-3647D01*
G01X18920Y-3469D01*
G01X18978Y-3175D01*
G01X18978Y-2997D01*
G01X18920Y-2702D01*
G01X18801Y-2524D01*
G01X18623Y-2466D01*
G01X18506Y-2466D01*
G01X19723Y-2466D02*
G01X19545Y-2524D01*
G01X19428Y-2702D01*
G01X19370Y-2997D01*
G01X19370Y-3175D01*
G01X19428Y-3469D01*
G01X19545Y-3647D01*
G01X19723Y-3705D01*
G01X19842Y-3705D01*
G01X20020Y-3647D01*
G01X20137Y-3469D01*
G01X20195Y-3175D01*
G01X20195Y-2997D01*
G01X20137Y-2702D01*
G01X20020Y-2524D01*
G01X19842Y-2466D01*
G01X19723Y-2466D01*
G01X20586Y-2880D02*
G01X20586Y-3705D01*
G01X20586Y-3116D02*
G01X20764Y-2938D01*
G01X20881Y-2880D01*
G01X21059Y-2880D01*
G01X21175Y-2938D01*
G01X21236Y-3116D01*
G01X21236Y-3705D01*
G01X21236Y-3116D02*
G01X21414Y-2938D01*
G01X21531Y-2880D01*
G01X21709Y-2880D01*
G01X21826Y-2938D01*
G01X21887Y-3116D01*
G01X21887Y-3705D01*
G01X22275Y-2880D02*
G01X22275Y-3705D01*
G01X22275Y-3116D02*
G01X22453Y-2938D01*
G01X22572Y-2880D01*
G01X22748Y-2880D01*
G01X22867Y-2938D01*
G01X22926Y-3116D01*
G01X22926Y-3705D01*
G01X22926Y-3116D02*
G01X23103Y-2938D01*
G01X23220Y-2880D01*
G01X23398Y-2880D01*
G01X23517Y-2938D01*
G01X23576Y-3116D01*
G01X23576Y-3705D01*
G01X-3172Y27938D02*
G01X-3172Y19268D01*
G01X-3172Y8668D02*
G01X-3172Y-1D01*
G01X-3934Y26668D02*
G01X-3172Y27938D01*
G01X-2410Y26668D01*
G01X-3934Y1268D02*
G01X-3172Y-1D01*
G01X-2410Y1268D01*
G01X-3587Y9235D02*
G01X-3646Y9235D01*
G01X-3763Y9293D01*
G01X-3823Y9354D01*
G01X-3882Y9471D01*
G01X-3882Y9707D01*
G01X-3823Y9826D01*
G01X-3763Y9885D01*
G01X-3646Y9943D01*
G01X-3526Y9943D01*
G01X-3409Y9885D01*
G01X-3232Y9765D01*
G01X-2640Y9176D01*
G01X-2640Y10002D01*
G01X-3882Y11221D02*
G01X-2640Y10629D01*
G01X-3882Y10393D02*
G01X-3882Y11221D01*
G01X-2937Y11670D02*
G01X-2876Y11610D01*
G01X-2818Y11670D01*
G01X-2876Y11729D01*
G01X-2937Y11670D01*
G01X-3468Y12887D02*
G01X-3290Y12829D01*
G01X-3173Y12709D01*
G01X-3112Y12532D01*
G01X-3112Y12473D01*
G01X-3173Y12295D01*
G01X-3290Y12178D01*
G01X-3468Y12118D01*
G01X-3526Y12118D01*
G01X-3704Y12178D01*
G01X-3823Y12295D01*
G01X-3882Y12473D01*
G01X-3882Y12532D01*
G01X-3823Y12709D01*
G01X-3704Y12829D01*
G01X-3468Y12887D01*
G01X-3173Y12887D01*
G01X-2876Y12829D01*
G01X-2701Y12709D01*
G01X-2640Y12532D01*
G01X-2640Y12415D01*
G01X-2701Y12237D01*
G01X-2818Y12178D01*
G01X-3882Y13868D02*
G01X-3054Y13276D01*
G01X-3054Y14162D01*
G01X-3882Y13868D02*
G01X-2640Y13868D01*
G01X-3882Y14906D02*
G01X-3823Y14731D01*
G01X-3646Y14612D01*
G01X-3349Y14553D01*
G01X-3173Y14553D01*
G01X-2876Y14612D01*
G01X-2701Y14731D01*
G01X-2640Y14906D01*
G01X-2640Y15026D01*
G01X-2701Y15204D01*
G01X-2876Y15320D01*
G01X-3173Y15381D01*
G01X-3349Y15381D01*
G01X-3646Y15320D01*
G01X-3823Y15204D01*
G01X-3882Y15026D01*
G01X-3882Y14906D01*
G01X-3468Y15770D02*
G01X-2640Y15770D01*
G01X-3232Y15770D02*
G01X-3409Y15948D01*
G01X-3468Y16065D01*
G01X-3468Y16242D01*
G01X-3409Y16362D01*
G01X-3232Y16420D01*
G01X-2640Y16420D01*
G01X-3232Y16420D02*
G01X-3409Y16598D01*
G01X-3468Y16715D01*
G01X-3468Y16893D01*
G01X-3409Y17012D01*
G01X-3232Y17071D01*
G01X-2640Y17071D01*
G01X-3468Y17459D02*
G01X-2640Y17459D01*
G01X-3232Y17459D02*
G01X-3409Y17637D01*
G01X-3468Y17756D01*
G01X-3468Y17934D01*
G01X-3409Y18051D01*
G01X-3232Y18109D01*
G01X-2640Y18109D01*
G01X-3232Y18109D02*
G01X-3409Y18287D01*
G01X-3468Y18407D01*
G01X-3468Y18582D01*
G01X-3409Y18701D01*
G01X-3232Y18760D01*
G01X-2640Y18760D01*
G54D24*
G01X-24765Y13497D02*
G01X-24765Y12669D01*
G01X-24765Y13261D02*
G01X-24587Y13436D01*
G01X-24467Y13497D01*
G01X-24292Y13497D01*
G01X-24173Y13436D01*
G01X-24114Y13261D01*
G01X-24114Y12669D01*
G01X-24114Y13261D02*
G01X-23936Y13436D01*
G01X-23820Y13497D01*
G01X-23642Y13497D01*
G01X-23522Y13436D01*
G01X-23464Y13261D01*
G01X-23464Y12669D01*
G01X-23073Y13911D02*
G01X-23014Y13850D01*
G01X-22956Y13911D01*
G01X-23014Y13969D01*
G01X-23073Y13911D01*
G01X-23014Y13497D02*
G01X-23014Y12669D01*
G01X-21856Y13319D02*
G01X-21976Y13436D01*
G01X-22092Y13497D01*
G01X-22270Y13497D01*
G01X-22390Y13436D01*
G01X-22506Y13319D01*
G01X-22565Y13141D01*
G01X-22565Y13025D01*
G01X-22506Y12847D01*
G01X-22390Y12727D01*
G01X-22270Y12669D01*
G01X-22092Y12669D01*
G01X-21976Y12727D01*
G01X-21856Y12847D01*
G01X-21468Y13497D02*
G01X-21468Y12669D01*
G01X-21468Y13141D02*
G01X-21407Y13319D01*
G01X-21290Y13436D01*
G01X-21170Y13497D01*
G01X-20995Y13497D01*
G01X-20309Y13497D02*
G01X-20426Y13436D01*
G01X-20546Y13319D01*
G01X-20604Y13141D01*
G01X-20604Y13025D01*
G01X-20546Y12847D01*
G01X-20426Y12727D01*
G01X-20309Y12669D01*
G01X-20132Y12669D01*
G01X-20012Y12727D01*
G01X-19895Y12847D01*
G01X-19837Y13025D01*
G01X-19837Y13141D01*
G01X-19895Y13319D01*
G01X-20012Y13436D01*
G01X-20132Y13497D01*
G01X-20309Y13497D01*
G01X-19446Y13497D02*
G01X-19446Y12669D01*
G01X-19446Y13261D02*
G01X-19268Y13436D01*
G01X-19151Y13497D01*
G01X-18973Y13497D01*
G01X-18854Y13436D01*
G01X-18796Y13261D01*
G01X-18796Y12669D01*
G01X-18796Y13261D02*
G01X-18618Y13436D01*
G01X-18501Y13497D01*
G01X-18323Y13497D01*
G01X-18204Y13436D01*
G01X-18145Y13261D01*
G01X-18145Y12669D01*
G01X-17459Y13497D02*
G01X-17579Y13436D01*
G01X-17696Y13319D01*
G01X-17757Y13141D01*
G01X-17757Y13025D01*
G01X-17696Y12847D01*
G01X-17579Y12727D01*
G01X-17459Y12669D01*
G01X-17284Y12669D01*
G01X-17165Y12727D01*
G01X-17048Y12847D01*
G01X-16987Y13025D01*
G01X-16987Y13141D01*
G01X-17048Y13319D01*
G01X-17165Y13436D01*
G01X-17284Y13497D01*
G01X-17459Y13497D01*
G01X-15687Y13497D02*
G01X-15333Y12669D01*
G01X-14978Y13497D02*
G01X-15333Y12669D01*
G01X-14528Y13614D02*
G01X-14528Y13675D01*
G01X-14470Y13792D01*
G01X-14411Y13850D01*
G01X-14292Y13911D01*
G01X-14056Y13911D01*
G01X-13939Y13850D01*
G01X-13881Y13792D01*
G01X-13820Y13675D01*
G01X-13820Y13555D01*
G01X-13881Y13436D01*
G01X-13997Y13261D01*
G01X-14589Y12669D01*
G01X-13761Y12669D01*
G01X-24765Y11595D02*
G01X-24765Y10352D01*
G01X-24765Y11595D02*
G01X-24231Y11595D01*
G01X-24056Y11534D01*
G01X-23995Y11475D01*
G01X-23936Y11358D01*
G01X-23936Y11239D01*
G01X-23995Y11122D01*
G01X-24056Y11061D01*
G01X-24231Y11003D01*
G01X-24765Y11003D01*
G01X-24350Y11003D02*
G01X-23936Y10352D01*
G01X-23548Y11358D02*
G01X-23428Y11417D01*
G01X-23251Y11595D01*
G01X-23251Y10352D01*
G01X-22801Y11061D02*
G01X-22862Y11003D01*
G01X-22801Y10944D01*
G01X-22743Y11003D01*
G01X-22801Y11061D01*
G01X-22801Y10650D02*
G01X-22862Y10589D01*
G01X-22801Y10530D01*
G01X-22743Y10589D01*
G01X-22801Y10650D01*
G01X-21526Y11595D02*
G01X-22118Y10352D01*
G01X-22354Y11595D02*
G01X-21526Y11595D01*
G01X-20426Y11595D02*
G01X-21018Y11595D01*
G01X-21076Y11061D01*
G01X-21018Y11122D01*
G01X-20840Y11181D01*
G01X-20662Y11181D01*
G01X-20485Y11122D01*
G01X-20368Y11003D01*
G01X-20309Y10825D01*
G01X-20309Y10708D01*
G01X-20368Y10530D01*
G01X-20485Y10411D01*
G01X-20662Y10352D01*
G01X-20840Y10352D01*
G01X-21018Y10411D01*
G01X-21076Y10472D01*
G01X-21135Y10589D01*
G01X-19565Y11595D02*
G01X-19740Y11534D01*
G01X-19860Y11358D01*
G01X-19918Y11061D01*
G01X-19918Y10886D01*
G01X-19860Y10589D01*
G01X-19740Y10411D01*
G01X-19565Y10352D01*
G01X-19446Y10352D01*
G01X-19268Y10411D01*
G01X-19151Y10589D01*
G01X-19090Y10886D01*
G01X-19090Y11061D01*
G01X-19151Y11358D01*
G01X-19268Y11534D01*
G01X-19446Y11595D01*
G01X-19565Y11595D01*
G01X-17792Y11595D02*
G01X-17792Y10352D01*
G01X-17792Y11595D02*
G01X-17259Y11595D01*
G01X-17081Y11534D01*
G01X-17023Y11475D01*
G01X-16964Y11358D01*
G01X-16964Y11239D01*
G01X-17023Y11122D01*
G01X-17081Y11061D01*
G01X-17259Y11003D01*
G01X-17792Y11003D01*
G01X-17378Y11003D02*
G01X-16964Y10352D01*
G01X-15864Y11595D02*
G01X-16456Y11595D01*
G01X-16515Y11061D01*
G01X-16456Y11122D01*
G01X-16278Y11181D01*
G01X-16101Y11181D01*
G01X-15925Y11122D01*
G01X-15806Y11003D01*
G01X-15748Y10825D01*
G01X-15748Y10708D01*
G01X-15806Y10530D01*
G01X-15925Y10411D01*
G01X-16101Y10352D01*
G01X-16278Y10352D01*
G01X-16456Y10411D01*
G01X-16515Y10472D01*
G01X-16573Y10589D01*
G01X-15298Y11061D02*
G01X-15356Y11003D01*
G01X-15298Y10944D01*
G01X-15240Y11003D01*
G01X-15298Y11061D01*
G01X-15298Y10650D02*
G01X-15356Y10589D01*
G01X-15298Y10530D01*
G01X-15240Y10589D01*
G01X-15298Y10650D01*
G01X-14140Y11595D02*
G01X-14732Y11595D01*
G01X-14790Y11061D01*
G01X-14732Y11122D01*
G01X-14554Y11181D01*
G01X-14376Y11181D01*
G01X-14198Y11122D01*
G01X-14081Y11003D01*
G01X-14020Y10825D01*
G01X-14020Y10708D01*
G01X-14081Y10530D01*
G01X-14198Y10411D01*
G01X-14376Y10352D01*
G01X-14554Y10352D01*
G01X-14732Y10411D01*
G01X-14790Y10472D01*
G01X-14848Y10589D01*
G01X-13040Y11595D02*
G01X-13632Y10767D01*
G01X-12745Y10767D01*
G01X-13040Y11595D02*
G01X-13040Y10352D01*
G01X-12001Y11595D02*
G01X-12179Y11534D01*
G01X-12296Y11358D01*
G01X-12354Y11061D01*
G01X-12354Y10886D01*
G01X-12296Y10589D01*
G01X-12179Y10411D01*
G01X-12001Y10352D01*
G01X-11882Y10352D01*
G01X-11704Y10411D01*
G01X-11587Y10589D01*
G01X-11529Y10886D01*
G01X-11529Y11061D01*
G01X-11587Y11358D01*
G01X-11704Y11534D01*
G01X-11882Y11595D01*
G01X-12001Y11595D01*
G01X-24765Y9278D02*
G01X-24765Y8036D01*
G01X-24765Y9278D02*
G01X-24231Y9278D01*
G01X-24056Y9220D01*
G01X-23995Y9159D01*
G01X-23936Y9042D01*
G01X-23936Y8922D01*
G01X-23995Y8806D01*
G01X-24056Y8747D01*
G01X-24231Y8686D01*
G01X-24765Y8686D01*
G01X-24350Y8686D02*
G01X-23936Y8036D01*
G01X-23487Y8983D02*
G01X-23487Y9042D01*
G01X-23428Y9159D01*
G01X-23370Y9220D01*
G01X-23251Y9278D01*
G01X-23014Y9278D01*
G01X-22898Y9220D01*
G01X-22837Y9159D01*
G01X-22778Y9042D01*
G01X-22778Y8922D01*
G01X-22837Y8806D01*
G01X-22956Y8628D01*
G01X-23548Y8036D01*
G01X-22720Y8036D01*
G01X-21419Y9278D02*
G01X-21419Y8036D01*
G01X-21419Y9278D02*
G01X-20888Y9278D01*
G01X-20711Y9220D01*
G01X-20652Y9159D01*
G01X-20591Y9042D01*
G01X-20591Y8922D01*
G01X-20652Y8806D01*
G01X-20711Y8747D01*
G01X-20888Y8686D01*
G01X-21419Y8686D01*
G01X-21005Y8686D02*
G01X-20591Y8036D01*
G01X-19611Y9278D02*
G01X-20203Y8450D01*
G01X-19316Y8450D01*
G01X-19611Y9278D02*
G01X-19611Y8036D01*
G01X-18016Y9278D02*
G01X-18016Y8036D01*
G01X-18016Y9278D02*
G01X-17485Y9278D01*
G01X-17307Y9220D01*
G01X-17249Y9159D01*
G01X-17188Y9042D01*
G01X-17188Y8922D01*
G01X-17249Y8806D01*
G01X-17307Y8747D01*
G01X-17485Y8686D01*
G01X-18016Y8686D01*
G01X-17602Y8686D02*
G01X-17188Y8036D01*
G01X-16090Y9100D02*
G01X-16149Y9220D01*
G01X-16327Y9278D01*
G01X-16443Y9278D01*
G01X-16621Y9220D01*
G01X-16741Y9042D01*
G01X-16799Y8747D01*
G01X-16799Y8450D01*
G01X-16741Y8214D01*
G01X-16621Y8097D01*
G01X-16443Y8036D01*
G01X-16385Y8036D01*
G01X-16207Y8097D01*
G01X-16090Y8214D01*
G01X-16029Y8392D01*
G01X-16029Y8450D01*
G01X-16090Y8628D01*
G01X-16207Y8747D01*
G01X-16385Y8806D01*
G01X-16443Y8806D01*
G01X-16621Y8747D01*
G01X-16741Y8628D01*
G01X-16799Y8450D01*
G01X-15582Y8747D02*
G01X-15641Y8686D01*
G01X-15582Y8628D01*
G01X-15521Y8686D01*
G01X-15582Y8747D01*
G01X-15582Y8333D02*
G01X-15641Y8272D01*
G01X-15582Y8214D01*
G01X-15521Y8272D01*
G01X-15582Y8333D01*
G01X-15133Y9042D02*
G01X-15013Y9100D01*
G01X-14836Y9278D01*
G01X-14836Y8036D01*
G01X-14091Y9278D02*
G01X-14269Y9220D01*
G01X-14389Y9042D01*
G01X-14447Y8747D01*
G01X-14447Y8569D01*
G01X-14389Y8272D01*
G01X-14269Y8097D01*
G01X-14091Y8036D01*
G01X-13975Y8036D01*
G01X-13797Y8097D01*
G01X-13677Y8272D01*
G01X-13619Y8569D01*
G01X-13619Y8747D01*
G01X-13677Y9042D01*
G01X-13797Y9220D01*
G01X-13975Y9278D01*
G01X-14091Y9278D01*
G01X-13230Y9278D02*
G01X-13230Y8036D01*
G01X-12402Y9278D02*
G01X-13230Y8450D01*
G01X-12933Y8747D02*
G01X-12402Y8036D01*
G01X-24765Y6962D02*
G01X-24765Y5722D01*
G01X-24765Y6962D02*
G01X-24231Y6962D01*
G01X-24056Y6903D01*
G01X-23995Y6845D01*
G01X-23936Y6725D01*
G01X-23936Y6609D01*
G01X-23995Y6489D01*
G01X-24056Y6431D01*
G01X-24231Y6370D01*
G01X-24765Y6370D01*
G01X-24350Y6370D02*
G01X-23936Y5722D01*
G01X-23428Y6962D02*
G01X-22778Y6962D01*
G01X-23134Y6489D01*
G01X-22956Y6489D01*
G01X-22837Y6431D01*
G01X-22778Y6370D01*
G01X-22720Y6195D01*
G01X-22720Y6075D01*
G01X-22778Y5897D01*
G01X-22898Y5780D01*
G01X-23073Y5722D01*
G01X-23251Y5722D01*
G01X-23428Y5780D01*
G01X-23487Y5839D01*
G01X-23548Y5958D01*
G01X-22270Y6431D02*
G01X-22329Y6370D01*
G01X-22270Y6311D01*
G01X-22212Y6370D01*
G01X-22270Y6431D01*
G01X-22270Y6017D02*
G01X-22329Y5958D01*
G01X-22270Y5897D01*
G01X-22212Y5958D01*
G01X-22270Y6017D01*
G01X-21821Y6725D02*
G01X-21704Y6784D01*
G01X-21526Y6962D01*
G01X-21526Y5722D01*
G01X-21135Y6962D02*
G01X-21135Y5722D01*
G01X-21135Y6962D02*
G01X-20662Y5722D01*
G01X-20190Y6962D02*
G01X-20662Y5722D01*
G01X-20190Y6962D02*
G01X-20190Y5722D01*
G01X-18889Y6962D02*
G01X-18889Y5722D01*
G01X-18889Y6962D02*
G01X-18359Y6962D01*
G01X-18181Y6903D01*
G01X-18122Y6845D01*
G01X-18064Y6725D01*
G01X-18064Y6548D01*
G01X-18122Y6431D01*
G01X-18181Y6370D01*
G01X-18359Y6311D01*
G01X-18889Y6311D01*
G01X-17320Y6962D02*
G01X-17437Y6903D01*
G01X-17556Y6784D01*
G01X-17614Y6667D01*
G01X-17673Y6489D01*
G01X-17673Y6195D01*
G01X-17614Y6017D01*
G01X-17556Y5897D01*
G01X-17437Y5780D01*
G01X-17320Y5722D01*
G01X-17081Y5722D01*
G01X-16964Y5780D01*
G01X-16845Y5897D01*
G01X-16786Y6017D01*
G01X-16728Y6195D01*
G01X-16728Y6489D01*
G01X-16786Y6667D01*
G01X-16845Y6784D01*
G01X-16964Y6903D01*
G01X-17081Y6962D01*
G01X-17320Y6962D01*
G01X-15925Y6962D02*
G01X-15925Y5722D01*
G01X-16337Y6962D02*
G01X-15511Y6962D01*
G01X-15062Y6431D02*
G01X-15120Y6370D01*
G01X-15062Y6311D01*
G01X-15003Y6370D01*
G01X-15062Y6431D01*
G01X-15062Y6017D02*
G01X-15120Y5958D01*
G01X-15062Y5897D01*
G01X-15003Y5958D01*
G01X-15062Y6017D01*
G01X-14612Y6725D02*
G01X-14495Y6784D01*
G01X-14317Y6962D01*
G01X-14317Y5722D01*
G01X-13573Y6962D02*
G01X-13749Y6903D01*
G01X-13868Y6725D01*
G01X-13926Y6431D01*
G01X-13926Y6253D01*
G01X-13868Y5958D01*
G01X-13749Y5780D01*
G01X-13573Y5722D01*
G01X-13454Y5722D01*
G01X-13276Y5780D01*
G01X-13159Y5958D01*
G01X-13098Y6253D01*
G01X-13098Y6431D01*
G01X-13159Y6725D01*
G01X-13276Y6903D01*
G01X-13454Y6962D01*
G01X-13573Y6962D01*
G01X-12710Y6962D02*
G01X-12710Y5722D01*
G01X-11882Y6962D02*
G01X-12710Y6134D01*
G01X-12415Y6431D02*
G01X-11882Y5722D01*
G01X-23878Y4350D02*
G01X-23936Y4470D01*
G01X-24056Y4587D01*
G01X-24173Y4645D01*
G01X-24409Y4645D01*
G01X-24528Y4587D01*
G01X-24645Y4470D01*
G01X-24706Y4350D01*
G01X-24765Y4173D01*
G01X-24765Y3878D01*
G01X-24706Y3700D01*
G01X-24645Y3583D01*
G01X-24528Y3464D01*
G01X-24409Y3406D01*
G01X-24173Y3406D01*
G01X-24056Y3464D01*
G01X-23936Y3583D01*
G01X-23878Y3700D01*
G01X-23428Y4114D02*
G01X-23487Y4056D01*
G01X-23428Y3995D01*
G01X-23370Y4056D01*
G01X-23428Y4114D01*
G01X-23428Y3700D02*
G01X-23487Y3642D01*
G01X-23428Y3583D01*
G01X-23370Y3642D01*
G01X-23428Y3700D01*
G01X-22979Y4409D02*
G01X-22862Y4470D01*
G01X-22684Y4645D01*
G01X-22684Y3406D01*
G01X-21940Y4645D02*
G01X-22118Y4587D01*
G01X-22235Y4409D01*
G01X-22293Y4114D01*
G01X-22293Y3936D01*
G01X-22235Y3642D01*
G01X-22118Y3464D01*
G01X-21940Y3406D01*
G01X-21821Y3406D01*
G01X-21643Y3464D01*
G01X-21526Y3642D01*
G01X-21468Y3936D01*
G01X-21468Y4114D01*
G01X-21526Y4409D01*
G01X-21643Y4587D01*
G01X-21821Y4645D01*
G01X-21940Y4645D01*
G01X-20723Y4645D02*
G01X-20899Y4587D01*
G01X-21018Y4409D01*
G01X-21076Y4114D01*
G01X-21076Y3936D01*
G01X-21018Y3642D01*
G01X-20899Y3464D01*
G01X-20723Y3406D01*
G01X-20604Y3406D01*
G01X-20426Y3464D01*
G01X-20309Y3642D01*
G01X-20248Y3936D01*
G01X-20248Y4114D01*
G01X-20309Y4409D01*
G01X-20426Y4587D01*
G01X-20604Y4645D01*
G01X-20723Y4645D01*
G01X-19860Y4231D02*
G01X-19860Y3406D01*
G01X-19860Y3995D02*
G01X-19682Y4173D01*
G01X-19565Y4231D01*
G01X-19387Y4231D01*
G01X-19268Y4173D01*
G01X-19210Y3995D01*
G01X-19210Y3406D01*
G01X-23936Y2153D02*
G01X-24056Y2270D01*
G01X-24231Y2331D01*
G01X-24467Y2331D01*
G01X-24645Y2270D01*
G01X-24765Y2153D01*
G01X-24765Y2034D01*
G01X-24706Y1917D01*
G01X-24645Y1856D01*
G01X-24528Y1798D01*
G01X-24173Y1681D01*
G01X-24056Y1620D01*
G01X-23995Y1562D01*
G01X-23936Y1445D01*
G01X-23936Y1267D01*
G01X-24056Y1148D01*
G01X-24231Y1089D01*
G01X-24467Y1089D01*
G01X-24645Y1148D01*
G01X-24765Y1267D01*
G01X-23548Y2331D02*
G01X-23251Y1089D01*
G01X-22956Y2331D02*
G01X-23251Y1089D01*
G01X-22956Y2331D02*
G01X-22661Y1089D01*
G01X-22364Y2331D02*
G01X-22661Y1089D01*
G01X-21976Y2092D02*
G01X-21856Y2153D01*
G01X-21678Y2331D01*
G01X-21678Y1089D01*
G01X-21231Y1798D02*
G01X-21290Y1739D01*
G01X-21231Y1681D01*
G01X-21170Y1739D01*
G01X-21231Y1798D01*
G01X-21231Y1384D02*
G01X-21290Y1325D01*
G01X-21231Y1267D01*
G01X-21170Y1325D01*
G01X-21231Y1384D01*
G01X-20368Y2331D02*
G01X-20368Y1089D01*
G01X-20782Y2331D02*
G01X-19954Y2331D01*
G01X-18737Y2153D02*
G01X-18854Y2270D01*
G01X-19032Y2331D01*
G01X-19268Y2331D01*
G01X-19446Y2270D01*
G01X-19565Y2153D01*
G01X-19565Y2034D01*
G01X-19504Y1917D01*
G01X-19446Y1856D01*
G01X-19329Y1798D01*
G01X-18973Y1681D01*
G01X-18854Y1620D01*
G01X-18796Y1562D01*
G01X-18737Y1445D01*
G01X-18737Y1267D01*
G01X-18854Y1148D01*
G01X-19032Y1089D01*
G01X-19268Y1089D01*
G01X-19446Y1148D01*
G01X-19565Y1267D01*
G01X-17637Y2331D02*
G01X-18229Y2331D01*
G01X-18288Y1798D01*
G01X-18229Y1856D01*
G01X-18051Y1917D01*
G01X-17873Y1917D01*
G01X-17696Y1856D01*
G01X-17579Y1739D01*
G01X-17520Y1562D01*
G01X-17520Y1445D01*
G01X-17579Y1267D01*
G01X-17696Y1148D01*
G01X-17873Y1089D01*
G01X-18051Y1089D01*
G01X-18229Y1148D01*
G01X-18288Y1206D01*
G01X-18346Y1325D01*
G01X-16421Y2331D02*
G01X-17012Y2331D01*
G01X-17071Y1798D01*
G01X-17012Y1856D01*
G01X-16835Y1917D01*
G01X-16657Y1917D01*
G01X-16479Y1856D01*
G01X-16362Y1739D01*
G01X-16301Y1562D01*
G01X-16301Y1445D01*
G01X-16362Y1267D01*
G01X-16479Y1148D01*
G01X-16657Y1089D01*
G01X-16835Y1089D01*
G01X-17012Y1148D01*
G01X-17071Y1206D01*
G01X-17129Y1325D01*
G01X-15913Y2092D02*
G01X-15793Y2153D01*
G01X-15618Y2331D01*
G01X-15618Y1089D01*
G01X-15227Y2092D02*
G01X-15107Y2153D01*
G01X-14932Y2331D01*
G01X-14932Y1089D01*
G01X-14127Y2331D02*
G01X-14127Y1089D01*
G01X-14541Y2331D02*
G01X-13713Y2331D01*
G01X-13324Y2092D02*
G01X-13205Y2153D01*
G01X-13030Y2331D01*
G01X-13030Y1089D01*
G01X-11930Y2153D02*
G01X-11988Y2270D01*
G01X-12166Y2331D01*
G01X-12283Y2331D01*
G01X-12461Y2270D01*
G01X-12580Y2092D01*
G01X-12639Y1798D01*
G01X-12639Y1503D01*
G01X-12580Y1267D01*
G01X-12461Y1148D01*
G01X-12283Y1089D01*
G01X-12225Y1089D01*
G01X-12047Y1148D01*
G01X-11930Y1267D01*
G01X-11871Y1445D01*
G01X-11871Y1503D01*
G01X-11930Y1681D01*
G01X-12047Y1798D01*
G01X-12225Y1856D01*
G01X-12283Y1856D01*
G01X-12461Y1798D01*
G01X-12580Y1681D01*
G01X-12639Y1503D01*
G01X-11125Y2331D02*
G01X-11303Y2270D01*
G01X-11422Y2092D01*
G01X-11480Y1798D01*
G01X-11480Y1620D01*
G01X-11422Y1325D01*
G01X-11303Y1148D01*
G01X-11125Y1089D01*
G01X-11008Y1089D01*
G01X-10830Y1148D01*
G01X-10713Y1325D01*
G01X-10652Y1620D01*
G01X-10652Y1798D01*
G01X-10713Y2092D01*
G01X-10830Y2270D01*
G01X-11008Y2331D01*
G01X-11125Y2331D01*
G01X-9908Y2331D02*
G01X-10086Y2270D01*
G01X-10205Y2092D01*
G01X-10264Y1798D01*
G01X-10264Y1620D01*
G01X-10205Y1325D01*
G01X-10086Y1148D01*
G01X-9908Y1089D01*
G01X-9791Y1089D01*
G01X-9613Y1148D01*
G01X-9494Y1325D01*
G01X-9436Y1620D01*
G01X-9436Y1798D01*
G01X-9494Y2092D01*
G01X-9613Y2270D01*
G01X-9791Y2331D01*
G01X-9908Y2331D01*
G01X-8986Y2034D02*
G01X-8986Y2092D01*
G01X-8928Y2212D01*
G01X-8869Y2270D01*
G01X-8750Y2331D01*
G01X-8514Y2331D01*
G01X-8397Y2270D01*
G01X-8336Y2212D01*
G01X-8277Y2092D01*
G01X-8277Y1976D01*
G01X-8336Y1856D01*
G01X-8455Y1681D01*
G01X-9047Y1089D01*
G01X-8219Y1089D01*
G54D26*
G01X21416Y6865D02*
G01X21362Y6969D01*
G01X21258Y7073D01*
G01X21157Y7124D01*
G01X20948Y7124D01*
G01X20844Y7073D01*
G01X20740Y6969D01*
G01X20687Y6865D01*
G01X20636Y6710D01*
G01X20636Y6451D01*
G01X20687Y6293D01*
G01X20740Y6189D01*
G01X20844Y6085D01*
G01X20948Y6034D01*
G01X21157Y6034D01*
G01X21258Y6085D01*
G01X21362Y6189D01*
G01X21416Y6293D01*
G01X21759Y6918D02*
G01X21863Y6969D01*
G01X22018Y7124D01*
G01X22018Y6034D01*
G01X26293Y15440D02*
G01X26189Y15387D01*
G01X26085Y15283D01*
G01X26034Y15181D01*
G01X26034Y14973D01*
G01X26085Y14869D01*
G01X26189Y14765D01*
G01X26293Y14711D01*
G01X26448Y14660D01*
G01X26707Y14660D01*
G01X26865Y14711D01*
G01X26969Y14765D01*
G01X27073Y14869D01*
G01X27124Y14973D01*
G01X27124Y15181D01*
G01X27073Y15283D01*
G01X26969Y15387D01*
G01X26865Y15440D01*
G01X26034Y15887D02*
G01X26034Y16459D01*
G01X26448Y16146D01*
G01X26448Y16301D01*
G01X26502Y16405D01*
G01X26552Y16459D01*
G01X26707Y16510D01*
G01X26812Y16510D01*
G01X26969Y16459D01*
G01X27073Y16355D01*
G01X27124Y16197D01*
G01X27124Y16042D01*
G01X27073Y15887D01*
G01X27020Y15834D01*
G01X26916Y15783D01*
G01X12157Y20029D02*
G01X13246Y20029D01*
G01X12157Y20029D02*
G01X12157Y20496D01*
G01X12207Y20651D01*
G01X12258Y20704D01*
G01X12362Y20755D01*
G01X12466Y20755D01*
G01X12571Y20704D01*
G01X12624Y20651D01*
G01X12675Y20496D01*
G01X12675Y20029D01*
G01X12675Y20392D02*
G01X13246Y20755D01*
G01X12157Y21619D02*
G01X12883Y21098D01*
G01X12883Y21878D01*
G01X12157Y21619D02*
G01X13246Y21619D01*
G01X19447Y26579D02*
G01X19447Y25490D01*
G01X19447Y26579D02*
G01X19915Y26579D01*
G01X20070Y26529D01*
G01X20123Y26478D01*
G01X20174Y26374D01*
G01X20174Y26269D01*
G01X20123Y26165D01*
G01X20070Y26112D01*
G01X19915Y26061D01*
G01X19447Y26061D01*
G01X19811Y26061D02*
G01X20174Y25490D01*
G01X21141Y26424D02*
G01X21088Y26529D01*
G01X20933Y26579D01*
G01X20829Y26579D01*
G01X20674Y26529D01*
G01X20570Y26374D01*
G01X20517Y26112D01*
G01X20517Y25853D01*
G01X20570Y25645D01*
G01X20674Y25540D01*
G01X20829Y25490D01*
G01X20882Y25490D01*
G01X21037Y25540D01*
G01X21141Y25645D01*
G01X21192Y25802D01*
G01X21192Y25853D01*
G01X21141Y26008D01*
G01X21037Y26112D01*
G01X20882Y26165D01*
G01X20829Y26165D01*
G01X20674Y26112D01*
G01X20570Y26008D01*
G01X20517Y25853D01*
G01X31842Y17514D02*
G01X32931Y17514D01*
G01X31842Y17514D02*
G01X31842Y17981D01*
G01X31892Y18136D01*
G01X31943Y18190D01*
G01X32047Y18240D01*
G01X32151Y18240D01*
G01X32256Y18190D01*
G01X32309Y18136D01*
G01X32360Y17981D01*
G01X32360Y17514D01*
G01X32360Y17877D02*
G01X32931Y18240D01*
G01X31842Y19208D02*
G01X31842Y18687D01*
G01X32309Y18637D01*
G01X32256Y18687D01*
G01X32205Y18845D01*
G01X32205Y19000D01*
G01X32256Y19155D01*
G01X32360Y19259D01*
G01X32515Y19312D01*
G01X32619Y19312D01*
G01X32776Y19259D01*
G01X32880Y19155D01*
G01X32931Y19000D01*
G01X32931Y18845D01*
G01X32880Y18687D01*
G01X32827Y18637D01*
G01X32723Y18583D01*
G01X7075Y20055D02*
G01X8164Y20055D01*
G01X7075Y20055D02*
G01X7075Y20523D01*
G01X7125Y20677D01*
G01X7176Y20731D01*
G01X7280Y20782D01*
G01X7384Y20782D01*
G01X7489Y20731D01*
G01X7542Y20677D01*
G01X7593Y20523D01*
G01X7593Y20055D01*
G01X7593Y20418D02*
G01X8164Y20782D01*
G01X7075Y21229D02*
G01X7075Y21800D01*
G01X7489Y21490D01*
G01X7489Y21645D01*
G01X7542Y21749D01*
G01X7593Y21800D01*
G01X7748Y21854D01*
G01X7852Y21854D01*
G01X8009Y21800D01*
G01X8113Y21696D01*
G01X8164Y21541D01*
G01X8164Y21386D01*
G01X8113Y21229D01*
G01X8060Y21178D01*
G01X7956Y21125D01*
G01X33799Y25141D02*
G01X33746Y25245D01*
G01X33642Y25349D01*
G01X33540Y25400D01*
G01X33332Y25400D01*
G01X33228Y25349D01*
G01X33123Y25245D01*
G01X33070Y25141D01*
G01X33019Y24986D01*
G01X33019Y24727D01*
G01X33070Y24569D01*
G01X33123Y24465D01*
G01X33228Y24361D01*
G01X33332Y24310D01*
G01X33540Y24310D01*
G01X33642Y24361D01*
G01X33746Y24465D01*
G01X33799Y24569D01*
G01X34193Y25141D02*
G01X34193Y25194D01*
G01X34246Y25298D01*
G01X34297Y25349D01*
G01X34401Y25400D01*
G01X34609Y25400D01*
G01X34713Y25349D01*
G01X34764Y25298D01*
G01X34818Y25194D01*
G01X34818Y25090D01*
G01X34764Y24986D01*
G01X34660Y24828D01*
G01X34142Y24310D01*
G01X34868Y24310D01*
G01X3938Y22132D02*
G01X3938Y21043D01*
G01X4281Y22132D02*
G01X4281Y21043D01*
G01X4281Y22132D02*
G01X5007Y21043D01*
G01X5007Y22132D02*
G01X5007Y21043D01*
G01X5350Y21927D02*
G01X5455Y21977D01*
G01X5612Y22132D01*
G01X5612Y21043D01*
G01X3937Y19594D02*
G01X3937Y18505D01*
G01X4279Y19594D02*
G01X4279Y18505D01*
G01X4279Y19594D02*
G01X5006Y18505D01*
G01X5006Y19594D02*
G01X5006Y18505D01*
G01X5402Y19335D02*
G01X5402Y19389D01*
G01X5453Y19493D01*
G01X5506Y19544D01*
G01X5610Y19594D01*
G01X5816Y19594D01*
G01X5920Y19544D01*
G01X5974Y19493D01*
G01X6024Y19389D01*
G01X6024Y19285D01*
G01X5974Y19180D01*
G01X5869Y19023D01*
G01X5349Y18505D01*
G01X6078Y18505D01*
G01X29302Y17748D02*
G01X30391Y17748D01*
G01X29302Y17748D02*
G01X29302Y18215D01*
G01X29352Y18370D01*
G01X29403Y18423D01*
G01X29507Y18474D01*
G01X29611Y18474D01*
G01X29716Y18423D01*
G01X29769Y18370D01*
G01X29820Y18215D01*
G01X29820Y17748D01*
G01X29820Y18111D02*
G01X30391Y18474D01*
G01X29507Y18817D02*
G01X29457Y18921D01*
G01X29302Y19079D01*
G01X30391Y19079D01*
G01X9617Y20054D02*
G01X10706Y20054D01*
G01X9617Y20054D02*
G01X9617Y20521D01*
G01X9667Y20676D01*
G01X9718Y20730D01*
G01X9822Y20780D01*
G01X9927Y20780D01*
G01X10031Y20730D01*
G01X10084Y20676D01*
G01X10135Y20521D01*
G01X10135Y20054D01*
G01X10135Y20417D02*
G01X10706Y20780D01*
G01X9876Y21177D02*
G01X9822Y21177D01*
G01X9718Y21227D01*
G01X9667Y21281D01*
G01X9617Y21385D01*
G01X9617Y21591D01*
G01X9667Y21695D01*
G01X9718Y21748D01*
G01X9822Y21799D01*
G01X9927Y21799D01*
G01X10031Y21748D01*
G01X10188Y21644D01*
G01X10706Y21123D01*
G01X10706Y21852D01*
G54D22*
G75*
G01X4770Y15856D02*
G3X4134Y16492I-636J0D01*
G01*
G54D10*
G75*
G01X14338Y2006D02*
G3X5982Y2006I-4178J4979D01*
G01*
G75*
G01X14659Y1623D02*
G3X3160Y6985I-4500J5362D01*
G01*
G75*
G01X14981Y1240D02*
G3X7595Y14033I-4821J5745D01*
G01*
G75*
G01X15302Y857D02*
G3X15302Y13113I-5142J6128D01*
G01*
G75*
G01X15624Y474D02*
G3X18660Y6985I-5464J6511D01*
G01*
G75*
G01X19050Y13970D02*
G2X21590Y13970I1270J0D01*
G01*
G75*
G01X33885Y9120D02*
G3X33885Y6120I-1500J-1500D01*
G01*
G75*
G01X34634Y6869D02*
G03X34634Y6869I-250J0D01*
G01*
G75*
G01X34634Y8369D02*
G03X34634Y8369I-250J0D01*
G01*

%LPD*%
G36*
G01X32386Y6618D02*
G01X33386Y8118D01*
G01X31386Y8118D01*
G01X32386Y6618D01*
G37*
M00*
M02*
