G04 ---------------------------- Layer name :BOTTOM LAYER*
G04 EasyEDA v5.7.26, Mon, 08 Oct 2018 11:37:22 GMT*
G04 9a8b5958ff4b4eb3b6fdbb1becb2a6af*
G04 Gerber Generator version 0.2*
G04 Scale: 100 percent, Rotated: No, Reflected: No *
G04 Dimensions in millimeters *
G04 leading zeros omitted , absolute positions ,3 integer and 3 decimal *
%FSLAX33Y33*%
%MOMM*%
G90*
G71D02*

%ADD10C,0.254000*%
%ADD11C,0.635000*%
%ADD12C,1.651000*%
%ADD13C,1.905000*%
%ADD14C,2.340000*%
%ADD15R,1.574800X1.574800*%
%ADD16R,1.600200X1.600200*%
%ADD17C,1.600200*%
%ADD18C,1.799996*%
%ADD19C,1.499997*%
%ADD20C,1.524000*%
%ADD21C,1.574800*%

%LPD*%
G36*
G01X16510Y0D02*
G01X0Y0D01*
G01X0Y27939D01*
G01X16510Y27939D01*
G01X16510Y23915D01*
G01X16483Y23916D01*
G01X16378Y23908D01*
G01X16274Y23890D01*
G01X16173Y23861D01*
G01X16075Y23823D01*
G01X15981Y23775D01*
G01X15893Y23717D01*
G01X15810Y23652D01*
G01X15735Y23578D01*
G01X15667Y23497D01*
G01X15608Y23410D01*
G01X15558Y23318D01*
G01X15517Y23221D01*
G01X15486Y23120D01*
G01X15465Y23017D01*
G01X15454Y22912D01*
G01X15454Y22807D01*
G01X15465Y22702D01*
G01X15486Y22599D01*
G01X15517Y22498D01*
G01X15558Y22401D01*
G01X15608Y22308D01*
G01X15667Y22221D01*
G01X15735Y22141D01*
G01X15810Y22067D01*
G01X15893Y22002D01*
G01X15981Y21944D01*
G01X16075Y21896D01*
G01X16173Y21858D01*
G01X16274Y21829D01*
G01X16378Y21811D01*
G01X16483Y21803D01*
G01X16510Y21804D01*
G01X16510Y21375D01*
G01X16483Y21376D01*
G01X16378Y21368D01*
G01X16274Y21350D01*
G01X16173Y21321D01*
G01X16075Y21283D01*
G01X15981Y21235D01*
G01X15893Y21177D01*
G01X15810Y21112D01*
G01X15785Y21087D01*
G01X15327Y20700D01*
G01X8933Y20700D01*
G01X8928Y20701D01*
G01X8909Y20703D01*
G01X8889Y20703D01*
G01X8888Y20703D01*
G01X8883Y20703D01*
G01X8795Y20702D01*
G01X8786Y20702D01*
G01X8698Y20699D01*
G01X8690Y20698D01*
G01X8602Y20693D01*
G01X8593Y20692D01*
G01X8505Y20685D01*
G01X8497Y20684D01*
G01X8409Y20675D01*
G01X8400Y20674D01*
G01X8313Y20663D01*
G01X8304Y20662D01*
G01X8217Y20649D01*
G01X8208Y20647D01*
G01X8122Y20632D01*
G01X8113Y20630D01*
G01X8027Y20613D01*
G01X8018Y20611D01*
G01X7932Y20592D01*
G01X7924Y20590D01*
G01X7838Y20569D01*
G01X7830Y20567D01*
G01X7745Y20544D01*
G01X7736Y20541D01*
G01X7652Y20516D01*
G01X7643Y20514D01*
G01X7560Y20487D01*
G01X7551Y20484D01*
G01X7468Y20455D01*
G01X7460Y20452D01*
G01X7377Y20421D01*
G01X7369Y20418D01*
G01X7287Y20385D01*
G01X7279Y20382D01*
G01X7198Y20347D01*
G01X7190Y20343D01*
G01X7110Y20307D01*
G01X7102Y20303D01*
G01X7023Y20265D01*
G01X7015Y20261D01*
G01X6937Y20221D01*
G01X6929Y20217D01*
G01X6852Y20175D01*
G01X6844Y20170D01*
G01X6768Y20126D01*
G01X6760Y20122D01*
G01X6685Y20077D01*
G01X6677Y20072D01*
G01X6603Y20025D01*
G01X6595Y20020D01*
G01X6522Y19971D01*
G01X6515Y19966D01*
G01X6443Y19915D01*
G01X6436Y19910D01*
G01X6365Y19858D01*
G01X6358Y19853D01*
G01X6288Y19799D01*
G01X6281Y19793D01*
G01X6213Y19738D01*
G01X6206Y19732D01*
G01X6139Y19675D01*
G01X6133Y19669D01*
G01X6067Y19611D01*
G01X6060Y19605D01*
G01X5996Y19545D01*
G01X5990Y19539D01*
G01X5927Y19477D01*
G01X5920Y19471D01*
G01X5859Y19408D01*
G01X5853Y19402D01*
G01X5793Y19337D01*
G01X5787Y19331D01*
G01X5728Y19265D01*
G01X5723Y19258D01*
G01X5666Y19191D01*
G01X5660Y19184D01*
G01X5604Y19116D01*
G01X5599Y19109D01*
G01X5545Y19040D01*
G01X5540Y19032D01*
G01X5488Y18962D01*
G01X5483Y18954D01*
G01X5432Y18882D01*
G01X5427Y18875D01*
G01X5378Y18802D01*
G01X5373Y18795D01*
G01X5326Y18720D01*
G01X5321Y18713D01*
G01X5276Y18637D01*
G01X5271Y18630D01*
G01X5228Y18553D01*
G01X5224Y18546D01*
G01X5182Y18468D01*
G01X5177Y18460D01*
G01X5137Y18382D01*
G01X5133Y18374D01*
G01X5095Y18295D01*
G01X5091Y18287D01*
G01X5055Y18207D01*
G01X5051Y18199D01*
G01X5017Y18118D01*
G01X5013Y18110D01*
G01X4981Y18028D01*
G01X4977Y18020D01*
G01X4947Y17937D01*
G01X4944Y17929D01*
G01X4915Y17846D01*
G01X4912Y17838D01*
G01X4885Y17754D01*
G01X4882Y17745D01*
G01X4857Y17661D01*
G01X4855Y17652D01*
G01X4832Y17568D01*
G01X4829Y17559D01*
G01X4808Y17474D01*
G01X4806Y17465D01*
G01X4787Y17379D01*
G01X4785Y17370D01*
G01X4768Y17284D01*
G01X4767Y17275D01*
G01X4751Y17189D01*
G01X4750Y17180D01*
G01X4737Y17093D01*
G01X4736Y17084D01*
G01X4724Y16997D01*
G01X4723Y16988D01*
G01X4714Y16901D01*
G01X4713Y16892D01*
G01X4706Y16804D01*
G01X4706Y16795D01*
G01X4701Y16708D01*
G01X4700Y16699D01*
G01X4697Y16611D01*
G01X4697Y16602D01*
G01X4696Y16514D01*
G01X4696Y16495D01*
G01X4697Y16476D01*
G01X4699Y16467D01*
G01X4699Y14648D01*
G01X4698Y14643D01*
G01X4696Y14624D01*
G01X4696Y14604D01*
G01X4696Y14599D01*
G01X4695Y14528D01*
G01X4692Y14456D01*
G01X4687Y14387D01*
G01X4681Y14316D01*
G01X4673Y14245D01*
G01X4663Y14176D01*
G01X4651Y14107D01*
G01X4638Y14036D01*
G01X4623Y13969D01*
G01X4605Y13899D01*
G01X4587Y13831D01*
G01X4566Y13764D01*
G01X4544Y13696D01*
G01X4521Y13631D01*
G01X4495Y13564D01*
G01X4468Y13499D01*
G01X4439Y13435D01*
G01X4409Y13371D01*
G01X4376Y13307D01*
G01X4343Y13246D01*
G01X4308Y13185D01*
G01X4271Y13124D01*
G01X4233Y13065D01*
G01X4193Y13006D01*
G01X4152Y12949D01*
G01X4110Y12893D01*
G01X4066Y12838D01*
G01X4020Y12783D01*
G01X3974Y12731D01*
G01X3925Y12679D01*
G01X3876Y12629D01*
G01X3825Y12579D01*
G01X3773Y12531D01*
G01X3721Y12485D01*
G01X3666Y12439D01*
G01X3611Y12395D01*
G01X3555Y12353D01*
G01X3497Y12312D01*
G01X3439Y12273D01*
G01X3379Y12234D01*
G01X3319Y12198D01*
G01X3257Y12163D01*
G01X3195Y12129D01*
G01X3132Y12097D01*
G01X3069Y12067D01*
G01X3003Y12038D01*
G01X2939Y12012D01*
G01X2872Y11986D01*
G01X2807Y11963D01*
G01X2802Y11961D01*
G01X2767Y12018D01*
G01X2704Y12100D01*
G01X2633Y12177D01*
G01X2555Y12246D01*
G01X2471Y12306D01*
G01X2381Y12358D01*
G01X2286Y12401D01*
G01X2187Y12434D01*
G01X2086Y12458D01*
G01X1983Y12470D01*
G01X1878Y12473D01*
G01X1775Y12465D01*
G01X1672Y12447D01*
G01X1572Y12419D01*
G01X1475Y12381D01*
G01X1383Y12334D01*
G01X1295Y12277D01*
G01X1214Y12212D01*
G01X1139Y12140D01*
G01X1072Y12060D01*
G01X1014Y11974D01*
G01X964Y11882D01*
G01X924Y11786D01*
G01X893Y11687D01*
G01X872Y11585D01*
G01X862Y11481D01*
G01X862Y11377D01*
G01X872Y11274D01*
G01X893Y11172D01*
G01X924Y11072D01*
G01X964Y10976D01*
G01X1014Y10885D01*
G01X1072Y10799D01*
G01X1139Y10719D01*
G01X1214Y10647D01*
G01X1295Y10582D01*
G01X1383Y10525D01*
G01X1475Y10478D01*
G01X1572Y10440D01*
G01X1672Y10412D01*
G01X1775Y10394D01*
G01X1878Y10386D01*
G01X1983Y10388D01*
G01X2086Y10401D01*
G01X2187Y10425D01*
G01X2286Y10458D01*
G01X2381Y10500D01*
G01X2471Y10553D01*
G01X2555Y10613D01*
G01X2633Y10682D01*
G01X2704Y10758D01*
G01X2767Y10841D01*
G01X2821Y10930D01*
G01X2866Y11024D01*
G01X2902Y11122D01*
G01X2921Y11194D01*
G01X2964Y11207D01*
G01X2973Y11210D01*
G01X3049Y11235D01*
G01X3058Y11238D01*
G01X3134Y11265D01*
G01X3143Y11268D01*
G01X3218Y11297D01*
G01X3227Y11301D01*
G01X3301Y11332D01*
G01X3310Y11335D01*
G01X3384Y11368D01*
G01X3393Y11372D01*
G01X3465Y11406D01*
G01X3474Y11411D01*
G01X3545Y11447D01*
G01X3554Y11451D01*
G01X3625Y11489D01*
G01X3633Y11494D01*
G01X3703Y11534D01*
G01X3711Y11539D01*
G01X3780Y11580D01*
G01X3788Y11586D01*
G01X3856Y11629D01*
G01X3864Y11634D01*
G01X3931Y11679D01*
G01X3939Y11685D01*
G01X4004Y11731D01*
G01X4012Y11737D01*
G01X4076Y11785D01*
G01X4084Y11791D01*
G01X4147Y11841D01*
G01X4154Y11847D01*
G01X4216Y11899D01*
G01X4223Y11905D01*
G01X4283Y11958D01*
G01X4291Y11965D01*
G01X4350Y12019D01*
G01X4357Y12026D01*
G01X4414Y12082D01*
G01X4421Y12089D01*
G01X4477Y12146D01*
G01X4484Y12153D01*
G01X4539Y12212D01*
G01X4545Y12219D01*
G01X4598Y12279D01*
G01X4605Y12287D01*
G01X4656Y12348D01*
G01X4663Y12356D01*
G01X4713Y12419D01*
G01X4719Y12426D01*
G01X4767Y12490D01*
G01X4773Y12498D01*
G01X4819Y12563D01*
G01X4825Y12571D01*
G01X4870Y12638D01*
G01X4875Y12646D01*
G01X4919Y12713D01*
G01X4924Y12722D01*
G01X4966Y12790D01*
G01X4971Y12799D01*
G01X5011Y12868D01*
G01X5015Y12877D01*
G01X5054Y12947D01*
G01X5058Y12956D01*
G01X5095Y13028D01*
G01X5099Y13036D01*
G01X5133Y13109D01*
G01X5138Y13118D01*
G01X5170Y13191D01*
G01X5174Y13200D01*
G01X5205Y13274D01*
G01X5209Y13283D01*
G01X5238Y13358D01*
G01X5241Y13367D01*
G01X5268Y13443D01*
G01X5271Y13452D01*
G01X5296Y13528D01*
G01X5299Y13537D01*
G01X5322Y13614D01*
G01X5325Y13624D01*
G01X5346Y13701D01*
G01X5349Y13710D01*
G01X5368Y13788D01*
G01X5370Y13798D01*
G01X5388Y13876D01*
G01X5390Y13886D01*
G01X5405Y13965D01*
G01X5407Y13974D01*
G01X5420Y14053D01*
G01X5422Y14063D01*
G01X5433Y14142D01*
G01X5434Y14152D01*
G01X5443Y14232D01*
G01X5444Y14241D01*
G01X5452Y14321D01*
G01X5452Y14331D01*
G01X5458Y14411D01*
G01X5458Y14421D01*
G01X5462Y14501D01*
G01X5462Y14511D01*
G01X5463Y14591D01*
G01X5463Y14597D01*
G01X5463Y14604D01*
G01X5463Y14624D01*
G01X5461Y14643D01*
G01X5461Y14648D01*
G01X5461Y16466D01*
G01X5461Y16467D01*
G01X5462Y16486D01*
G01X5463Y16505D01*
G01X5464Y16589D01*
G01X5467Y16668D01*
G01X5471Y16746D01*
G01X5478Y16826D01*
G01X5486Y16905D01*
G01X5496Y16983D01*
G01X5508Y17061D01*
G01X5521Y17139D01*
G01X5537Y17216D01*
G01X5554Y17294D01*
G01X5573Y17371D01*
G01X5594Y17447D01*
G01X5616Y17522D01*
G01X5641Y17598D01*
G01X5666Y17672D01*
G01X5695Y17747D01*
G01X5724Y17820D01*
G01X5755Y17893D01*
G01X5788Y17966D01*
G01X5822Y18036D01*
G01X5858Y18107D01*
G01X5896Y18177D01*
G01X5935Y18245D01*
G01X5976Y18313D01*
G01X6018Y18379D01*
G01X6063Y18446D01*
G01X6108Y18510D01*
G01X6154Y18573D01*
G01X6203Y18637D01*
G01X6253Y18698D01*
G01X6305Y18759D01*
G01X6357Y18817D01*
G01X6411Y18875D01*
G01X6466Y18931D01*
G01X6523Y18988D01*
G01X6581Y19041D01*
G01X6640Y19094D01*
G01X6700Y19145D01*
G01X6761Y19195D01*
G01X6824Y19243D01*
G01X6887Y19290D01*
G01X6952Y19336D01*
G01X7019Y19380D01*
G01X7085Y19422D01*
G01X7153Y19463D01*
G01X7222Y19503D01*
G01X7291Y19540D01*
G01X7361Y19576D01*
G01X7433Y19611D01*
G01X7504Y19643D01*
G01X7577Y19675D01*
G01X7650Y19704D01*
G01X7725Y19732D01*
G01X7799Y19758D01*
G01X7875Y19782D01*
G01X7951Y19805D01*
G01X8027Y19825D01*
G01X8103Y19844D01*
G01X8181Y19862D01*
G01X8258Y19877D01*
G01X8337Y19891D01*
G01X8415Y19903D01*
G01X8493Y19913D01*
G01X8572Y19921D01*
G01X8650Y19928D01*
G01X8730Y19932D01*
G01X8809Y19935D01*
G01X8892Y19936D01*
G01X8892Y19936D01*
G01X8909Y19936D01*
G01X8928Y19938D01*
G01X8933Y19938D01*
G01X15327Y19938D01*
G01X15785Y19551D01*
G01X15810Y19527D01*
G01X15893Y19462D01*
G01X15981Y19404D01*
G01X16075Y19356D01*
G01X16173Y19318D01*
G01X16274Y19289D01*
G01X16378Y19271D01*
G01X16483Y19263D01*
G01X16510Y19264D01*
G01X16510Y18835D01*
G01X16483Y18836D01*
G01X16378Y18828D01*
G01X16274Y18810D01*
G01X16173Y18781D01*
G01X16075Y18743D01*
G01X15981Y18695D01*
G01X15893Y18637D01*
G01X15810Y18572D01*
G01X15735Y18498D01*
G01X15667Y18417D01*
G01X15608Y18330D01*
G01X15558Y18238D01*
G01X15517Y18141D01*
G01X15486Y18040D01*
G01X15465Y17937D01*
G01X15454Y17832D01*
G01X15454Y17727D01*
G01X15465Y17622D01*
G01X15486Y17519D01*
G01X15517Y17418D01*
G01X15558Y17321D01*
G01X15608Y17228D01*
G01X15667Y17141D01*
G01X15735Y17061D01*
G01X15810Y16987D01*
G01X15893Y16922D01*
G01X15981Y16864D01*
G01X16075Y16816D01*
G01X16173Y16778D01*
G01X16274Y16749D01*
G01X16378Y16731D01*
G01X16483Y16723D01*
G01X16510Y16724D01*
G01X16510Y16295D01*
G01X16483Y16296D01*
G01X16378Y16288D01*
G01X16274Y16270D01*
G01X16173Y16241D01*
G01X16075Y16203D01*
G01X15981Y16155D01*
G01X15893Y16097D01*
G01X15810Y16032D01*
G01X15735Y15958D01*
G01X15667Y15877D01*
G01X15608Y15790D01*
G01X15558Y15698D01*
G01X15517Y15601D01*
G01X15486Y15500D01*
G01X15480Y15470D01*
G01X15450Y15462D01*
G01X15441Y15459D01*
G01X15365Y15434D01*
G01X15356Y15431D01*
G01X15280Y15404D01*
G01X15271Y15400D01*
G01X15196Y15372D01*
G01X15187Y15368D01*
G01X15113Y15337D01*
G01X15104Y15334D01*
G01X15030Y15301D01*
G01X15021Y15297D01*
G01X14949Y15262D01*
G01X14940Y15258D01*
G01X14869Y15222D01*
G01X14860Y15217D01*
G01X14789Y15179D01*
G01X14781Y15175D01*
G01X14711Y15135D01*
G01X14703Y15130D01*
G01X14634Y15089D01*
G01X14626Y15083D01*
G01X14558Y15040D01*
G01X14550Y15035D01*
G01X14483Y14990D01*
G01X14475Y14984D01*
G01X14410Y14938D01*
G01X14402Y14932D01*
G01X14338Y14884D01*
G01X14330Y14878D01*
G01X14267Y14828D01*
G01X14260Y14822D01*
G01X14198Y14770D01*
G01X14191Y14764D01*
G01X14130Y14711D01*
G01X14123Y14704D01*
G01X14064Y14650D01*
G01X14057Y14643D01*
G01X14000Y14587D01*
G01X13993Y14580D01*
G01X13937Y14523D01*
G01X13930Y14516D01*
G01X13875Y14457D01*
G01X13869Y14450D01*
G01X13816Y14390D01*
G01X13809Y14382D01*
G01X13758Y14321D01*
G01X13752Y14313D01*
G01X13702Y14250D01*
G01X13695Y14243D01*
G01X13647Y14179D01*
G01X13641Y14171D01*
G01X13595Y14106D01*
G01X13589Y14098D01*
G01X13544Y14031D01*
G01X13538Y14023D01*
G01X13495Y13955D01*
G01X13490Y13947D01*
G01X13448Y13879D01*
G01X13443Y13870D01*
G01X13403Y13801D01*
G01X13399Y13792D01*
G01X13360Y13722D01*
G01X13356Y13713D01*
G01X13319Y13641D01*
G01X13315Y13633D01*
G01X13281Y13560D01*
G01X13276Y13551D01*
G01X13244Y13478D01*
G01X13240Y13469D01*
G01X13209Y13395D01*
G01X13205Y13386D01*
G01X13176Y13311D01*
G01X13173Y13302D01*
G01X13146Y13226D01*
G01X13143Y13217D01*
G01X13118Y13141D01*
G01X13115Y13132D01*
G01X13092Y13055D01*
G01X13089Y13045D01*
G01X13068Y12968D01*
G01X13065Y12959D01*
G01X13046Y12881D01*
G01X13044Y12871D01*
G01X13026Y12793D01*
G01X13024Y12783D01*
G01X13009Y12704D01*
G01X13007Y12695D01*
G01X12994Y12616D01*
G01X12992Y12606D01*
G01X12981Y12526D01*
G01X12980Y12517D01*
G01X12971Y12437D01*
G01X12970Y12427D01*
G01X12962Y12347D01*
G01X12962Y12338D01*
G01X12956Y12258D01*
G01X12956Y12248D01*
G01X12952Y12168D01*
G01X12952Y12158D01*
G01X12951Y12078D01*
G01X12951Y12072D01*
G01X12951Y12064D01*
G01X12951Y12045D01*
G01X12953Y12026D01*
G01X12953Y12021D01*
G01X12953Y8933D01*
G01X12953Y8932D01*
G01X12952Y8913D01*
G01X12951Y8894D01*
G01X12950Y8819D01*
G01X12947Y8749D01*
G01X12943Y8677D01*
G01X12937Y8608D01*
G01X12929Y8537D01*
G01X12919Y8468D01*
G01X12907Y8397D01*
G01X12894Y8329D01*
G01X12879Y8259D01*
G01X12862Y8191D01*
G01X12843Y8122D01*
G01X12823Y8056D01*
G01X12801Y7987D01*
G01X12778Y7921D01*
G01X12753Y7856D01*
G01X12725Y7790D01*
G01X12697Y7725D01*
G01X12666Y7662D01*
G01X12635Y7599D01*
G01X12601Y7537D01*
G01X12566Y7475D01*
G01X12529Y7414D01*
G01X12492Y7356D01*
G01X12452Y7297D01*
G01X12411Y7240D01*
G01X12368Y7183D01*
G01X12325Y7128D01*
G01X12279Y7073D01*
G01X12233Y7020D01*
G01X12185Y6969D01*
G01X12135Y6918D01*
G01X12085Y6869D01*
G01X12033Y6820D01*
G01X11981Y6774D01*
G01X11926Y6728D01*
G01X11871Y6685D01*
G01X11815Y6642D01*
G01X11758Y6601D01*
G01X11699Y6561D01*
G01X11640Y6523D01*
G01X11579Y6486D01*
G01X11518Y6451D01*
G01X11456Y6418D01*
G01X11393Y6385D01*
G01X11329Y6355D01*
G01X11265Y6326D01*
G01X11200Y6299D01*
G01X11133Y6273D01*
G01X11068Y6250D01*
G01X11000Y6228D01*
G01X10933Y6207D01*
G01X10864Y6188D01*
G01X10797Y6172D01*
G01X10727Y6156D01*
G01X10657Y6143D01*
G01X10588Y6131D01*
G01X10518Y6121D01*
G01X10448Y6113D01*
G01X10378Y6107D01*
G01X10307Y6102D01*
G01X10236Y6099D01*
G01X10165Y6098D01*
G01X10160Y6098D01*
G01X10156Y6098D01*
G01X10154Y6098D01*
G01X10083Y6097D01*
G01X10072Y6097D01*
G01X10001Y6094D01*
G01X9990Y6093D01*
G01X9919Y6088D01*
G01X9908Y6087D01*
G01X9837Y6080D01*
G01X9826Y6079D01*
G01X9755Y6070D01*
G01X9744Y6068D01*
G01X9674Y6057D01*
G01X9663Y6055D01*
G01X9593Y6042D01*
G01X9582Y6040D01*
G01X9513Y6025D01*
G01X9502Y6022D01*
G01X9433Y6005D01*
G01X9422Y6002D01*
G01X9354Y5983D01*
G01X9343Y5980D01*
G01X9275Y5959D01*
G01X9265Y5956D01*
G01X9197Y5933D01*
G01X9187Y5929D01*
G01X9120Y5904D01*
G01X9110Y5900D01*
G01X9044Y5873D01*
G01X9034Y5869D01*
G01X8969Y5841D01*
G01X8959Y5836D01*
G01X8894Y5806D01*
G01X8884Y5801D01*
G01X8821Y5768D01*
G01X8811Y5763D01*
G01X8749Y5729D01*
G01X8739Y5724D01*
G01X8678Y5688D01*
G01X8668Y5682D01*
G01X8608Y5645D01*
G01X8598Y5639D01*
G01X8539Y5600D01*
G01X8530Y5593D01*
G01X8472Y5552D01*
G01X8463Y5546D01*
G01X8406Y5503D01*
G01X8397Y5497D01*
G01X8341Y5452D01*
G01X8333Y5445D01*
G01X8278Y5400D01*
G01X8270Y5393D01*
G01X8217Y5345D01*
G01X8209Y5338D01*
G01X8157Y5289D01*
G01X8149Y5281D01*
G01X8098Y5231D01*
G01X8091Y5223D01*
G01X8042Y5171D01*
G01X8040Y5170D01*
G01X8040Y14491D01*
G01X8515Y15065D01*
G01X8546Y15097D01*
G01X8618Y15193D01*
G01X8681Y15296D01*
G01X8734Y15405D01*
G01X8775Y15518D01*
G01X8805Y15635D01*
G01X8823Y15754D01*
G01X8829Y15874D01*
G01X8823Y15995D01*
G01X8805Y16114D01*
G01X8775Y16231D01*
G01X8734Y16344D01*
G01X8681Y16453D01*
G01X8618Y16556D01*
G01X8546Y16652D01*
G01X8464Y16740D01*
G01X8373Y16820D01*
G01X8275Y16890D01*
G01X8171Y16950D01*
G01X8061Y17000D01*
G01X7947Y17038D01*
G01X7829Y17065D01*
G01X7710Y17080D01*
G01X7589Y17083D01*
G01X7469Y17074D01*
G01X7350Y17053D01*
G01X7234Y17021D01*
G01X7122Y16977D01*
G01X7015Y16922D01*
G01X6914Y16856D01*
G01X6820Y16781D01*
G01X6733Y16697D01*
G01X6656Y16604D01*
G01X6588Y16505D01*
G01X6530Y16399D01*
G01X6483Y16288D01*
G01X6448Y16173D01*
G01X6424Y16055D01*
G01X6412Y15935D01*
G01X6412Y15814D01*
G01X6424Y15694D01*
G01X6448Y15576D01*
G01X6483Y15461D01*
G01X6530Y15350D01*
G01X6588Y15244D01*
G01X6656Y15144D01*
G01X6733Y15052D01*
G01X6774Y15013D01*
G01X7278Y14474D01*
G01X7278Y3676D01*
G01X6649Y2989D01*
G01X6614Y2955D01*
G01X6522Y2846D01*
G01X6442Y2728D01*
G01X6374Y2603D01*
G01X6319Y2472D01*
G01X6277Y2336D01*
G01X6249Y2197D01*
G01X6235Y2056D01*
G01X6235Y1913D01*
G01X6249Y1772D01*
G01X6277Y1632D01*
G01X6319Y1497D01*
G01X6374Y1366D01*
G01X6442Y1241D01*
G01X6522Y1123D01*
G01X6614Y1014D01*
G01X6715Y915D01*
G01X6827Y826D01*
G01X6946Y749D01*
G01X7073Y684D01*
G01X7205Y632D01*
G01X7342Y594D01*
G01X7482Y569D01*
G01X7624Y558D01*
G01X7766Y562D01*
G01X7907Y580D01*
G01X8046Y611D01*
G01X8181Y657D01*
G01X8310Y715D01*
G01X8433Y786D01*
G01X8549Y869D01*
G01X8655Y963D01*
G01X8752Y1067D01*
G01X8838Y1181D01*
G01X8912Y1302D01*
G01X8974Y1430D01*
G01X9023Y1564D01*
G01X9058Y1702D01*
G01X9079Y1842D01*
G01X9086Y1984D01*
G01X9079Y2126D01*
G01X9058Y2267D01*
G01X9023Y2405D01*
G01X8974Y2539D01*
G01X8912Y2667D01*
G01X8838Y2788D01*
G01X8752Y2901D01*
G01X8655Y3006D01*
G01X8652Y3009D01*
G01X8084Y3628D01*
G01X8086Y3640D01*
G01X8099Y3698D01*
G01X8114Y3758D01*
G01X8130Y3816D01*
G01X8148Y3873D01*
G01X8168Y3930D01*
G01X8189Y3987D01*
G01X8212Y4043D01*
G01X8236Y4097D01*
G01X8262Y4152D01*
G01X8289Y4206D01*
G01X8319Y4259D01*
G01X8349Y4311D01*
G01X8381Y4361D01*
G01X8414Y4412D01*
G01X8450Y4462D01*
G01X8486Y4510D01*
G01X8523Y4557D01*
G01X8562Y4603D01*
G01X8602Y4648D01*
G01X8644Y4692D01*
G01X8686Y4734D01*
G01X8730Y4776D01*
G01X8776Y4816D01*
G01X8822Y4855D01*
G01X8869Y4892D01*
G01X8918Y4928D01*
G01X8966Y4963D01*
G01X9018Y4996D01*
G01X9068Y5028D01*
G01X9120Y5058D01*
G01X9174Y5088D01*
G01X9227Y5114D01*
G01X9282Y5140D01*
G01X9337Y5165D01*
G01X9393Y5187D01*
G01X9449Y5208D01*
G01X9506Y5228D01*
G01X9564Y5246D01*
G01X9623Y5262D01*
G01X9681Y5276D01*
G01X9740Y5289D01*
G01X9799Y5300D01*
G01X9859Y5309D01*
G01X9919Y5317D01*
G01X9978Y5323D01*
G01X10039Y5328D01*
G01X10099Y5330D01*
G01X10161Y5331D01*
G01X10167Y5331D01*
G01X10173Y5331D01*
G01X10253Y5332D01*
G01X10263Y5332D01*
G01X10343Y5336D01*
G01X10353Y5336D01*
G01X10433Y5341D01*
G01X10443Y5342D01*
G01X10522Y5350D01*
G01X10532Y5351D01*
G01X10612Y5360D01*
G01X10622Y5361D01*
G01X10701Y5372D01*
G01X10711Y5374D01*
G01X10790Y5387D01*
G01X10799Y5389D01*
G01X10878Y5404D01*
G01X10888Y5406D01*
G01X10966Y5424D01*
G01X10976Y5426D01*
G01X11053Y5445D01*
G01X11063Y5448D01*
G01X11140Y5469D01*
G01X11150Y5472D01*
G01X11227Y5495D01*
G01X11236Y5498D01*
G01X11312Y5523D01*
G01X11321Y5526D01*
G01X11397Y5553D01*
G01X11406Y5556D01*
G01X11481Y5585D01*
G01X11490Y5589D01*
G01X11564Y5620D01*
G01X11573Y5624D01*
G01X11646Y5657D01*
G01X11655Y5661D01*
G01X11728Y5695D01*
G01X11736Y5699D01*
G01X11808Y5736D01*
G01X11817Y5740D01*
G01X11887Y5779D01*
G01X11896Y5783D01*
G01X11965Y5823D01*
G01X11974Y5828D01*
G01X12042Y5870D01*
G01X12051Y5875D01*
G01X12118Y5918D01*
G01X12126Y5924D01*
G01X12193Y5969D01*
G01X12201Y5975D01*
G01X12266Y6021D01*
G01X12274Y6027D01*
G01X12338Y6075D01*
G01X12345Y6082D01*
G01X12408Y6132D01*
G01X12416Y6138D01*
G01X12477Y6189D01*
G01X12485Y6196D01*
G01X12545Y6249D01*
G01X12552Y6255D01*
G01X12611Y6310D01*
G01X12618Y6317D01*
G01X12675Y6373D01*
G01X12682Y6380D01*
G01X12738Y6437D01*
G01X12745Y6444D01*
G01X12799Y6503D01*
G01X12806Y6510D01*
G01X12859Y6571D01*
G01X12865Y6578D01*
G01X12917Y6640D01*
G01X12923Y6647D01*
G01X12973Y6710D01*
G01X12979Y6718D01*
G01X13027Y6782D01*
G01X13033Y6790D01*
G01X13079Y6855D01*
G01X13085Y6863D01*
G01X13130Y6930D01*
G01X13135Y6938D01*
G01X13178Y7006D01*
G01X13184Y7014D01*
G01X13225Y7083D01*
G01X13230Y7091D01*
G01X13270Y7161D01*
G01X13274Y7169D01*
G01X13313Y7240D01*
G01X13317Y7249D01*
G01X13353Y7320D01*
G01X13357Y7329D01*
G01X13392Y7401D01*
G01X13396Y7410D01*
G01X13429Y7484D01*
G01X13432Y7493D01*
G01X13463Y7567D01*
G01X13467Y7576D01*
G01X13495Y7651D01*
G01X13499Y7660D01*
G01X13526Y7736D01*
G01X13529Y7745D01*
G01X13554Y7821D01*
G01X13557Y7830D01*
G01X13580Y7907D01*
G01X13582Y7917D01*
G01X13604Y7994D01*
G01X13606Y8004D01*
G01X13625Y8082D01*
G01X13627Y8091D01*
G01X13644Y8169D01*
G01X13646Y8179D01*
G01X13661Y8258D01*
G01X13663Y8267D01*
G01X13676Y8347D01*
G01X13678Y8356D01*
G01X13689Y8436D01*
G01X13690Y8445D01*
G01X13699Y8525D01*
G01X13700Y8535D01*
G01X13707Y8615D01*
G01X13708Y8625D01*
G01X13713Y8705D01*
G01X13714Y8714D01*
G01X13717Y8795D01*
G01X13717Y8804D01*
G01X13718Y8885D01*
G01X13718Y8904D01*
G01X13717Y8923D01*
G01X13715Y8933D01*
G01X13715Y12021D01*
G01X13716Y12026D01*
G01X13718Y12045D01*
G01X13718Y12064D01*
G01X13718Y12069D01*
G01X13719Y12141D01*
G01X13722Y12213D01*
G01X13727Y12282D01*
G01X13733Y12353D01*
G01X13741Y12424D01*
G01X13751Y12493D01*
G01X13763Y12562D01*
G01X13776Y12632D01*
G01X13791Y12700D01*
G01X13809Y12770D01*
G01X13827Y12838D01*
G01X13848Y12905D01*
G01X13870Y12972D01*
G01X13893Y13038D01*
G01X13919Y13104D01*
G01X13946Y13170D01*
G01X13975Y13234D01*
G01X14005Y13298D01*
G01X14038Y13361D01*
G01X14071Y13423D01*
G01X14106Y13484D01*
G01X14143Y13545D01*
G01X14181Y13604D01*
G01X14221Y13663D01*
G01X14262Y13720D01*
G01X14305Y13776D01*
G01X14348Y13831D01*
G01X14394Y13886D01*
G01X14440Y13938D01*
G01X14489Y13990D01*
G01X14538Y14041D01*
G01X14588Y14090D01*
G01X14640Y14138D01*
G01X14693Y14184D01*
G01X14748Y14230D01*
G01X14803Y14273D01*
G01X14860Y14316D01*
G01X14917Y14357D01*
G01X14976Y14397D01*
G01X15035Y14434D01*
G01X15095Y14471D01*
G01X15157Y14506D01*
G01X15219Y14540D01*
G01X15282Y14571D01*
G01X15345Y14602D01*
G01X15410Y14630D01*
G01X15476Y14657D01*
G01X15542Y14683D01*
G01X15600Y14703D01*
G01X15608Y14688D01*
G01X15667Y14601D01*
G01X15735Y14521D01*
G01X15810Y14447D01*
G01X15893Y14382D01*
G01X15981Y14324D01*
G01X16075Y14276D01*
G01X16173Y14238D01*
G01X16274Y14209D01*
G01X16378Y14191D01*
G01X16483Y14183D01*
G01X16510Y14184D01*
G01X16510Y0D01*
G37*

%LPC*%
G36*
G01X12073Y684D02*
G01X12074Y683D01*
G01X12074Y1399D01*
G01X11360Y1399D01*
G01X11374Y1366D01*
G01X11442Y1241D01*
G01X11522Y1123D01*
G01X11614Y1014D01*
G01X11715Y915D01*
G01X11827Y826D01*
G01X11946Y749D01*
G01X12073Y684D01*
G37*
G36*
G01X13244Y1399D02*
G01X13244Y685D01*
G01X13310Y715D01*
G01X13433Y786D01*
G01X13549Y869D01*
G01X13655Y963D01*
G01X13752Y1067D01*
G01X13838Y1181D01*
G01X13912Y1302D01*
G01X13959Y1399D01*
G01X13244Y1399D01*
G37*
G36*
G01X13244Y3284D02*
G01X13244Y2569D01*
G01X13959Y2569D01*
G01X13912Y2667D01*
G01X13838Y2788D01*
G01X13752Y2901D01*
G01X13655Y3006D01*
G01X13549Y3100D01*
G01X13433Y3183D01*
G01X13310Y3254D01*
G01X13244Y3284D01*
G37*
G36*
G01X11374Y2603D02*
G01X11360Y2569D01*
G01X12074Y2569D01*
G01X12074Y3285D01*
G01X12073Y3285D01*
G01X11946Y3220D01*
G01X11827Y3143D01*
G01X11715Y3054D01*
G01X11614Y2955D01*
G01X11522Y2846D01*
G01X11442Y2728D01*
G01X11374Y2603D01*
G37*
G36*
G01X1775Y2774D02*
G01X1878Y2766D01*
G01X1983Y2768D01*
G01X2086Y2781D01*
G01X2187Y2805D01*
G01X2286Y2838D01*
G01X2381Y2880D01*
G01X2471Y2933D01*
G01X2555Y2993D01*
G01X2633Y3062D01*
G01X2704Y3138D01*
G01X2767Y3221D01*
G01X2821Y3310D01*
G01X2866Y3404D01*
G01X2902Y3502D01*
G01X2928Y3603D01*
G01X2943Y3706D01*
G01X2948Y3809D01*
G01X2943Y3913D01*
G01X2928Y4016D01*
G01X2902Y4117D01*
G01X2866Y4215D01*
G01X2821Y4309D01*
G01X2767Y4398D01*
G01X2704Y4480D01*
G01X2633Y4557D01*
G01X2555Y4626D01*
G01X2471Y4686D01*
G01X2381Y4738D01*
G01X2286Y4781D01*
G01X2187Y4814D01*
G01X2086Y4838D01*
G01X1983Y4850D01*
G01X1878Y4853D01*
G01X1775Y4845D01*
G01X1672Y4827D01*
G01X1572Y4799D01*
G01X1475Y4761D01*
G01X1383Y4714D01*
G01X1295Y4657D01*
G01X1214Y4592D01*
G01X1139Y4520D01*
G01X1072Y4440D01*
G01X1014Y4354D01*
G01X964Y4262D01*
G01X924Y4166D01*
G01X893Y4067D01*
G01X872Y3965D01*
G01X862Y3861D01*
G01X862Y3757D01*
G01X872Y3654D01*
G01X893Y3552D01*
G01X924Y3452D01*
G01X964Y3356D01*
G01X1014Y3265D01*
G01X1072Y3179D01*
G01X1139Y3099D01*
G01X1214Y3027D01*
G01X1295Y2962D01*
G01X1383Y2905D01*
G01X1475Y2858D01*
G01X1572Y2820D01*
G01X1672Y2792D01*
G01X1775Y2774D01*
G37*
G36*
G01X1775Y5314D02*
G01X1878Y5306D01*
G01X1983Y5308D01*
G01X2086Y5321D01*
G01X2187Y5345D01*
G01X2286Y5378D01*
G01X2381Y5420D01*
G01X2471Y5473D01*
G01X2555Y5533D01*
G01X2633Y5602D01*
G01X2704Y5678D01*
G01X2767Y5761D01*
G01X2821Y5850D01*
G01X2866Y5944D01*
G01X2902Y6042D01*
G01X2928Y6143D01*
G01X2943Y6246D01*
G01X2948Y6349D01*
G01X2943Y6453D01*
G01X2928Y6556D01*
G01X2902Y6657D01*
G01X2866Y6755D01*
G01X2821Y6849D01*
G01X2767Y6938D01*
G01X2704Y7020D01*
G01X2633Y7097D01*
G01X2555Y7166D01*
G01X2471Y7226D01*
G01X2381Y7278D01*
G01X2286Y7321D01*
G01X2187Y7354D01*
G01X2086Y7378D01*
G01X1983Y7390D01*
G01X1878Y7393D01*
G01X1775Y7385D01*
G01X1672Y7367D01*
G01X1572Y7339D01*
G01X1475Y7301D01*
G01X1383Y7254D01*
G01X1295Y7197D01*
G01X1214Y7132D01*
G01X1139Y7060D01*
G01X1072Y6980D01*
G01X1014Y6894D01*
G01X964Y6802D01*
G01X924Y6706D01*
G01X893Y6607D01*
G01X872Y6505D01*
G01X862Y6401D01*
G01X862Y6297D01*
G01X872Y6194D01*
G01X893Y6092D01*
G01X924Y5992D01*
G01X964Y5896D01*
G01X1014Y5805D01*
G01X1072Y5719D01*
G01X1139Y5639D01*
G01X1214Y5567D01*
G01X1295Y5502D01*
G01X1383Y5445D01*
G01X1475Y5398D01*
G01X1572Y5360D01*
G01X1672Y5332D01*
G01X1775Y5314D01*
G37*
G36*
G01X1775Y7854D02*
G01X1878Y7846D01*
G01X1983Y7848D01*
G01X2086Y7861D01*
G01X2187Y7885D01*
G01X2286Y7918D01*
G01X2381Y7960D01*
G01X2471Y8013D01*
G01X2555Y8073D01*
G01X2633Y8142D01*
G01X2704Y8218D01*
G01X2767Y8301D01*
G01X2821Y8390D01*
G01X2866Y8484D01*
G01X2902Y8582D01*
G01X2928Y8683D01*
G01X2943Y8786D01*
G01X2948Y8889D01*
G01X2943Y8993D01*
G01X2928Y9096D01*
G01X2902Y9197D01*
G01X2866Y9295D01*
G01X2821Y9389D01*
G01X2767Y9478D01*
G01X2704Y9560D01*
G01X2633Y9637D01*
G01X2555Y9706D01*
G01X2471Y9766D01*
G01X2381Y9818D01*
G01X2286Y9861D01*
G01X2187Y9894D01*
G01X2086Y9918D01*
G01X1983Y9930D01*
G01X1878Y9933D01*
G01X1775Y9925D01*
G01X1672Y9907D01*
G01X1572Y9879D01*
G01X1475Y9841D01*
G01X1383Y9794D01*
G01X1295Y9737D01*
G01X1214Y9672D01*
G01X1139Y9600D01*
G01X1072Y9520D01*
G01X1014Y9434D01*
G01X964Y9342D01*
G01X924Y9246D01*
G01X893Y9147D01*
G01X872Y9045D01*
G01X862Y8941D01*
G01X862Y8837D01*
G01X872Y8734D01*
G01X893Y8632D01*
G01X924Y8532D01*
G01X964Y8436D01*
G01X1014Y8345D01*
G01X1072Y8259D01*
G01X1139Y8179D01*
G01X1214Y8107D01*
G01X1295Y8042D01*
G01X1383Y7985D01*
G01X1475Y7938D01*
G01X1572Y7900D01*
G01X1672Y7872D01*
G01X1775Y7854D01*
G37*
G36*
G01X9982Y10569D02*
G01X10124Y10558D01*
G01X10266Y10562D01*
G01X10407Y10580D01*
G01X10546Y10611D01*
G01X10681Y10657D01*
G01X10810Y10715D01*
G01X10933Y10786D01*
G01X11049Y10869D01*
G01X11156Y10963D01*
G01X11252Y11067D01*
G01X11338Y11181D01*
G01X11412Y11302D01*
G01X11474Y11430D01*
G01X11523Y11564D01*
G01X11558Y11702D01*
G01X11579Y11842D01*
G01X11586Y11984D01*
G01X11579Y12126D01*
G01X11558Y12267D01*
G01X11523Y12405D01*
G01X11474Y12539D01*
G01X11412Y12667D01*
G01X11338Y12788D01*
G01X11252Y12901D01*
G01X11156Y13006D01*
G01X11049Y13100D01*
G01X10933Y13183D01*
G01X10810Y13254D01*
G01X10681Y13312D01*
G01X10546Y13358D01*
G01X10407Y13389D01*
G01X10266Y13407D01*
G01X10124Y13411D01*
G01X9982Y13400D01*
G01X9842Y13375D01*
G01X9705Y13337D01*
G01X9573Y13285D01*
G01X9446Y13220D01*
G01X9327Y13143D01*
G01X9216Y13054D01*
G01X9114Y12955D01*
G01X9022Y12846D01*
G01X8942Y12728D01*
G01X8874Y12603D01*
G01X8819Y12472D01*
G01X8777Y12336D01*
G01X8749Y12197D01*
G01X8735Y12056D01*
G01X8735Y11913D01*
G01X8749Y11772D01*
G01X8777Y11632D01*
G01X8819Y11497D01*
G01X8874Y11365D01*
G01X8942Y11241D01*
G01X9022Y11123D01*
G01X9114Y11014D01*
G01X9216Y10915D01*
G01X9327Y10826D01*
G01X9446Y10749D01*
G01X9573Y10684D01*
G01X9705Y10632D01*
G01X9842Y10594D01*
G01X9982Y10569D01*
G37*
G36*
G01X1775Y12934D02*
G01X1878Y12926D01*
G01X1983Y12928D01*
G01X2086Y12941D01*
G01X2187Y12965D01*
G01X2286Y12998D01*
G01X2381Y13040D01*
G01X2471Y13093D01*
G01X2555Y13153D01*
G01X2633Y13222D01*
G01X2704Y13298D01*
G01X2767Y13381D01*
G01X2821Y13470D01*
G01X2866Y13564D01*
G01X2902Y13662D01*
G01X2928Y13763D01*
G01X2943Y13866D01*
G01X2948Y13969D01*
G01X2943Y14073D01*
G01X2928Y14176D01*
G01X2902Y14277D01*
G01X2866Y14375D01*
G01X2821Y14469D01*
G01X2767Y14558D01*
G01X2704Y14640D01*
G01X2633Y14717D01*
G01X2555Y14786D01*
G01X2471Y14846D01*
G01X2381Y14898D01*
G01X2286Y14941D01*
G01X2187Y14974D01*
G01X2086Y14998D01*
G01X1983Y15010D01*
G01X1878Y15013D01*
G01X1775Y15005D01*
G01X1672Y14987D01*
G01X1572Y14959D01*
G01X1475Y14921D01*
G01X1383Y14874D01*
G01X1295Y14817D01*
G01X1214Y14752D01*
G01X1139Y14680D01*
G01X1072Y14600D01*
G01X1014Y14514D01*
G01X964Y14422D01*
G01X924Y14326D01*
G01X893Y14227D01*
G01X872Y14125D01*
G01X862Y14021D01*
G01X862Y13917D01*
G01X872Y13814D01*
G01X893Y13712D01*
G01X924Y13612D01*
G01X964Y13516D01*
G01X1014Y13425D01*
G01X1072Y13339D01*
G01X1139Y13259D01*
G01X1214Y13187D01*
G01X1295Y13122D01*
G01X1383Y13065D01*
G01X1475Y13018D01*
G01X1572Y12980D01*
G01X1672Y12952D01*
G01X1775Y12934D01*
G37*
G36*
G01X12551Y14673D02*
G01X12671Y14664D01*
G01X12792Y14667D01*
G01X12911Y14682D01*
G01X13029Y14709D01*
G01X13143Y14747D01*
G01X13253Y14797D01*
G01X13357Y14857D01*
G01X13455Y14928D01*
G01X13546Y15007D01*
G01X13628Y15096D01*
G01X13700Y15192D01*
G01X13763Y15295D01*
G01X13816Y15403D01*
G01X13857Y15517D01*
G01X13887Y15633D01*
G01X13905Y15753D01*
G01X13911Y15873D01*
G01X13905Y15993D01*
G01X13887Y16112D01*
G01X13857Y16229D01*
G01X13816Y16343D01*
G01X13763Y16451D01*
G01X13700Y16554D01*
G01X13628Y16650D01*
G01X13546Y16738D01*
G01X13455Y16818D01*
G01X13357Y16889D01*
G01X13253Y16949D01*
G01X13143Y16998D01*
G01X13029Y17037D01*
G01X12911Y17064D01*
G01X12792Y17079D01*
G01X12671Y17082D01*
G01X12551Y17073D01*
G01X12432Y17052D01*
G01X12316Y17019D01*
G01X12204Y16975D01*
G01X12097Y16920D01*
G01X11996Y16855D01*
G01X11902Y16779D01*
G01X11815Y16695D01*
G01X11738Y16603D01*
G01X11670Y16503D01*
G01X11612Y16398D01*
G01X11565Y16286D01*
G01X11530Y16171D01*
G01X11506Y16053D01*
G01X11494Y15933D01*
G01X11494Y15813D01*
G01X11506Y15693D01*
G01X11530Y15575D01*
G01X11565Y15459D01*
G01X11612Y15348D01*
G01X11670Y15242D01*
G01X11738Y15143D01*
G01X11815Y15051D01*
G01X11902Y14966D01*
G01X11996Y14891D01*
G01X12097Y14826D01*
G01X12204Y14771D01*
G01X12316Y14727D01*
G01X12432Y14694D01*
G01X12551Y14673D01*
G37*
G36*
G01X9664Y14771D02*
G01X9685Y14763D01*
G01X9685Y15397D01*
G01X9052Y15397D01*
G01X9072Y15348D01*
G01X9130Y15242D01*
G01X9198Y15143D01*
G01X9275Y15051D01*
G01X9362Y14966D01*
G01X9456Y14891D01*
G01X9557Y14826D01*
G01X9664Y14771D01*
G37*
G36*
G01X10638Y15397D02*
G01X10638Y14763D01*
G01X10713Y14797D01*
G01X10817Y14857D01*
G01X10915Y14928D01*
G01X11006Y15007D01*
G01X11088Y15096D01*
G01X11160Y15192D01*
G01X11223Y15295D01*
G01X11272Y15397D01*
G01X10638Y15397D01*
G37*
G36*
G01X2298Y16116D02*
G01X2298Y15468D01*
G01X2692Y15468D01*
G01X2702Y15468D01*
G01X2713Y15469D01*
G01X2723Y15470D01*
G01X2734Y15472D01*
G01X2744Y15473D01*
G01X2754Y15476D01*
G01X2764Y15479D01*
G01X2774Y15482D01*
G01X2784Y15485D01*
G01X2794Y15489D01*
G01X2803Y15494D01*
G01X2813Y15499D01*
G01X2822Y15504D01*
G01X2831Y15509D01*
G01X2839Y15515D01*
G01X2848Y15522D01*
G01X2856Y15528D01*
G01X2864Y15535D01*
G01X2872Y15542D01*
G01X2879Y15550D01*
G01X2886Y15558D01*
G01X2892Y15566D01*
G01X2899Y15574D01*
G01X2905Y15583D01*
G01X2910Y15592D01*
G01X2915Y15601D01*
G01X2920Y15611D01*
G01X2925Y15620D01*
G01X2929Y15630D01*
G01X2932Y15640D01*
G01X2935Y15650D01*
G01X2938Y15660D01*
G01X2940Y15670D01*
G01X2942Y15680D01*
G01X2944Y15691D01*
G01X2945Y15701D01*
G01X2946Y15712D01*
G01X2946Y15722D01*
G01X2946Y16116D01*
G01X2298Y16116D01*
G37*
G36*
G01X1107Y15468D02*
G01X1117Y15468D01*
G01X1511Y15468D01*
G01X1511Y16116D01*
G01X863Y16116D01*
G01X863Y15722D01*
G01X863Y15712D01*
G01X864Y15701D01*
G01X865Y15691D01*
G01X867Y15680D01*
G01X869Y15670D01*
G01X871Y15660D01*
G01X874Y15650D01*
G01X877Y15640D01*
G01X880Y15630D01*
G01X884Y15620D01*
G01X889Y15611D01*
G01X894Y15601D01*
G01X899Y15592D01*
G01X904Y15583D01*
G01X910Y15574D01*
G01X917Y15566D01*
G01X923Y15558D01*
G01X930Y15550D01*
G01X937Y15542D01*
G01X945Y15535D01*
G01X953Y15528D01*
G01X961Y15522D01*
G01X970Y15515D01*
G01X978Y15509D01*
G01X987Y15504D01*
G01X996Y15499D01*
G01X1006Y15494D01*
G01X1015Y15489D01*
G01X1025Y15485D01*
G01X1035Y15482D01*
G01X1045Y15479D01*
G01X1055Y15476D01*
G01X1065Y15473D01*
G01X1075Y15472D01*
G01X1086Y15470D01*
G01X1096Y15469D01*
G01X1107Y15468D01*
G37*
G36*
G01X10638Y16983D02*
G01X10638Y16349D01*
G01X11272Y16349D01*
G01X11223Y16451D01*
G01X11160Y16554D01*
G01X11088Y16650D01*
G01X11006Y16738D01*
G01X10915Y16818D01*
G01X10817Y16889D01*
G01X10713Y16949D01*
G01X10638Y16983D01*
G37*
G36*
G01X9072Y16398D02*
G01X9052Y16349D01*
G01X9685Y16349D01*
G01X9685Y16983D01*
G01X9664Y16975D01*
G01X9557Y16920D01*
G01X9456Y16855D01*
G01X9362Y16779D01*
G01X9275Y16695D01*
G01X9198Y16603D01*
G01X9130Y16503D01*
G01X9072Y16398D01*
G37*
G36*
G01X2298Y17551D02*
G01X2298Y16903D01*
G01X2946Y16903D01*
G01X2946Y17297D01*
G01X2946Y17307D01*
G01X2945Y17318D01*
G01X2944Y17328D01*
G01X2942Y17339D01*
G01X2940Y17349D01*
G01X2938Y17359D01*
G01X2935Y17369D01*
G01X2932Y17379D01*
G01X2929Y17389D01*
G01X2925Y17399D01*
G01X2920Y17408D01*
G01X2915Y17418D01*
G01X2910Y17427D01*
G01X2905Y17436D01*
G01X2899Y17444D01*
G01X2892Y17453D01*
G01X2886Y17461D01*
G01X2879Y17469D01*
G01X2872Y17476D01*
G01X2864Y17484D01*
G01X2856Y17491D01*
G01X2848Y17497D01*
G01X2839Y17504D01*
G01X2831Y17510D01*
G01X2822Y17515D01*
G01X2813Y17520D01*
G01X2803Y17525D01*
G01X2794Y17529D01*
G01X2784Y17534D01*
G01X2774Y17537D01*
G01X2764Y17540D01*
G01X2754Y17543D01*
G01X2744Y17545D01*
G01X2734Y17547D01*
G01X2723Y17549D01*
G01X2713Y17550D01*
G01X2702Y17551D01*
G01X2692Y17551D01*
G01X2298Y17551D01*
G37*
G36*
G01X863Y17297D02*
G01X863Y16903D01*
G01X1511Y16903D01*
G01X1511Y17551D01*
G01X1117Y17551D01*
G01X1107Y17551D01*
G01X1096Y17550D01*
G01X1086Y17549D01*
G01X1075Y17547D01*
G01X1065Y17545D01*
G01X1055Y17543D01*
G01X1045Y17540D01*
G01X1035Y17537D01*
G01X1025Y17534D01*
G01X1015Y17529D01*
G01X1006Y17525D01*
G01X996Y17520D01*
G01X987Y17515D01*
G01X978Y17510D01*
G01X970Y17504D01*
G01X961Y17497D01*
G01X953Y17491D01*
G01X945Y17484D01*
G01X937Y17476D01*
G01X930Y17469D01*
G01X923Y17461D01*
G01X917Y17453D01*
G01X910Y17444D01*
G01X904Y17436D01*
G01X899Y17427D01*
G01X894Y17418D01*
G01X889Y17408D01*
G01X884Y17399D01*
G01X880Y17389D01*
G01X877Y17379D01*
G01X874Y17369D01*
G01X871Y17359D01*
G01X869Y17349D01*
G01X867Y17339D01*
G01X865Y17328D01*
G01X864Y17318D01*
G01X863Y17307D01*
G01X863Y17297D01*
G37*
G36*
G01X1107Y18008D02*
G01X1117Y18008D01*
G01X2692Y18008D01*
G01X2702Y18008D01*
G01X2713Y18009D01*
G01X2723Y18010D01*
G01X2734Y18012D01*
G01X2744Y18013D01*
G01X2754Y18016D01*
G01X2764Y18019D01*
G01X2774Y18022D01*
G01X2784Y18025D01*
G01X2794Y18029D01*
G01X2803Y18034D01*
G01X2813Y18039D01*
G01X2822Y18044D01*
G01X2831Y18049D01*
G01X2839Y18055D01*
G01X2848Y18062D01*
G01X2856Y18068D01*
G01X2864Y18075D01*
G01X2872Y18082D01*
G01X2879Y18090D01*
G01X2886Y18098D01*
G01X2892Y18106D01*
G01X2899Y18114D01*
G01X2905Y18123D01*
G01X2910Y18132D01*
G01X2915Y18141D01*
G01X2920Y18151D01*
G01X2925Y18160D01*
G01X2929Y18170D01*
G01X2932Y18180D01*
G01X2935Y18190D01*
G01X2938Y18200D01*
G01X2940Y18210D01*
G01X2942Y18220D01*
G01X2944Y18231D01*
G01X2945Y18241D01*
G01X2946Y18252D01*
G01X2946Y18262D01*
G01X2946Y19837D01*
G01X2946Y19847D01*
G01X2945Y19858D01*
G01X2944Y19868D01*
G01X2942Y19879D01*
G01X2940Y19889D01*
G01X2938Y19899D01*
G01X2935Y19909D01*
G01X2932Y19919D01*
G01X2929Y19929D01*
G01X2925Y19939D01*
G01X2920Y19948D01*
G01X2915Y19958D01*
G01X2910Y19967D01*
G01X2905Y19976D01*
G01X2899Y19984D01*
G01X2892Y19993D01*
G01X2886Y20001D01*
G01X2879Y20009D01*
G01X2872Y20016D01*
G01X2864Y20024D01*
G01X2856Y20031D01*
G01X2848Y20037D01*
G01X2839Y20044D01*
G01X2831Y20050D01*
G01X2822Y20055D01*
G01X2813Y20060D01*
G01X2803Y20065D01*
G01X2794Y20069D01*
G01X2784Y20074D01*
G01X2774Y20077D01*
G01X2764Y20080D01*
G01X2754Y20083D01*
G01X2744Y20085D01*
G01X2734Y20087D01*
G01X2723Y20089D01*
G01X2713Y20090D01*
G01X2702Y20091D01*
G01X2692Y20091D01*
G01X1117Y20091D01*
G01X1107Y20091D01*
G01X1096Y20090D01*
G01X1086Y20089D01*
G01X1075Y20087D01*
G01X1065Y20085D01*
G01X1055Y20083D01*
G01X1045Y20080D01*
G01X1035Y20077D01*
G01X1025Y20074D01*
G01X1015Y20069D01*
G01X1006Y20065D01*
G01X996Y20060D01*
G01X987Y20055D01*
G01X978Y20050D01*
G01X970Y20044D01*
G01X961Y20037D01*
G01X953Y20031D01*
G01X945Y20024D01*
G01X937Y20016D01*
G01X930Y20009D01*
G01X923Y20001D01*
G01X917Y19993D01*
G01X910Y19984D01*
G01X904Y19976D01*
G01X899Y19967D01*
G01X894Y19958D01*
G01X889Y19948D01*
G01X884Y19939D01*
G01X880Y19929D01*
G01X877Y19919D01*
G01X874Y19909D01*
G01X871Y19899D01*
G01X869Y19889D01*
G01X867Y19879D01*
G01X865Y19868D01*
G01X864Y19858D01*
G01X863Y19847D01*
G01X863Y19837D01*
G01X863Y18262D01*
G01X863Y18252D01*
G01X864Y18241D01*
G01X865Y18231D01*
G01X867Y18220D01*
G01X869Y18210D01*
G01X871Y18200D01*
G01X874Y18190D01*
G01X877Y18180D01*
G01X880Y18170D01*
G01X884Y18160D01*
G01X889Y18151D01*
G01X894Y18141D01*
G01X899Y18132D01*
G01X904Y18123D01*
G01X910Y18114D01*
G01X917Y18106D01*
G01X923Y18098D01*
G01X930Y18090D01*
G01X937Y18082D01*
G01X945Y18075D01*
G01X953Y18068D01*
G01X961Y18062D01*
G01X970Y18055D01*
G01X978Y18049D01*
G01X987Y18044D01*
G01X996Y18039D01*
G01X1006Y18034D01*
G01X1015Y18029D01*
G01X1025Y18025D01*
G01X1035Y18022D01*
G01X1045Y18019D01*
G01X1055Y18016D01*
G01X1065Y18013D01*
G01X1075Y18012D01*
G01X1086Y18010D01*
G01X1096Y18009D01*
G01X1107Y18008D01*
G37*
G36*
G01X1109Y20547D02*
G01X1119Y20547D01*
G01X2694Y20547D01*
G01X2704Y20547D01*
G01X2715Y20547D01*
G01X2725Y20548D01*
G01X2736Y20550D01*
G01X2746Y20552D01*
G01X2756Y20554D01*
G01X2766Y20557D01*
G01X2776Y20560D01*
G01X2786Y20564D01*
G01X2796Y20568D01*
G01X2805Y20572D01*
G01X2815Y20577D01*
G01X2824Y20582D01*
G01X2833Y20588D01*
G01X2842Y20594D01*
G01X2850Y20600D01*
G01X2858Y20607D01*
G01X2866Y20614D01*
G01X2874Y20621D01*
G01X2881Y20628D01*
G01X2888Y20636D01*
G01X2894Y20645D01*
G01X2901Y20653D01*
G01X2907Y20662D01*
G01X2912Y20671D01*
G01X2917Y20680D01*
G01X2922Y20689D01*
G01X2927Y20698D01*
G01X2931Y20708D01*
G01X2934Y20718D01*
G01X2937Y20728D01*
G01X2940Y20738D01*
G01X2943Y20748D01*
G01X2944Y20759D01*
G01X2946Y20769D01*
G01X2947Y20780D01*
G01X2948Y20790D01*
G01X2948Y20801D01*
G01X2948Y21113D01*
G01X3135Y21207D01*
G01X10750Y21207D01*
G01X10757Y21206D01*
G01X10776Y21205D01*
G01X10795Y21204D01*
G01X10841Y21205D01*
G01X10847Y21205D01*
G01X10942Y21207D01*
G01X10950Y21207D01*
G01X11045Y21211D01*
G01X11053Y21211D01*
G01X11148Y21217D01*
G01X11156Y21218D01*
G01X11251Y21226D01*
G01X11259Y21227D01*
G01X11354Y21237D01*
G01X11362Y21238D01*
G01X11456Y21250D01*
G01X11464Y21251D01*
G01X11558Y21265D01*
G01X11566Y21267D01*
G01X11660Y21283D01*
G01X11668Y21284D01*
G01X11761Y21302D01*
G01X11769Y21304D01*
G01X11862Y21324D01*
G01X11870Y21326D01*
G01X11963Y21348D01*
G01X11971Y21350D01*
G01X12063Y21374D01*
G01X12071Y21376D01*
G01X12162Y21402D01*
G01X12170Y21405D01*
G01X12261Y21433D01*
G01X12268Y21435D01*
G01X12359Y21465D01*
G01X12366Y21468D01*
G01X12456Y21500D01*
G01X12464Y21503D01*
G01X12552Y21536D01*
G01X12560Y21539D01*
G01X12648Y21575D01*
G01X12656Y21578D01*
G01X12743Y21616D01*
G01X12751Y21619D01*
G01X12837Y21658D01*
G01X12844Y21662D01*
G01X12930Y21703D01*
G01X12938Y21707D01*
G01X13022Y21750D01*
G01X13030Y21753D01*
G01X13113Y21798D01*
G01X13121Y21802D01*
G01X13203Y21849D01*
G01X13210Y21853D01*
G01X13292Y21901D01*
G01X13299Y21906D01*
G01X13380Y21956D01*
G01X13387Y21960D01*
G01X13467Y22012D01*
G01X13474Y22016D01*
G01X13552Y22070D01*
G01X13559Y22075D01*
G01X13636Y22130D01*
G01X13643Y22135D01*
G01X13719Y22192D01*
G01X13725Y22196D01*
G01X13800Y22255D01*
G01X13807Y22260D01*
G01X13880Y22320D01*
G01X13887Y22325D01*
G01X13959Y22387D01*
G01X13965Y22392D01*
G01X14036Y22455D01*
G01X14042Y22461D01*
G01X14112Y22526D01*
G01X14118Y22531D01*
G01X14186Y22597D01*
G01X14192Y22603D01*
G01X14259Y22671D01*
G01X14265Y22677D01*
G01X14330Y22746D01*
G01X14336Y22752D01*
G01X14400Y22822D01*
G01X14405Y22828D01*
G01X14468Y22900D01*
G01X14473Y22906D01*
G01X14534Y22979D01*
G01X14539Y22985D01*
G01X14598Y23060D01*
G01X14603Y23066D01*
G01X14661Y23142D01*
G01X14666Y23148D01*
G01X14722Y23225D01*
G01X14727Y23232D01*
G01X14781Y23310D01*
G01X14786Y23316D01*
G01X14838Y23395D01*
G01X14843Y23402D01*
G01X14894Y23483D01*
G01X14898Y23489D01*
G01X14947Y23571D01*
G01X14952Y23578D01*
G01X14999Y23660D01*
G01X15003Y23667D01*
G01X15049Y23751D01*
G01X15053Y23758D01*
G01X15097Y23842D01*
G01X15101Y23849D01*
G01X15143Y23935D01*
G01X15146Y23942D01*
G01X15187Y24028D01*
G01X15190Y24036D01*
G01X15228Y24122D01*
G01X15232Y24130D01*
G01X15268Y24218D01*
G01X15271Y24225D01*
G01X15306Y24314D01*
G01X15309Y24321D01*
G01X15342Y24411D01*
G01X15345Y24418D01*
G01X15376Y24508D01*
G01X15378Y24516D01*
G01X15407Y24606D01*
G01X15410Y24614D01*
G01X15437Y24705D01*
G01X15439Y24713D01*
G01X15464Y24805D01*
G01X15466Y24813D01*
G01X15475Y24850D01*
G01X15567Y24871D01*
G01X15681Y24909D01*
G01X15791Y24959D01*
G01X15895Y25019D01*
G01X15993Y25089D01*
G01X16084Y25169D01*
G01X16166Y25257D01*
G01X16238Y25353D01*
G01X16301Y25456D01*
G01X16354Y25565D01*
G01X16395Y25678D01*
G01X16425Y25795D01*
G01X16443Y25914D01*
G01X16449Y26034D01*
G01X16443Y26155D01*
G01X16425Y26274D01*
G01X16395Y26391D01*
G01X16354Y26504D01*
G01X16301Y26613D01*
G01X16238Y26716D01*
G01X16166Y26812D01*
G01X16084Y26900D01*
G01X15993Y26980D01*
G01X15895Y27050D01*
G01X15791Y27110D01*
G01X15681Y27160D01*
G01X15567Y27198D01*
G01X15449Y27225D01*
G01X15330Y27240D01*
G01X15209Y27243D01*
G01X15089Y27234D01*
G01X14970Y27213D01*
G01X14854Y27181D01*
G01X14742Y27137D01*
G01X14635Y27082D01*
G01X14534Y27016D01*
G01X14440Y26941D01*
G01X14353Y26857D01*
G01X14276Y26764D01*
G01X14208Y26665D01*
G01X14150Y26559D01*
G01X14103Y26448D01*
G01X14068Y26333D01*
G01X14044Y26215D01*
G01X14032Y26095D01*
G01X14032Y25974D01*
G01X14044Y25854D01*
G01X14068Y25736D01*
G01X14103Y25621D01*
G01X14150Y25510D01*
G01X14208Y25404D01*
G01X14276Y25304D01*
G01X14353Y25212D01*
G01X14440Y25128D01*
G01X14534Y25053D01*
G01X14635Y24987D01*
G01X14708Y24950D01*
G01X14700Y24920D01*
G01X14676Y24837D01*
G01X14649Y24753D01*
G01X14621Y24672D01*
G01X14591Y24590D01*
G01X14559Y24510D01*
G01X14525Y24429D01*
G01X14491Y24351D01*
G01X14453Y24270D01*
G01X14415Y24194D01*
G01X14375Y24116D01*
G01X14333Y24040D01*
G01X14290Y23966D01*
G01X14244Y23890D01*
G01X14198Y23818D01*
G01X14149Y23745D01*
G01X14100Y23675D01*
G01X14048Y23603D01*
G01X13996Y23535D01*
G01X13942Y23467D01*
G01X13886Y23400D01*
G01X13829Y23335D01*
G01X13771Y23270D01*
G01X13712Y23208D01*
G01X13649Y23145D01*
G01X13588Y23085D01*
G01X13524Y23026D01*
G01X13459Y22969D01*
G01X13393Y22912D01*
G01X13326Y22857D01*
G01X13257Y22804D01*
G01X13187Y22752D01*
G01X13116Y22701D01*
G01X13045Y22653D01*
G01X12972Y22605D01*
G01X12899Y22560D01*
G01X12823Y22515D01*
G01X12747Y22472D01*
G01X12672Y22432D01*
G01X12594Y22393D01*
G01X12515Y22354D01*
G01X12437Y22319D01*
G01X12356Y22284D01*
G01X12277Y22252D01*
G01X12194Y22221D01*
G01X12113Y22192D01*
G01X12031Y22165D01*
G01X11948Y22139D01*
G01X11864Y22115D01*
G01X11780Y22093D01*
G01X11696Y22073D01*
G01X11611Y22055D01*
G01X11525Y22038D01*
G01X11439Y22023D01*
G01X11354Y22010D01*
G01X11269Y21999D01*
G01X11181Y21990D01*
G01X11095Y21983D01*
G01X11009Y21977D01*
G01X10922Y21974D01*
G01X10833Y21972D01*
G01X10791Y21971D01*
G01X10772Y21971D01*
G01X10753Y21969D01*
G01X10750Y21969D01*
G01X3135Y21969D01*
G01X2948Y22062D01*
G01X2948Y22375D01*
G01X2948Y22386D01*
G01X2947Y22396D01*
G01X2946Y22407D01*
G01X2944Y22417D01*
G01X2943Y22427D01*
G01X2940Y22438D01*
G01X2937Y22448D01*
G01X2934Y22458D01*
G01X2931Y22468D01*
G01X2927Y22477D01*
G01X2922Y22487D01*
G01X2917Y22496D01*
G01X2912Y22505D01*
G01X2907Y22514D01*
G01X2901Y22523D01*
G01X2894Y22531D01*
G01X2888Y22539D01*
G01X2881Y22547D01*
G01X2874Y22555D01*
G01X2866Y22562D01*
G01X2858Y22569D01*
G01X2850Y22576D01*
G01X2842Y22582D01*
G01X2833Y22588D01*
G01X2824Y22594D01*
G01X2815Y22599D01*
G01X2805Y22604D01*
G01X2796Y22608D01*
G01X2786Y22612D01*
G01X2776Y22616D01*
G01X2766Y22619D01*
G01X2756Y22622D01*
G01X2746Y22624D01*
G01X2736Y22626D01*
G01X2725Y22627D01*
G01X2715Y22628D01*
G01X2704Y22629D01*
G01X2694Y22629D01*
G01X1119Y22629D01*
G01X1109Y22629D01*
G01X1098Y22628D01*
G01X1088Y22627D01*
G01X1077Y22626D01*
G01X1067Y22624D01*
G01X1057Y22622D01*
G01X1047Y22619D01*
G01X1037Y22616D01*
G01X1027Y22612D01*
G01X1017Y22608D01*
G01X1008Y22604D01*
G01X998Y22599D01*
G01X989Y22594D01*
G01X980Y22588D01*
G01X972Y22582D01*
G01X963Y22576D01*
G01X955Y22569D01*
G01X947Y22562D01*
G01X940Y22555D01*
G01X932Y22547D01*
G01X925Y22539D01*
G01X919Y22531D01*
G01X912Y22523D01*
G01X906Y22514D01*
G01X901Y22505D01*
G01X896Y22496D01*
G01X891Y22487D01*
G01X887Y22477D01*
G01X883Y22468D01*
G01X879Y22458D01*
G01X876Y22448D01*
G01X873Y22438D01*
G01X871Y22427D01*
G01X869Y22417D01*
G01X867Y22407D01*
G01X866Y22396D01*
G01X865Y22386D01*
G01X865Y22375D01*
G01X865Y20801D01*
G01X865Y20790D01*
G01X866Y20780D01*
G01X867Y20769D01*
G01X869Y20759D01*
G01X871Y20748D01*
G01X873Y20738D01*
G01X876Y20728D01*
G01X879Y20718D01*
G01X883Y20708D01*
G01X887Y20698D01*
G01X891Y20689D01*
G01X896Y20680D01*
G01X901Y20671D01*
G01X906Y20662D01*
G01X912Y20653D01*
G01X919Y20645D01*
G01X925Y20636D01*
G01X932Y20628D01*
G01X940Y20621D01*
G01X947Y20614D01*
G01X955Y20607D01*
G01X963Y20600D01*
G01X972Y20594D01*
G01X980Y20588D01*
G01X989Y20582D01*
G01X998Y20577D01*
G01X1008Y20572D01*
G01X1017Y20568D01*
G01X1027Y20564D01*
G01X1037Y20560D01*
G01X1047Y20557D01*
G01X1057Y20554D01*
G01X1067Y20552D01*
G01X1077Y20550D01*
G01X1088Y20548D01*
G01X1098Y20547D01*
G01X1109Y20547D01*
G37*
G36*
G01X1746Y24772D02*
G01X1873Y24762D01*
G01X2000Y24765D01*
G01X2125Y24781D01*
G01X2249Y24809D01*
G01X2369Y24850D01*
G01X2485Y24902D01*
G01X2595Y24965D01*
G01X2698Y25040D01*
G01X2793Y25123D01*
G01X2879Y25216D01*
G01X2956Y25318D01*
G01X3022Y25426D01*
G01X3077Y25540D01*
G01X3120Y25659D01*
G01X3152Y25782D01*
G01X3171Y25908D01*
G01X3177Y26034D01*
G01X3171Y26161D01*
G01X3152Y26287D01*
G01X3120Y26410D01*
G01X3077Y26529D01*
G01X3022Y26643D01*
G01X2956Y26751D01*
G01X2879Y26852D01*
G01X2793Y26945D01*
G01X2698Y27029D01*
G01X2595Y27103D01*
G01X2485Y27167D01*
G01X2369Y27219D01*
G01X2249Y27259D01*
G01X2125Y27288D01*
G01X2000Y27303D01*
G01X1873Y27307D01*
G01X1746Y27297D01*
G01X1621Y27275D01*
G01X1499Y27241D01*
G01X1381Y27194D01*
G01X1268Y27137D01*
G01X1162Y27068D01*
G01X1062Y26989D01*
G01X972Y26900D01*
G01X890Y26803D01*
G01X819Y26698D01*
G01X758Y26587D01*
G01X709Y26470D01*
G01X671Y26348D01*
G01X646Y26224D01*
G01X634Y26098D01*
G01X634Y25971D01*
G01X646Y25845D01*
G01X671Y25720D01*
G01X709Y25599D01*
G01X758Y25482D01*
G01X819Y25371D01*
G01X890Y25266D01*
G01X972Y25169D01*
G01X1062Y25080D01*
G01X1162Y25001D01*
G01X1268Y24932D01*
G01X1381Y24875D01*
G01X1499Y24828D01*
G01X1621Y24794D01*
G01X1746Y24772D01*
G37*
G36*
G01X10011Y24833D02*
G01X10131Y24824D01*
G01X10252Y24827D01*
G01X10371Y24842D01*
G01X10489Y24869D01*
G01X10603Y24907D01*
G01X10713Y24957D01*
G01X10817Y25017D01*
G01X10915Y25088D01*
G01X11006Y25167D01*
G01X11088Y25256D01*
G01X11160Y25352D01*
G01X11223Y25455D01*
G01X11276Y25563D01*
G01X11317Y25677D01*
G01X11347Y25793D01*
G01X11365Y25913D01*
G01X11371Y26033D01*
G01X11365Y26153D01*
G01X11347Y26272D01*
G01X11317Y26389D01*
G01X11276Y26503D01*
G01X11223Y26611D01*
G01X11160Y26714D01*
G01X11088Y26810D01*
G01X11006Y26898D01*
G01X10915Y26978D01*
G01X10817Y27049D01*
G01X10713Y27109D01*
G01X10603Y27158D01*
G01X10489Y27197D01*
G01X10371Y27224D01*
G01X10252Y27239D01*
G01X10131Y27242D01*
G01X10011Y27233D01*
G01X9892Y27212D01*
G01X9776Y27179D01*
G01X9664Y27135D01*
G01X9557Y27080D01*
G01X9456Y27015D01*
G01X9362Y26939D01*
G01X9275Y26855D01*
G01X9198Y26763D01*
G01X9130Y26663D01*
G01X9072Y26558D01*
G01X9025Y26446D01*
G01X8990Y26331D01*
G01X8966Y26213D01*
G01X8954Y26093D01*
G01X8954Y25973D01*
G01X8966Y25853D01*
G01X8990Y25735D01*
G01X9025Y25619D01*
G01X9072Y25508D01*
G01X9130Y25402D01*
G01X9198Y25303D01*
G01X9275Y25211D01*
G01X9362Y25126D01*
G01X9456Y25051D01*
G01X9557Y24986D01*
G01X9664Y24931D01*
G01X9776Y24887D01*
G01X9892Y24854D01*
G01X10011Y24833D01*
G37*
G36*
G01X12551Y24833D02*
G01X12671Y24824D01*
G01X12792Y24827D01*
G01X12911Y24842D01*
G01X13029Y24869D01*
G01X13143Y24907D01*
G01X13253Y24957D01*
G01X13357Y25017D01*
G01X13455Y25088D01*
G01X13546Y25167D01*
G01X13628Y25256D01*
G01X13700Y25352D01*
G01X13763Y25455D01*
G01X13816Y25563D01*
G01X13857Y25677D01*
G01X13887Y25793D01*
G01X13905Y25913D01*
G01X13911Y26033D01*
G01X13905Y26153D01*
G01X13887Y26272D01*
G01X13857Y26389D01*
G01X13816Y26503D01*
G01X13763Y26611D01*
G01X13700Y26714D01*
G01X13628Y26810D01*
G01X13546Y26898D01*
G01X13455Y26978D01*
G01X13357Y27049D01*
G01X13253Y27109D01*
G01X13143Y27158D01*
G01X13029Y27197D01*
G01X12911Y27224D01*
G01X12792Y27239D01*
G01X12671Y27242D01*
G01X12551Y27233D01*
G01X12432Y27212D01*
G01X12316Y27179D01*
G01X12204Y27135D01*
G01X12097Y27080D01*
G01X11996Y27015D01*
G01X11902Y26939D01*
G01X11815Y26855D01*
G01X11738Y26763D01*
G01X11670Y26663D01*
G01X11612Y26558D01*
G01X11565Y26446D01*
G01X11530Y26331D01*
G01X11506Y26213D01*
G01X11494Y26093D01*
G01X11494Y25973D01*
G01X11506Y25853D01*
G01X11530Y25735D01*
G01X11565Y25619D01*
G01X11612Y25508D01*
G01X11670Y25402D01*
G01X11738Y25303D01*
G01X11815Y25211D01*
G01X11902Y25126D01*
G01X11996Y25051D01*
G01X12097Y24986D01*
G01X12204Y24931D01*
G01X12316Y24887D01*
G01X12432Y24854D01*
G01X12551Y24833D01*
G37*
G36*
G01X7469Y24835D02*
G01X7589Y24826D01*
G01X7710Y24829D01*
G01X7829Y24844D01*
G01X7947Y24871D01*
G01X8061Y24909D01*
G01X8171Y24959D01*
G01X8275Y25019D01*
G01X8373Y25089D01*
G01X8464Y25169D01*
G01X8546Y25257D01*
G01X8618Y25353D01*
G01X8681Y25456D01*
G01X8734Y25565D01*
G01X8775Y25678D01*
G01X8805Y25795D01*
G01X8823Y25914D01*
G01X8829Y26034D01*
G01X8823Y26155D01*
G01X8805Y26274D01*
G01X8775Y26391D01*
G01X8734Y26504D01*
G01X8681Y26613D01*
G01X8618Y26716D01*
G01X8546Y26812D01*
G01X8464Y26900D01*
G01X8373Y26980D01*
G01X8275Y27050D01*
G01X8171Y27110D01*
G01X8061Y27160D01*
G01X7947Y27198D01*
G01X7829Y27225D01*
G01X7710Y27240D01*
G01X7589Y27243D01*
G01X7469Y27234D01*
G01X7350Y27213D01*
G01X7234Y27181D01*
G01X7122Y27137D01*
G01X7015Y27082D01*
G01X6914Y27016D01*
G01X6820Y26941D01*
G01X6733Y26857D01*
G01X6656Y26764D01*
G01X6588Y26665D01*
G01X6530Y26559D01*
G01X6483Y26448D01*
G01X6448Y26333D01*
G01X6424Y26215D01*
G01X6412Y26095D01*
G01X6412Y25974D01*
G01X6424Y25854D01*
G01X6448Y25736D01*
G01X6483Y25621D01*
G01X6530Y25510D01*
G01X6588Y25404D01*
G01X6656Y25304D01*
G01X6733Y25212D01*
G01X6820Y25128D01*
G01X6914Y25053D01*
G01X7015Y24987D01*
G01X7122Y24932D01*
G01X7234Y24888D01*
G01X7350Y24856D01*
G01X7469Y24835D01*
G37*

%LPD*%
G36*
G01X24129Y13970D02*
G01X22608Y13969D01*
G01X22608Y13972D01*
G01X22608Y13991D01*
G01X22606Y14010D01*
G01X22605Y14014D01*
G01X22605Y18371D01*
G01X22606Y18380D01*
G01X22608Y18399D01*
G01X22608Y18419D01*
G01X22607Y18514D01*
G01X22607Y18522D01*
G01X22604Y18617D01*
G01X22603Y18625D01*
G01X22598Y18720D01*
G01X22598Y18728D01*
G01X22591Y18823D01*
G01X22590Y18831D01*
G01X22581Y18926D01*
G01X22580Y18934D01*
G01X22569Y19028D01*
G01X22568Y19036D01*
G01X22555Y19130D01*
G01X22553Y19139D01*
G01X22538Y19232D01*
G01X22537Y19240D01*
G01X22520Y19334D01*
G01X22518Y19342D01*
G01X22499Y19435D01*
G01X22497Y19443D01*
G01X22476Y19536D01*
G01X22474Y19544D01*
G01X22451Y19636D01*
G01X22449Y19644D01*
G01X22424Y19735D01*
G01X22422Y19743D01*
G01X22394Y19834D01*
G01X22392Y19842D01*
G01X22363Y19933D01*
G01X22360Y19940D01*
G01X22330Y20030D01*
G01X22327Y20038D01*
G01X22294Y20127D01*
G01X22291Y20135D01*
G01X22256Y20223D01*
G01X22253Y20231D01*
G01X22217Y20319D01*
G01X22213Y20326D01*
G01X22175Y20413D01*
G01X22172Y20421D01*
G01X22131Y20507D01*
G01X22128Y20514D01*
G01X22085Y20599D01*
G01X22082Y20606D01*
G01X22038Y20691D01*
G01X22034Y20698D01*
G01X21988Y20781D01*
G01X21984Y20788D01*
G01X21937Y20871D01*
G01X21932Y20878D01*
G01X21883Y20959D01*
G01X21879Y20966D01*
G01X21828Y21046D01*
G01X21823Y21053D01*
G01X21771Y21132D01*
G01X21766Y21139D01*
G01X21712Y21217D01*
G01X21707Y21223D01*
G01X21651Y21300D01*
G01X21646Y21307D01*
G01X21588Y21382D01*
G01X21583Y21389D01*
G01X21524Y21463D01*
G01X21519Y21469D01*
G01X21458Y21542D01*
G01X21453Y21549D01*
G01X21390Y21620D01*
G01X21385Y21626D01*
G01X21321Y21697D01*
G01X21315Y21703D01*
G01X21250Y21772D01*
G01X21244Y21778D01*
G01X21177Y21845D01*
G01X21171Y21851D01*
G01X21103Y21917D01*
G01X21097Y21923D01*
G01X21027Y21987D01*
G01X21021Y21993D01*
G01X20950Y22056D01*
G01X20944Y22061D01*
G01X20872Y22123D01*
G01X20865Y22128D01*
G01X20792Y22188D01*
G01X20785Y22193D01*
G01X20710Y22252D01*
G01X20704Y22257D01*
G01X20628Y22313D01*
G01X20621Y22318D01*
G01X20544Y22373D01*
G01X20537Y22378D01*
G01X20458Y22432D01*
G01X20452Y22436D01*
G01X20372Y22488D01*
G01X20365Y22492D01*
G01X20284Y22542D01*
G01X20277Y22547D01*
G01X20195Y22595D01*
G01X20188Y22599D01*
G01X20106Y22646D01*
G01X20098Y22650D01*
G01X20014Y22695D01*
G01X20007Y22698D01*
G01X19923Y22741D01*
G01X19915Y22745D01*
G01X19830Y22786D01*
G01X19822Y22790D01*
G01X19736Y22829D01*
G01X19728Y22832D01*
G01X19641Y22870D01*
G01X19633Y22873D01*
G01X19545Y22909D01*
G01X19537Y22912D01*
G01X19449Y22945D01*
G01X19441Y22948D01*
G01X19351Y22980D01*
G01X19344Y22983D01*
G01X19253Y23013D01*
G01X19246Y23015D01*
G01X19155Y23043D01*
G01X19147Y23045D01*
G01X19055Y23071D01*
G01X19048Y23073D01*
G01X18956Y23098D01*
G01X18948Y23100D01*
G01X18855Y23122D01*
G01X18847Y23123D01*
G01X18754Y23144D01*
G01X18746Y23145D01*
G01X18653Y23163D01*
G01X18645Y23165D01*
G01X18551Y23181D01*
G01X18543Y23182D01*
G01X18449Y23196D01*
G01X18441Y23197D01*
G01X18347Y23210D01*
G01X18339Y23210D01*
G01X18244Y23221D01*
G01X18236Y23221D01*
G01X18141Y23229D01*
G01X18133Y23230D01*
G01X18038Y23236D01*
G01X18030Y23236D01*
G01X17935Y23240D01*
G01X17927Y23241D01*
G01X17832Y23243D01*
G01X17826Y23243D01*
G01X17781Y23243D01*
G01X17762Y23243D01*
G01X17743Y23241D01*
G01X17736Y23240D01*
G01X17692Y23240D01*
G01X17247Y23616D01*
G01X17247Y23616D01*
G01X17168Y23686D01*
G01X17083Y23747D01*
G01X16992Y23800D01*
G01X16896Y23843D01*
G01X16796Y23877D01*
G01X16693Y23900D01*
G01X16588Y23913D01*
G01X16483Y23916D01*
G01X16378Y23908D01*
G01X16274Y23890D01*
G01X16173Y23861D01*
G01X16075Y23823D01*
G01X15981Y23775D01*
G01X15893Y23717D01*
G01X15810Y23652D01*
G01X15735Y23578D01*
G01X15667Y23497D01*
G01X15608Y23410D01*
G01X15558Y23318D01*
G01X15517Y23221D01*
G01X15486Y23120D01*
G01X15465Y23017D01*
G01X15454Y22912D01*
G01X15454Y22807D01*
G01X15465Y22702D01*
G01X15486Y22599D01*
G01X15517Y22498D01*
G01X15558Y22401D01*
G01X15608Y22308D01*
G01X15667Y22221D01*
G01X15735Y22141D01*
G01X15810Y22067D01*
G01X15893Y22002D01*
G01X15981Y21944D01*
G01X16075Y21896D01*
G01X16173Y21858D01*
G01X16274Y21829D01*
G01X16378Y21811D01*
G01X16483Y21803D01*
G01X16509Y21804D01*
G01X16509Y21375D01*
G01X16483Y21376D01*
G01X16378Y21368D01*
G01X16274Y21350D01*
G01X16173Y21321D01*
G01X16075Y21283D01*
G01X15981Y21235D01*
G01X15893Y21177D01*
G01X15810Y21112D01*
G01X15785Y21087D01*
G01X15327Y20700D01*
G01X13969Y20700D01*
G01X13969Y22396D01*
G01X14036Y22455D01*
G01X14042Y22461D01*
G01X14112Y22526D01*
G01X14118Y22531D01*
G01X14186Y22597D01*
G01X14192Y22603D01*
G01X14259Y22671D01*
G01X14265Y22677D01*
G01X14330Y22746D01*
G01X14336Y22752D01*
G01X14400Y22822D01*
G01X14405Y22828D01*
G01X14468Y22900D01*
G01X14473Y22906D01*
G01X14534Y22979D01*
G01X14539Y22985D01*
G01X14598Y23060D01*
G01X14603Y23066D01*
G01X14661Y23142D01*
G01X14666Y23148D01*
G01X14722Y23225D01*
G01X14727Y23232D01*
G01X14781Y23310D01*
G01X14786Y23316D01*
G01X14838Y23395D01*
G01X14843Y23402D01*
G01X14894Y23483D01*
G01X14898Y23489D01*
G01X14947Y23571D01*
G01X14952Y23578D01*
G01X14999Y23660D01*
G01X15003Y23667D01*
G01X15049Y23751D01*
G01X15053Y23758D01*
G01X15097Y23842D01*
G01X15101Y23849D01*
G01X15143Y23935D01*
G01X15146Y23942D01*
G01X15187Y24028D01*
G01X15190Y24036D01*
G01X15228Y24122D01*
G01X15232Y24130D01*
G01X15268Y24218D01*
G01X15271Y24225D01*
G01X15306Y24314D01*
G01X15309Y24321D01*
G01X15342Y24411D01*
G01X15345Y24418D01*
G01X15376Y24508D01*
G01X15378Y24516D01*
G01X15407Y24606D01*
G01X15410Y24614D01*
G01X15437Y24705D01*
G01X15439Y24713D01*
G01X15464Y24805D01*
G01X15466Y24813D01*
G01X15475Y24850D01*
G01X15567Y24871D01*
G01X15681Y24909D01*
G01X15791Y24959D01*
G01X15895Y25019D01*
G01X15993Y25089D01*
G01X16084Y25169D01*
G01X16166Y25257D01*
G01X16238Y25353D01*
G01X16301Y25456D01*
G01X16354Y25565D01*
G01X16395Y25678D01*
G01X16425Y25795D01*
G01X16443Y25914D01*
G01X16449Y26034D01*
G01X16443Y26155D01*
G01X16425Y26274D01*
G01X16395Y26391D01*
G01X16354Y26504D01*
G01X16301Y26613D01*
G01X16238Y26716D01*
G01X16166Y26812D01*
G01X16084Y26900D01*
G01X15993Y26980D01*
G01X15895Y27050D01*
G01X15791Y27110D01*
G01X15681Y27160D01*
G01X15567Y27198D01*
G01X15449Y27225D01*
G01X15330Y27240D01*
G01X15209Y27243D01*
G01X15089Y27234D01*
G01X14970Y27213D01*
G01X14854Y27181D01*
G01X14742Y27137D01*
G01X14635Y27082D01*
G01X14534Y27016D01*
G01X14440Y26941D01*
G01X14353Y26857D01*
G01X14276Y26764D01*
G01X14208Y26665D01*
G01X14150Y26559D01*
G01X14103Y26448D01*
G01X14068Y26333D01*
G01X14044Y26215D01*
G01X14032Y26095D01*
G01X14032Y25974D01*
G01X14044Y25854D01*
G01X14068Y25736D01*
G01X14103Y25621D01*
G01X14150Y25510D01*
G01X14208Y25404D01*
G01X14276Y25304D01*
G01X14353Y25212D01*
G01X14440Y25128D01*
G01X14534Y25053D01*
G01X14635Y24987D01*
G01X14708Y24950D01*
G01X14700Y24920D01*
G01X14676Y24837D01*
G01X14649Y24753D01*
G01X14621Y24672D01*
G01X14591Y24590D01*
G01X14559Y24510D01*
G01X14525Y24429D01*
G01X14491Y24351D01*
G01X14453Y24270D01*
G01X14415Y24194D01*
G01X14375Y24116D01*
G01X14333Y24040D01*
G01X14290Y23966D01*
G01X14244Y23890D01*
G01X14198Y23818D01*
G01X14149Y23745D01*
G01X14100Y23675D01*
G01X14048Y23603D01*
G01X13996Y23535D01*
G01X13969Y23502D01*
G01X13969Y27939D01*
G01X38099Y27939D01*
G01X38099Y13970D01*
G01X33413Y13970D01*
G01X33385Y14014D01*
G01X33313Y14110D01*
G01X33231Y14198D01*
G01X33140Y14278D01*
G01X33042Y14349D01*
G01X32938Y14409D01*
G01X32828Y14458D01*
G01X32714Y14497D01*
G01X32596Y14524D01*
G01X32477Y14539D01*
G01X32356Y14542D01*
G01X32236Y14533D01*
G01X32117Y14512D01*
G01X32001Y14479D01*
G01X31889Y14435D01*
G01X31782Y14380D01*
G01X31681Y14315D01*
G01X31587Y14239D01*
G01X31500Y14155D01*
G01X31423Y14063D01*
G01X31359Y13970D01*
G01X30873Y13970D01*
G01X30845Y14014D01*
G01X30773Y14110D01*
G01X30691Y14198D01*
G01X30600Y14278D01*
G01X30502Y14349D01*
G01X30398Y14409D01*
G01X30288Y14458D01*
G01X30174Y14497D01*
G01X30056Y14524D01*
G01X29937Y14539D01*
G01X29816Y14542D01*
G01X29696Y14533D01*
G01X29577Y14512D01*
G01X29461Y14479D01*
G01X29349Y14435D01*
G01X29242Y14380D01*
G01X29141Y14315D01*
G01X29047Y14239D01*
G01X28960Y14155D01*
G01X28883Y14063D01*
G01X28819Y13970D01*
G01X28235Y13970D01*
G01X28244Y13999D01*
G01X28247Y14011D01*
G01X28262Y14071D01*
G01X28265Y14083D01*
G01X28279Y14144D01*
G01X28281Y14156D01*
G01X28292Y14218D01*
G01X28294Y14230D01*
G01X28304Y14291D01*
G01X28305Y14304D01*
G01X28313Y14366D01*
G01X28314Y14378D01*
G01X28319Y14440D01*
G01X28320Y14452D01*
G01X28323Y14515D01*
G01X28324Y14527D01*
G01X28325Y14589D01*
G01X28325Y14597D01*
G01X28325Y14603D01*
G01X28325Y14622D01*
G01X28323Y14641D01*
G01X28321Y14660D01*
G01X28320Y14662D01*
G01X28320Y15239D01*
G01X28320Y15257D01*
G01X28320Y15262D01*
G01X28322Y15276D01*
G01X28325Y15291D01*
G01X28329Y15305D01*
G01X28333Y15318D01*
G01X28338Y15332D01*
G01X28344Y15345D01*
G01X28350Y15358D01*
G01X28357Y15370D01*
G01X28366Y15382D01*
G01X28374Y15394D01*
G01X28383Y15405D01*
G01X28393Y15415D01*
G01X28404Y15425D01*
G01X28414Y15434D01*
G01X28426Y15443D01*
G01X28438Y15451D01*
G01X28450Y15459D01*
G01X28463Y15465D01*
G01X28476Y15471D01*
G01X28489Y15476D01*
G01X28504Y15481D01*
G01X28518Y15484D01*
G01X28531Y15487D01*
G01X28546Y15489D01*
G01X28560Y15490D01*
G01X28584Y15491D01*
G01X28633Y15492D01*
G01X28648Y15493D01*
G01X28699Y15496D01*
G01X28714Y15497D01*
G01X28765Y15502D01*
G01X28780Y15504D01*
G01X28830Y15511D01*
G01X28845Y15513D01*
G01X28895Y15522D01*
G01X28910Y15526D01*
G01X28960Y15537D01*
G01X28975Y15540D01*
G01X29024Y15553D01*
G01X29039Y15558D01*
G01X29087Y15573D01*
G01X29102Y15577D01*
G01X29149Y15594D01*
G01X29164Y15600D01*
G01X29211Y15619D01*
G01X29225Y15625D01*
G01X29271Y15645D01*
G01X29285Y15652D01*
G01X29331Y15674D01*
G01X29344Y15681D01*
G01X29389Y15706D01*
G01X29402Y15713D01*
G01X29446Y15740D01*
G01X29459Y15748D01*
G01X29501Y15775D01*
G01X29514Y15784D01*
G01X29555Y15814D01*
G01X29568Y15823D01*
G01X29608Y15854D01*
G01X29619Y15864D01*
G01X29658Y15896D01*
G01X29670Y15907D01*
G01X29707Y15941D01*
G01X29718Y15951D01*
G01X29754Y15987D01*
G01X29765Y15998D01*
G01X29800Y16035D01*
G01X29810Y16047D01*
G01X29843Y16085D01*
G01X29853Y16097D01*
G01X29884Y16137D01*
G01X29894Y16149D01*
G01X29923Y16190D01*
G01X29932Y16202D01*
G01X29960Y16245D01*
G01X29969Y16258D01*
G01X29995Y16301D01*
G01X30003Y16314D01*
G01X30028Y16359D01*
G01X30035Y16372D01*
G01X30058Y16417D01*
G01X30065Y16431D01*
G01X30086Y16477D01*
G01X30092Y16491D01*
G01X30111Y16538D01*
G01X30117Y16553D01*
G01X30134Y16600D01*
G01X30139Y16615D01*
G01X30155Y16663D01*
G01X30159Y16678D01*
G01X30173Y16727D01*
G01X30176Y16742D01*
G01X30188Y16791D01*
G01X30191Y16806D01*
G01X30201Y16856D01*
G01X30203Y16871D01*
G01X30211Y16921D01*
G01X30213Y16936D01*
G01X30218Y16987D01*
G01X30220Y17002D01*
G01X30223Y17053D01*
G01X30224Y17068D01*
G01X30226Y17119D01*
G01X30226Y17129D01*
G01X30226Y17141D01*
G01X30225Y17159D01*
G01X30225Y22100D01*
G01X30712Y22651D01*
G01X30773Y22716D01*
G01X30845Y22812D01*
G01X30908Y22915D01*
G01X30961Y23023D01*
G01X31002Y23137D01*
G01X31032Y23253D01*
G01X31050Y23373D01*
G01X31056Y23493D01*
G01X31050Y23613D01*
G01X31032Y23732D01*
G01X31002Y23849D01*
G01X30961Y23963D01*
G01X30908Y24071D01*
G01X30845Y24174D01*
G01X30773Y24270D01*
G01X30691Y24358D01*
G01X30600Y24438D01*
G01X30502Y24509D01*
G01X30398Y24569D01*
G01X30288Y24618D01*
G01X30174Y24657D01*
G01X30056Y24684D01*
G01X29937Y24699D01*
G01X29816Y24702D01*
G01X29696Y24693D01*
G01X29577Y24672D01*
G01X29461Y24639D01*
G01X29349Y24595D01*
G01X29242Y24540D01*
G01X29141Y24475D01*
G01X29047Y24399D01*
G01X28960Y24315D01*
G01X28883Y24223D01*
G01X28815Y24123D01*
G01X28757Y24018D01*
G01X28710Y23906D01*
G01X28675Y23791D01*
G01X28651Y23673D01*
G01X28639Y23553D01*
G01X28639Y23433D01*
G01X28651Y23313D01*
G01X28675Y23195D01*
G01X28710Y23079D01*
G01X28757Y22968D01*
G01X28815Y22862D01*
G01X28883Y22763D01*
G01X28960Y22671D01*
G01X28979Y22652D01*
G01X29463Y22101D01*
G01X29463Y17202D01*
G01X29463Y17201D01*
G01X29461Y17182D01*
G01X29459Y17163D01*
G01X29459Y17144D01*
G01X29459Y17136D01*
G01X29458Y17098D01*
G01X29455Y17063D01*
G01X29451Y17028D01*
G01X29446Y16993D01*
G01X29439Y16958D01*
G01X29431Y16924D01*
G01X29422Y16890D01*
G01X29411Y16856D01*
G01X29399Y16823D01*
G01X29385Y16790D01*
G01X29371Y16757D01*
G01X29355Y16727D01*
G01X29338Y16696D01*
G01X29319Y16665D01*
G01X29299Y16636D01*
G01X29278Y16607D01*
G01X29257Y16580D01*
G01X29233Y16553D01*
G01X29209Y16527D01*
G01X29184Y16502D01*
G01X29158Y16478D01*
G01X29131Y16455D01*
G01X29103Y16433D01*
G01X29074Y16413D01*
G01X29044Y16393D01*
G01X29014Y16375D01*
G01X28983Y16358D01*
G01X28951Y16342D01*
G01X28919Y16328D01*
G01X28886Y16315D01*
G01X28853Y16303D01*
G01X28819Y16293D01*
G01X28785Y16284D01*
G01X28750Y16276D01*
G01X28716Y16269D01*
G01X28680Y16264D01*
G01X28645Y16261D01*
G01X28610Y16259D01*
G01X28567Y16258D01*
G01X28565Y16258D01*
G01X28564Y16258D01*
G01X28528Y16257D01*
G01X28506Y16256D01*
G01X28470Y16253D01*
G01X28449Y16250D01*
G01X28413Y16245D01*
G01X28392Y16241D01*
G01X28356Y16234D01*
G01X28335Y16230D01*
G01X28300Y16221D01*
G01X28280Y16215D01*
G01X28245Y16204D01*
G01X28225Y16196D01*
G01X28191Y16183D01*
G01X28171Y16175D01*
G01X28138Y16160D01*
G01X28119Y16151D01*
G01X28087Y16134D01*
G01X28068Y16124D01*
G01X28037Y16105D01*
G01X28019Y16094D01*
G01X27989Y16074D01*
G01X27971Y16061D01*
G01X27943Y16039D01*
G01X27926Y16026D01*
G01X27898Y16003D01*
G01X27882Y15988D01*
G01X27856Y15963D01*
G01X27841Y15948D01*
G01X27816Y15922D01*
G01X27802Y15905D01*
G01X27779Y15878D01*
G01X27766Y15861D01*
G01X27744Y15832D01*
G01X27732Y15814D01*
G01X27712Y15784D01*
G01X27700Y15766D01*
G01X27682Y15735D01*
G01X27672Y15716D01*
G01X27656Y15684D01*
G01X27646Y15664D01*
G01X27632Y15631D01*
G01X27623Y15611D01*
G01X27611Y15577D01*
G01X27604Y15557D01*
G01X27593Y15523D01*
G01X27587Y15502D01*
G01X27578Y15467D01*
G01X27574Y15446D01*
G01X27567Y15410D01*
G01X27564Y15389D01*
G01X27559Y15353D01*
G01X27556Y15332D01*
G01X27554Y15296D01*
G01X27553Y15276D01*
G01X27552Y15245D01*
G01X27552Y15226D01*
G01X27553Y15207D01*
G01X27555Y15188D01*
G01X27558Y15169D01*
G01X27558Y15165D01*
G01X27558Y14622D01*
G01X27558Y14622D01*
G01X27558Y14603D01*
G01X27558Y14600D01*
G01X27557Y14548D01*
G01X27554Y14499D01*
G01X27550Y14450D01*
G01X27544Y14399D01*
G01X27537Y14351D01*
G01X27528Y14302D01*
G01X27517Y14253D01*
G01X27505Y14205D01*
G01X27491Y14158D01*
G01X27476Y14110D01*
G01X27459Y14063D01*
G01X27441Y14018D01*
G01X27421Y13971D01*
G01X27420Y13970D01*
G01X24129Y13970D01*
G37*

%LPC*%
G36*
G01X23319Y14186D02*
G01X23329Y14185D01*
G01X24930Y14185D01*
G01X24940Y14186D01*
G01X24951Y14186D01*
G01X24961Y14187D01*
G01X24971Y14189D01*
G01X24982Y14191D01*
G01X24992Y14193D01*
G01X25002Y14196D01*
G01X25012Y14199D01*
G01X25022Y14203D01*
G01X25032Y14207D01*
G01X25041Y14211D01*
G01X25050Y14216D01*
G01X25060Y14221D01*
G01X25068Y14227D01*
G01X25077Y14233D01*
G01X25086Y14239D01*
G01X25094Y14246D01*
G01X25102Y14253D01*
G01X25109Y14260D01*
G01X25116Y14267D01*
G01X25123Y14275D01*
G01X25130Y14283D01*
G01X25136Y14292D01*
G01X25142Y14300D01*
G01X25148Y14309D01*
G01X25153Y14318D01*
G01X25158Y14328D01*
G01X25162Y14337D01*
G01X25166Y14347D01*
G01X25170Y14357D01*
G01X25173Y14367D01*
G01X25176Y14377D01*
G01X25178Y14387D01*
G01X25180Y14398D01*
G01X25182Y14408D01*
G01X25183Y14418D01*
G01X25183Y14429D01*
G01X25184Y14439D01*
G01X25184Y16040D01*
G01X25183Y16050D01*
G01X25183Y16061D01*
G01X25182Y16071D01*
G01X25180Y16081D01*
G01X25178Y16092D01*
G01X25176Y16102D01*
G01X25173Y16112D01*
G01X25170Y16122D01*
G01X25166Y16132D01*
G01X25162Y16142D01*
G01X25158Y16151D01*
G01X25153Y16160D01*
G01X25148Y16170D01*
G01X25142Y16178D01*
G01X25136Y16187D01*
G01X25130Y16196D01*
G01X25123Y16204D01*
G01X25116Y16212D01*
G01X25109Y16219D01*
G01X25102Y16226D01*
G01X25094Y16233D01*
G01X25086Y16240D01*
G01X25077Y16246D01*
G01X25068Y16252D01*
G01X25060Y16258D01*
G01X25050Y16263D01*
G01X25041Y16268D01*
G01X25032Y16272D01*
G01X25022Y16276D01*
G01X25012Y16280D01*
G01X25002Y16283D01*
G01X24992Y16286D01*
G01X24982Y16288D01*
G01X24971Y16290D01*
G01X24961Y16292D01*
G01X24951Y16293D01*
G01X24940Y16293D01*
G01X24930Y16294D01*
G01X23329Y16294D01*
G01X23319Y16293D01*
G01X23308Y16293D01*
G01X23298Y16292D01*
G01X23288Y16290D01*
G01X23277Y16288D01*
G01X23267Y16286D01*
G01X23257Y16283D01*
G01X23247Y16280D01*
G01X23237Y16276D01*
G01X23227Y16272D01*
G01X23218Y16268D01*
G01X23208Y16263D01*
G01X23199Y16258D01*
G01X23190Y16252D01*
G01X23182Y16246D01*
G01X23173Y16240D01*
G01X23165Y16233D01*
G01X23157Y16226D01*
G01X23150Y16219D01*
G01X23142Y16212D01*
G01X23136Y16204D01*
G01X23129Y16196D01*
G01X23123Y16187D01*
G01X23117Y16178D01*
G01X23111Y16170D01*
G01X23106Y16160D01*
G01X23101Y16151D01*
G01X23097Y16142D01*
G01X23093Y16132D01*
G01X23089Y16122D01*
G01X23086Y16112D01*
G01X23083Y16102D01*
G01X23081Y16092D01*
G01X23079Y16081D01*
G01X23077Y16071D01*
G01X23076Y16061D01*
G01X23076Y16050D01*
G01X23075Y16040D01*
G01X23075Y14439D01*
G01X23076Y14429D01*
G01X23076Y14418D01*
G01X23077Y14408D01*
G01X23079Y14398D01*
G01X23081Y14387D01*
G01X23083Y14377D01*
G01X23086Y14367D01*
G01X23089Y14357D01*
G01X23093Y14347D01*
G01X23097Y14337D01*
G01X23101Y14328D01*
G01X23106Y14318D01*
G01X23111Y14309D01*
G01X23117Y14300D01*
G01X23123Y14292D01*
G01X23129Y14283D01*
G01X23136Y14275D01*
G01X23142Y14267D01*
G01X23150Y14260D01*
G01X23157Y14253D01*
G01X23165Y14246D01*
G01X23173Y14239D01*
G01X23182Y14233D01*
G01X23190Y14227D01*
G01X23199Y14221D01*
G01X23208Y14216D01*
G01X23218Y14211D01*
G01X23227Y14207D01*
G01X23237Y14203D01*
G01X23247Y14199D01*
G01X23257Y14196D01*
G01X23267Y14193D01*
G01X23277Y14191D01*
G01X23288Y14189D01*
G01X23298Y14187D01*
G01X23308Y14186D01*
G01X23319Y14186D01*
G37*
G36*
G01X36586Y16117D02*
G01X36586Y15470D01*
G01X36980Y15470D01*
G01X36990Y15470D01*
G01X37001Y15470D01*
G01X37011Y15472D01*
G01X37022Y15473D01*
G01X37032Y15475D01*
G01X37042Y15477D01*
G01X37052Y15480D01*
G01X37062Y15483D01*
G01X37072Y15487D01*
G01X37082Y15491D01*
G01X37091Y15495D01*
G01X37101Y15500D01*
G01X37110Y15505D01*
G01X37119Y15511D01*
G01X37127Y15517D01*
G01X37136Y15523D01*
G01X37144Y15530D01*
G01X37152Y15537D01*
G01X37159Y15544D01*
G01X37167Y15552D01*
G01X37174Y15559D01*
G01X37180Y15568D01*
G01X37186Y15576D01*
G01X37192Y15585D01*
G01X37198Y15594D01*
G01X37203Y15603D01*
G01X37208Y15612D01*
G01X37212Y15622D01*
G01X37216Y15631D01*
G01X37220Y15641D01*
G01X37223Y15651D01*
G01X37226Y15661D01*
G01X37228Y15671D01*
G01X37230Y15682D01*
G01X37232Y15692D01*
G01X37233Y15703D01*
G01X37234Y15713D01*
G01X37234Y15724D01*
G01X37234Y16117D01*
G01X36586Y16117D01*
G37*
G36*
G01X35395Y15470D02*
G01X35405Y15470D01*
G01X35799Y15470D01*
G01X35799Y16117D01*
G01X35151Y16117D01*
G01X35151Y15724D01*
G01X35151Y15713D01*
G01X35152Y15703D01*
G01X35153Y15692D01*
G01X35154Y15682D01*
G01X35156Y15671D01*
G01X35159Y15661D01*
G01X35162Y15651D01*
G01X35165Y15641D01*
G01X35168Y15631D01*
G01X35172Y15622D01*
G01X35177Y15612D01*
G01X35182Y15603D01*
G01X35187Y15594D01*
G01X35192Y15585D01*
G01X35198Y15576D01*
G01X35205Y15568D01*
G01X35211Y15559D01*
G01X35218Y15552D01*
G01X35225Y15544D01*
G01X35233Y15537D01*
G01X35241Y15530D01*
G01X35249Y15523D01*
G01X35257Y15517D01*
G01X35266Y15511D01*
G01X35275Y15505D01*
G01X35284Y15500D01*
G01X35293Y15495D01*
G01X35303Y15491D01*
G01X35313Y15487D01*
G01X35323Y15483D01*
G01X35333Y15480D01*
G01X35343Y15477D01*
G01X35353Y15475D01*
G01X35363Y15473D01*
G01X35374Y15472D01*
G01X35384Y15470D01*
G01X35395Y15470D01*
G37*
G36*
G01X23998Y16731D02*
G01X24103Y16723D01*
G01X24208Y16726D01*
G01X24313Y16739D01*
G01X24416Y16762D01*
G01X24516Y16796D01*
G01X24612Y16839D01*
G01X24703Y16892D01*
G01X24788Y16953D01*
G01X24867Y17023D01*
G01X24939Y17100D01*
G01X25003Y17184D01*
G01X25057Y17274D01*
G01X25103Y17369D01*
G01X25139Y17468D01*
G01X25165Y17570D01*
G01X25181Y17674D01*
G01X25186Y17779D01*
G01X25181Y17885D01*
G01X25165Y17989D01*
G01X25139Y18091D01*
G01X25103Y18190D01*
G01X25057Y18285D01*
G01X25003Y18375D01*
G01X24939Y18459D01*
G01X24867Y18536D01*
G01X24788Y18606D01*
G01X24703Y18667D01*
G01X24612Y18720D01*
G01X24516Y18763D01*
G01X24416Y18797D01*
G01X24313Y18820D01*
G01X24208Y18833D01*
G01X24103Y18836D01*
G01X23998Y18828D01*
G01X23894Y18810D01*
G01X23793Y18781D01*
G01X23695Y18743D01*
G01X23601Y18695D01*
G01X23513Y18637D01*
G01X23430Y18572D01*
G01X23355Y18498D01*
G01X23287Y18417D01*
G01X23228Y18330D01*
G01X23178Y18238D01*
G01X23137Y18141D01*
G01X23106Y18040D01*
G01X23085Y17937D01*
G01X23074Y17832D01*
G01X23074Y17727D01*
G01X23085Y17622D01*
G01X23106Y17519D01*
G01X23137Y17418D01*
G01X23178Y17321D01*
G01X23228Y17228D01*
G01X23287Y17141D01*
G01X23355Y17061D01*
G01X23430Y16987D01*
G01X23513Y16922D01*
G01X23601Y16864D01*
G01X23695Y16816D01*
G01X23793Y16778D01*
G01X23894Y16749D01*
G01X23998Y16731D01*
G37*
G36*
G01X26537Y16755D02*
G01X26645Y16747D01*
G01X26752Y16750D01*
G01X26859Y16763D01*
G01X26965Y16787D01*
G01X27067Y16822D01*
G01X27165Y16866D01*
G01X27259Y16920D01*
G01X27346Y16983D01*
G01X27427Y17054D01*
G01X27500Y17133D01*
G01X27566Y17219D01*
G01X27622Y17311D01*
G01X27669Y17408D01*
G01X27706Y17510D01*
G01X27732Y17614D01*
G01X27748Y17721D01*
G01X27754Y17829D01*
G01X27748Y17936D01*
G01X27732Y18043D01*
G01X27706Y18148D01*
G01X27669Y18249D01*
G01X27622Y18346D01*
G01X27566Y18438D01*
G01X27500Y18524D01*
G01X27427Y18603D01*
G01X27346Y18675D01*
G01X27259Y18738D01*
G01X27165Y18792D01*
G01X27067Y18836D01*
G01X26965Y18870D01*
G01X26859Y18894D01*
G01X26752Y18908D01*
G01X26645Y18910D01*
G01X26537Y18902D01*
G01X26431Y18884D01*
G01X26327Y18854D01*
G01X26227Y18815D01*
G01X26131Y18766D01*
G01X26040Y18707D01*
G01X25956Y18640D01*
G01X25878Y18565D01*
G01X25809Y18482D01*
G01X25748Y18393D01*
G01X25697Y18298D01*
G01X25655Y18199D01*
G01X25623Y18096D01*
G01X25602Y17990D01*
G01X25591Y17883D01*
G01X25591Y17775D01*
G01X25602Y17667D01*
G01X25623Y17562D01*
G01X25655Y17459D01*
G01X25697Y17359D01*
G01X25748Y17265D01*
G01X25809Y17175D01*
G01X25878Y17093D01*
G01X25956Y17017D01*
G01X26040Y16950D01*
G01X26131Y16892D01*
G01X26227Y16842D01*
G01X26327Y16803D01*
G01X26431Y16774D01*
G01X26537Y16755D01*
G37*
G36*
G01X36586Y17552D02*
G01X36586Y16905D01*
G01X37234Y16905D01*
G01X37234Y17298D01*
G01X37234Y17309D01*
G01X37233Y17319D01*
G01X37232Y17330D01*
G01X37230Y17340D01*
G01X37228Y17350D01*
G01X37226Y17361D01*
G01X37223Y17371D01*
G01X37220Y17381D01*
G01X37216Y17391D01*
G01X37212Y17400D01*
G01X37208Y17410D01*
G01X37203Y17419D01*
G01X37198Y17428D01*
G01X37192Y17437D01*
G01X37186Y17446D01*
G01X37180Y17454D01*
G01X37174Y17463D01*
G01X37167Y17470D01*
G01X37159Y17478D01*
G01X37152Y17485D01*
G01X37144Y17492D01*
G01X37136Y17499D01*
G01X37127Y17505D01*
G01X37119Y17511D01*
G01X37110Y17517D01*
G01X37101Y17522D01*
G01X37091Y17527D01*
G01X37082Y17531D01*
G01X37072Y17535D01*
G01X37062Y17539D01*
G01X37052Y17542D01*
G01X37042Y17545D01*
G01X37032Y17547D01*
G01X37022Y17549D01*
G01X37011Y17550D01*
G01X37001Y17552D01*
G01X36990Y17552D01*
G01X36980Y17552D01*
G01X36586Y17552D01*
G37*
G36*
G01X35151Y17298D02*
G01X35151Y16905D01*
G01X35799Y16905D01*
G01X35799Y17552D01*
G01X35405Y17552D01*
G01X35395Y17552D01*
G01X35384Y17552D01*
G01X35374Y17550D01*
G01X35363Y17549D01*
G01X35353Y17547D01*
G01X35343Y17545D01*
G01X35333Y17542D01*
G01X35323Y17539D01*
G01X35313Y17535D01*
G01X35303Y17531D01*
G01X35293Y17527D01*
G01X35284Y17522D01*
G01X35275Y17517D01*
G01X35266Y17511D01*
G01X35257Y17505D01*
G01X35249Y17499D01*
G01X35241Y17492D01*
G01X35233Y17485D01*
G01X35225Y17478D01*
G01X35218Y17470D01*
G01X35211Y17463D01*
G01X35205Y17454D01*
G01X35198Y17446D01*
G01X35192Y17437D01*
G01X35187Y17428D01*
G01X35182Y17419D01*
G01X35177Y17410D01*
G01X35172Y17400D01*
G01X35168Y17391D01*
G01X35165Y17381D01*
G01X35162Y17371D01*
G01X35159Y17361D01*
G01X35156Y17350D01*
G01X35154Y17340D01*
G01X35153Y17330D01*
G01X35152Y17319D01*
G01X35151Y17309D01*
G01X35151Y17298D01*
G37*
G36*
G01X35394Y18011D02*
G01X35405Y18011D01*
G01X36979Y18011D01*
G01X36990Y18011D01*
G01X37000Y18011D01*
G01X37011Y18013D01*
G01X37021Y18014D01*
G01X37031Y18016D01*
G01X37042Y18018D01*
G01X37052Y18021D01*
G01X37062Y18024D01*
G01X37072Y18028D01*
G01X37081Y18032D01*
G01X37091Y18036D01*
G01X37100Y18041D01*
G01X37109Y18046D01*
G01X37118Y18052D01*
G01X37127Y18058D01*
G01X37135Y18064D01*
G01X37144Y18071D01*
G01X37151Y18078D01*
G01X37159Y18085D01*
G01X37166Y18093D01*
G01X37173Y18100D01*
G01X37180Y18109D01*
G01X37186Y18117D01*
G01X37192Y18126D01*
G01X37198Y18135D01*
G01X37203Y18144D01*
G01X37208Y18153D01*
G01X37212Y18163D01*
G01X37216Y18172D01*
G01X37220Y18182D01*
G01X37223Y18192D01*
G01X37226Y18202D01*
G01X37228Y18212D01*
G01X37230Y18223D01*
G01X37231Y18233D01*
G01X37232Y18244D01*
G01X37233Y18254D01*
G01X37233Y18265D01*
G01X37233Y19839D01*
G01X37233Y19850D01*
G01X37232Y19860D01*
G01X37231Y19871D01*
G01X37230Y19881D01*
G01X37228Y19892D01*
G01X37226Y19902D01*
G01X37223Y19912D01*
G01X37220Y19922D01*
G01X37216Y19932D01*
G01X37212Y19941D01*
G01X37208Y19951D01*
G01X37203Y19960D01*
G01X37198Y19969D01*
G01X37192Y19978D01*
G01X37186Y19987D01*
G01X37180Y19995D01*
G01X37173Y20004D01*
G01X37166Y20011D01*
G01X37159Y20019D01*
G01X37151Y20026D01*
G01X37144Y20033D01*
G01X37135Y20040D01*
G01X37127Y20046D01*
G01X37118Y20052D01*
G01X37109Y20058D01*
G01X37100Y20063D01*
G01X37091Y20068D01*
G01X37081Y20072D01*
G01X37072Y20076D01*
G01X37062Y20080D01*
G01X37052Y20083D01*
G01X37042Y20086D01*
G01X37031Y20088D01*
G01X37021Y20090D01*
G01X37011Y20091D01*
G01X37000Y20093D01*
G01X36990Y20093D01*
G01X36979Y20093D01*
G01X35405Y20093D01*
G01X35394Y20093D01*
G01X35384Y20093D01*
G01X35373Y20091D01*
G01X35363Y20090D01*
G01X35352Y20088D01*
G01X35342Y20086D01*
G01X35332Y20083D01*
G01X35322Y20080D01*
G01X35312Y20076D01*
G01X35303Y20072D01*
G01X35293Y20068D01*
G01X35284Y20063D01*
G01X35275Y20058D01*
G01X35266Y20052D01*
G01X35257Y20046D01*
G01X35249Y20040D01*
G01X35240Y20033D01*
G01X35233Y20026D01*
G01X35225Y20019D01*
G01X35218Y20011D01*
G01X35211Y20004D01*
G01X35204Y19995D01*
G01X35198Y19987D01*
G01X35192Y19978D01*
G01X35186Y19969D01*
G01X35181Y19960D01*
G01X35176Y19951D01*
G01X35172Y19941D01*
G01X35168Y19932D01*
G01X35164Y19922D01*
G01X35161Y19912D01*
G01X35158Y19902D01*
G01X35156Y19892D01*
G01X35154Y19881D01*
G01X35153Y19871D01*
G01X35151Y19860D01*
G01X35151Y19850D01*
G01X35151Y19839D01*
G01X35151Y18265D01*
G01X35151Y18254D01*
G01X35151Y18244D01*
G01X35153Y18233D01*
G01X35154Y18223D01*
G01X35156Y18212D01*
G01X35158Y18202D01*
G01X35161Y18192D01*
G01X35164Y18182D01*
G01X35168Y18172D01*
G01X35172Y18163D01*
G01X35176Y18153D01*
G01X35181Y18144D01*
G01X35186Y18135D01*
G01X35192Y18126D01*
G01X35198Y18117D01*
G01X35204Y18109D01*
G01X35211Y18100D01*
G01X35218Y18093D01*
G01X35225Y18085D01*
G01X35233Y18078D01*
G01X35240Y18071D01*
G01X35249Y18064D01*
G01X35257Y18058D01*
G01X35266Y18052D01*
G01X35275Y18046D01*
G01X35284Y18041D01*
G01X35293Y18036D01*
G01X35303Y18032D01*
G01X35312Y18028D01*
G01X35322Y18024D01*
G01X35332Y18021D01*
G01X35342Y18018D01*
G01X35352Y18016D01*
G01X35363Y18014D01*
G01X35373Y18013D01*
G01X35384Y18011D01*
G01X35394Y18011D01*
G37*
G36*
G01X23998Y19271D02*
G01X24103Y19263D01*
G01X24208Y19266D01*
G01X24313Y19279D01*
G01X24416Y19302D01*
G01X24516Y19336D01*
G01X24612Y19379D01*
G01X24703Y19432D01*
G01X24788Y19493D01*
G01X24867Y19563D01*
G01X24939Y19640D01*
G01X25003Y19724D01*
G01X25057Y19814D01*
G01X25103Y19909D01*
G01X25139Y20008D01*
G01X25165Y20110D01*
G01X25181Y20214D01*
G01X25186Y20319D01*
G01X25181Y20425D01*
G01X25165Y20529D01*
G01X25139Y20631D01*
G01X25103Y20730D01*
G01X25057Y20825D01*
G01X25003Y20915D01*
G01X24939Y20999D01*
G01X24867Y21076D01*
G01X24788Y21146D01*
G01X24703Y21207D01*
G01X24612Y21260D01*
G01X24516Y21303D01*
G01X24416Y21337D01*
G01X24313Y21360D01*
G01X24208Y21373D01*
G01X24103Y21376D01*
G01X23998Y21368D01*
G01X23894Y21350D01*
G01X23793Y21321D01*
G01X23695Y21283D01*
G01X23601Y21235D01*
G01X23513Y21177D01*
G01X23430Y21112D01*
G01X23355Y21038D01*
G01X23287Y20957D01*
G01X23228Y20870D01*
G01X23178Y20778D01*
G01X23137Y20681D01*
G01X23106Y20580D01*
G01X23085Y20477D01*
G01X23074Y20372D01*
G01X23074Y20267D01*
G01X23085Y20162D01*
G01X23106Y20059D01*
G01X23137Y19958D01*
G01X23178Y19861D01*
G01X23228Y19768D01*
G01X23287Y19681D01*
G01X23355Y19601D01*
G01X23430Y19527D01*
G01X23513Y19462D01*
G01X23601Y19404D01*
G01X23695Y19356D01*
G01X23793Y19318D01*
G01X23894Y19289D01*
G01X23998Y19271D01*
G37*
G36*
G01X35397Y20548D02*
G01X35407Y20548D01*
G01X36982Y20548D01*
G01X36992Y20548D01*
G01X37003Y20549D01*
G01X37013Y20550D01*
G01X37024Y20552D01*
G01X37034Y20553D01*
G01X37044Y20556D01*
G01X37054Y20559D01*
G01X37064Y20562D01*
G01X37074Y20565D01*
G01X37084Y20569D01*
G01X37093Y20574D01*
G01X37103Y20579D01*
G01X37112Y20584D01*
G01X37121Y20589D01*
G01X37129Y20595D01*
G01X37138Y20602D01*
G01X37146Y20608D01*
G01X37154Y20615D01*
G01X37162Y20622D01*
G01X37169Y20630D01*
G01X37176Y20638D01*
G01X37182Y20646D01*
G01X37189Y20654D01*
G01X37195Y20663D01*
G01X37200Y20672D01*
G01X37205Y20681D01*
G01X37210Y20690D01*
G01X37215Y20700D01*
G01X37219Y20710D01*
G01X37222Y20720D01*
G01X37225Y20730D01*
G01X37228Y20740D01*
G01X37230Y20750D01*
G01X37232Y20760D01*
G01X37234Y20771D01*
G01X37235Y20781D01*
G01X37236Y20792D01*
G01X37236Y20802D01*
G01X37236Y22377D01*
G01X37236Y22387D01*
G01X37235Y22398D01*
G01X37234Y22408D01*
G01X37232Y22419D01*
G01X37230Y22429D01*
G01X37228Y22439D01*
G01X37225Y22449D01*
G01X37222Y22459D01*
G01X37219Y22469D01*
G01X37215Y22479D01*
G01X37210Y22488D01*
G01X37205Y22498D01*
G01X37200Y22507D01*
G01X37195Y22516D01*
G01X37189Y22524D01*
G01X37182Y22533D01*
G01X37176Y22541D01*
G01X37169Y22549D01*
G01X37162Y22556D01*
G01X37154Y22564D01*
G01X37146Y22571D01*
G01X37138Y22577D01*
G01X37129Y22584D01*
G01X37121Y22589D01*
G01X37112Y22595D01*
G01X37103Y22600D01*
G01X37093Y22605D01*
G01X37084Y22609D01*
G01X37074Y22613D01*
G01X37064Y22617D01*
G01X37054Y22620D01*
G01X37044Y22623D01*
G01X37034Y22625D01*
G01X37024Y22627D01*
G01X37013Y22629D01*
G01X37003Y22630D01*
G01X36992Y22631D01*
G01X36982Y22631D01*
G01X35407Y22631D01*
G01X35397Y22631D01*
G01X35386Y22630D01*
G01X35376Y22629D01*
G01X35365Y22627D01*
G01X35355Y22625D01*
G01X35345Y22623D01*
G01X35335Y22620D01*
G01X35325Y22617D01*
G01X35315Y22613D01*
G01X35305Y22609D01*
G01X35296Y22605D01*
G01X35286Y22600D01*
G01X35277Y22595D01*
G01X35268Y22589D01*
G01X35260Y22584D01*
G01X35251Y22577D01*
G01X35243Y22571D01*
G01X35235Y22564D01*
G01X35227Y22556D01*
G01X35220Y22549D01*
G01X35213Y22541D01*
G01X35207Y22533D01*
G01X35200Y22524D01*
G01X35194Y22516D01*
G01X35189Y22507D01*
G01X35184Y22498D01*
G01X35179Y22488D01*
G01X35174Y22479D01*
G01X35170Y22469D01*
G01X35167Y22459D01*
G01X35164Y22449D01*
G01X35161Y22439D01*
G01X35159Y22429D01*
G01X35157Y22419D01*
G01X35155Y22408D01*
G01X35154Y22398D01*
G01X35153Y22387D01*
G01X35153Y22377D01*
G01X35153Y20802D01*
G01X35153Y20792D01*
G01X35154Y20781D01*
G01X35155Y20771D01*
G01X35157Y20760D01*
G01X35159Y20750D01*
G01X35161Y20740D01*
G01X35164Y20730D01*
G01X35167Y20720D01*
G01X35170Y20710D01*
G01X35174Y20700D01*
G01X35179Y20690D01*
G01X35184Y20681D01*
G01X35189Y20672D01*
G01X35194Y20663D01*
G01X35200Y20654D01*
G01X35207Y20646D01*
G01X35213Y20638D01*
G01X35220Y20630D01*
G01X35227Y20622D01*
G01X35235Y20615D01*
G01X35243Y20608D01*
G01X35251Y20602D01*
G01X35260Y20595D01*
G01X35268Y20589D01*
G01X35277Y20584D01*
G01X35286Y20579D01*
G01X35296Y20574D01*
G01X35305Y20569D01*
G01X35315Y20565D01*
G01X35325Y20562D01*
G01X35335Y20559D01*
G01X35345Y20556D01*
G01X35355Y20553D01*
G01X35365Y20552D01*
G01X35376Y20550D01*
G01X35386Y20549D01*
G01X35397Y20548D01*
G37*
G36*
G01X27084Y22394D02*
G01X27084Y21808D01*
G01X27165Y21844D01*
G01X27259Y21898D01*
G01X27346Y21961D01*
G01X27427Y22033D01*
G01X27500Y22112D01*
G01X27566Y22198D01*
G01X27622Y22290D01*
G01X27669Y22387D01*
G01X27671Y22394D01*
G01X27084Y22394D01*
G37*
G36*
G01X26227Y21821D02*
G01X26259Y21808D01*
G01X26259Y22394D01*
G01X25673Y22394D01*
G01X25697Y22338D01*
G01X25748Y22243D01*
G01X25809Y22154D01*
G01X25878Y22071D01*
G01X25956Y21996D01*
G01X26040Y21929D01*
G01X26131Y21870D01*
G01X26227Y21821D01*
G37*
G36*
G01X24530Y22459D02*
G01X24530Y21882D01*
G01X24612Y21919D01*
G01X24703Y21972D01*
G01X24788Y22033D01*
G01X24867Y22103D01*
G01X24939Y22180D01*
G01X25003Y22264D01*
G01X25057Y22354D01*
G01X25103Y22449D01*
G01X25107Y22459D01*
G01X24530Y22459D01*
G37*
G36*
G01X23695Y21896D02*
G01X23729Y21883D01*
G01X23729Y22459D01*
G01X23153Y22459D01*
G01X23178Y22401D01*
G01X23228Y22308D01*
G01X23287Y22221D01*
G01X23355Y22141D01*
G01X23430Y22067D01*
G01X23513Y22002D01*
G01X23601Y21944D01*
G01X23695Y21896D01*
G37*
G36*
G01X32236Y22293D02*
G01X32356Y22284D01*
G01X32477Y22287D01*
G01X32596Y22302D01*
G01X32714Y22329D01*
G01X32828Y22367D01*
G01X32938Y22417D01*
G01X33042Y22477D01*
G01X33140Y22548D01*
G01X33231Y22627D01*
G01X33313Y22716D01*
G01X33385Y22812D01*
G01X33448Y22915D01*
G01X33501Y23023D01*
G01X33542Y23137D01*
G01X33572Y23253D01*
G01X33590Y23373D01*
G01X33596Y23493D01*
G01X33590Y23613D01*
G01X33572Y23732D01*
G01X33542Y23849D01*
G01X33501Y23963D01*
G01X33448Y24071D01*
G01X33385Y24174D01*
G01X33313Y24270D01*
G01X33231Y24358D01*
G01X33140Y24438D01*
G01X33042Y24509D01*
G01X32938Y24569D01*
G01X32828Y24618D01*
G01X32714Y24657D01*
G01X32596Y24684D01*
G01X32477Y24699D01*
G01X32356Y24702D01*
G01X32236Y24693D01*
G01X32117Y24672D01*
G01X32001Y24639D01*
G01X31889Y24595D01*
G01X31782Y24540D01*
G01X31681Y24475D01*
G01X31587Y24399D01*
G01X31500Y24315D01*
G01X31423Y24223D01*
G01X31355Y24123D01*
G01X31297Y24018D01*
G01X31250Y23906D01*
G01X31215Y23791D01*
G01X31191Y23673D01*
G01X31179Y23553D01*
G01X31179Y23433D01*
G01X31191Y23313D01*
G01X31215Y23195D01*
G01X31250Y23079D01*
G01X31297Y22968D01*
G01X31355Y22862D01*
G01X31423Y22763D01*
G01X31500Y22671D01*
G01X31587Y22586D01*
G01X31681Y22511D01*
G01X31782Y22446D01*
G01X31889Y22391D01*
G01X32001Y22347D01*
G01X32117Y22314D01*
G01X32236Y22293D01*
G37*
G36*
G01X27084Y23807D02*
G01X27084Y23220D01*
G01X27671Y23220D01*
G01X27669Y23227D01*
G01X27622Y23325D01*
G01X27566Y23417D01*
G01X27500Y23503D01*
G01X27427Y23582D01*
G01X27346Y23653D01*
G01X27259Y23716D01*
G01X27165Y23770D01*
G01X27084Y23807D01*
G37*
G36*
G01X25697Y23277D02*
G01X25673Y23220D01*
G01X26259Y23220D01*
G01X26259Y23806D01*
G01X26227Y23793D01*
G01X26131Y23744D01*
G01X26040Y23686D01*
G01X25956Y23618D01*
G01X25878Y23543D01*
G01X25809Y23460D01*
G01X25748Y23371D01*
G01X25697Y23277D01*
G37*
G36*
G01X24530Y23837D02*
G01X24530Y23259D01*
G01X25107Y23259D01*
G01X25103Y23270D01*
G01X25057Y23365D01*
G01X25003Y23455D01*
G01X24939Y23539D01*
G01X24867Y23616D01*
G01X24788Y23686D01*
G01X24703Y23747D01*
G01X24612Y23800D01*
G01X24530Y23837D01*
G37*
G36*
G01X23178Y23318D02*
G01X23153Y23259D01*
G01X23729Y23259D01*
G01X23729Y23836D01*
G01X23695Y23823D01*
G01X23601Y23775D01*
G01X23513Y23717D01*
G01X23430Y23652D01*
G01X23355Y23578D01*
G01X23287Y23497D01*
G01X23228Y23410D01*
G01X23178Y23318D01*
G37*
G36*
G01X36036Y24772D02*
G01X36163Y24762D01*
G01X36290Y24765D01*
G01X36415Y24781D01*
G01X36539Y24809D01*
G01X36659Y24850D01*
G01X36775Y24902D01*
G01X36885Y24965D01*
G01X36988Y25040D01*
G01X37083Y25123D01*
G01X37169Y25216D01*
G01X37246Y25318D01*
G01X37312Y25426D01*
G01X37367Y25540D01*
G01X37410Y25659D01*
G01X37442Y25782D01*
G01X37461Y25908D01*
G01X37467Y26034D01*
G01X37461Y26161D01*
G01X37442Y26287D01*
G01X37410Y26410D01*
G01X37367Y26529D01*
G01X37312Y26643D01*
G01X37246Y26751D01*
G01X37169Y26852D01*
G01X37083Y26945D01*
G01X36988Y27029D01*
G01X36885Y27103D01*
G01X36775Y27167D01*
G01X36659Y27219D01*
G01X36539Y27259D01*
G01X36415Y27288D01*
G01X36290Y27303D01*
G01X36163Y27307D01*
G01X36036Y27297D01*
G01X35911Y27275D01*
G01X35789Y27241D01*
G01X35671Y27194D01*
G01X35558Y27137D01*
G01X35452Y27068D01*
G01X35352Y26989D01*
G01X35262Y26900D01*
G01X35180Y26803D01*
G01X35109Y26698D01*
G01X35048Y26587D01*
G01X34999Y26470D01*
G01X34961Y26348D01*
G01X34936Y26224D01*
G01X34924Y26098D01*
G01X34924Y25971D01*
G01X34936Y25845D01*
G01X34961Y25720D01*
G01X34999Y25599D01*
G01X35048Y25482D01*
G01X35109Y25371D01*
G01X35180Y25266D01*
G01X35262Y25169D01*
G01X35352Y25080D01*
G01X35452Y25001D01*
G01X35558Y24932D01*
G01X35671Y24875D01*
G01X35789Y24828D01*
G01X35911Y24794D01*
G01X36036Y24772D01*
G37*
G36*
G01X25249Y24835D02*
G01X25369Y24826D01*
G01X25490Y24829D01*
G01X25609Y24844D01*
G01X25727Y24871D01*
G01X25841Y24909D01*
G01X25951Y24959D01*
G01X26055Y25019D01*
G01X26153Y25089D01*
G01X26244Y25169D01*
G01X26326Y25257D01*
G01X26398Y25353D01*
G01X26452Y25441D01*
G01X26493Y25381D01*
G01X26562Y25298D01*
G01X26639Y25223D01*
G01X26724Y25156D01*
G01X26814Y25097D01*
G01X26910Y25048D01*
G01X27011Y25009D01*
G01X27115Y24980D01*
G01X27221Y24961D01*
G01X27328Y24953D01*
G01X27436Y24955D01*
G01X27543Y24969D01*
G01X27648Y24993D01*
G01X27751Y25027D01*
G01X27849Y25072D01*
G01X27942Y25126D01*
G01X28030Y25188D01*
G01X28111Y25260D01*
G01X28184Y25339D01*
G01X28249Y25425D01*
G01X28306Y25517D01*
G01X28352Y25614D01*
G01X28389Y25716D01*
G01X28416Y25820D01*
G01X28432Y25927D01*
G01X28437Y26034D01*
G01X28432Y26142D01*
G01X28416Y26249D01*
G01X28389Y26353D01*
G01X28352Y26455D01*
G01X28306Y26552D01*
G01X28249Y26644D01*
G01X28184Y26730D01*
G01X28111Y26809D01*
G01X28030Y26880D01*
G01X27942Y26943D01*
G01X27849Y26997D01*
G01X27751Y27042D01*
G01X27648Y27076D01*
G01X27543Y27100D01*
G01X27436Y27113D01*
G01X27328Y27116D01*
G01X27221Y27108D01*
G01X27115Y27089D01*
G01X27011Y27060D01*
G01X26910Y27021D01*
G01X26814Y26972D01*
G01X26724Y26913D01*
G01X26639Y26846D01*
G01X26562Y26770D01*
G01X26493Y26688D01*
G01X26452Y26628D01*
G01X26398Y26716D01*
G01X26326Y26812D01*
G01X26244Y26900D01*
G01X26153Y26980D01*
G01X26055Y27050D01*
G01X25951Y27110D01*
G01X25841Y27160D01*
G01X25727Y27198D01*
G01X25609Y27225D01*
G01X25490Y27240D01*
G01X25369Y27243D01*
G01X25249Y27234D01*
G01X25130Y27213D01*
G01X25014Y27181D01*
G01X24902Y27137D01*
G01X24795Y27082D01*
G01X24694Y27016D01*
G01X24600Y26941D01*
G01X24513Y26857D01*
G01X24436Y26764D01*
G01X24368Y26665D01*
G01X24310Y26559D01*
G01X24263Y26448D01*
G01X24228Y26333D01*
G01X24204Y26215D01*
G01X24192Y26095D01*
G01X24192Y25974D01*
G01X24204Y25854D01*
G01X24228Y25736D01*
G01X24263Y25621D01*
G01X24310Y25510D01*
G01X24368Y25404D01*
G01X24436Y25304D01*
G01X24513Y25212D01*
G01X24600Y25128D01*
G01X24694Y25053D01*
G01X24795Y24987D01*
G01X24902Y24932D01*
G01X25014Y24888D01*
G01X25130Y24856D01*
G01X25249Y24835D01*
G37*
G36*
G01X32746Y25622D02*
G01X32746Y25035D01*
G01X32827Y25072D01*
G01X32921Y25126D01*
G01X33008Y25188D01*
G01X33089Y25260D01*
G01X33163Y25339D01*
G01X33228Y25425D01*
G01X33284Y25517D01*
G01X33331Y25614D01*
G01X33334Y25622D01*
G01X32746Y25622D01*
G37*
G36*
G01X31889Y25048D02*
G01X31921Y25035D01*
G01X31921Y25622D01*
G01X31335Y25622D01*
G01X31359Y25565D01*
G01X31410Y25470D01*
G01X31471Y25381D01*
G01X31541Y25298D01*
G01X31618Y25223D01*
G01X31702Y25156D01*
G01X31793Y25097D01*
G01X31889Y25048D01*
G37*
G36*
G01X32746Y27034D02*
G01X32746Y26447D01*
G01X33334Y26447D01*
G01X33331Y26455D01*
G01X33284Y26552D01*
G01X33228Y26644D01*
G01X33163Y26730D01*
G01X33089Y26809D01*
G01X33008Y26880D01*
G01X32921Y26943D01*
G01X32827Y26997D01*
G01X32746Y27034D01*
G37*
G36*
G01X31359Y26504D02*
G01X31335Y26447D01*
G01X31921Y26447D01*
G01X31921Y27033D01*
G01X31889Y27021D01*
G01X31793Y26972D01*
G01X31702Y26913D01*
G01X31618Y26846D01*
G01X31541Y26770D01*
G01X31471Y26688D01*
G01X31410Y26599D01*
G01X31359Y26504D01*
G37*

%LPD*%
G36*
G01X16509Y13970D02*
G01X14469Y13970D01*
G01X14489Y13990D01*
G01X14538Y14041D01*
G01X14588Y14090D01*
G01X14640Y14138D01*
G01X14693Y14184D01*
G01X14748Y14230D01*
G01X14803Y14273D01*
G01X14860Y14316D01*
G01X14917Y14357D01*
G01X14976Y14397D01*
G01X15035Y14434D01*
G01X15095Y14471D01*
G01X15157Y14506D01*
G01X15219Y14540D01*
G01X15282Y14571D01*
G01X15345Y14602D01*
G01X15410Y14630D01*
G01X15476Y14657D01*
G01X15542Y14683D01*
G01X15600Y14703D01*
G01X15608Y14688D01*
G01X15667Y14601D01*
G01X15735Y14521D01*
G01X15810Y14447D01*
G01X15893Y14382D01*
G01X15981Y14324D01*
G01X16075Y14276D01*
G01X16173Y14238D01*
G01X16274Y14209D01*
G01X16378Y14191D01*
G01X16483Y14183D01*
G01X16509Y14184D01*
G01X16509Y13970D01*
G37*

%LPC*%

%LPD*%
G36*
G01X13993Y14580D02*
G01X13969Y14556D01*
G01X13969Y19938D01*
G01X15327Y19938D01*
G01X15785Y19551D01*
G01X15810Y19527D01*
G01X15893Y19462D01*
G01X15981Y19404D01*
G01X16075Y19356D01*
G01X16173Y19318D01*
G01X16274Y19289D01*
G01X16378Y19271D01*
G01X16483Y19263D01*
G01X16509Y19264D01*
G01X16509Y18835D01*
G01X16483Y18836D01*
G01X16378Y18828D01*
G01X16274Y18810D01*
G01X16173Y18781D01*
G01X16075Y18743D01*
G01X15981Y18695D01*
G01X15893Y18637D01*
G01X15810Y18572D01*
G01X15735Y18498D01*
G01X15667Y18417D01*
G01X15608Y18330D01*
G01X15558Y18238D01*
G01X15517Y18141D01*
G01X15486Y18040D01*
G01X15465Y17937D01*
G01X15454Y17832D01*
G01X15454Y17727D01*
G01X15465Y17622D01*
G01X15486Y17519D01*
G01X15517Y17418D01*
G01X15558Y17321D01*
G01X15608Y17228D01*
G01X15667Y17141D01*
G01X15735Y17061D01*
G01X15810Y16987D01*
G01X15893Y16922D01*
G01X15981Y16864D01*
G01X16075Y16816D01*
G01X16173Y16778D01*
G01X16274Y16749D01*
G01X16378Y16731D01*
G01X16483Y16723D01*
G01X16509Y16724D01*
G01X16509Y16295D01*
G01X16483Y16296D01*
G01X16378Y16288D01*
G01X16274Y16270D01*
G01X16173Y16241D01*
G01X16075Y16203D01*
G01X15981Y16155D01*
G01X15893Y16097D01*
G01X15810Y16032D01*
G01X15735Y15958D01*
G01X15667Y15877D01*
G01X15608Y15790D01*
G01X15558Y15698D01*
G01X15517Y15601D01*
G01X15486Y15500D01*
G01X15480Y15470D01*
G01X15450Y15462D01*
G01X15441Y15459D01*
G01X15365Y15434D01*
G01X15356Y15431D01*
G01X15280Y15404D01*
G01X15271Y15400D01*
G01X15196Y15372D01*
G01X15187Y15368D01*
G01X15113Y15337D01*
G01X15104Y15334D01*
G01X15030Y15301D01*
G01X15021Y15297D01*
G01X14949Y15262D01*
G01X14940Y15258D01*
G01X14869Y15222D01*
G01X14860Y15217D01*
G01X14789Y15179D01*
G01X14781Y15175D01*
G01X14711Y15135D01*
G01X14703Y15130D01*
G01X14634Y15089D01*
G01X14626Y15083D01*
G01X14558Y15040D01*
G01X14550Y15035D01*
G01X14483Y14990D01*
G01X14475Y14984D01*
G01X14410Y14938D01*
G01X14402Y14932D01*
G01X14338Y14884D01*
G01X14330Y14878D01*
G01X14267Y14828D01*
G01X14260Y14822D01*
G01X14198Y14770D01*
G01X14191Y14764D01*
G01X14130Y14711D01*
G01X14123Y14704D01*
G01X14064Y14650D01*
G01X14057Y14643D01*
G01X14000Y14587D01*
G01X13993Y14580D01*
G37*

%LPC*%

%LPD*%
G36*
G01X38099Y0D02*
G01X15237Y0D01*
G01X15237Y14549D01*
G01X15282Y14571D01*
G01X15345Y14602D01*
G01X15410Y14630D01*
G01X15476Y14657D01*
G01X15542Y14683D01*
G01X15600Y14703D01*
G01X15608Y14688D01*
G01X15667Y14601D01*
G01X15735Y14521D01*
G01X15810Y14447D01*
G01X15893Y14382D01*
G01X15981Y14324D01*
G01X16075Y14276D01*
G01X16173Y14238D01*
G01X16274Y14209D01*
G01X16378Y14191D01*
G01X16483Y14183D01*
G01X16588Y14186D01*
G01X16693Y14199D01*
G01X16796Y14222D01*
G01X16896Y14256D01*
G01X16992Y14299D01*
G01X17083Y14352D01*
G01X17168Y14413D01*
G01X17247Y14483D01*
G01X17319Y14560D01*
G01X17383Y14644D01*
G01X17386Y14650D01*
G01X17396Y14649D01*
G01X17451Y14641D01*
G01X17507Y14632D01*
G01X17560Y14621D01*
G01X17614Y14608D01*
G01X17668Y14594D01*
G01X17722Y14579D01*
G01X17775Y14562D01*
G01X17827Y14543D01*
G01X17879Y14523D01*
G01X17930Y14501D01*
G01X17981Y14478D01*
G01X18031Y14454D01*
G01X18080Y14428D01*
G01X18128Y14402D01*
G01X18177Y14372D01*
G01X18223Y14343D01*
G01X18269Y14312D01*
G01X18315Y14279D01*
G01X18358Y14246D01*
G01X18402Y14211D01*
G01X18444Y14174D01*
G01X18485Y14137D01*
G01X18526Y14098D01*
G01X18564Y14059D01*
G01X18602Y14019D01*
G01X18639Y13976D01*
G01X18675Y13934D01*
G01X18709Y13890D01*
G01X18742Y13845D01*
G01X18774Y13799D01*
G01X18804Y13753D01*
G01X18833Y13706D01*
G01X18861Y13657D01*
G01X18887Y13609D01*
G01X18912Y13559D01*
G01X18936Y13508D01*
G01X18958Y13458D01*
G01X18979Y13406D01*
G01X18998Y13354D01*
G01X19016Y13301D01*
G01X19032Y13248D01*
G01X19047Y13195D01*
G01X19060Y13141D01*
G01X19072Y13086D01*
G01X19082Y13031D01*
G01X19091Y12977D01*
G01X19098Y12922D01*
G01X19103Y12865D01*
G01X19107Y12811D01*
G01X19110Y12755D01*
G01X19110Y12691D01*
G01X19111Y12675D01*
G01X19110Y12649D01*
G01X19110Y12644D01*
G01X19110Y12637D01*
G01X19112Y12543D01*
G01X19112Y12531D01*
G01X19115Y12436D01*
G01X19116Y12424D01*
G01X19121Y12330D01*
G01X19122Y12317D01*
G01X19129Y12223D01*
G01X19130Y12211D01*
G01X19139Y12117D01*
G01X19140Y12104D01*
G01X19152Y12011D01*
G01X19153Y11998D01*
G01X19166Y11905D01*
G01X19168Y11893D01*
G01X19184Y11799D01*
G01X19186Y11787D01*
G01X19203Y11694D01*
G01X19205Y11682D01*
G01X19225Y11589D01*
G01X19227Y11578D01*
G01X19248Y11486D01*
G01X19251Y11473D01*
G01X19275Y11382D01*
G01X19278Y11370D01*
G01X19303Y11279D01*
G01X19306Y11267D01*
G01X19333Y11177D01*
G01X19337Y11165D01*
G01X19366Y11075D01*
G01X19370Y11063D01*
G01X19401Y10974D01*
G01X19405Y10962D01*
G01X19438Y10874D01*
G01X19443Y10862D01*
G01X19477Y10774D01*
G01X19482Y10763D01*
G01X19519Y10676D01*
G01X19524Y10664D01*
G01X19562Y10578D01*
G01X19568Y10567D01*
G01X19608Y10482D01*
G01X19613Y10470D01*
G01X19656Y10386D01*
G01X19661Y10375D01*
G01X19705Y10291D01*
G01X19711Y10281D01*
G01X19757Y10198D01*
G01X19763Y10187D01*
G01X19811Y10105D01*
G01X19817Y10095D01*
G01X19866Y10014D01*
G01X19873Y10004D01*
G01X19924Y9924D01*
G01X19931Y9914D01*
G01X19983Y9836D01*
G01X19990Y9826D01*
G01X20045Y9748D01*
G01X20052Y9738D01*
G01X20108Y9662D01*
G01X20116Y9652D01*
G01X20173Y9578D01*
G01X20181Y9568D01*
G01X20240Y9494D01*
G01X20248Y9485D01*
G01X20309Y9413D01*
G01X20317Y9403D01*
G01X20379Y9332D01*
G01X20388Y9323D01*
G01X20452Y9253D01*
G01X20460Y9244D01*
G01X20525Y9176D01*
G01X20534Y9167D01*
G01X20601Y9101D01*
G01X20610Y9092D01*
G01X20678Y9027D01*
G01X20687Y9018D01*
G01X20757Y8954D01*
G01X20766Y8946D01*
G01X20837Y8884D01*
G01X20846Y8876D01*
G01X20919Y8815D01*
G01X20928Y8807D01*
G01X21002Y8748D01*
G01X21011Y8740D01*
G01X21086Y8683D01*
G01X21096Y8675D01*
G01X21172Y8619D01*
G01X21182Y8612D01*
G01X21260Y8558D01*
G01X21270Y8551D01*
G01X21348Y8498D01*
G01X21359Y8491D01*
G01X21438Y8440D01*
G01X21448Y8434D01*
G01X21529Y8384D01*
G01X21540Y8378D01*
G01X21622Y8331D01*
G01X21632Y8325D01*
G01X21715Y8279D01*
G01X21726Y8273D01*
G01X21809Y8229D01*
G01X21820Y8223D01*
G01X21905Y8181D01*
G01X21916Y8176D01*
G01X22001Y8135D01*
G01X22013Y8130D01*
G01X22099Y8092D01*
G01X22110Y8087D01*
G01X22197Y8050D01*
G01X22209Y8046D01*
G01X22297Y8011D01*
G01X22308Y8007D01*
G01X22397Y7974D01*
G01X22409Y7970D01*
G01X22498Y7939D01*
G01X22510Y7935D01*
G01X22599Y7906D01*
G01X22611Y7902D01*
G01X22702Y7875D01*
G01X22714Y7872D01*
G01X22805Y7847D01*
G01X22817Y7843D01*
G01X22908Y7820D01*
G01X22920Y7817D01*
G01X22960Y7808D01*
G01X22960Y7768D01*
G01X22971Y7661D01*
G01X22992Y7555D01*
G01X23024Y7452D01*
G01X23066Y7353D01*
G01X23117Y7258D01*
G01X23178Y7169D01*
G01X23247Y7086D01*
G01X23325Y7011D01*
G01X23409Y6944D01*
G01X23500Y6885D01*
G01X23596Y6836D01*
G01X23696Y6797D01*
G01X23800Y6767D01*
G01X23906Y6749D01*
G01X24014Y6741D01*
G01X24122Y6743D01*
G01X24229Y6757D01*
G01X24334Y6781D01*
G01X24436Y6815D01*
G01X24534Y6859D01*
G01X24628Y6913D01*
G01X24665Y6940D01*
G01X24670Y6933D01*
G01X24688Y6909D01*
G01X24705Y6883D01*
G01X24720Y6858D01*
G01X24735Y6831D01*
G01X24749Y6803D01*
G01X24762Y6776D01*
G01X24773Y6748D01*
G01X24784Y6720D01*
G01X24793Y6691D01*
G01X24801Y6662D01*
G01X24809Y6631D01*
G01X24815Y6602D01*
G01X24820Y6572D01*
G01X24823Y6542D01*
G01X24826Y6512D01*
G01X24827Y6479D01*
G01X24828Y6454D01*
G01X24829Y6426D01*
G01X24830Y6409D01*
G01X24830Y2998D01*
G01X24617Y2551D01*
G01X24590Y2518D01*
G01X24532Y2434D01*
G01X24484Y2345D01*
G01X24444Y2251D01*
G01X24414Y2154D01*
G01X24394Y2055D01*
G01X24384Y1954D01*
G01X24384Y1852D01*
G01X24394Y1751D01*
G01X24414Y1652D01*
G01X24444Y1555D01*
G01X24484Y1461D01*
G01X24532Y1372D01*
G01X24590Y1288D01*
G01X24655Y1210D01*
G01X24728Y1139D01*
G01X24807Y1076D01*
G01X24892Y1021D01*
G01X24983Y975D01*
G01X25077Y937D01*
G01X25175Y910D01*
G01X25275Y892D01*
G01X25376Y885D01*
G01X25478Y887D01*
G01X25578Y900D01*
G01X25677Y922D01*
G01X25774Y955D01*
G01X25866Y997D01*
G01X25954Y1047D01*
G01X26037Y1107D01*
G01X26113Y1174D01*
G01X26182Y1248D01*
G01X26243Y1329D01*
G01X26296Y1416D01*
G01X26340Y1507D01*
G01X26375Y1603D01*
G01X26400Y1701D01*
G01X26415Y1802D01*
G01X26420Y1903D01*
G01X26415Y2004D01*
G01X26400Y2105D01*
G01X26375Y2203D01*
G01X26340Y2299D01*
G01X26296Y2390D01*
G01X26243Y2477D01*
G01X26184Y2555D01*
G01X25973Y2998D01*
G01X25973Y6408D01*
G01X25973Y6411D01*
G01X25975Y6440D01*
G01X25976Y6469D01*
G01X25975Y6503D01*
G01X25975Y6521D01*
G01X25972Y6574D01*
G01X25971Y6596D01*
G01X25966Y6648D01*
G01X25964Y6671D01*
G01X25958Y6723D01*
G01X25955Y6745D01*
G01X25946Y6797D01*
G01X25942Y6818D01*
G01X25932Y6870D01*
G01X25927Y6892D01*
G01X25915Y6943D01*
G01X25909Y6964D01*
G01X25895Y7015D01*
G01X25888Y7036D01*
G01X25872Y7086D01*
G01X25865Y7107D01*
G01X25846Y7156D01*
G01X25838Y7177D01*
G01X25818Y7225D01*
G01X25809Y7246D01*
G01X25787Y7294D01*
G01X25778Y7314D01*
G01X25754Y7360D01*
G01X25744Y7380D01*
G01X25718Y7426D01*
G01X25707Y7445D01*
G01X25679Y7490D01*
G01X25668Y7509D01*
G01X25639Y7553D01*
G01X25626Y7571D01*
G01X25595Y7613D01*
G01X25582Y7631D01*
G01X25550Y7673D01*
G01X25535Y7690D01*
G01X25502Y7730D01*
G01X25487Y7747D01*
G01X25451Y7786D01*
G01X25436Y7801D01*
G01X25399Y7839D01*
G01X25384Y7854D01*
G01X25363Y7874D01*
G01X26206Y7874D01*
G01X26211Y7873D01*
G01X26230Y7871D01*
G01X26249Y7871D01*
G01X26261Y7871D01*
G01X26328Y7870D01*
G01X26395Y7867D01*
G01X26462Y7862D01*
G01X26527Y7856D01*
G01X26594Y7847D01*
G01X26658Y7837D01*
G01X26724Y7826D01*
G01X26790Y7812D01*
G01X26853Y7797D01*
G01X26918Y7780D01*
G01X26982Y7761D01*
G01X27044Y7741D01*
G01X27108Y7719D01*
G01X27169Y7696D01*
G01X27231Y7670D01*
G01X27291Y7644D01*
G01X27351Y7615D01*
G01X27412Y7585D01*
G01X27468Y7554D01*
G01X27527Y7520D01*
G01X27583Y7486D01*
G01X27639Y7450D01*
G01X27694Y7412D01*
G01X27747Y7373D01*
G01X27800Y7333D01*
G01X27852Y7290D01*
G01X27902Y7247D01*
G01X27951Y7203D01*
G01X27999Y7158D01*
G01X28047Y7110D01*
G01X28091Y7062D01*
G01X28136Y7013D01*
G01X28179Y6961D01*
G01X28220Y6910D01*
G01X28260Y6858D01*
G01X28300Y6803D01*
G01X28337Y6748D01*
G01X28373Y6692D01*
G01X28407Y6636D01*
G01X28440Y6578D01*
G01X28471Y6520D01*
G01X28501Y6460D01*
G01X28529Y6400D01*
G01X28545Y6364D01*
G01X28459Y6309D01*
G01X28369Y6237D01*
G01X28287Y6156D01*
G01X28213Y6068D01*
G01X28148Y5973D01*
G01X28093Y5871D01*
G01X28048Y5765D01*
G01X28014Y5655D01*
G01X27991Y5542D01*
G01X27979Y5427D01*
G01X27979Y5312D01*
G01X27991Y5197D01*
G01X28014Y5084D01*
G01X28048Y4974D01*
G01X28093Y4868D01*
G01X28148Y4766D01*
G01X28213Y4671D01*
G01X28287Y4583D01*
G01X28369Y4502D01*
G01X28459Y4430D01*
G01X28556Y4368D01*
G01X28659Y4315D01*
G01X28766Y4273D01*
G01X28877Y4242D01*
G01X28991Y4222D01*
G01X29106Y4213D01*
G01X29221Y4216D01*
G01X29335Y4231D01*
G01X29448Y4256D01*
G01X29557Y4293D01*
G01X29662Y4340D01*
G01X29762Y4398D01*
G01X29856Y4465D01*
G01X29942Y4542D01*
G01X30021Y4626D01*
G01X30090Y4718D01*
G01X30150Y4816D01*
G01X30200Y4920D01*
G01X30240Y5029D01*
G01X30268Y5140D01*
G01X30285Y5254D01*
G01X30291Y5370D01*
G01X30285Y5485D01*
G01X30268Y5599D01*
G01X30240Y5710D01*
G01X30200Y5819D01*
G01X30150Y5923D01*
G01X30090Y6021D01*
G01X30021Y6113D01*
G01X29942Y6197D01*
G01X29856Y6274D01*
G01X29762Y6341D01*
G01X29662Y6399D01*
G01X29557Y6446D01*
G01X29448Y6483D01*
G01X29335Y6508D01*
G01X29312Y6511D01*
G01X29297Y6551D01*
G01X29293Y6561D01*
G01X29265Y6632D01*
G01X29261Y6641D01*
G01X29230Y6711D01*
G01X29226Y6721D01*
G01X29193Y6790D01*
G01X29189Y6799D01*
G01X29155Y6868D01*
G01X29150Y6877D01*
G01X29114Y6944D01*
G01X29109Y6953D01*
G01X29071Y7020D01*
G01X29066Y7028D01*
G01X29026Y7094D01*
G01X29021Y7103D01*
G01X28979Y7167D01*
G01X28974Y7175D01*
G01X28931Y7239D01*
G01X28925Y7247D01*
G01X28880Y7309D01*
G01X28874Y7317D01*
G01X28828Y7378D01*
G01X28822Y7386D01*
G01X28774Y7446D01*
G01X28767Y7454D01*
G01X28718Y7512D01*
G01X28711Y7520D01*
G01X28660Y7577D01*
G01X28653Y7585D01*
G01X28600Y7640D01*
G01X28593Y7648D01*
G01X28539Y7702D01*
G01X28532Y7709D01*
G01X28477Y7762D01*
G01X28469Y7769D01*
G01X28412Y7820D01*
G01X28405Y7827D01*
G01X28347Y7877D01*
G01X28339Y7883D01*
G01X28279Y7931D01*
G01X28271Y7938D01*
G01X28211Y7984D01*
G01X28203Y7990D01*
G01X28141Y8035D01*
G01X28132Y8041D01*
G01X28069Y8085D01*
G01X28061Y8090D01*
G01X27997Y8132D01*
G01X27988Y8137D01*
G01X27923Y8177D01*
G01X27914Y8183D01*
G01X27848Y8221D01*
G01X27839Y8226D01*
G01X27771Y8262D01*
G01X27762Y8267D01*
G01X27694Y8302D01*
G01X27685Y8306D01*
G01X27616Y8339D01*
G01X27606Y8343D01*
G01X27536Y8374D01*
G01X27527Y8378D01*
G01X27456Y8407D01*
G01X27447Y8411D01*
G01X27375Y8438D01*
G01X27366Y8442D01*
G01X27293Y8467D01*
G01X27284Y8470D01*
G01X27211Y8493D01*
G01X27201Y8496D01*
G01X27128Y8518D01*
G01X27118Y8521D01*
G01X27044Y8540D01*
G01X27034Y8543D01*
G01X26959Y8560D01*
G01X26949Y8562D01*
G01X26874Y8578D01*
G01X26864Y8580D01*
G01X26789Y8593D01*
G01X26779Y8595D01*
G01X26703Y8606D01*
G01X26693Y8608D01*
G01X26617Y8617D01*
G01X26607Y8618D01*
G01X26531Y8626D01*
G01X26521Y8627D01*
G01X26444Y8632D01*
G01X26434Y8633D01*
G01X26358Y8636D01*
G01X26348Y8637D01*
G01X26271Y8638D01*
G01X26265Y8638D01*
G01X26250Y8638D01*
G01X26231Y8638D01*
G01X26212Y8636D01*
G01X26206Y8636D01*
G01X25064Y8636D01*
G01X24433Y8831D01*
G01X24334Y8864D01*
G01X24229Y8888D01*
G01X24122Y8901D01*
G01X24014Y8904D01*
G01X23906Y8896D01*
G01X23800Y8877D01*
G01X23696Y8848D01*
G01X23696Y8848D01*
G01X23669Y8851D01*
G01X23587Y8860D01*
G01X23505Y8872D01*
G01X23425Y8885D01*
G01X23343Y8900D01*
G01X23263Y8917D01*
G01X23183Y8935D01*
G01X23103Y8955D01*
G01X23024Y8977D01*
G01X22946Y9000D01*
G01X22868Y9025D01*
G01X22790Y9052D01*
G01X22713Y9081D01*
G01X22637Y9111D01*
G01X22561Y9143D01*
G01X22486Y9176D01*
G01X22411Y9212D01*
G01X22338Y9248D01*
G01X22265Y9286D01*
G01X22193Y9326D01*
G01X22123Y9367D01*
G01X22051Y9411D01*
G01X21983Y9454D01*
G01X21915Y9500D01*
G01X21848Y9547D01*
G01X21781Y9597D01*
G01X21717Y9646D01*
G01X21652Y9698D01*
G01X21589Y9751D01*
G01X21527Y9805D01*
G01X21467Y9861D01*
G01X21408Y9917D01*
G01X21350Y9975D01*
G01X21294Y10034D01*
G01X21237Y10095D01*
G01X21183Y10157D01*
G01X21130Y10219D01*
G01X21079Y10284D01*
G01X21029Y10348D01*
G01X20980Y10415D01*
G01X20933Y10482D01*
G01X20887Y10550D01*
G01X20842Y10620D01*
G01X20799Y10689D01*
G01X20758Y10760D01*
G01X20718Y10833D01*
G01X20680Y10905D01*
G01X20643Y10978D01*
G01X20609Y11051D01*
G01X20574Y11128D01*
G01X20543Y11203D01*
G01X20512Y11280D01*
G01X20484Y11356D01*
G01X20457Y11434D01*
G01X20431Y11513D01*
G01X20408Y11590D01*
G01X20386Y11671D01*
G01X20366Y11749D01*
G01X20347Y11830D01*
G01X20331Y11910D01*
G01X20316Y11991D01*
G01X20302Y12072D01*
G01X20291Y12153D01*
G01X20281Y12235D01*
G01X20273Y12317D01*
G01X20267Y12399D01*
G01X20262Y12481D01*
G01X20259Y12563D01*
G01X20258Y12647D01*
G01X20258Y12649D01*
G01X20258Y12674D01*
G01X20258Y12679D01*
G01X20258Y12708D01*
G01X20257Y12779D01*
G01X20257Y12796D01*
G01X20254Y12867D01*
G01X20253Y12884D01*
G01X20248Y12955D01*
G01X20247Y12971D01*
G01X20239Y13043D01*
G01X20238Y13059D01*
G01X20228Y13130D01*
G01X20226Y13146D01*
G01X20215Y13217D01*
G01X20212Y13233D01*
G01X20199Y13304D01*
G01X20196Y13320D01*
G01X20181Y13390D01*
G01X20177Y13406D01*
G01X20160Y13476D01*
G01X20156Y13492D01*
G01X20137Y13561D01*
G01X20132Y13576D01*
G01X20111Y13645D01*
G01X20106Y13660D01*
G01X20084Y13728D01*
G01X20078Y13744D01*
G01X20053Y13811D01*
G01X20047Y13826D01*
G01X20021Y13893D01*
G01X20014Y13908D01*
G01X19988Y13969D01*
G01X20573Y13969D01*
G01X20573Y13378D01*
G01X20572Y13368D01*
G01X20571Y13349D01*
G01X20571Y13330D01*
G01X20572Y13246D01*
G01X20572Y13237D01*
G01X20575Y13153D01*
G01X20576Y13144D01*
G01X20581Y13060D01*
G01X20581Y13051D01*
G01X20589Y12967D01*
G01X20589Y12958D01*
G01X20599Y12874D01*
G01X20600Y12865D01*
G01X20611Y12782D01*
G01X20612Y12773D01*
G01X20625Y12690D01*
G01X20627Y12681D01*
G01X20642Y12598D01*
G01X20644Y12589D01*
G01X20661Y12507D01*
G01X20663Y12498D01*
G01X20682Y12416D01*
G01X20684Y12407D01*
G01X20705Y12326D01*
G01X20708Y12317D01*
G01X20731Y12236D01*
G01X20734Y12227D01*
G01X20759Y12147D01*
G01X20762Y12138D01*
G01X20788Y12059D01*
G01X20792Y12050D01*
G01X20820Y11971D01*
G01X20824Y11963D01*
G01X20854Y11885D01*
G01X20858Y11876D01*
G01X20891Y11799D01*
G01X20894Y11790D01*
G01X20929Y11714D01*
G01X20933Y11705D01*
G01X20969Y11630D01*
G01X20973Y11621D01*
G01X21011Y11547D01*
G01X21016Y11539D01*
G01X21056Y11465D01*
G01X21060Y11457D01*
G01X21102Y11384D01*
G01X21107Y11376D01*
G01X21150Y11304D01*
G01X21155Y11296D01*
G01X21200Y11225D01*
G01X21205Y11218D01*
G01X21252Y11148D01*
G01X21258Y11140D01*
G01X21306Y11072D01*
G01X21312Y11065D01*
G01X21362Y10997D01*
G01X21368Y10990D01*
G01X21419Y10924D01*
G01X21425Y10917D01*
G01X21479Y10852D01*
G01X21485Y10845D01*
G01X21539Y10782D01*
G01X21546Y10775D01*
G01X21602Y10713D01*
G01X21609Y10706D01*
G01X21667Y10645D01*
G01X21673Y10639D01*
G01X21732Y10579D01*
G01X21739Y10573D01*
G01X21800Y10515D01*
G01X21807Y10509D01*
G01X21869Y10452D01*
G01X21876Y10446D01*
G01X21939Y10392D01*
G01X21947Y10386D01*
G01X22011Y10332D01*
G01X22019Y10327D01*
G01X22085Y10275D01*
G01X22092Y10269D01*
G01X22160Y10219D01*
G01X22167Y10214D01*
G01X22236Y10165D01*
G01X22243Y10160D01*
G01X22313Y10114D01*
G01X22321Y10108D01*
G01X22392Y10063D01*
G01X22400Y10059D01*
G01X22471Y10015D01*
G01X22479Y10011D01*
G01X22552Y9969D01*
G01X22561Y9965D01*
G01X22634Y9925D01*
G01X22643Y9921D01*
G01X22718Y9883D01*
G01X22726Y9879D01*
G01X22802Y9842D01*
G01X22810Y9839D01*
G01X22887Y9804D01*
G01X22895Y9801D01*
G01X22973Y9768D01*
G01X22981Y9765D01*
G01X23059Y9734D01*
G01X23068Y9731D01*
G01X23147Y9702D01*
G01X23156Y9699D01*
G01X23235Y9673D01*
G01X23244Y9670D01*
G01X23324Y9645D01*
G01X23333Y9642D01*
G01X23414Y9620D01*
G01X23423Y9617D01*
G01X23504Y9596D01*
G01X23513Y9594D01*
G01X23595Y9575D01*
G01X23604Y9573D01*
G01X23686Y9556D01*
G01X23695Y9555D01*
G01X23778Y9540D01*
G01X23787Y9538D01*
G01X23870Y9525D01*
G01X23879Y9524D01*
G01X23962Y9513D01*
G01X23972Y9512D01*
G01X24055Y9503D01*
G01X24064Y9502D01*
G01X24148Y9495D01*
G01X24157Y9495D01*
G01X24241Y9490D01*
G01X24250Y9490D01*
G01X24334Y9487D01*
G01X24343Y9487D01*
G01X24416Y9486D01*
G01X24435Y9486D01*
G01X24454Y9487D01*
G01X24463Y9488D01*
G01X27814Y9488D01*
G01X28338Y9033D01*
G01X28369Y9002D01*
G01X28459Y8930D01*
G01X28556Y8868D01*
G01X28659Y8815D01*
G01X28766Y8773D01*
G01X28877Y8742D01*
G01X28991Y8722D01*
G01X29106Y8713D01*
G01X29221Y8716D01*
G01X29335Y8730D01*
G01X29448Y8756D01*
G01X29557Y8793D01*
G01X29662Y8840D01*
G01X29762Y8898D01*
G01X29856Y8965D01*
G01X29942Y9041D01*
G01X30021Y9126D01*
G01X30090Y9218D01*
G01X30150Y9316D01*
G01X30200Y9420D01*
G01X30240Y9528D01*
G01X30268Y9640D01*
G01X30285Y9754D01*
G01X30291Y9869D01*
G01X30285Y9985D01*
G01X30268Y10099D01*
G01X30240Y10210D01*
G01X30200Y10319D01*
G01X30150Y10422D01*
G01X30090Y10521D01*
G01X30021Y10613D01*
G01X29942Y10697D01*
G01X29856Y10774D01*
G01X29762Y10841D01*
G01X29662Y10899D01*
G01X29557Y10946D01*
G01X29448Y10983D01*
G01X29335Y11008D01*
G01X29221Y11023D01*
G01X29106Y11026D01*
G01X28991Y11017D01*
G01X28877Y10997D01*
G01X28766Y10966D01*
G01X28659Y10924D01*
G01X28556Y10871D01*
G01X28459Y10808D01*
G01X28369Y10737D01*
G01X28337Y10705D01*
G01X27814Y10250D01*
G01X24463Y10250D01*
G01X24462Y10251D01*
G01X24443Y10252D01*
G01X24424Y10253D01*
G01X24356Y10254D01*
G01X24280Y10256D01*
G01X24206Y10260D01*
G01X24131Y10267D01*
G01X24058Y10274D01*
G01X23983Y10284D01*
G01X23910Y10295D01*
G01X23836Y10309D01*
G01X23763Y10324D01*
G01X23690Y10340D01*
G01X23618Y10359D01*
G01X23547Y10379D01*
G01X23474Y10402D01*
G01X23404Y10425D01*
G01X23334Y10451D01*
G01X23265Y10477D01*
G01X23195Y10507D01*
G01X23128Y10537D01*
G01X23060Y10569D01*
G01X22994Y10603D01*
G01X22927Y10639D01*
G01X22863Y10675D01*
G01X22799Y10714D01*
G01X22736Y10753D01*
G01X22674Y10795D01*
G01X22613Y10838D01*
G01X22553Y10883D01*
G01X22495Y10928D01*
G01X22436Y10976D01*
G01X22380Y11024D01*
G01X22325Y11074D01*
G01X22270Y11126D01*
G01X22218Y11178D01*
G01X22166Y11233D01*
G01X22116Y11287D01*
G01X22067Y11344D01*
G01X22019Y11402D01*
G01X21973Y11461D01*
G01X21929Y11519D01*
G01X21885Y11582D01*
G01X21844Y11642D01*
G01X21804Y11706D01*
G01X21765Y11770D01*
G01X21728Y11834D01*
G01X21693Y11899D01*
G01X21658Y11967D01*
G01X21626Y12033D01*
G01X21596Y12101D01*
G01X21566Y12170D01*
G01X21539Y12240D01*
G01X21513Y12310D01*
G01X21489Y12381D01*
G01X21467Y12451D01*
G01X21447Y12523D01*
G01X21428Y12596D01*
G01X21411Y12668D01*
G01X21396Y12741D01*
G01X21382Y12815D01*
G01X21371Y12888D01*
G01X21361Y12963D01*
G01X21352Y13036D01*
G01X21346Y13111D01*
G01X21342Y13185D01*
G01X21339Y13260D01*
G01X21338Y13339D01*
G01X21337Y13358D01*
G01X21336Y13377D01*
G01X21335Y13378D01*
G01X21335Y13970D01*
G01X21841Y13970D01*
G01X21841Y13967D01*
G01X21841Y13953D01*
G01X21841Y13944D01*
G01X21843Y13893D01*
G01X21844Y13878D01*
G01X21847Y13827D01*
G01X21849Y13812D01*
G01X21854Y13761D01*
G01X21856Y13746D01*
G01X21864Y13696D01*
G01X21866Y13681D01*
G01X21876Y13631D01*
G01X21879Y13616D01*
G01X21891Y13566D01*
G01X21895Y13552D01*
G01X21908Y13503D01*
G01X21913Y13488D01*
G01X21928Y13440D01*
G01X21933Y13425D01*
G01X21951Y13377D01*
G01X21956Y13363D01*
G01X21976Y13316D01*
G01X21982Y13302D01*
G01X22003Y13256D01*
G01X22010Y13242D01*
G01X22033Y13197D01*
G01X22040Y13183D01*
G01X22065Y13139D01*
G01X22073Y13126D01*
G01X22099Y13082D01*
G01X22107Y13069D01*
G01X22136Y13027D01*
G01X22144Y13015D01*
G01X22174Y12974D01*
G01X22184Y12962D01*
G01X22215Y12922D01*
G01X22225Y12910D01*
G01X22258Y12871D01*
G01X22269Y12860D01*
G01X22303Y12823D01*
G01X22314Y12812D01*
G01X22350Y12776D01*
G01X22361Y12766D01*
G01X22399Y12731D01*
G01X22410Y12721D01*
G01X22449Y12688D01*
G01X22461Y12679D01*
G01X22501Y12648D01*
G01X22513Y12639D01*
G01X22555Y12609D01*
G01X22567Y12600D01*
G01X22610Y12573D01*
G01X22623Y12564D01*
G01X22666Y12538D01*
G01X22680Y12531D01*
G01X22724Y12506D01*
G01X22738Y12499D01*
G01X22784Y12477D01*
G01X22797Y12470D01*
G01X22844Y12449D01*
G01X22858Y12443D01*
G01X22905Y12425D01*
G01X22919Y12419D01*
G01X22967Y12402D01*
G01X22982Y12397D01*
G01X23030Y12382D01*
G01X23045Y12378D01*
G01X23094Y12365D01*
G01X23109Y12362D01*
G01X23159Y12350D01*
G01X23174Y12347D01*
G01X23224Y12338D01*
G01X23239Y12336D01*
G01X23289Y12329D01*
G01X23304Y12327D01*
G01X23355Y12322D01*
G01X23370Y12321D01*
G01X23421Y12318D01*
G01X23436Y12317D01*
G01X23487Y12316D01*
G01X23506Y12316D01*
G01X23525Y12317D01*
G01X23538Y12318D01*
G01X25981Y12318D01*
G01X25986Y12318D01*
G01X26005Y12316D01*
G01X26024Y12315D01*
G01X26043Y12314D01*
G01X26105Y12315D01*
G01X26117Y12316D01*
G01X26180Y12319D01*
G01X26192Y12320D01*
G01X26254Y12325D01*
G01X26267Y12326D01*
G01X26328Y12333D01*
G01X26341Y12335D01*
G01X26402Y12344D01*
G01X26415Y12346D01*
G01X26476Y12357D01*
G01X26488Y12359D01*
G01X26549Y12373D01*
G01X26561Y12375D01*
G01X26622Y12391D01*
G01X26634Y12394D01*
G01X26693Y12411D01*
G01X26706Y12414D01*
G01X26765Y12433D01*
G01X26777Y12437D01*
G01X26835Y12458D01*
G01X26847Y12463D01*
G01X26905Y12486D01*
G01X26916Y12490D01*
G01X26973Y12515D01*
G01X26985Y12520D01*
G01X27041Y12547D01*
G01X27052Y12552D01*
G01X27108Y12581D01*
G01X27119Y12587D01*
G01X27173Y12617D01*
G01X27184Y12623D01*
G01X27237Y12655D01*
G01X27248Y12662D01*
G01X27300Y12695D01*
G01X27311Y12702D01*
G01X27362Y12737D01*
G01X27372Y12745D01*
G01X27422Y12782D01*
G01X27432Y12789D01*
G01X27481Y12828D01*
G01X27491Y12836D01*
G01X27538Y12876D01*
G01X27548Y12884D01*
G01X27594Y12926D01*
G01X27603Y12935D01*
G01X27648Y12978D01*
G01X27657Y12987D01*
G01X27700Y13031D01*
G01X27708Y13040D01*
G01X27750Y13086D01*
G01X27759Y13096D01*
G01X27799Y13143D01*
G01X27807Y13153D01*
G01X27846Y13202D01*
G01X27853Y13211D01*
G01X27890Y13261D01*
G01X27898Y13271D01*
G01X27933Y13322D01*
G01X27940Y13333D01*
G01X27974Y13385D01*
G01X27981Y13396D01*
G01X28013Y13449D01*
G01X28019Y13460D01*
G01X28049Y13514D01*
G01X28055Y13525D01*
G01X28084Y13580D01*
G01X28089Y13592D01*
G01X28116Y13648D01*
G01X28121Y13659D01*
G01X28146Y13716D01*
G01X28151Y13728D01*
G01X28174Y13786D01*
G01X28178Y13797D01*
G01X28200Y13856D01*
G01X28204Y13868D01*
G01X28223Y13927D01*
G01X28226Y13939D01*
G01X28244Y13999D01*
G01X28247Y14011D01*
G01X28262Y14071D01*
G01X28265Y14083D01*
G01X28279Y14144D01*
G01X28281Y14156D01*
G01X28292Y14218D01*
G01X28294Y14230D01*
G01X28304Y14291D01*
G01X28305Y14304D01*
G01X28313Y14366D01*
G01X28314Y14378D01*
G01X28319Y14440D01*
G01X28320Y14452D01*
G01X28323Y14515D01*
G01X28324Y14527D01*
G01X28325Y14589D01*
G01X28325Y14597D01*
G01X28325Y14603D01*
G01X28325Y14622D01*
G01X28323Y14641D01*
G01X28321Y14660D01*
G01X28320Y14662D01*
G01X28320Y15240D01*
G01X38099Y15240D01*
G01X38099Y0D01*
G37*

%LPC*%
G36*
G01X18891Y642D02*
G01X19018Y632D01*
G01X19145Y635D01*
G01X19270Y651D01*
G01X19394Y679D01*
G01X19514Y720D01*
G01X19630Y772D01*
G01X19740Y835D01*
G01X19843Y910D01*
G01X19938Y993D01*
G01X20024Y1086D01*
G01X20101Y1188D01*
G01X20167Y1296D01*
G01X20222Y1410D01*
G01X20265Y1529D01*
G01X20297Y1652D01*
G01X20316Y1778D01*
G01X20322Y1904D01*
G01X20316Y2031D01*
G01X20297Y2157D01*
G01X20265Y2280D01*
G01X20222Y2399D01*
G01X20167Y2513D01*
G01X20101Y2621D01*
G01X20024Y2722D01*
G01X19938Y2815D01*
G01X19843Y2899D01*
G01X19740Y2973D01*
G01X19630Y3037D01*
G01X19514Y3089D01*
G01X19394Y3129D01*
G01X19270Y3158D01*
G01X19145Y3173D01*
G01X19018Y3177D01*
G01X18891Y3167D01*
G01X18766Y3145D01*
G01X18644Y3111D01*
G01X18526Y3064D01*
G01X18413Y3007D01*
G01X18307Y2938D01*
G01X18207Y2859D01*
G01X18117Y2770D01*
G01X18035Y2673D01*
G01X17964Y2568D01*
G01X17903Y2457D01*
G01X17854Y2340D01*
G01X17816Y2218D01*
G01X17791Y2094D01*
G01X17779Y1968D01*
G01X17779Y1841D01*
G01X17791Y1715D01*
G01X17816Y1590D01*
G01X17854Y1469D01*
G01X17903Y1352D01*
G01X17964Y1241D01*
G01X18035Y1136D01*
G01X18117Y1039D01*
G01X18207Y950D01*
G01X18307Y871D01*
G01X18413Y802D01*
G01X18526Y745D01*
G01X18644Y698D01*
G01X18766Y664D01*
G01X18891Y642D01*
G37*
G36*
G01X36036Y642D02*
G01X36163Y632D01*
G01X36290Y635D01*
G01X36415Y651D01*
G01X36539Y679D01*
G01X36659Y720D01*
G01X36775Y772D01*
G01X36885Y835D01*
G01X36988Y910D01*
G01X37083Y993D01*
G01X37169Y1086D01*
G01X37246Y1188D01*
G01X37312Y1296D01*
G01X37367Y1410D01*
G01X37410Y1529D01*
G01X37442Y1652D01*
G01X37461Y1778D01*
G01X37467Y1904D01*
G01X37461Y2031D01*
G01X37442Y2157D01*
G01X37410Y2280D01*
G01X37367Y2399D01*
G01X37312Y2513D01*
G01X37246Y2621D01*
G01X37169Y2722D01*
G01X37083Y2815D01*
G01X36988Y2899D01*
G01X36885Y2973D01*
G01X36775Y3037D01*
G01X36659Y3089D01*
G01X36539Y3129D01*
G01X36415Y3158D01*
G01X36290Y3173D01*
G01X36163Y3177D01*
G01X36036Y3167D01*
G01X35911Y3145D01*
G01X35789Y3111D01*
G01X35671Y3064D01*
G01X35558Y3007D01*
G01X35452Y2938D01*
G01X35352Y2859D01*
G01X35262Y2770D01*
G01X35180Y2673D01*
G01X35109Y2568D01*
G01X35048Y2457D01*
G01X34999Y2340D01*
G01X34961Y2218D01*
G01X34936Y2094D01*
G01X34924Y1968D01*
G01X34924Y1841D01*
G01X34936Y1715D01*
G01X34961Y1590D01*
G01X34999Y1469D01*
G01X35048Y1352D01*
G01X35109Y1241D01*
G01X35180Y1136D01*
G01X35262Y1039D01*
G01X35352Y950D01*
G01X35452Y871D01*
G01X35558Y802D01*
G01X35671Y745D01*
G01X35789Y698D01*
G01X35911Y664D01*
G01X36036Y642D01*
G37*
G36*
G01X31620Y869D02*
G01X31723Y861D01*
G01X31828Y863D01*
G01X31931Y876D01*
G01X32032Y900D01*
G01X32131Y933D01*
G01X32226Y975D01*
G01X32316Y1028D01*
G01X32400Y1088D01*
G01X32478Y1157D01*
G01X32549Y1233D01*
G01X32612Y1316D01*
G01X32666Y1405D01*
G01X32711Y1499D01*
G01X32747Y1597D01*
G01X32773Y1698D01*
G01X32788Y1801D01*
G01X32793Y1904D01*
G01X32788Y2008D01*
G01X32773Y2111D01*
G01X32747Y2212D01*
G01X32711Y2310D01*
G01X32666Y2404D01*
G01X32612Y2493D01*
G01X32549Y2575D01*
G01X32478Y2652D01*
G01X32400Y2721D01*
G01X32316Y2781D01*
G01X32226Y2833D01*
G01X32131Y2876D01*
G01X32032Y2909D01*
G01X31931Y2933D01*
G01X31828Y2945D01*
G01X31723Y2948D01*
G01X31620Y2940D01*
G01X31517Y2922D01*
G01X31417Y2894D01*
G01X31320Y2856D01*
G01X31228Y2809D01*
G01X31140Y2752D01*
G01X31059Y2687D01*
G01X31034Y2663D01*
G01X30585Y2284D01*
G01X29071Y2284D01*
G01X28647Y2637D01*
G01X28577Y2699D01*
G01X28494Y2759D01*
G01X28406Y2809D01*
G01X28314Y2851D01*
G01X28217Y2883D01*
G01X28118Y2906D01*
G01X28018Y2919D01*
G01X27916Y2921D01*
G01X27815Y2914D01*
G01X27715Y2896D01*
G01X27617Y2868D01*
G01X27523Y2831D01*
G01X27432Y2785D01*
G01X27347Y2730D01*
G01X27268Y2667D01*
G01X27195Y2596D01*
G01X27130Y2518D01*
G01X27072Y2434D01*
G01X27024Y2345D01*
G01X26984Y2251D01*
G01X26954Y2154D01*
G01X26934Y2055D01*
G01X26924Y1954D01*
G01X26924Y1852D01*
G01X26934Y1751D01*
G01X26954Y1652D01*
G01X26984Y1555D01*
G01X27024Y1461D01*
G01X27072Y1372D01*
G01X27130Y1288D01*
G01X27195Y1210D01*
G01X27268Y1139D01*
G01X27347Y1076D01*
G01X27432Y1021D01*
G01X27523Y975D01*
G01X27617Y937D01*
G01X27715Y910D01*
G01X27815Y892D01*
G01X27916Y885D01*
G01X28018Y887D01*
G01X28118Y900D01*
G01X28217Y922D01*
G01X28314Y955D01*
G01X28406Y997D01*
G01X28494Y1047D01*
G01X28577Y1107D01*
G01X28646Y1168D01*
G01X29071Y1522D01*
G01X30585Y1522D01*
G01X31036Y1144D01*
G01X31059Y1122D01*
G01X31140Y1057D01*
G01X31228Y1000D01*
G01X31320Y953D01*
G01X31417Y915D01*
G01X31517Y887D01*
G01X31620Y869D01*
G37*
G36*
G01X22735Y892D02*
G01X22836Y885D01*
G01X22938Y887D01*
G01X23038Y900D01*
G01X23137Y922D01*
G01X23234Y955D01*
G01X23326Y997D01*
G01X23414Y1047D01*
G01X23497Y1107D01*
G01X23573Y1174D01*
G01X23642Y1248D01*
G01X23703Y1329D01*
G01X23756Y1416D01*
G01X23800Y1507D01*
G01X23835Y1603D01*
G01X23860Y1701D01*
G01X23875Y1802D01*
G01X23880Y1903D01*
G01X23875Y2004D01*
G01X23860Y2105D01*
G01X23835Y2203D01*
G01X23800Y2299D01*
G01X23756Y2390D01*
G01X23703Y2477D01*
G01X23642Y2558D01*
G01X23573Y2632D01*
G01X23497Y2699D01*
G01X23414Y2759D01*
G01X23326Y2809D01*
G01X23234Y2851D01*
G01X23137Y2883D01*
G01X23038Y2906D01*
G01X22938Y2919D01*
G01X22836Y2921D01*
G01X22735Y2914D01*
G01X22635Y2896D01*
G01X22537Y2868D01*
G01X22443Y2831D01*
G01X22352Y2785D01*
G01X22267Y2730D01*
G01X22188Y2667D01*
G01X22115Y2596D01*
G01X22050Y2518D01*
G01X21992Y2434D01*
G01X21944Y2345D01*
G01X21904Y2251D01*
G01X21874Y2154D01*
G01X21854Y2055D01*
G01X21844Y1954D01*
G01X21844Y1852D01*
G01X21854Y1751D01*
G01X21874Y1652D01*
G01X21904Y1555D01*
G01X21944Y1461D01*
G01X21992Y1372D01*
G01X22050Y1288D01*
G01X22115Y1210D01*
G01X22188Y1139D01*
G01X22267Y1076D01*
G01X22352Y1021D01*
G01X22443Y975D01*
G01X22537Y937D01*
G01X22635Y910D01*
G01X22735Y892D01*
G37*
G36*
G01X32760Y4544D02*
G01X32760Y3986D01*
G01X32844Y4024D01*
G01X32931Y4074D01*
G01X33012Y4132D01*
G01X33087Y4199D01*
G01X33156Y4272D01*
G01X33216Y4352D01*
G01X33268Y4438D01*
G01X33312Y4528D01*
G01X33318Y4544D01*
G01X32760Y4544D01*
G37*
G36*
G01X31971Y4002D02*
G01X32009Y3987D01*
G01X32009Y4544D01*
G01X31452Y4544D01*
G01X31478Y4483D01*
G01X31526Y4395D01*
G01X31582Y4312D01*
G01X31647Y4235D01*
G01X31718Y4165D01*
G01X31797Y4102D01*
G01X31881Y4048D01*
G01X31971Y4002D01*
G37*
G36*
G01X35491Y4222D02*
G01X35606Y4213D01*
G01X35721Y4216D01*
G01X35835Y4231D01*
G01X35948Y4256D01*
G01X36057Y4293D01*
G01X36162Y4340D01*
G01X36262Y4398D01*
G01X36356Y4465D01*
G01X36442Y4542D01*
G01X36520Y4626D01*
G01X36590Y4718D01*
G01X36650Y4816D01*
G01X36700Y4920D01*
G01X36740Y5029D01*
G01X36768Y5140D01*
G01X36785Y5254D01*
G01X36791Y5370D01*
G01X36785Y5485D01*
G01X36768Y5599D01*
G01X36740Y5710D01*
G01X36700Y5819D01*
G01X36650Y5923D01*
G01X36590Y6021D01*
G01X36520Y6113D01*
G01X36442Y6197D01*
G01X36356Y6274D01*
G01X36262Y6341D01*
G01X36162Y6399D01*
G01X36057Y6446D01*
G01X35948Y6483D01*
G01X35835Y6508D01*
G01X35721Y6523D01*
G01X35606Y6526D01*
G01X35491Y6517D01*
G01X35377Y6497D01*
G01X35266Y6466D01*
G01X35159Y6424D01*
G01X35056Y6371D01*
G01X34959Y6309D01*
G01X34869Y6237D01*
G01X34787Y6156D01*
G01X34713Y6068D01*
G01X34648Y5973D01*
G01X34592Y5871D01*
G01X34548Y5765D01*
G01X34514Y5655D01*
G01X34491Y5542D01*
G01X34479Y5427D01*
G01X34479Y5312D01*
G01X34491Y5197D01*
G01X34514Y5084D01*
G01X34548Y4974D01*
G01X34592Y4868D01*
G01X34648Y4766D01*
G01X34713Y4671D01*
G01X34787Y4583D01*
G01X34869Y4502D01*
G01X34959Y4430D01*
G01X35056Y4368D01*
G01X35159Y4315D01*
G01X35266Y4273D01*
G01X35377Y4242D01*
G01X35491Y4222D01*
G37*
G36*
G01X32760Y5853D02*
G01X32760Y5294D01*
G01X33318Y5294D01*
G01X33312Y5310D01*
G01X33268Y5401D01*
G01X33216Y5486D01*
G01X33156Y5566D01*
G01X33087Y5640D01*
G01X33012Y5706D01*
G01X32931Y5765D01*
G01X32844Y5815D01*
G01X32760Y5853D01*
G37*
G36*
G01X31478Y5356D02*
G01X31452Y5294D01*
G01X32009Y5294D01*
G01X32009Y5852D01*
G01X31971Y5837D01*
G01X31881Y5791D01*
G01X31797Y5737D01*
G01X31718Y5674D01*
G01X31647Y5604D01*
G01X31582Y5527D01*
G01X31526Y5444D01*
G01X31478Y5356D01*
G37*
G36*
G01X19473Y8209D02*
G01X19371Y7631D01*
G01X19431Y7645D01*
G01X19533Y7680D01*
G01X19632Y7724D01*
G01X19725Y7778D01*
G01X19813Y7841D01*
G01X19894Y7912D01*
G01X19967Y7991D01*
G01X20032Y8077D01*
G01X20050Y8107D01*
G01X19473Y8209D01*
G37*
G36*
G01X18506Y7808D02*
G01X18558Y7775D01*
G01X18660Y8352D01*
G01X18083Y8454D01*
G01X18089Y8420D01*
G01X18121Y8317D01*
G01X18163Y8217D01*
G01X18215Y8123D01*
G01X18275Y8033D01*
G01X18345Y7951D01*
G01X18422Y7875D01*
G01X18506Y7808D01*
G37*
G36*
G01X35491Y8722D02*
G01X35606Y8713D01*
G01X35721Y8716D01*
G01X35835Y8730D01*
G01X35948Y8756D01*
G01X36057Y8793D01*
G01X36162Y8840D01*
G01X36262Y8898D01*
G01X36356Y8965D01*
G01X36442Y9041D01*
G01X36520Y9126D01*
G01X36590Y9218D01*
G01X36650Y9316D01*
G01X36700Y9420D01*
G01X36740Y9528D01*
G01X36768Y9640D01*
G01X36785Y9754D01*
G01X36791Y9869D01*
G01X36785Y9985D01*
G01X36768Y10099D01*
G01X36740Y10210D01*
G01X36700Y10319D01*
G01X36650Y10422D01*
G01X36590Y10521D01*
G01X36520Y10613D01*
G01X36442Y10697D01*
G01X36356Y10774D01*
G01X36262Y10841D01*
G01X36162Y10899D01*
G01X36057Y10946D01*
G01X35948Y10983D01*
G01X35835Y11008D01*
G01X35721Y11023D01*
G01X35606Y11026D01*
G01X35491Y11017D01*
G01X35377Y10997D01*
G01X35266Y10966D01*
G01X35159Y10924D01*
G01X35056Y10871D01*
G01X34959Y10808D01*
G01X34869Y10737D01*
G01X34787Y10656D01*
G01X34713Y10568D01*
G01X34648Y10472D01*
G01X34592Y10371D01*
G01X34548Y10265D01*
G01X34514Y10155D01*
G01X34491Y10042D01*
G01X34479Y9927D01*
G01X34479Y9812D01*
G01X34491Y9697D01*
G01X34514Y9584D01*
G01X34548Y9474D01*
G01X34592Y9368D01*
G01X34648Y9266D01*
G01X34713Y9171D01*
G01X34787Y9083D01*
G01X34869Y9002D01*
G01X34959Y8930D01*
G01X35056Y8868D01*
G01X35159Y8815D01*
G01X35266Y8773D01*
G01X35377Y8742D01*
G01X35491Y8722D01*
G37*
G36*
G01X19616Y9022D02*
G01X20194Y8920D01*
G01X20172Y9006D01*
G01X20135Y9107D01*
G01X20088Y9204D01*
G01X20032Y9296D01*
G01X19967Y9382D01*
G01X19894Y9461D01*
G01X19813Y9533D01*
G01X19725Y9596D01*
G01X19718Y9600D01*
G01X19616Y9022D01*
G37*
G36*
G01X18225Y9267D02*
G01X18803Y9165D01*
G01X18905Y9743D01*
G01X18897Y9742D01*
G01X18793Y9712D01*
G01X18693Y9673D01*
G01X18597Y9624D01*
G01X18506Y9565D01*
G01X18422Y9498D01*
G01X18345Y9423D01*
G01X18275Y9340D01*
G01X18225Y9267D01*
G37*
G36*
G01X32259Y9321D02*
G01X32359Y9313D01*
G01X32460Y9316D01*
G01X32559Y9328D01*
G01X32657Y9351D01*
G01X32752Y9382D01*
G01X32844Y9424D01*
G01X32931Y9474D01*
G01X33012Y9533D01*
G01X33087Y9599D01*
G01X33156Y9672D01*
G01X33216Y9752D01*
G01X33268Y9838D01*
G01X33312Y9928D01*
G01X33346Y10023D01*
G01X33371Y10120D01*
G01X33386Y10219D01*
G01X33391Y10319D01*
G01X33386Y10420D01*
G01X33371Y10519D01*
G01X33346Y10616D01*
G01X33312Y10710D01*
G01X33268Y10801D01*
G01X33216Y10886D01*
G01X33156Y10966D01*
G01X33087Y11040D01*
G01X33012Y11106D01*
G01X32931Y11165D01*
G01X32844Y11215D01*
G01X32752Y11256D01*
G01X32657Y11288D01*
G01X32638Y11293D01*
G01X32622Y11320D01*
G01X32611Y11338D01*
G01X32591Y11368D01*
G01X32578Y11386D01*
G01X32557Y11415D01*
G01X32544Y11432D01*
G01X32521Y11460D01*
G01X32506Y11476D01*
G01X32482Y11502D01*
G01X32466Y11518D01*
G01X32440Y11543D01*
G01X32425Y11557D01*
G01X32397Y11580D01*
G01X32380Y11594D01*
G01X32352Y11616D01*
G01X32334Y11628D01*
G01X32304Y11648D01*
G01X32286Y11660D01*
G01X32255Y11678D01*
G01X32236Y11689D01*
G01X32204Y11706D01*
G01X32185Y11715D01*
G01X32152Y11730D01*
G01X32132Y11738D01*
G01X32099Y11751D01*
G01X32078Y11758D01*
G01X32044Y11769D01*
G01X32023Y11775D01*
G01X31988Y11784D01*
G01X31967Y11789D01*
G01X31932Y11796D01*
G01X31911Y11800D01*
G01X31875Y11805D01*
G01X31854Y11808D01*
G01X31818Y11811D01*
G01X31796Y11812D01*
G01X31760Y11813D01*
G01X31741Y11813D01*
G01X31722Y11812D01*
G01X31706Y11810D01*
G01X30523Y11810D01*
G01X30507Y11812D01*
G01X30488Y11813D01*
G01X30470Y11813D01*
G01X30454Y11814D01*
G01X30440Y11816D01*
G01X30426Y11819D01*
G01X30413Y11822D01*
G01X30399Y11826D01*
G01X30386Y11831D01*
G01X30373Y11837D01*
G01X30360Y11844D01*
G01X30348Y11850D01*
G01X30336Y11858D01*
G01X30324Y11867D01*
G01X30313Y11876D01*
G01X30303Y11886D01*
G01X30293Y11896D01*
G01X30284Y11907D01*
G01X30275Y11918D01*
G01X30267Y11930D01*
G01X30260Y11942D01*
G01X30253Y11955D01*
G01X30248Y11968D01*
G01X30243Y11981D01*
G01X30242Y11983D01*
G01X30683Y12460D01*
G01X30691Y12467D01*
G01X30773Y12556D01*
G01X30845Y12652D01*
G01X30908Y12755D01*
G01X30961Y12863D01*
G01X31002Y12977D01*
G01X31032Y13093D01*
G01X31050Y13213D01*
G01X31056Y13333D01*
G01X31050Y13453D01*
G01X31032Y13572D01*
G01X31002Y13689D01*
G01X30961Y13803D01*
G01X30908Y13911D01*
G01X30845Y14014D01*
G01X30773Y14110D01*
G01X30691Y14198D01*
G01X30600Y14278D01*
G01X30502Y14349D01*
G01X30398Y14409D01*
G01X30288Y14458D01*
G01X30174Y14497D01*
G01X30056Y14524D01*
G01X29937Y14539D01*
G01X29816Y14542D01*
G01X29696Y14533D01*
G01X29577Y14512D01*
G01X29461Y14479D01*
G01X29349Y14435D01*
G01X29242Y14380D01*
G01X29141Y14315D01*
G01X29047Y14239D01*
G01X28960Y14155D01*
G01X28883Y14063D01*
G01X28815Y13963D01*
G01X28757Y13858D01*
G01X28710Y13746D01*
G01X28675Y13631D01*
G01X28651Y13513D01*
G01X28639Y13393D01*
G01X28639Y13273D01*
G01X28651Y13153D01*
G01X28675Y13035D01*
G01X28710Y12919D01*
G01X28757Y12808D01*
G01X28815Y12702D01*
G01X28883Y12603D01*
G01X28960Y12511D01*
G01X28995Y12477D01*
G01X29466Y11963D01*
G01X29466Y11960D01*
G01X29469Y11939D01*
G01X29474Y11903D01*
G01X29478Y11882D01*
G01X29485Y11847D01*
G01X29489Y11825D01*
G01X29499Y11791D01*
G01X29505Y11770D01*
G01X29516Y11736D01*
G01X29523Y11715D01*
G01X29536Y11682D01*
G01X29544Y11662D01*
G01X29559Y11629D01*
G01X29568Y11609D01*
G01X29585Y11578D01*
G01X29595Y11559D01*
G01X29614Y11528D01*
G01X29625Y11510D01*
G01X29646Y11480D01*
G01X29658Y11462D01*
G01X29680Y11434D01*
G01X29694Y11417D01*
G01X29717Y11389D01*
G01X29731Y11373D01*
G01X29756Y11347D01*
G01X29772Y11332D01*
G01X29798Y11308D01*
G01X29814Y11293D01*
G01X29842Y11270D01*
G01X29859Y11257D01*
G01X29888Y11235D01*
G01X29906Y11223D01*
G01X29936Y11203D01*
G01X29954Y11192D01*
G01X29985Y11174D01*
G01X30004Y11164D01*
G01X30036Y11148D01*
G01X30056Y11138D01*
G01X30089Y11124D01*
G01X30109Y11116D01*
G01X30143Y11103D01*
G01X30163Y11096D01*
G01X30197Y11086D01*
G01X30218Y11080D01*
G01X30253Y11071D01*
G01X30274Y11067D01*
G01X30310Y11060D01*
G01X30331Y11057D01*
G01X30367Y11052D01*
G01X30388Y11050D01*
G01X30424Y11048D01*
G01X30443Y11047D01*
G01X30471Y11046D01*
G01X30490Y11046D01*
G01X30509Y11047D01*
G01X30523Y11048D01*
G01X31692Y11048D01*
G01X31647Y11004D01*
G01X31582Y10927D01*
G01X31526Y10844D01*
G01X31478Y10756D01*
G01X31439Y10664D01*
G01X31409Y10568D01*
G01X31389Y10469D01*
G01X31379Y10370D01*
G01X31379Y10269D01*
G01X31389Y10169D01*
G01X31409Y10071D01*
G01X31439Y9975D01*
G01X31478Y9883D01*
G01X31526Y9795D01*
G01X31582Y9712D01*
G01X31647Y9635D01*
G01X31718Y9565D01*
G01X31797Y9502D01*
G01X31881Y9448D01*
G01X31971Y9402D01*
G01X32064Y9365D01*
G01X32161Y9338D01*
G01X32259Y9321D01*
G37*
G36*
G01X32236Y12133D02*
G01X32356Y12124D01*
G01X32477Y12127D01*
G01X32596Y12142D01*
G01X32714Y12169D01*
G01X32828Y12207D01*
G01X32938Y12257D01*
G01X33042Y12317D01*
G01X33140Y12388D01*
G01X33231Y12467D01*
G01X33313Y12556D01*
G01X33385Y12652D01*
G01X33448Y12755D01*
G01X33501Y12863D01*
G01X33542Y12977D01*
G01X33572Y13093D01*
G01X33590Y13213D01*
G01X33596Y13333D01*
G01X33590Y13453D01*
G01X33572Y13572D01*
G01X33542Y13689D01*
G01X33501Y13803D01*
G01X33448Y13911D01*
G01X33385Y14014D01*
G01X33313Y14110D01*
G01X33231Y14198D01*
G01X33140Y14278D01*
G01X33042Y14349D01*
G01X32938Y14409D01*
G01X32828Y14458D01*
G01X32714Y14497D01*
G01X32596Y14524D01*
G01X32477Y14539D01*
G01X32356Y14542D01*
G01X32236Y14533D01*
G01X32117Y14512D01*
G01X32001Y14479D01*
G01X31889Y14435D01*
G01X31782Y14380D01*
G01X31681Y14315D01*
G01X31587Y14239D01*
G01X31500Y14155D01*
G01X31423Y14063D01*
G01X31355Y13963D01*
G01X31297Y13858D01*
G01X31250Y13746D01*
G01X31215Y13631D01*
G01X31191Y13513D01*
G01X31179Y13393D01*
G01X31179Y13273D01*
G01X31191Y13153D01*
G01X31215Y13035D01*
G01X31250Y12919D01*
G01X31297Y12808D01*
G01X31355Y12702D01*
G01X31423Y12603D01*
G01X31500Y12511D01*
G01X31587Y12426D01*
G01X31681Y12351D01*
G01X31782Y12286D01*
G01X31889Y12231D01*
G01X32001Y12187D01*
G01X32117Y12154D01*
G01X32236Y12133D01*
G37*

%LPD*%
G36*
G01X26009Y13080D02*
G01X23538Y13080D01*
G01X23521Y13082D01*
G01X23502Y13083D01*
G01X23459Y13084D01*
G01X23423Y13086D01*
G01X23389Y13089D01*
G01X23353Y13094D01*
G01X23319Y13101D01*
G01X23284Y13109D01*
G01X23250Y13118D01*
G01X23216Y13128D01*
G01X23182Y13140D01*
G01X23149Y13153D01*
G01X23117Y13168D01*
G01X23086Y13183D01*
G01X23054Y13200D01*
G01X23024Y13218D01*
G01X22994Y13238D01*
G01X22966Y13258D01*
G01X22937Y13280D01*
G01X22910Y13303D01*
G01X22884Y13327D01*
G01X22859Y13352D01*
G01X22835Y13378D01*
G01X22811Y13405D01*
G01X22789Y13432D01*
G01X22768Y13461D01*
G01X22749Y13490D01*
G01X22730Y13520D01*
G01X22713Y13552D01*
G01X22697Y13583D01*
G01X22682Y13616D01*
G01X22668Y13649D01*
G01X22656Y13681D01*
G01X22645Y13715D01*
G01X22636Y13749D01*
G01X22628Y13784D01*
G01X22621Y13819D01*
G01X22616Y13854D01*
G01X22612Y13889D01*
G01X22609Y13924D01*
G01X22608Y13963D01*
G01X22608Y13970D01*
G01X22857Y13970D01*
G01X23149Y14261D01*
G01X23150Y14260D01*
G01X23157Y14253D01*
G01X23165Y14246D01*
G01X23173Y14239D01*
G01X23182Y14233D01*
G01X23190Y14227D01*
G01X23199Y14221D01*
G01X23208Y14216D01*
G01X23218Y14211D01*
G01X23227Y14207D01*
G01X23237Y14203D01*
G01X23247Y14199D01*
G01X23257Y14196D01*
G01X23267Y14193D01*
G01X23277Y14191D01*
G01X23288Y14189D01*
G01X23298Y14187D01*
G01X23308Y14186D01*
G01X23319Y14186D01*
G01X23329Y14185D01*
G01X24930Y14185D01*
G01X24940Y14186D01*
G01X24951Y14186D01*
G01X24961Y14187D01*
G01X24971Y14189D01*
G01X24982Y14191D01*
G01X24992Y14193D01*
G01X25002Y14196D01*
G01X25012Y14199D01*
G01X25022Y14203D01*
G01X25032Y14207D01*
G01X25041Y14211D01*
G01X25050Y14216D01*
G01X25060Y14221D01*
G01X25068Y14227D01*
G01X25077Y14233D01*
G01X25086Y14239D01*
G01X25094Y14246D01*
G01X25102Y14253D01*
G01X25109Y14260D01*
G01X25116Y14267D01*
G01X25123Y14275D01*
G01X25130Y14283D01*
G01X25136Y14292D01*
G01X25142Y14300D01*
G01X25148Y14309D01*
G01X25153Y14318D01*
G01X25158Y14328D01*
G01X25162Y14337D01*
G01X25166Y14347D01*
G01X25170Y14357D01*
G01X25173Y14367D01*
G01X25176Y14377D01*
G01X25178Y14387D01*
G01X25180Y14398D01*
G01X25182Y14408D01*
G01X25183Y14418D01*
G01X25183Y14429D01*
G01X25184Y14439D01*
G01X25184Y15240D01*
G01X27552Y15240D01*
G01X27552Y15226D01*
G01X27553Y15207D01*
G01X27555Y15188D01*
G01X27558Y15169D01*
G01X27558Y15165D01*
G01X27558Y14622D01*
G01X27558Y14622D01*
G01X27558Y14603D01*
G01X27558Y14600D01*
G01X27557Y14548D01*
G01X27554Y14499D01*
G01X27550Y14450D01*
G01X27544Y14399D01*
G01X27537Y14351D01*
G01X27528Y14302D01*
G01X27517Y14253D01*
G01X27505Y14205D01*
G01X27491Y14158D01*
G01X27476Y14110D01*
G01X27459Y14063D01*
G01X27441Y14018D01*
G01X27421Y13971D01*
G01X27400Y13928D01*
G01X27377Y13883D01*
G01X27352Y13839D01*
G01X27327Y13797D01*
G01X27299Y13755D01*
G01X27272Y13715D01*
G01X27242Y13675D01*
G01X27211Y13635D01*
G01X27179Y13598D01*
G01X27145Y13561D01*
G01X27111Y13526D01*
G01X27074Y13490D01*
G01X27038Y13458D01*
G01X27000Y13425D01*
G01X26961Y13395D01*
G01X26921Y13365D01*
G01X26880Y13337D01*
G01X26838Y13310D01*
G01X26796Y13285D01*
G01X26752Y13260D01*
G01X26708Y13238D01*
G01X26663Y13217D01*
G01X26618Y13197D01*
G01X26571Y13179D01*
G01X26524Y13162D01*
G01X26478Y13147D01*
G01X26429Y13133D01*
G01X26381Y13121D01*
G01X26333Y13111D01*
G01X26284Y13102D01*
G01X26235Y13095D01*
G01X26185Y13089D01*
G01X26136Y13085D01*
G01X26086Y13082D01*
G01X26030Y13081D01*
G01X26011Y13081D01*
G01X26009Y13080D01*
G37*

%LPC*%

%LPD*%
G54D11*
G01X25402Y6461D02*
G01X25402Y1903D01*
G54D10*
G01X27939Y14604D02*
G01X27939Y15239D01*
G01X29844Y17778D02*
G01X29844Y17950D01*
G01X5080Y14604D02*
G01X5080Y16509D01*
G01X8889Y20319D02*
G01X16510Y20319D01*
G01X31748Y1903D02*
G01X27942Y1903D01*
G01X7659Y15835D02*
G01X7659Y1984D01*
G01X13334Y12064D02*
G01X13334Y8889D01*
G01X10160Y5715D02*
G01X10159Y5715D01*
G01X7659Y3214D02*
G01X7659Y1984D01*
G01X19684Y12649D02*
G01X19684Y12699D01*
G01X17144Y15239D02*
G01X16510Y15239D01*
G01X26250Y8255D02*
G01X24078Y8255D01*
G01X20954Y15875D02*
G01X20954Y13334D01*
G01X24420Y9869D02*
G01X29135Y9869D01*
G01X29844Y13331D02*
G01X29844Y12064D01*
G01X30479Y11429D02*
G01X31749Y11429D01*
G01X32385Y10794D02*
G01X32385Y10319D01*
G01X29844Y23491D02*
G01X29844Y17144D01*
G01X26034Y12699D02*
G01X23494Y12699D01*
G01X22224Y13969D02*
G01X22224Y18414D01*
G01X17779Y22859D02*
G01X16510Y22859D01*
G01X10793Y21588D02*
G01X1907Y21588D01*
G54D11*
G75*
G01X24041Y7823D02*
G2X25402Y6462I0J-1361D01*
G01*
G54D10*
G75*
G01X26037Y12698D02*
G3X27942Y14603I0J1905D01*
G01*
G75*
G01X28575Y15875D02*
G3X29843Y17143I0J1268D01*
G01*
G75*
G01X23495Y12700D02*
G2X22225Y13970I0J1270D01*
G01*
G75*
G01X1905Y11430D02*
G3X5080Y14605I0J3175D01*
G01*
G75*
G01X5080Y16510D02*
G2X8890Y20320I3810J0D01*
G01*
G75*
G01X31750Y1905D02*
G2X31748Y1903I-2J0D01*
G01*
G75*
G01X7620Y15875D02*
G2X7660Y15835I0J-40D01*
G01*
G75*
G01X16510Y15240D02*
G3X13335Y12065I0J-3175D01*
G01*
G75*
G01X13335Y8890D02*
G2X10160Y5715I-3175J0D01*
G01*
G75*
G01X10160Y5715D02*
G3X7660Y3215I0J-2500D01*
G01*
G54D11*
G75*
G01X24079Y8255D02*
G2X19685Y12649I0J4394D01*
G01*
G75*
G01X19685Y12700D02*
G3X17145Y15240I-2540J0D01*
G01*
G54D10*
G75*
G01X29135Y5370D02*
G3X26250Y8255I-2885J0D01*
G01*
G75*
G01X16510Y20320D02*
G2X20955Y15875I0J-4445D01*
G01*
G75*
G01X20955Y13335D02*
G3X24420Y9870I3465J0D01*
G01*
G75*
G01X29847Y13333D02*
G3X29845Y13331I0J-2D01*
G01*
G75*
G01X29845Y12065D02*
G3X30480Y11430I635J0D01*
G01*
G75*
G01X31750Y11430D02*
G2X32385Y10795I0J-635D01*
G01*
G75*
G01X29847Y23493D02*
G3X29845Y23491I0J-2D01*
G01*
G75*
G01X22225Y18415D02*
G3X17780Y22860I-4445J0D01*
G01*
G75*
G01X15240Y26035D02*
G2X10793Y21588I-4447J0D01*
G01*
G75*
G01X28575Y15875D02*
G3X27936Y15236I0J-639D01*
G01*

%LPD*%
G36*
G01X25131Y8128D02*
G01X24783Y7461D01*
G01X24307Y8604D01*
G01X25025Y8382D01*
G01X25131Y8128D01*
G37*

%LPD*%
G36*
G01X7786Y3577D02*
G01X8537Y2758D01*
G01X6782Y2758D01*
G01X7532Y3577D01*
G01X7786Y3577D01*
G37*

%LPD*%
G36*
G01X7786Y3214D02*
G01X8537Y2758D01*
G01X6782Y2758D01*
G01X7532Y3214D01*
G01X7786Y3214D01*
G37*

%LPD*%
G36*
G01X7786Y14582D02*
G01X8353Y15267D01*
G01X6925Y15223D01*
G01X7532Y14574D01*
G01X7786Y14582D01*
G37*

%LPD*%
G36*
G01X29972Y22196D02*
G01X30560Y22862D01*
G01X29131Y22864D01*
G01X29718Y22196D01*
G01X29972Y22196D01*
G37*

%LPD*%
G36*
G01X29972Y12064D02*
G01X30560Y12702D01*
G01X29131Y12704D01*
G01X29718Y12065D01*
G01X29972Y12064D01*
G37*

%LPD*%
G36*
G01X17599Y22732D02*
G01X17039Y22259D01*
G01X17039Y23460D01*
G01X17599Y22986D01*
G01X17599Y22732D01*
G37*

%LPD*%
G36*
G01X15420Y20192D02*
G01X15980Y19719D01*
G01X15980Y20920D01*
G01X15420Y20446D01*
G01X15420Y20192D01*
G37*

%LPD*%
G36*
G01X27909Y9742D02*
G01X28539Y9194D01*
G01X28539Y10544D01*
G01X27909Y9996D01*
G01X27909Y9742D01*
G37*

%LPD*%
G36*
G01X25719Y2940D02*
G01X25973Y2407D01*
G01X24830Y2407D01*
G01X25084Y2940D01*
G01X25719Y2940D01*
G37*

%LPD*%
G36*
G01X28979Y1776D02*
G01X28446Y1331D01*
G01X28446Y2474D01*
G01X28979Y2030D01*
G01X28979Y1776D01*
G37*

%LPD*%
G36*
G01X30678Y1776D02*
G01X31230Y1313D01*
G01X31228Y2494D01*
G01X30677Y2030D01*
G01X30678Y1776D01*
G37*

%LPD*%
G36*
G01X3075Y21715D02*
G01X2694Y21905D01*
G01X2694Y21270D01*
G01X3075Y21461D01*
G01X3075Y21715D01*
G37*
G54D12*
G01X19138Y8687D03*
G01X24041Y7822D03*
G01X26672Y17829D03*
G01X26672Y22807D03*
G54D13*
G01X12702Y15873D03*
G01X12702Y26033D03*
G01X15240Y26034D03*
G01X25400Y26034D03*
G54D14*
G01X7659Y1984D03*
G01X10160Y11984D03*
G01X12659Y1984D03*
G54D13*
G01X32387Y13333D03*
G01X32387Y23493D03*
G01X7620Y15874D03*
G01X7620Y26034D03*
G54D12*
G01X27355Y26034D03*
G01X32334Y26034D03*
G54D15*
G01X1907Y21588D03*
G01X1905Y19049D03*
G01X36195Y21589D03*
G01X36192Y19052D03*
G54D13*
G01X29847Y23493D03*
G01X29847Y13333D03*
G54D16*
G01X24130Y15239D03*
G54D17*
G01X24130Y17779D03*
G01X24130Y20319D03*
G01X24130Y22859D03*
G01X16510Y22859D03*
G01X16510Y20319D03*
G01X16510Y17779D03*
G01X16510Y15239D03*
G54D13*
G01X10162Y15873D03*
G01X10162Y26033D03*
G54D18*
G01X35634Y5370D03*
G01X29135Y5370D03*
G01X35634Y9869D03*
G01X29135Y9869D03*
G54D19*
G01X32385Y4919D03*
G01X32385Y10319D03*
G54D15*
G01X36192Y16511D03*
G54D20*
G01X25402Y1903D03*
G01X22862Y1903D03*
G01X27942Y1903D03*
G54D21*
G01X1905Y3809D03*
G01X1905Y6349D03*
G01X1905Y8889D03*
G01X1905Y11429D03*
G01X1905Y13969D03*
G54D15*
G01X1905Y16509D03*
G54D21*
G01X31750Y1904D03*
M00*
M02*
