G04 ---------------------------- Layer name :BOTTOM SILK LAYER*
G04 EasyEDA v5.7.26, Fri, 05 Oct 2018 08:41:05 GMT*
G04 54122b58c75541d9af0cf1b90c5639c7*
G04 Gerber Generator version 0.2*
G04 Scale: 100 percent, Rotated: No, Reflected: No *
G04 Dimensions in millimeters *
G04 leading zeros omitted , absolute positions ,3 integer and 3 decimal *
%FSLAX33Y33*%
%MOMM*%
G90*
G71D02*

%ADD10C,0.254000*%
%ADD23C,0.203200*%
%ADD24C,0.202999*%
%ADD25C,0.177800*%
%ADD26C,0.257999*%

%LPD*%

%LPD*%
G36*
G01X25302Y9618D02*
G01X25251Y9618D01*
G01X25200Y9619D01*
G01X25149Y9624D01*
G01X25098Y9629D01*
G01X25047Y9636D01*
G01X24997Y9645D01*
G01X24946Y9657D01*
G01X24896Y9670D01*
G01X24846Y9686D01*
G01X24796Y9703D01*
G01X24747Y9723D01*
G01X24698Y9744D01*
G01X24650Y9767D01*
G01X24602Y9793D01*
G01X24556Y9821D01*
G01X24509Y9851D01*
G01X24464Y9883D01*
G01X24420Y9917D01*
G01X24376Y9953D01*
G01X24335Y9990D01*
G01X24295Y10028D01*
G01X24258Y10067D01*
G01X24222Y10106D01*
G01X24188Y10146D01*
G01X24156Y10187D01*
G01X24126Y10229D01*
G01X24099Y10271D01*
G01X24072Y10314D01*
G01X24048Y10358D01*
G01X24025Y10402D01*
G01X24004Y10447D01*
G01X23985Y10491D01*
G01X23967Y10537D01*
G01X23952Y10583D01*
G01X23937Y10628D01*
G01X23925Y10675D01*
G01X23915Y10721D01*
G01X23905Y10768D01*
G01X23898Y10815D01*
G01X23893Y10862D01*
G01X23889Y10909D01*
G01X23886Y10956D01*
G01X23885Y11003D01*
G01X23886Y11051D01*
G01X23888Y11097D01*
G01X23892Y11144D01*
G01X23897Y11191D01*
G01X23904Y11237D01*
G01X23913Y11283D01*
G01X23923Y11328D01*
G01X23934Y11374D01*
G01X23947Y11419D01*
G01X23961Y11464D01*
G01X23977Y11508D01*
G01X23993Y11551D01*
G01X24012Y11594D01*
G01X24031Y11636D01*
G01X24053Y11678D01*
G01X24075Y11719D01*
G01X24099Y11759D01*
G01X24124Y11799D01*
G01X24150Y11837D01*
G01X24178Y11876D01*
G01X24207Y11912D01*
G01X24237Y11948D01*
G01X24268Y11983D01*
G01X24301Y12017D01*
G01X24335Y12050D01*
G01X24370Y12082D01*
G01X24406Y12112D01*
G01X24443Y12142D01*
G01X24482Y12170D01*
G01X24521Y12197D01*
G01X24562Y12222D01*
G01X24603Y12246D01*
G01X24647Y12269D01*
G01X24690Y12291D01*
G01X24735Y12310D01*
G01X24781Y12329D01*
G01X24828Y12345D01*
G01X24876Y12361D01*
G01X24925Y12374D01*
G01X24975Y12386D01*
G01X25026Y12396D01*
G01X25077Y12404D01*
G01X25130Y12410D01*
G01X25184Y12415D01*
G01X25238Y12418D01*
G01X25294Y12418D01*
G01X25350Y12417D01*
G01X25413Y12412D01*
G01X25474Y12406D01*
G01X25535Y12397D01*
G01X25595Y12386D01*
G01X25654Y12371D01*
G01X25711Y12355D01*
G01X25767Y12337D01*
G01X25823Y12316D01*
G01X25877Y12293D01*
G01X25929Y12268D01*
G01X25980Y12240D01*
G01X26030Y12211D01*
G01X26078Y12180D01*
G01X26125Y12147D01*
G01X26170Y12112D01*
G01X26214Y12075D01*
G01X26256Y12036D01*
G01X26296Y11996D01*
G01X26335Y11954D01*
G01X26372Y11911D01*
G01X26407Y11865D01*
G01X26440Y11819D01*
G01X26471Y11771D01*
G01X26501Y11722D01*
G01X26528Y11671D01*
G01X26554Y11619D01*
G01X26577Y11567D01*
G01X26598Y11512D01*
G01X26617Y11457D01*
G01X26634Y11401D01*
G01X26648Y11344D01*
G01X26660Y11286D01*
G01X26671Y11227D01*
G01X26678Y11167D01*
G01X26683Y11106D01*
G01X26685Y11045D01*
G01X26685Y10983D01*
G01X26683Y10921D01*
G01X26677Y10858D01*
G01X26670Y10795D01*
G01X26660Y10739D01*
G01X26649Y10685D01*
G01X26635Y10632D01*
G01X26620Y10580D01*
G01X26603Y10529D01*
G01X26584Y10479D01*
G01X26563Y10430D01*
G01X26540Y10383D01*
G01X26516Y10337D01*
G01X26490Y10292D01*
G01X26462Y10248D01*
G01X26433Y10206D01*
G01X26402Y10165D01*
G01X26370Y10125D01*
G01X26337Y10086D01*
G01X26302Y10049D01*
G01X26266Y10013D01*
G01X26228Y9979D01*
G01X26189Y9946D01*
G01X26149Y9915D01*
G01X26109Y9885D01*
G01X26067Y9856D01*
G01X26024Y9829D01*
G01X25980Y9803D01*
G01X25936Y9780D01*
G01X25890Y9757D01*
G01X25844Y9736D01*
G01X25797Y9717D01*
G01X25750Y9700D01*
G01X25702Y9684D01*
G01X25653Y9669D01*
G01X25604Y9657D01*
G01X25554Y9646D01*
G01X25505Y9637D01*
G01X25454Y9630D01*
G01X25404Y9624D01*
G01X25353Y9620D01*
G01X25302Y9618D01*
G37*

%LPC*%
G36*
G01X25232Y9871D02*
G01X25293Y9868D01*
G01X25353Y9870D01*
G01X25413Y9875D01*
G01X25472Y9883D01*
G01X25531Y9894D01*
G01X25588Y9910D01*
G01X25645Y9929D01*
G01X25700Y9952D01*
G01X25784Y9991D01*
G01X25840Y10020D01*
G01X25890Y10051D01*
G01X25955Y10096D01*
G01X26007Y10135D01*
G01X26056Y10177D01*
G01X26103Y10220D01*
G01X26147Y10267D01*
G01X26187Y10315D01*
G01X26226Y10366D01*
G01X26260Y10419D01*
G01X26292Y10473D01*
G01X26321Y10529D01*
G01X26346Y10586D01*
G01X26368Y10645D01*
G01X26388Y10705D01*
G01X26403Y10766D01*
G01X26416Y10828D01*
G01X26424Y10891D01*
G01X26430Y10954D01*
G01X26431Y11018D01*
G01X26429Y11082D01*
G01X26424Y11146D01*
G01X26414Y11211D01*
G01X26403Y11269D01*
G01X26389Y11326D01*
G01X26372Y11381D01*
G01X26352Y11436D01*
G01X26330Y11488D01*
G01X26306Y11539D01*
G01X26279Y11589D01*
G01X26250Y11637D01*
G01X26218Y11683D01*
G01X26185Y11727D01*
G01X26150Y11770D01*
G01X26113Y11811D01*
G01X26074Y11850D01*
G01X26033Y11887D01*
G01X25990Y11921D01*
G01X25946Y11954D01*
G01X25900Y11985D01*
G01X25854Y12013D01*
G01X25805Y12040D01*
G01X25755Y12063D01*
G01X25704Y12085D01*
G01X25652Y12104D01*
G01X25599Y12121D01*
G01X25545Y12135D01*
G01X25490Y12146D01*
G01X25435Y12155D01*
G01X25378Y12162D01*
G01X25321Y12165D01*
G01X25263Y12165D01*
G01X25205Y12163D01*
G01X25147Y12157D01*
G01X25088Y12149D01*
G01X25043Y12141D01*
G01X25001Y12132D01*
G01X24966Y12124D01*
G01X24944Y12117D01*
G01X24930Y12111D01*
G01X24916Y12106D01*
G01X24904Y12103D01*
G01X24897Y12102D01*
G01X24867Y12095D01*
G01X24824Y12078D01*
G01X24773Y12051D01*
G01X24716Y12016D01*
G01X24657Y11977D01*
G01X24599Y11935D01*
G01X24546Y11893D01*
G01X24501Y11851D01*
G01X24439Y11784D01*
G01X24375Y11705D01*
G01X24325Y11637D01*
G01X24305Y11599D01*
G01X24304Y11594D01*
G01X24301Y11588D01*
G01X24297Y11582D01*
G01X24292Y11576D01*
G01X24276Y11554D01*
G01X24258Y11519D01*
G01X24239Y11473D01*
G01X24219Y11420D01*
G01X24201Y11362D01*
G01X24184Y11304D01*
G01X24170Y11248D01*
G01X24160Y11196D01*
G01X24152Y11134D01*
G01X24149Y11067D01*
G01X24148Y10999D01*
G01X24150Y10930D01*
G01X24156Y10865D01*
G01X24164Y10805D01*
G01X24175Y10753D01*
G01X24188Y10711D01*
G01X24194Y10697D01*
G01X24198Y10685D01*
G01X24201Y10674D01*
G01X24202Y10666D01*
G01X24219Y10610D01*
G01X24263Y10521D01*
G01X24319Y10421D01*
G01X24376Y10335D01*
G01X24416Y10284D01*
G01X24459Y10237D01*
G01X24504Y10192D01*
G01X24552Y10149D01*
G01X24601Y10109D01*
G01X24652Y10072D01*
G01X24706Y10039D01*
G01X24760Y10008D01*
G01X24816Y9979D01*
G01X24874Y9954D01*
G01X24932Y9932D01*
G01X24991Y9914D01*
G01X25051Y9898D01*
G01X25111Y9886D01*
G01X25172Y9877D01*
G01X25232Y9871D01*
G37*

%LPD*%
G36*
G01X25326Y10216D02*
G01X25280Y10214D01*
G01X25233Y10217D01*
G01X25187Y10225D01*
G01X25142Y10236D01*
G01X25098Y10251D01*
G01X25057Y10271D01*
G01X25018Y10295D01*
G01X24981Y10323D01*
G01X24949Y10355D01*
G01X24920Y10391D01*
G01X24895Y10432D01*
G01X24875Y10476D01*
G01X24861Y10525D01*
G01X24850Y10584D01*
G01X24847Y10641D01*
G01X24850Y10694D01*
G01X24860Y10746D01*
G01X24877Y10795D01*
G01X24902Y10842D01*
G01X24933Y10886D01*
G01X24971Y10930D01*
G01X25026Y10982D01*
G01X25058Y10999D01*
G01X25083Y10979D01*
G01X25113Y10923D01*
G01X25156Y10836D01*
G01X25129Y10815D01*
G01X25119Y10807D01*
G01X25108Y10800D01*
G01X25101Y10795D01*
G01X25096Y10793D01*
G01X25084Y10781D01*
G01X25066Y10752D01*
G01X25048Y10717D01*
G01X25038Y10687D01*
G01X25034Y10646D01*
G01X25041Y10609D01*
G01X25057Y10576D01*
G01X25082Y10546D01*
G01X25113Y10522D01*
G01X25151Y10502D01*
G01X25192Y10487D01*
G01X25235Y10478D01*
G01X25281Y10473D01*
G01X25326Y10474D01*
G01X25371Y10482D01*
G01X25412Y10494D01*
G01X25449Y10514D01*
G01X25481Y10539D01*
G01X25506Y10572D01*
G01X25523Y10611D01*
G01X25527Y10668D01*
G01X25512Y10725D01*
G01X25480Y10773D01*
G01X25436Y10804D01*
G01X25424Y10810D01*
G01X25424Y10822D01*
G01X25436Y10851D01*
G01X25464Y10905D01*
G01X25496Y10965D01*
G01X25518Y10992D01*
G01X25540Y10992D01*
G01X25571Y10971D01*
G01X25614Y10933D01*
G01X25651Y10887D01*
G01X25680Y10834D01*
G01X25702Y10775D01*
G01X25715Y10712D01*
G01X25721Y10646D01*
G01X25718Y10579D01*
G01X25706Y10512D01*
G01X25690Y10464D01*
G01X25669Y10420D01*
G01X25643Y10380D01*
G01X25613Y10344D01*
G01X25580Y10313D01*
G01X25543Y10287D01*
G01X25503Y10264D01*
G01X25461Y10245D01*
G01X25417Y10231D01*
G01X25372Y10221D01*
G01X25326Y10216D01*
G37*

%LPC*%

%LPD*%
G36*
G01X25326Y11026D02*
G01X25282Y11026D01*
G01X25239Y11029D01*
G01X25196Y11037D01*
G01X25153Y11047D01*
G01X25112Y11062D01*
G01X25072Y11080D01*
G01X25035Y11101D01*
G01X24999Y11126D01*
G01X24967Y11155D01*
G01X24937Y11186D01*
G01X24911Y11221D01*
G01X24889Y11259D01*
G01X24871Y11300D01*
G01X24858Y11345D01*
G01X24849Y11392D01*
G01X24847Y11443D01*
G01X24852Y11501D01*
G01X24869Y11562D01*
G01X24893Y11624D01*
G01X24923Y11682D01*
G01X24958Y11734D01*
G01X24994Y11775D01*
G01X25030Y11802D01*
G01X25064Y11812D01*
G01X25084Y11786D01*
G01X25116Y11729D01*
G01X25144Y11670D01*
G01X25153Y11641D01*
G01X25150Y11638D01*
G01X25141Y11633D01*
G01X25131Y11625D01*
G01X25119Y11616D01*
G01X25076Y11580D01*
G01X25048Y11541D01*
G01X25034Y11501D01*
G01X25033Y11460D01*
G01X25043Y11421D01*
G01X25063Y11384D01*
G01X25093Y11351D01*
G01X25132Y11323D01*
G01X25179Y11301D01*
G01X25232Y11288D01*
G01X25291Y11283D01*
G01X25355Y11289D01*
G01X25418Y11308D01*
G01X25468Y11338D01*
G01X25505Y11377D01*
G01X25527Y11422D01*
G01X25534Y11470D01*
G01X25524Y11518D01*
G01X25497Y11564D01*
G01X25452Y11603D01*
G01X25416Y11627D01*
G01X25464Y11717D01*
G01X25482Y11753D01*
G01X25498Y11782D01*
G01X25509Y11802D01*
G01X25514Y11811D01*
G01X25527Y11808D01*
G01X25551Y11794D01*
G01X25582Y11769D01*
G01X25612Y11740D01*
G01X25645Y11701D01*
G01X25672Y11658D01*
G01X25694Y11609D01*
G01X25709Y11559D01*
G01X25719Y11505D01*
G01X25722Y11449D01*
G01X25719Y11392D01*
G01X25710Y11336D01*
G01X25696Y11287D01*
G01X25678Y11243D01*
G01X25655Y11202D01*
G01X25629Y11167D01*
G01X25599Y11135D01*
G01X25566Y11108D01*
G01X25531Y11084D01*
G01X25492Y11065D01*
G01X25453Y11049D01*
G01X25412Y11038D01*
G01X25369Y11030D01*
G01X25326Y11026D01*
G37*

%LPC*%

%LPD*%
G36*
G01X25324Y12795D02*
G01X25271Y12794D01*
G01X25219Y12796D01*
G01X25166Y12799D01*
G01X25113Y12804D01*
G01X25060Y12811D01*
G01X25008Y12820D01*
G01X24956Y12832D01*
G01X24904Y12845D01*
G01X24852Y12861D01*
G01X24801Y12879D01*
G01X24750Y12899D01*
G01X24700Y12921D01*
G01X24650Y12945D01*
G01X24601Y12972D01*
G01X24553Y13001D01*
G01X24506Y13032D01*
G01X24460Y13065D01*
G01X24414Y13101D01*
G01X24369Y13138D01*
G01X24326Y13179D01*
G01X24285Y13219D01*
G01X24247Y13260D01*
G01X24210Y13302D01*
G01X24176Y13345D01*
G01X24144Y13388D01*
G01X24113Y13432D01*
G01X24085Y13477D01*
G01X24058Y13522D01*
G01X24034Y13567D01*
G01X24012Y13613D01*
G01X23991Y13660D01*
G01X23972Y13706D01*
G01X23955Y13754D01*
G01X23940Y13801D01*
G01X23926Y13849D01*
G01X23915Y13897D01*
G01X23905Y13945D01*
G01X23897Y13993D01*
G01X23891Y14041D01*
G01X23886Y14089D01*
G01X23883Y14138D01*
G01X23882Y14185D01*
G01X23883Y14234D01*
G01X23885Y14281D01*
G01X23888Y14329D01*
G01X23894Y14377D01*
G01X23901Y14424D01*
G01X23910Y14471D01*
G01X23920Y14518D01*
G01X23931Y14563D01*
G01X23945Y14609D01*
G01X23959Y14654D01*
G01X23975Y14699D01*
G01X23993Y14743D01*
G01X24012Y14787D01*
G01X24032Y14830D01*
G01X24054Y14872D01*
G01X24078Y14913D01*
G01X24103Y14953D01*
G01X24128Y14993D01*
G01X24156Y15032D01*
G01X24185Y15070D01*
G01X24215Y15107D01*
G01X24246Y15143D01*
G01X24279Y15178D01*
G01X24313Y15212D01*
G01X24348Y15244D01*
G01X24385Y15276D01*
G01X24422Y15306D01*
G01X24461Y15335D01*
G01X24500Y15362D01*
G01X24541Y15389D01*
G01X24584Y15414D01*
G01X24627Y15437D01*
G01X24671Y15459D01*
G01X24717Y15480D01*
G01X24763Y15499D01*
G01X24811Y15516D01*
G01X24859Y15532D01*
G01X24909Y15546D01*
G01X24959Y15558D01*
G01X25011Y15568D01*
G01X25063Y15577D01*
G01X25117Y15583D01*
G01X25170Y15588D01*
G01X25226Y15591D01*
G01X25282Y15592D01*
G01X25339Y15591D01*
G01X25396Y15587D01*
G01X25453Y15582D01*
G01X25509Y15574D01*
G01X25564Y15565D01*
G01X25618Y15553D01*
G01X25672Y15539D01*
G01X25724Y15524D01*
G01X25776Y15506D01*
G01X25826Y15487D01*
G01X25875Y15466D01*
G01X25924Y15443D01*
G01X25970Y15418D01*
G01X26017Y15391D01*
G01X26061Y15363D01*
G01X26105Y15334D01*
G01X26147Y15303D01*
G01X26188Y15270D01*
G01X26227Y15236D01*
G01X26266Y15200D01*
G01X26302Y15163D01*
G01X26337Y15125D01*
G01X26371Y15086D01*
G01X26403Y15044D01*
G01X26434Y15002D01*
G01X26463Y14959D01*
G01X26491Y14915D01*
G01X26517Y14869D01*
G01X26541Y14822D01*
G01X26563Y14775D01*
G01X26584Y14726D01*
G01X26603Y14677D01*
G01X26620Y14627D01*
G01X26635Y14576D01*
G01X26649Y14524D01*
G01X26660Y14471D01*
G01X26670Y14418D01*
G01X26677Y14363D01*
G01X26682Y14309D01*
G01X26685Y14253D01*
G01X26687Y14198D01*
G01X26686Y14141D01*
G01X26682Y14084D01*
G01X26677Y14027D01*
G01X26670Y13970D01*
G01X26659Y13911D01*
G01X26647Y13854D01*
G01X26632Y13798D01*
G01X26616Y13743D01*
G01X26597Y13690D01*
G01X26577Y13638D01*
G01X26554Y13587D01*
G01X26529Y13538D01*
G01X26503Y13490D01*
G01X26475Y13443D01*
G01X26445Y13399D01*
G01X26413Y13355D01*
G01X26380Y13313D01*
G01X26346Y13272D01*
G01X26310Y13233D01*
G01X26272Y13195D01*
G01X26234Y13159D01*
G01X26194Y13124D01*
G01X26152Y13092D01*
G01X26110Y13060D01*
G01X26067Y13031D01*
G01X26022Y13002D01*
G01X25977Y12976D01*
G01X25930Y12951D01*
G01X25883Y12929D01*
G01X25835Y12907D01*
G01X25786Y12888D01*
G01X25736Y12870D01*
G01X25687Y12854D01*
G01X25636Y12840D01*
G01X25585Y12828D01*
G01X25533Y12817D01*
G01X25481Y12809D01*
G01X25429Y12803D01*
G01X25377Y12798D01*
G01X25324Y12795D01*
G37*

%LPC*%
G36*
G01X25231Y13046D02*
G01X25282Y13045D01*
G01X25333Y13046D01*
G01X25384Y13050D01*
G01X25434Y13056D01*
G01X25484Y13064D01*
G01X25533Y13075D01*
G01X25581Y13088D01*
G01X25630Y13102D01*
G01X25676Y13119D01*
G01X25723Y13138D01*
G01X25768Y13159D01*
G01X25813Y13182D01*
G01X25856Y13206D01*
G01X25899Y13233D01*
G01X25940Y13261D01*
G01X25980Y13291D01*
G01X26019Y13322D01*
G01X26057Y13356D01*
G01X26093Y13390D01*
G01X26127Y13426D01*
G01X26160Y13465D01*
G01X26192Y13504D01*
G01X26222Y13544D01*
G01X26250Y13586D01*
G01X26277Y13629D01*
G01X26301Y13673D01*
G01X26324Y13719D01*
G01X26344Y13765D01*
G01X26363Y13813D01*
G01X26379Y13861D01*
G01X26394Y13911D01*
G01X26406Y13961D01*
G01X26416Y14012D01*
G01X26423Y14064D01*
G01X26428Y14117D01*
G01X26430Y14171D01*
G01X26430Y14225D01*
G01X26427Y14279D01*
G01X26422Y14335D01*
G01X26413Y14390D01*
G01X26402Y14448D01*
G01X26388Y14505D01*
G01X26370Y14560D01*
G01X26351Y14614D01*
G01X26329Y14666D01*
G01X26305Y14717D01*
G01X26278Y14767D01*
G01X26249Y14814D01*
G01X26217Y14860D01*
G01X26184Y14904D01*
G01X26149Y14947D01*
G01X26112Y14988D01*
G01X26073Y15026D01*
G01X26032Y15063D01*
G01X25990Y15097D01*
G01X25946Y15130D01*
G01X25900Y15161D01*
G01X25853Y15189D01*
G01X25804Y15215D01*
G01X25755Y15238D01*
G01X25704Y15260D01*
G01X25651Y15279D01*
G01X25599Y15295D01*
G01X25544Y15310D01*
G01X25489Y15321D01*
G01X25434Y15330D01*
G01X25377Y15336D01*
G01X25320Y15339D01*
G01X25262Y15340D01*
G01X25204Y15337D01*
G01X25146Y15332D01*
G01X25087Y15323D01*
G01X25042Y15315D01*
G01X25000Y15307D01*
G01X24965Y15298D01*
G01X24943Y15291D01*
G01X24929Y15285D01*
G01X24915Y15281D01*
G01X24903Y15278D01*
G01X24896Y15276D01*
G01X24859Y15265D01*
G01X24798Y15235D01*
G01X24725Y15197D01*
G01X24658Y15156D01*
G01X24612Y15123D01*
G01X24567Y15088D01*
G01X24524Y15051D01*
G01X24483Y15011D01*
G01X24444Y14970D01*
G01X24408Y14926D01*
G01X24373Y14881D01*
G01X24341Y14834D01*
G01X24311Y14786D01*
G01X24283Y14737D01*
G01X24258Y14686D01*
G01X24234Y14634D01*
G01X24213Y14582D01*
G01X24195Y14528D01*
G01X24179Y14474D01*
G01X24166Y14420D01*
G01X24155Y14365D01*
G01X24147Y14310D01*
G01X24142Y14255D01*
G01X24139Y14200D01*
G01X24139Y14145D01*
G01X24142Y14090D01*
G01X24147Y14037D01*
G01X24156Y13983D01*
G01X24167Y13930D01*
G01X24182Y13879D01*
G01X24199Y13828D01*
G01X24219Y13778D01*
G01X24258Y13696D01*
G01X24286Y13639D01*
G01X24317Y13591D01*
G01X24359Y13531D01*
G01X24401Y13479D01*
G01X24454Y13421D01*
G01X24513Y13362D01*
G01X24574Y13306D01*
G01X24633Y13255D01*
G01X24687Y13214D01*
G01X24729Y13186D01*
G01X24757Y13176D01*
G01X24763Y13174D01*
G01X24777Y13168D01*
G01X24797Y13160D01*
G01X24819Y13149D01*
G01X24870Y13126D01*
G01X24922Y13107D01*
G01X24973Y13090D01*
G01X25025Y13076D01*
G01X25076Y13065D01*
G01X25128Y13056D01*
G01X25180Y13050D01*
G01X25231Y13046D01*
G37*

%LPD*%
G36*
G01X25460Y13811D02*
G01X25061Y13811D01*
G01X25058Y13893D01*
G01X25055Y13974D01*
G01X24378Y13979D01*
G01X24378Y14408D01*
G01X25055Y14413D01*
G01X25058Y14495D01*
G01X25061Y14576D01*
G01X25659Y14576D01*
G01X25723Y14513D01*
G01X25722Y14197D01*
G01X25721Y14065D01*
G01X25719Y13961D01*
G01X25715Y13892D01*
G01X25712Y13861D01*
G01X25703Y13846D01*
G01X25691Y13833D01*
G01X25672Y13824D01*
G01X25643Y13818D01*
G01X25601Y13814D01*
G01X25541Y13812D01*
G01X25460Y13811D01*
G37*

%LPC*%

%LPD*%
G36*
G01X26094Y14018D02*
G01X26025Y14000D01*
G01X25941Y14002D01*
G01X25895Y14014D01*
G01X25858Y14037D01*
G01X25829Y14069D01*
G01X25808Y14107D01*
G01X25795Y14149D01*
G01X25791Y14194D01*
G01X25795Y14238D01*
G01X25808Y14280D01*
G01X25829Y14318D01*
G01X25858Y14350D01*
G01X25895Y14373D01*
G01X25941Y14385D01*
G01X26008Y14387D01*
G01X26067Y14376D01*
G01X26115Y14353D01*
G01X26153Y14320D01*
G01X26179Y14276D01*
G01X26193Y14226D01*
G01X26193Y14168D01*
G01X26178Y14105D01*
G01X26146Y14053D01*
G01X26094Y14018D01*
G37*

%LPC*%

%LPD*%
G54D10*
G01X38102Y17777D02*
G01X33022Y17777D01*
G01X33022Y7617D01*
G01X38102Y7617D01*
G01X38102Y17777D01*
G54D23*
G01X34291Y17778D02*
G01X36831Y17778D01*
G01X36831Y20318D01*
G01X34291Y20318D01*
G01X34291Y18413D01*
G54D24*
G01X34291Y17778D02*
G01X34291Y18413D01*
G54D26*
G01X12700Y4445D02*
G01X12700Y3810D01*
G01X13335Y3175D01*
G01X10160Y4445D02*
G01X10160Y3810D01*
G01X10795Y3175D01*
G54D25*
G01X33659Y19685D02*
G01X33659Y18595D01*
G01X33659Y19685D02*
G01X33192Y19685D01*
G01X33037Y19634D01*
G01X32984Y19583D01*
G01X32933Y19479D01*
G01X32933Y19322D01*
G01X32984Y19217D01*
G01X33037Y19167D01*
G01X33192Y19113D01*
G01X33659Y19113D01*
G01X32590Y19685D02*
G01X32328Y18595D01*
G01X32069Y19685D02*
G01X32328Y18595D01*
G01X32069Y19685D02*
G01X31810Y18595D01*
G01X31551Y19685D02*
G01X31810Y18595D01*
G01X31208Y19685D02*
G01X31208Y18595D01*
G01X31208Y19685D02*
G01X30738Y19685D01*
G01X30584Y19634D01*
G01X30533Y19583D01*
G01X30479Y19479D01*
G01X30479Y19375D01*
G01X30533Y19271D01*
G01X30584Y19217D01*
G01X30738Y19167D01*
G01X31208Y19167D01*
G01X30843Y19167D02*
G01X30479Y18595D01*

%LPD*%
G36*
G01X9619Y4036D02*
G01X8367Y4036D01*
G01X8367Y4262D01*
G01X8857Y4262D01*
G01X8857Y4295D01*
G01X8842Y4304D01*
G01X8827Y4313D01*
G01X8813Y4323D01*
G01X8799Y4333D01*
G01X8785Y4345D01*
G01X8772Y4359D01*
G01X8759Y4373D01*
G01X8748Y4389D01*
G01X8738Y4407D01*
G01X8729Y4427D01*
G01X8721Y4447D01*
G01X8715Y4468D01*
G01X8709Y4492D01*
G01X8705Y4517D01*
G01X8703Y4545D01*
G01X8702Y4575D01*
G01X8704Y4616D01*
G01X8709Y4655D01*
G01X8718Y4693D01*
G01X8730Y4729D01*
G01X8747Y4764D01*
G01X8768Y4796D01*
G01X8791Y4824D01*
G01X8819Y4851D01*
G01X8850Y4876D01*
G01X8884Y4899D01*
G01X8922Y4918D01*
G01X8964Y4935D01*
G01X9007Y4948D01*
G01X9054Y4958D01*
G01X9103Y4964D01*
G01X9157Y4966D01*
G01X9190Y4966D01*
G01X9242Y4964D01*
G01X9291Y4958D01*
G01X9338Y4947D01*
G01X9383Y4933D01*
G01X9423Y4916D01*
G01X9460Y4897D01*
G01X9494Y4874D01*
G01X9525Y4849D01*
G01X9552Y4821D01*
G01X9576Y4791D01*
G01X9597Y4759D01*
G01X9614Y4724D01*
G01X9627Y4688D01*
G01X9637Y4651D01*
G01X9642Y4613D01*
G01X9644Y4575D01*
G01X9642Y4523D01*
G01X9634Y4478D01*
G01X9622Y4436D01*
G01X9604Y4399D01*
G01X9581Y4367D01*
G01X9554Y4339D01*
G01X9524Y4315D01*
G01X9489Y4295D01*
G01X9489Y4262D01*
G01X9619Y4262D01*
G01X9619Y4036D01*
G37*

%LPC*%
G36*
G01X9109Y4266D02*
G01X9162Y4262D01*
G01X9185Y4262D01*
G01X9236Y4266D01*
G01X9284Y4278D01*
G01X9325Y4299D01*
G01X9362Y4328D01*
G01X9391Y4364D01*
G01X9412Y4404D01*
G01X9424Y4450D01*
G01X9428Y4501D01*
G01X9424Y4552D01*
G01X9412Y4597D01*
G01X9391Y4638D01*
G01X9362Y4674D01*
G01X9326Y4703D01*
G01X9285Y4723D01*
G01X9237Y4736D01*
G01X9185Y4740D01*
G01X9162Y4740D01*
G01X9108Y4736D01*
G01X9061Y4723D01*
G01X9020Y4703D01*
G01X8984Y4674D01*
G01X8955Y4638D01*
G01X8934Y4597D01*
G01X8922Y4552D01*
G01X8918Y4501D01*
G01X8922Y4450D01*
G01X8934Y4404D01*
G01X8955Y4364D01*
G01X8984Y4328D01*
G01X9021Y4299D01*
G01X9063Y4278D01*
G01X9109Y4266D01*
G37*

%LPD*%
G36*
G01X9573Y5151D02*
G01X9472Y5151D01*
G01X9472Y5387D01*
G01X9550Y5387D01*
G01X9602Y5391D01*
G01X9648Y5403D01*
G01X9689Y5421D01*
G01X9723Y5448D01*
G01X9750Y5482D01*
G01X9769Y5521D01*
G01X9780Y5565D01*
G01X9784Y5613D01*
G01X9781Y5659D01*
G01X9772Y5700D01*
G01X9757Y5735D01*
G01X9736Y5766D01*
G01X9709Y5789D01*
G01X9678Y5806D01*
G01X9645Y5816D01*
G01X9609Y5819D01*
G01X9589Y5819D01*
G01X9571Y5817D01*
G01X9553Y5815D01*
G01X9538Y5812D01*
G01X9522Y5805D01*
G01X9508Y5797D01*
G01X9494Y5786D01*
G01X9479Y5773D01*
G01X9467Y5758D01*
G01X9455Y5741D01*
G01X9444Y5722D01*
G01X9434Y5700D01*
G01X9423Y5675D01*
G01X9414Y5647D01*
G01X9405Y5617D01*
G01X9395Y5583D01*
G01X9384Y5536D01*
G01X9372Y5491D01*
G01X9358Y5448D01*
G01X9342Y5408D01*
G01X9326Y5371D01*
G01X9307Y5337D01*
G01X9286Y5305D01*
G01X9263Y5276D01*
G01X9237Y5249D01*
G01X9210Y5227D01*
G01X9178Y5208D01*
G01X9144Y5192D01*
G01X9106Y5179D01*
G01X9066Y5169D01*
G01X9022Y5163D01*
G01X8974Y5161D01*
G01X8727Y5161D01*
G01X8727Y6048D01*
G01X8954Y6048D01*
G01X8954Y5400D01*
G01X8974Y5400D01*
G01X8992Y5401D01*
G01X9010Y5403D01*
G01X9027Y5406D01*
G01X9042Y5410D01*
G01X9057Y5417D01*
G01X9071Y5427D01*
G01X9085Y5439D01*
G01X9098Y5453D01*
G01X9110Y5470D01*
G01X9122Y5490D01*
G01X9133Y5513D01*
G01X9144Y5540D01*
G01X9154Y5568D01*
G01X9164Y5601D01*
G01X9174Y5637D01*
G01X9185Y5677D01*
G01X9245Y5852D01*
G01X9335Y5969D01*
G01X9452Y6036D01*
G01X9599Y6058D01*
G01X9619Y6058D01*
G01X9657Y6056D01*
G01X9694Y6051D01*
G01X9730Y6042D01*
G01X9766Y6030D01*
G01X9801Y6014D01*
G01X9833Y5995D01*
G01X9863Y5972D01*
G01X9891Y5946D01*
G01X9916Y5915D01*
G01X9940Y5881D01*
G01X9961Y5844D01*
G01X9980Y5804D01*
G01X9994Y5760D01*
G01X10004Y5712D01*
G01X10011Y5661D01*
G01X10013Y5606D01*
G01X10010Y5554D01*
G01X10004Y5505D01*
G01X9992Y5458D01*
G01X9977Y5415D01*
G01X9958Y5375D01*
G01X9935Y5338D01*
G01X9910Y5304D01*
G01X9881Y5273D01*
G01X9850Y5245D01*
G01X9817Y5221D01*
G01X9780Y5199D01*
G01X9741Y5182D01*
G01X9700Y5168D01*
G01X9658Y5159D01*
G01X9616Y5153D01*
G01X9573Y5151D01*
G37*

%LPC*%

%LPD*%

%LPD*%
G36*
G01X12159Y3975D02*
G01X10907Y3975D01*
G01X10907Y4201D01*
G01X11397Y4201D01*
G01X11397Y4234D01*
G01X11382Y4242D01*
G01X11367Y4251D01*
G01X11353Y4261D01*
G01X11339Y4272D01*
G01X11325Y4284D01*
G01X11312Y4298D01*
G01X11299Y4312D01*
G01X11288Y4328D01*
G01X11278Y4345D01*
G01X11269Y4364D01*
G01X11261Y4385D01*
G01X11255Y4407D01*
G01X11249Y4430D01*
G01X11245Y4455D01*
G01X11243Y4483D01*
G01X11242Y4514D01*
G01X11244Y4554D01*
G01X11250Y4592D01*
G01X11259Y4630D01*
G01X11273Y4666D01*
G01X11288Y4701D01*
G01X11308Y4733D01*
G01X11331Y4763D01*
G01X11359Y4790D01*
G01X11390Y4814D01*
G01X11424Y4836D01*
G01X11462Y4855D01*
G01X11504Y4872D01*
G01X11547Y4885D01*
G01X11594Y4895D01*
G01X11643Y4900D01*
G01X11697Y4902D01*
G01X11730Y4902D01*
G01X11783Y4900D01*
G01X11832Y4895D01*
G01X11879Y4885D01*
G01X11923Y4872D01*
G01X11963Y4855D01*
G01X12000Y4836D01*
G01X12034Y4813D01*
G01X12065Y4788D01*
G01X12092Y4760D01*
G01X12116Y4730D01*
G01X12137Y4698D01*
G01X12154Y4663D01*
G01X12167Y4627D01*
G01X12177Y4590D01*
G01X12182Y4552D01*
G01X12184Y4514D01*
G01X12182Y4462D01*
G01X12174Y4417D01*
G01X12162Y4375D01*
G01X12144Y4338D01*
G01X12121Y4306D01*
G01X12094Y4278D01*
G01X12064Y4254D01*
G01X12029Y4234D01*
G01X12029Y4201D01*
G01X12159Y4201D01*
G01X12159Y3975D01*
G37*

%LPC*%
G36*
G01X11650Y4205D02*
G01X11702Y4201D01*
G01X11725Y4201D01*
G01X11776Y4205D01*
G01X11824Y4217D01*
G01X11865Y4238D01*
G01X11902Y4267D01*
G01X11931Y4302D01*
G01X11952Y4343D01*
G01X11964Y4388D01*
G01X11968Y4437D01*
G01X11964Y4488D01*
G01X11952Y4534D01*
G01X11931Y4575D01*
G01X11902Y4610D01*
G01X11867Y4639D01*
G01X11826Y4659D01*
G01X11778Y4672D01*
G01X11725Y4676D01*
G01X11702Y4676D01*
G01X11648Y4672D01*
G01X11601Y4659D01*
G01X11560Y4639D01*
G01X11524Y4610D01*
G01X11495Y4575D01*
G01X11474Y4534D01*
G01X11462Y4488D01*
G01X11458Y4437D01*
G01X11462Y4388D01*
G01X11475Y4343D01*
G01X11497Y4302D01*
G01X11527Y4267D01*
G01X11562Y4238D01*
G01X11603Y4217D01*
G01X11650Y4205D01*
G37*

%LPD*%
G36*
G01X11999Y5080D02*
G01X11976Y5080D01*
G01X11976Y5306D01*
G01X12408Y5425D01*
G01X12408Y5458D01*
G01X11494Y5458D01*
G01X11494Y5100D01*
G01X11267Y5100D01*
G01X11267Y6007D01*
G01X11494Y6007D01*
G01X11494Y5695D01*
G01X12527Y5695D01*
G01X12527Y5230D01*
G01X11999Y5080D01*
G37*

%LPC*%

%LPD*%

%LPD*%
G36*
G01X16604Y4036D02*
G01X15352Y4036D01*
G01X15352Y4262D01*
G01X15842Y4262D01*
G01X15842Y4295D01*
G01X15827Y4304D01*
G01X15812Y4313D01*
G01X15798Y4323D01*
G01X15784Y4333D01*
G01X15770Y4345D01*
G01X15757Y4359D01*
G01X15744Y4373D01*
G01X15733Y4389D01*
G01X15723Y4407D01*
G01X15714Y4427D01*
G01X15706Y4447D01*
G01X15700Y4468D01*
G01X15694Y4492D01*
G01X15690Y4517D01*
G01X15688Y4545D01*
G01X15687Y4575D01*
G01X15689Y4616D01*
G01X15694Y4655D01*
G01X15703Y4693D01*
G01X15715Y4729D01*
G01X15732Y4764D01*
G01X15753Y4796D01*
G01X15776Y4824D01*
G01X15804Y4851D01*
G01X15835Y4876D01*
G01X15869Y4899D01*
G01X15907Y4918D01*
G01X15949Y4935D01*
G01X15992Y4948D01*
G01X16039Y4958D01*
G01X16088Y4964D01*
G01X16142Y4966D01*
G01X16175Y4966D01*
G01X16227Y4964D01*
G01X16276Y4958D01*
G01X16323Y4947D01*
G01X16368Y4933D01*
G01X16408Y4916D01*
G01X16445Y4897D01*
G01X16479Y4874D01*
G01X16510Y4849D01*
G01X16537Y4821D01*
G01X16561Y4791D01*
G01X16582Y4759D01*
G01X16599Y4724D01*
G01X16612Y4688D01*
G01X16622Y4651D01*
G01X16627Y4613D01*
G01X16629Y4575D01*
G01X16627Y4523D01*
G01X16619Y4478D01*
G01X16607Y4436D01*
G01X16589Y4399D01*
G01X16566Y4367D01*
G01X16539Y4339D01*
G01X16509Y4315D01*
G01X16474Y4295D01*
G01X16474Y4262D01*
G01X16604Y4262D01*
G01X16604Y4036D01*
G37*

%LPC*%
G36*
G01X16094Y4266D02*
G01X16147Y4262D01*
G01X16170Y4262D01*
G01X16221Y4266D01*
G01X16269Y4278D01*
G01X16310Y4299D01*
G01X16347Y4328D01*
G01X16376Y4364D01*
G01X16397Y4404D01*
G01X16409Y4450D01*
G01X16413Y4501D01*
G01X16409Y4552D01*
G01X16397Y4597D01*
G01X16376Y4638D01*
G01X16347Y4674D01*
G01X16311Y4703D01*
G01X16270Y4723D01*
G01X16222Y4736D01*
G01X16170Y4740D01*
G01X16147Y4740D01*
G01X16093Y4736D01*
G01X16046Y4723D01*
G01X16005Y4703D01*
G01X15969Y4674D01*
G01X15940Y4638D01*
G01X15919Y4597D01*
G01X15907Y4552D01*
G01X15903Y4501D01*
G01X15907Y4450D01*
G01X15919Y4404D01*
G01X15940Y4364D01*
G01X15969Y4328D01*
G01X16006Y4299D01*
G01X16048Y4278D01*
G01X16094Y4266D01*
G37*

%LPD*%
G36*
G01X16482Y5131D02*
G01X16200Y5131D01*
G01X16082Y5138D01*
G01X15979Y5162D01*
G01X15891Y5201D01*
G01X15819Y5255D01*
G01X15761Y5322D01*
G01X15720Y5401D01*
G01X15695Y5493D01*
G01X15687Y5596D01*
G01X15695Y5699D01*
G01X15720Y5790D01*
G01X15761Y5869D01*
G01X15819Y5936D01*
G01X15891Y5990D01*
G01X15979Y6029D01*
G01X16082Y6052D01*
G01X16200Y6060D01*
G01X16482Y6060D01*
G01X16597Y6052D01*
G01X16699Y6029D01*
G01X16788Y5990D01*
G01X16863Y5936D01*
G01X16922Y5869D01*
G01X16964Y5790D01*
G01X16989Y5699D01*
G01X16998Y5596D01*
G01X16989Y5493D01*
G01X16964Y5401D01*
G01X16922Y5322D01*
G01X16863Y5255D01*
G01X16788Y5201D01*
G01X16699Y5162D01*
G01X16597Y5138D01*
G01X16482Y5131D01*
G37*

%LPC*%
G36*
G01X16156Y5370D02*
G01X16187Y5370D01*
G01X16497Y5370D01*
G01X16526Y5370D01*
G01X16554Y5373D01*
G01X16582Y5377D01*
G01X16609Y5382D01*
G01X16633Y5388D01*
G01X16657Y5397D01*
G01X16678Y5407D01*
G01X16698Y5420D01*
G01X16716Y5435D01*
G01X16732Y5452D01*
G01X16746Y5471D01*
G01X16759Y5491D01*
G01X16769Y5514D01*
G01X16776Y5539D01*
G01X16780Y5566D01*
G01X16782Y5596D01*
G01X16780Y5625D01*
G01X16776Y5652D01*
G01X16769Y5677D01*
G01X16759Y5700D01*
G01X16746Y5720D01*
G01X16732Y5739D01*
G01X16716Y5756D01*
G01X16698Y5771D01*
G01X16678Y5783D01*
G01X16657Y5793D01*
G01X16633Y5802D01*
G01X16609Y5809D01*
G01X16582Y5815D01*
G01X16554Y5819D01*
G01X16526Y5821D01*
G01X16497Y5822D01*
G01X16187Y5822D01*
G01X16156Y5821D01*
G01X16126Y5819D01*
G01X16098Y5816D01*
G01X16071Y5812D01*
G01X16046Y5805D01*
G01X16023Y5797D01*
G01X16002Y5786D01*
G01X15982Y5773D01*
G01X15963Y5758D01*
G01X15948Y5741D01*
G01X15934Y5723D01*
G01X15923Y5702D01*
G01X15914Y5679D01*
G01X15908Y5654D01*
G01X15904Y5626D01*
G01X15903Y5596D01*
G01X15904Y5564D01*
G01X15908Y5535D01*
G01X15914Y5509D01*
G01X15923Y5486D01*
G01X15934Y5466D01*
G01X15948Y5448D01*
G01X15963Y5432D01*
G01X15982Y5418D01*
G01X16002Y5405D01*
G01X16023Y5394D01*
G01X16046Y5386D01*
G01X16071Y5380D01*
G01X16098Y5375D01*
G01X16126Y5372D01*
G01X16156Y5370D01*
G37*

%LPD*%
G36*
G01X16372Y5446D02*
G01X16342Y5443D01*
G01X16313Y5446D01*
G01X16285Y5454D01*
G01X16260Y5469D01*
G01X16236Y5489D01*
G01X16215Y5513D01*
G01X16201Y5538D01*
G01X16193Y5566D01*
G01X16190Y5596D01*
G01X16193Y5625D01*
G01X16201Y5653D01*
G01X16215Y5678D01*
G01X16236Y5702D01*
G01X16260Y5721D01*
G01X16285Y5735D01*
G01X16313Y5742D01*
G01X16342Y5745D01*
G01X16372Y5742D01*
G01X16399Y5735D01*
G01X16425Y5721D01*
G01X16449Y5702D01*
G01X16468Y5678D01*
G01X16482Y5653D01*
G01X16489Y5625D01*
G01X16492Y5596D01*
G01X16489Y5566D01*
G01X16482Y5538D01*
G01X16468Y5513D01*
G01X16449Y5489D01*
G01X16425Y5469D01*
G01X16399Y5454D01*
G01X16372Y5446D01*
G37*

%LPC*%

%LPD*%

%LPD*%
G36*
G01X18656Y3914D02*
G01X18440Y3914D01*
G01X18440Y4531D01*
G01X18656Y4531D01*
G01X18656Y4326D01*
G01X18946Y4326D01*
G01X18991Y4328D01*
G01X19032Y4336D01*
G01X19066Y4350D01*
G01X19096Y4369D01*
G01X19118Y4392D01*
G01X19134Y4420D01*
G01X19143Y4452D01*
G01X19147Y4488D01*
G01X19143Y4524D01*
G01X19136Y4554D01*
G01X19122Y4580D01*
G01X19103Y4600D01*
G01X19078Y4617D01*
G01X19051Y4628D01*
G01X19019Y4636D01*
G01X18984Y4638D01*
G01X18959Y4638D01*
G01X18981Y4872D01*
G01X19020Y4872D01*
G01X19170Y4852D01*
G01X19276Y4793D01*
G01X19313Y4749D01*
G01X19339Y4699D01*
G01X19354Y4641D01*
G01X19360Y4577D01*
G01X19357Y4536D01*
G01X19350Y4499D01*
G01X19337Y4464D01*
G01X19319Y4432D01*
G01X19297Y4404D01*
G01X19270Y4381D01*
G01X19239Y4362D01*
G01X19205Y4348D01*
G01X19205Y4315D01*
G01X19334Y4315D01*
G01X19334Y3937D01*
G01X19119Y3937D01*
G01X19119Y4100D01*
G01X18656Y4100D01*
G01X18656Y3914D01*
G37*

%LPC*%

%LPD*%
G36*
G01X18903Y5047D02*
G01X18890Y5047D01*
G01X18837Y5049D01*
G01X18786Y5055D01*
G01X18738Y5065D01*
G01X18692Y5080D01*
G01X18649Y5098D01*
G01X18610Y5120D01*
G01X18574Y5145D01*
G01X18542Y5174D01*
G01X18513Y5206D01*
G01X18488Y5241D01*
G01X18466Y5278D01*
G01X18448Y5319D01*
G01X18433Y5360D01*
G01X18423Y5405D01*
G01X18417Y5452D01*
G01X18415Y5502D01*
G01X18416Y5544D01*
G01X18420Y5584D01*
G01X18426Y5621D01*
G01X18435Y5654D01*
G01X18446Y5686D01*
G01X18458Y5715D01*
G01X18471Y5741D01*
G01X18486Y5766D01*
G01X18502Y5788D01*
G01X18518Y5807D01*
G01X18536Y5826D01*
G01X18555Y5842D01*
G01X18572Y5855D01*
G01X18590Y5867D01*
G01X18608Y5877D01*
G01X18626Y5885D01*
G01X18733Y5692D01*
G01X18713Y5680D01*
G01X18694Y5665D01*
G01X18677Y5647D01*
G01X18661Y5626D01*
G01X18648Y5602D01*
G01X18639Y5572D01*
G01X18633Y5537D01*
G01X18631Y5497D01*
G01X18632Y5475D01*
G01X18634Y5454D01*
G01X18640Y5435D01*
G01X18646Y5415D01*
G01X18653Y5396D01*
G01X18662Y5379D01*
G01X18672Y5362D01*
G01X18684Y5347D01*
G01X18696Y5334D01*
G01X18710Y5321D01*
G01X18724Y5311D01*
G01X18740Y5301D01*
G01X18757Y5293D01*
G01X18775Y5287D01*
G01X18794Y5283D01*
G01X18814Y5281D01*
G01X18814Y5936D01*
G01X18933Y5936D01*
G01X18969Y5934D01*
G01X19005Y5929D01*
G01X19042Y5922D01*
G01X19080Y5911D01*
G01X19117Y5896D01*
G01X19151Y5878D01*
G01X19184Y5857D01*
G01X19215Y5832D01*
G01X19245Y5803D01*
G01X19273Y5771D01*
G01X19297Y5735D01*
G01X19319Y5695D01*
G01X19337Y5652D01*
G01X19350Y5604D01*
G01X19357Y5552D01*
G01X19360Y5497D01*
G01X19358Y5451D01*
G01X19352Y5407D01*
G01X19341Y5363D01*
G01X19327Y5321D01*
G01X19308Y5282D01*
G01X19286Y5245D01*
G01X19260Y5211D01*
G01X19233Y5179D01*
G01X19202Y5150D01*
G01X19167Y5124D01*
G01X19129Y5102D01*
G01X19088Y5083D01*
G01X19045Y5067D01*
G01X19000Y5056D01*
G01X18952Y5049D01*
G01X18903Y5047D01*
G37*

%LPC*%
G36*
G01X19009Y5707D02*
G01X19009Y5286D01*
G01X19036Y5295D01*
G01X19063Y5311D01*
G01X19088Y5330D01*
G01X19111Y5354D01*
G01X19130Y5384D01*
G01X19143Y5418D01*
G01X19151Y5455D01*
G01X19154Y5497D01*
G01X19152Y5538D01*
G01X19144Y5575D01*
G01X19131Y5609D01*
G01X19114Y5639D01*
G01X19091Y5664D01*
G01X19066Y5684D01*
G01X19039Y5698D01*
G01X19009Y5707D01*
G37*

%LPD*%
G36*
G01X18766Y6414D02*
G01X18697Y6205D01*
G01X18674Y6210D01*
G01X18650Y6218D01*
G01X18625Y6228D01*
G01X18600Y6241D01*
G01X18577Y6255D01*
G01X18554Y6272D01*
G01X18532Y6292D01*
G01X18512Y6314D01*
G01X18492Y6340D01*
G01X18474Y6369D01*
G01X18458Y6401D01*
G01X18443Y6436D01*
G01X18431Y6475D01*
G01X18422Y6518D01*
G01X18417Y6564D01*
G01X18415Y6614D01*
G01X18435Y6772D01*
G01X18496Y6888D01*
G01X18588Y6961D01*
G01X18707Y6985D01*
G01X18717Y6985D01*
G01X18775Y6979D01*
G01X18825Y6963D01*
G01X18869Y6936D01*
G01X18905Y6899D01*
G01X18936Y6852D01*
G01X18961Y6800D01*
G01X18978Y6742D01*
G01X18989Y6678D01*
G01X18996Y6622D01*
G01X19003Y6577D01*
G01X19011Y6540D01*
G01X19020Y6513D01*
G01X19031Y6492D01*
G01X19045Y6478D01*
G01X19063Y6469D01*
G01X19083Y6467D01*
G01X19098Y6469D01*
G01X19111Y6474D01*
G01X19123Y6484D01*
G01X19134Y6497D01*
G01X19142Y6513D01*
G01X19149Y6533D01*
G01X19153Y6556D01*
G01X19154Y6584D01*
G01X19152Y6614D01*
G01X19147Y6641D01*
G01X19138Y6664D01*
G01X19126Y6685D01*
G01X19111Y6704D01*
G01X19093Y6719D01*
G01X19073Y6732D01*
G01X19050Y6741D01*
G01X19131Y6947D01*
G01X19151Y6939D01*
G01X19170Y6929D01*
G01X19190Y6918D01*
G01X19210Y6906D01*
G01X19230Y6891D01*
G01X19249Y6874D01*
G01X19266Y6855D01*
G01X19284Y6835D01*
G01X19299Y6812D01*
G01X19314Y6787D01*
G01X19327Y6759D01*
G01X19340Y6728D01*
G01X19348Y6696D01*
G01X19355Y6662D01*
G01X19358Y6624D01*
G01X19360Y6584D01*
G01X19359Y6551D01*
G01X19355Y6519D01*
G01X19350Y6487D01*
G01X19342Y6457D01*
G01X19332Y6427D01*
G01X19320Y6399D01*
G01X19306Y6374D01*
G01X19289Y6350D01*
G01X19270Y6327D01*
G01X19249Y6307D01*
G01X19227Y6289D01*
G01X19202Y6274D01*
G01X19176Y6261D01*
G01X19148Y6251D01*
G01X19118Y6245D01*
G01X19086Y6243D01*
G01X19075Y6243D01*
G01X19014Y6249D01*
G01X18962Y6266D01*
G01X18918Y6295D01*
G01X18882Y6335D01*
G01X18830Y6439D01*
G01X18804Y6574D01*
G01X18801Y6600D01*
G01X18797Y6625D01*
G01X18793Y6647D01*
G01X18788Y6668D01*
G01X18784Y6684D01*
G01X18779Y6700D01*
G01X18773Y6714D01*
G01X18766Y6726D01*
G01X18759Y6735D01*
G01X18752Y6743D01*
G01X18745Y6749D01*
G01X18738Y6754D01*
G01X18729Y6758D01*
G01X18722Y6761D01*
G01X18713Y6764D01*
G01X18705Y6764D01*
G01X18689Y6762D01*
G01X18675Y6756D01*
G01X18660Y6745D01*
G01X18646Y6731D01*
G01X18635Y6712D01*
G01X18627Y6686D01*
G01X18622Y6654D01*
G01X18621Y6614D01*
G01X18623Y6570D01*
G01X18631Y6532D01*
G01X18645Y6500D01*
G01X18664Y6474D01*
G01X18686Y6454D01*
G01X18711Y6436D01*
G01X18737Y6423D01*
G01X18766Y6414D01*
G37*

%LPC*%

%LPD*%

%LPD*%
G36*
G01X26117Y1891D02*
G01X26068Y1889D01*
G01X26025Y1891D01*
G01X25985Y1894D01*
G01X25948Y1901D01*
G01X25913Y1910D01*
G01X25882Y1921D01*
G01X25853Y1932D01*
G01X25826Y1946D01*
G01X25801Y1960D01*
G01X25779Y1976D01*
G01X25760Y1993D01*
G01X25742Y2011D01*
G01X25728Y2029D01*
G01X25714Y2047D01*
G01X25702Y2065D01*
G01X25691Y2082D01*
G01X25682Y2100D01*
G01X25878Y2207D01*
G01X25889Y2187D01*
G01X25903Y2169D01*
G01X25921Y2152D01*
G01X25941Y2136D01*
G01X25966Y2122D01*
G01X25996Y2113D01*
G01X26031Y2107D01*
G01X26071Y2105D01*
G01X26092Y2106D01*
G01X26113Y2109D01*
G01X26134Y2114D01*
G01X26154Y2120D01*
G01X26173Y2128D01*
G01X26190Y2137D01*
G01X26207Y2147D01*
G01X26223Y2159D01*
G01X26236Y2171D01*
G01X26248Y2184D01*
G01X26259Y2199D01*
G01X26269Y2214D01*
G01X26276Y2232D01*
G01X26282Y2249D01*
G01X26285Y2268D01*
G01X26286Y2288D01*
G01X25631Y2288D01*
G01X25631Y2407D01*
G01X25633Y2443D01*
G01X25637Y2480D01*
G01X25645Y2517D01*
G01X25657Y2555D01*
G01X25671Y2591D01*
G01X25690Y2625D01*
G01X25711Y2658D01*
G01X25738Y2689D01*
G01X25766Y2720D01*
G01X25798Y2747D01*
G01X25833Y2772D01*
G01X25872Y2794D01*
G01X25916Y2811D01*
G01X25964Y2824D01*
G01X26015Y2832D01*
G01X26071Y2834D01*
G01X26117Y2832D01*
G01X26161Y2826D01*
G01X26204Y2816D01*
G01X26246Y2801D01*
G01X26286Y2783D01*
G01X26324Y2761D01*
G01X26359Y2736D01*
G01X26391Y2707D01*
G01X26420Y2676D01*
G01X26445Y2642D01*
G01X26468Y2604D01*
G01X26487Y2562D01*
G01X26502Y2520D01*
G01X26514Y2474D01*
G01X26520Y2427D01*
G01X26523Y2377D01*
G01X26523Y2364D01*
G01X26520Y2311D01*
G01X26514Y2260D01*
G01X26502Y2212D01*
G01X26487Y2166D01*
G01X26469Y2123D01*
G01X26448Y2084D01*
G01X26423Y2049D01*
G01X26396Y2016D01*
G01X26364Y1988D01*
G01X26329Y1962D01*
G01X26291Y1941D01*
G01X26251Y1922D01*
G01X26209Y1908D01*
G01X26165Y1898D01*
G01X26117Y1891D01*
G37*

%LPC*%
G36*
G01X25870Y2513D02*
G01X25862Y2484D01*
G01X26284Y2484D01*
G01X26274Y2511D01*
G01X26259Y2537D01*
G01X26238Y2562D01*
G01X26213Y2585D01*
G01X26184Y2605D01*
G01X26151Y2618D01*
G01X26114Y2626D01*
G01X26073Y2628D01*
G01X26031Y2626D01*
G01X25994Y2618D01*
G01X25960Y2606D01*
G01X25931Y2588D01*
G01X25904Y2565D01*
G01X25884Y2541D01*
G01X25870Y2513D01*
G37*

%LPD*%
G36*
G01X23906Y1915D02*
G01X23528Y1915D01*
G01X23528Y2131D01*
G01X23769Y2131D01*
G01X23790Y2134D01*
G01X23805Y2145D01*
G01X23815Y2162D01*
G01X23818Y2186D01*
G01X23818Y2593D01*
G01X23495Y2593D01*
G01X23495Y2809D01*
G01X23818Y2809D01*
G01X23818Y3175D01*
G01X24044Y3175D01*
G01X24044Y2809D01*
G01X24310Y2809D01*
G01X24310Y2593D01*
G01X24044Y2593D01*
G01X24044Y2057D01*
G01X24041Y2028D01*
G01X24034Y2001D01*
G01X24022Y1977D01*
G01X24006Y1955D01*
G01X23985Y1938D01*
G01X23961Y1925D01*
G01X23935Y1917D01*
G01X23906Y1915D01*
G37*

%LPC*%

%LPD*%
G36*
G01X24793Y1915D02*
G01X24531Y1915D01*
G01X24760Y2357D01*
G01X24760Y2390D01*
G01X24544Y2809D01*
G01X24793Y2809D01*
G01X24958Y2481D01*
G01X24991Y2481D01*
G01X25156Y2809D01*
G01X25410Y2809D01*
G01X25192Y2390D01*
G01X25192Y2357D01*
G01X25420Y1915D01*
G01X25159Y1915D01*
G01X24991Y2265D01*
G01X24958Y2265D01*
G01X24793Y1915D01*
G37*

%LPC*%

%LPD*%

%LPD*%
G36*
G01X21849Y4132D02*
G01X21849Y3888D01*
G01X20957Y4145D01*
G01X20957Y4577D01*
G01X21849Y4831D01*
G01X21849Y4587D01*
G01X21064Y4376D01*
G01X21064Y4343D01*
G01X21849Y4132D01*
G37*

%LPC*%

%LPD*%
G36*
G01X21689Y5087D02*
G01X21483Y5087D01*
G01X21483Y5361D01*
G01X21209Y5361D01*
G01X21209Y5565D01*
G01X21483Y5565D01*
G01X21483Y5839D01*
G01X21689Y5839D01*
G01X21689Y5565D01*
G01X21963Y5565D01*
G01X21963Y5361D01*
G01X21689Y5361D01*
G01X21689Y5087D01*
G37*

%LPC*%

%LPD*%
G36*
G01X6224Y2667D02*
G01X7621Y2667D01*
G01X7621Y2413D01*
G01X6224Y2413D01*
G01X6224Y2667D01*
G37*
G36*
G01X4954Y3048D02*
G01X5208Y3048D01*
G01X5208Y2032D01*
G01X4954Y2032D01*
G01X4954Y3048D01*
G37*
G36*
G01X5462Y3429D02*
G01X5716Y3429D01*
G01X5716Y1651D01*
G01X5462Y1651D01*
G01X5462Y3429D01*
G37*
G36*
G01X5970Y3810D02*
G01X6224Y3810D01*
G01X6224Y1270D01*
G01X5970Y1270D01*
G01X5970Y3810D01*
G37*
G36*
G01X0Y12700D02*
G01X5080Y12700D01*
G01X5080Y5080D01*
G01X0Y5080D01*
G01X0Y12700D01*
G37*
M00*
M02*
