G04 ---------------------------- Layer name :BOTTOM SOLDER LAYER*
G04 EasyEDA v5.7.26, Fri, 05 Oct 2018 08:41:05 GMT*
G04 54122b58c75541d9af0cf1b90c5639c7*
G04 Gerber Generator version 0.2*
G04 Scale: 100 percent, Rotated: No, Reflected: No *
G04 Dimensions in millimeters *
G04 leading zeros omitted , absolute positions ,3 integer and 3 decimal *
%FSLAX33Y33*%
%MOMM*%
G90*
G71D02*

%ADD20C,1.981200*%
%ADD27R,1.778000X1.778000*%
%ADD28R,1.803400X1.803400*%
%ADD29C,1.803400*%
%ADD30C,2.108200*%
%ADD31C,1.854200*%
%ADD32R,2.946400X1.727200*%
%ADD33C,1.778000*%
%ADD34C,2.543200*%

%LPD*%
G54D20*
G01X35562Y15237D03*
G01X35562Y12697D03*
G01X35562Y10157D03*
G54D27*
G01X35562Y19048D03*
G54D28*
G01X16510Y29210D03*
G54D29*
G01X13970Y29210D03*
G01X11430Y29210D03*
G01X8890Y29210D03*
G01X8890Y21590D03*
G01X11430Y21590D03*
G01X13970Y21590D03*
G01X16510Y21590D03*
G54D30*
G01X31750Y24130D03*
G01X21590Y24130D03*
G01X8890Y35560D03*
G01X19050Y35560D03*
G01X33022Y26668D03*
G01X22862Y26668D03*
G01X12702Y15238D03*
G01X2542Y15238D03*
G54D27*
G01X2540Y26670D03*
G01X2542Y24127D03*
G01X35560Y26670D03*
G01X35557Y24132D03*
G01X2540Y21590D03*
G01X35560Y21590D03*
G54D31*
G01X25400Y31846D03*
G01X25400Y34386D03*
G54D30*
G01X20322Y21588D03*
G01X30482Y21588D03*
G01X13972Y5078D03*
G01X24132Y5078D03*
G54D32*
G01X13411Y7899D03*
G01X6908Y7899D03*
G01X13411Y12420D03*
G01X6908Y12420D03*
G54D33*
G01X21590Y2540D03*
G01X19050Y2540D03*
G01X16510Y2540D03*
G01X13970Y2540D03*
G01X11430Y2540D03*
G54D27*
G01X8890Y2540D03*
G54D31*
G01X17729Y17780D03*
G01X12750Y17780D03*
G01X29210Y29260D03*
G01X29210Y34239D03*
G01X16459Y33020D03*
G01X11480Y33020D03*
G54D34*
G01X22898Y7699D03*
G01X25398Y17699D03*
G01X27898Y7699D03*
M00*
M02*
